<?xml version="1.0" encoding="UTF-8" standalone="no"?>
<!-- Generator: Adobe Illustrator 19.2.1, SVG Export Plug-In . SVG Version: 6.00 Build 0)  -->

<svg
   xmlns:dc="http://purl.org/dc/elements/1.1/"
   xmlns:cc="http://creativecommons.org/ns#"
   xmlns:rdf="http://www.w3.org/1999/02/22-rdf-syntax-ns#"
   xmlns:svg="http://www.w3.org/2000/svg"
   xmlns="http://www.w3.org/2000/svg"
   xmlns:sodipodi="http://sodipodi.sourceforge.net/DTD/sodipodi-0.dtd"
   xmlns:inkscape="http://www.inkscape.org/namespaces/inkscape"
   version="1.1"
   x="0px"
   y="0px"
   viewBox="0 0 4212 1876"
   style="enable-background:new 0 0 4212 1876;"
   xml:space="preserve"
   id="svg5689"
   sodipodi:docname="qaul-mesh.svg"
   inkscape:version="0.92.4 (5da689c313, 2019-01-14)"><metadata
   id="metadata5695"><rdf:RDF><cc:Work
       rdf:about=""><dc:format>image/svg+xml</dc:format><dc:type
         rdf:resource="http://purl.org/dc/dcmitype/StillImage" /></cc:Work></rdf:RDF></metadata><defs
   id="defs5693">
	
	
	
	
	
	
	
	
	
	
	
	
	
	
	
	
	
	
	
	
	
	
	
	
	
	
	
	
	
	
	
	
	
	
	
	
	
	
	
	
	
	
	
	
	
	
	
	
	
	
	
	
	
	
	
	
	
	
	
	
	
	
	
	
	
	
	
		
	
		
	
	
	
	
	
	
	
	
	
	
	
	
	
	
	
	
	
	
	
	
	
	
	
	
	
	
</defs><sodipodi:namedview
   pagecolor="#ffffff"
   bordercolor="#666666"
   borderopacity="1"
   objecttolerance="10"
   gridtolerance="10"
   guidetolerance="10"
   inkscape:pageopacity="0"
   inkscape:pageshadow="2"
   inkscape:window-width="1360"
   inkscape:window-height="716"
   id="namedview5691"
   showgrid="false"
   inkscape:zoom="0.20607787"
   inkscape:cx="2106"
   inkscape:cy="938"
   inkscape:window-x="0"
   inkscape:window-y="24"
   inkscape:window-maximized="0"
   inkscape:current-layer="svg5689" />
<style
   type="text/css"
   id="style5346">
	.st0{opacity:0.43;}
	.st1{fill:none;stroke:#FFFFFF;stroke-width:38;}
	.st2{fill:none;stroke:#FFFFFF;stroke-width:38;stroke-dasharray:50.1844,25.0922;}
	.st3{fill:none;stroke:#FFFFFF;stroke-width:38;stroke-dasharray:50.9415,25.4707;}
	.st4{fill:none;stroke:#FFFFFF;stroke-width:38;stroke-dasharray:50.073,25.0365;}
	.st5{fill:none;stroke:#FFFFFF;stroke-width:38;stroke-dasharray:50.912,25.456;}
	.st6{fill:none;stroke:#FFFFFF;stroke-width:38;stroke-dasharray:50.854,25.427;}
	.st7{fill:none;stroke:#FFFFFF;stroke-width:38;stroke-dasharray:50.6036,25.3018;}
	.st8{fill:none;}
	.st9{fill:none;stroke:#FFFFFF;stroke-width:38;stroke-dasharray:49.7099,24.8549;}
	.st10{fill:none;stroke:#FFFFFF;stroke-width:38;stroke-dasharray:49.5516,24.7758;}
	.st11{fill:none;stroke:#000000;stroke-width:26;}
	.st12{fill:#FFFFFF;stroke:#000000;stroke-width:26;stroke-miterlimit:10;}
	.st13{fill:none;stroke:#000000;stroke-width:4.7181;}
	.st14{fill:#FFFFFF;stroke:#000000;stroke-width:4.7;stroke-miterlimit:10;}
	.st15{fill:#FFFFFF;stroke:#000000;stroke-width:4.7181;}
	.st16{fill:#FFFFFF;stroke:#000000;stroke-width:4.4675;}
	.st17{fill:none;stroke:#000000;stroke-width:4.4675;}
	.st18{fill:#FFFFFF;stroke:#000000;stroke-width:4.5752;}
	.st19{stroke:#000000;stroke-width:4.5752;}
	.st20{fill:none;stroke:#000000;stroke-width:4.5752;}
	.st21{fill:#FFFFFF;stroke:#000000;stroke-width:4.4867;}
	.st22{stroke:#000000;stroke-width:4.4867;}
	.st23{fill:none;stroke:#000000;stroke-width:4.4867;}
	.st24{fill:#FFFFFF;stroke:#000000;stroke-width:4.774;}
	.st25{stroke:#000000;stroke-width:4.774;}
	.st26{fill:none;stroke:#000000;stroke-width:4.774;}
	.st27{fill:#FFFFFF;stroke:#000000;stroke-width:4.3186;}
	.st28{fill:none;stroke:#000000;stroke-width:4.3186;}
</style>
<g
   style="opacity:0.43000004;stroke:#000000;stroke-opacity:1"
   id="g5360"
   class="st0">
		<g
   id="g5358"
   style="stroke:#000000;stroke-opacity:0.57954544">
			<path
   style="fill:none;stroke:#000000;stroke-width:38;stroke-opacity:0.57954544"
   inkscape:connector-curvature="0"
   id="path5348"
   d="m 664.4,1248.5 c -7.7,-3.6 -15.2,-7.3 -22.4,-11.1"
   class="st1" />
			<path
   style="fill:none;stroke:#000000;stroke-width:38;stroke-dasharray:50.1844, 25.0922;stroke-opacity:0.57954544"
   inkscape:connector-curvature="0"
   id="path5350"
   d="m 620,1225.3 c -95.3,-55.7 -145.3,-124.2 -142.4,-127.9 8.3,-10.5 607,-471.1 962.7,496.3"
   class="st2" />
			<path
   style="fill:none;stroke:#000000;stroke-width:38;stroke-opacity:0.57954544"
   inkscape:connector-curvature="0"
   id="path5352"
   d="m 1444.6,1605.4 c 2.8,7.8 5.6,15.6 8.4,23.6 6.2,-4.6 12.5,-10.1 18.9,-16.4"
   class="st1" />
			<path
   style="fill:none;stroke:#000000;stroke-width:38;stroke-dasharray:50.9415, 25.4707;stroke-opacity:0.57954544"
   inkscape:connector-curvature="0"
   id="path5354"
   d="M 1489.1,1593.9 C 1677.6,1372.7 1962.9,513.9 2576,395.7"
   class="st3" />
			<path
   style="fill:none;stroke:#000000;stroke-width:38;stroke-opacity:0.57954544"
   inkscape:connector-curvature="0"
   id="path5356"
   d="m 2588.6,393.4 c 8.2,-1.4 16.4,-2.7 24.7,-3.9"
   class="st1" />
		</g>
	</g><g
   style="opacity:0.43000004;stroke:#000000;stroke-opacity:0.98295456"
   id="g5370"
   class="st0">
		<g
   id="g5368"
   style="stroke:#000000;stroke-opacity:0.98295456">
			<path
   style="fill:none;stroke:#000000;stroke-width:38;stroke-opacity:0.98295456"
   inkscape:connector-curvature="0"
   id="path5362"
   d="m 3777.1,1125.2 c -7,4.9 -13.7,9.7 -20.3,14.6"
   class="st1" />
			<path
   style="fill:none;stroke:#000000;stroke-width:38;stroke-dasharray:50.073, 25.0365;stroke-opacity:0.98295456"
   inkscape:connector-curvature="0"
   id="path5364"
   d="m 3736.9,1155.1 c -216.6,171.3 -224.5,351.5 -853.7,476.2 -191.8,38 -519,-526 -1169.8,-737.9 C 1033,671.9 379,1021.2 375.7,1007.4 372.3,993.1 1273.6,694 2225,721 c 1078.6,30.6 1591.4,469.7 1600,448.4 9.3,-23.1 -697.9,-465.6 -1384,-212.4 -381,140.6 -1120.8,884.6 -956,653.4 327.5,-459.6 160.9,-952.2 90.3,-1073"
   class="st4" />
			<path
   style="fill:none;stroke:#000000;stroke-width:38;stroke-opacity:0.98295456"
   inkscape:connector-curvature="0"
   id="path5366"
   d="m 1568.6,526.7 c -7.8,-11.8 -13.9,-17.8 -17.2,-17.2"
   class="st1" />
		</g>
	</g><g
   style="opacity:0.43000004;stroke:#000000;stroke-opacity:0.57954544"
   id="g5388"
   class="st0">
		<g
   id="g5386"
   style="stroke:#000000;stroke-opacity:0.57954544">
			<path
   style="fill:none;stroke:#000000;stroke-width:38;stroke-opacity:0.57954544"
   inkscape:connector-curvature="0"
   id="path5372"
   d="m 483.7,1025.4 c -1.8,-5 -1,-13.4 2.2,-24.6"
   class="st1" />
			<path
   style="fill:none;stroke:#000000;stroke-width:38;stroke-dasharray:50.912, 25.45599999999999952;stroke-opacity:0.57954544"
   inkscape:connector-curvature="0"
   id="path5374"
   d="M 494.7,976.9 C 577.9,782.5 1081,145 1509.4,444.8"
   class="st5" />
			<path
   style="fill:none;stroke:#000000;stroke-width:38;stroke-opacity:0.57954544"
   inkscape:connector-curvature="0"
   id="path5376"
   d="m 1519.7,452.2 c 6.6,4.9 13.2,10 19.8,15.3 3.3,-7.7 6.7,-15.3 10.2,-22.8"
   class="st1" />
			<path
   style="fill:none;stroke:#000000;stroke-width:38;stroke-dasharray:50.854, 25.42699999999999960;stroke-opacity:0.57954544"
   inkscape:connector-curvature="0"
   id="path5378"
   d="M 1561,421.9 C 1802.8,-40.5 2553.2,-76.9 2702.2,258.2"
   class="st6" />
			<path
   style="fill:none;stroke:#000000;stroke-width:38;stroke-opacity:0.57954544"
   inkscape:connector-curvature="0"
   id="path5380"
   d="m 2707.1,269.9 c 3,7.7 5.7,15.6 8.1,23.6 7.3,-4.3 14.5,-8.5 21.6,-12.6"
   class="st1" />
			<path
   style="fill:none;stroke:#000000;stroke-width:38;stroke-dasharray:50.6036, 25.30180000000000007;stroke-opacity:0.57954544"
   inkscape:connector-curvature="0"
   id="path5382"
   d="m 2758.9,268.6 c 805.4,-438.7 938.3,606.7 942.4,821.3"
   class="st7" />
			<path
   style="fill:none;stroke:#000000;stroke-width:38;stroke-opacity:0.57954544"
   inkscape:connector-curvature="0"
   id="path5384"
   d="m 3701.4,1102.6 c -0.1,14.5 -1,23.2 -2.4,24.7"
   class="st1" />
		</g>
	</g><g
   id="g5392">
		<path
   style="fill:none"
   inkscape:connector-curvature="0"
   id="path5390"
   d="M 1485.5,1691.2"
   class="st8" />
	</g><g
   id="g5396">
		<path
   style="fill:none"
   inkscape:connector-curvature="0"
   id="path5394"
   d="M 1071.6,1043.4"
   class="st8" />
	</g><g
   style="opacity:0.43000004"
   id="g5406"
   class="st0">
		<g
   id="g5404">
			<path
   style="fill:none;stroke:#ffffff;stroke-width:38"
   inkscape:connector-curvature="0"
   id="path5398"
   d="m 2883.2,1631.3 c -8.4,-0.7 -16.7,-1.5 -24.9,-2.3"
   class="st1" />
			<path
   style="fill:none;stroke:#ffffff;stroke-width:38;stroke-dasharray:49.7099, 24.8549"
   inkscape:connector-curvature="0"
   id="path5400"
   d="m 2833.6,1626.6 c -497.5,-48.3 -783.5,-135 -1312.9,51.9"
   class="st9" />
			<path
   style="fill:none;stroke:#ffffff;stroke-width:38"
   inkscape:connector-curvature="0"
   id="path5402"
   d="m 1509,1682.7 c -7.8,2.8 -15.6,5.6 -23.5,8.5"
   class="st1" />
		</g>
	</g><g
   id="g5410">
		<path
   style="fill:none"
   inkscape:connector-curvature="0"
   id="path5408"
   d="M 3609,1133.4"
   class="st8" />
	</g><g
   style="opacity:0.43000004;stroke:#000000;stroke-opacity:1"
   id="g5420"
   class="st0">
		<g
   id="g5418"
   style="stroke:#000000;stroke-opacity:1">
			<path
   style="fill:none;stroke:#000000;stroke-width:38;stroke-opacity:1"
   inkscape:connector-curvature="0"
   id="path5412"
   d="m 1597,421 c 3.4,-7 7.7,-14.1 12.9,-21.4"
   class="st1" />
			<path
   style="fill:none;stroke:#000000;stroke-width:38;stroke-dasharray:49.5516, 24.77580000000000027;stroke-opacity:1"
   inkscape:connector-curvature="0"
   id="path5414"
   d="M 1625.6,380.4 C 1717.5,279.2 1959.9,173 2129,217 c 261.2,68 586.3,983.8 652.1,1176.6"
   class="st10" />
			<path
   style="fill:none;stroke:#000000;stroke-width:38;stroke-opacity:1"
   inkscape:connector-curvature="0"
   id="path5416"
   d="m 2785.1,1405.3 c 5.2,15.3 7.9,23.7 7.9,23.7"
   class="st1" />
		</g>
	</g><path
   style="fill:none;stroke:#000000;stroke-width:26"
   inkscape:connector-curvature="0"
   id="path5422"
   d="m 613.4,1263.5 c 0,0 121.9,61.2 84.7,77.6 -37.2,16.4 -146.6,-4.6 -146.6,-4.6"
   class="st11" /><path
   style="fill:none;stroke:#000000;stroke-width:26"
   inkscape:connector-curvature="0"
   id="path5424"
   d="m 620.1,1274.4 c 0,0 130.7,93.9 182.4,15.5 35.3,-53.5 178,-12.4 107.6,73.6 -28.6,34.9 -114.8,37.7 -114.8,37.7"
   class="st11" /><g
   id="g5432">
		<polygon
   style="fill:#ffffff;stroke:#000000;stroke-width:26;stroke-miterlimit:10"
   id="polygon5426"
   points="23.9,1352.7 510,1483.8 671.5,1409.4 671.8,1370.8 188.8,1238.7 19.4,1333.2 19.4,1334.1 "
   class="st12" />
		<path
   style="fill:#ffffff;stroke:#000000;stroke-width:26;stroke-miterlimit:10"
   inkscape:connector-curvature="0"
   id="path5428"
   d="m 813.7,1416.9 c -22.7,-31.3 -67.1,-31.3 -96.3,-17.4 -33.7,16.1 -68.7,59.3 -51.3,83 6.1,8.2 37.9,30.8 71.8,15.4 35.2,-15.9 91.9,-58.9 75.8,-81 z"
   class="st12" />
		<path
   style="fill:#ffffff;stroke:#000000;stroke-width:26;stroke-miterlimit:10"
   inkscape:connector-curvature="0"
   id="path5430"
   d="m 252.9,1169.1 208.3,57.7 -0.3,28.9 -27.8,-7.4 -65.2,27.3 192.9,51.2 65.2,-27.3 -87,-23.1 0.2,-27.9 191.9,53.2 h 3.1 l 24.9,-19.9 -4.9,-412 -473.6,-96.7 -33.6,12.6 v 1.6 z"
   class="st12" />
	</g><g
   id="g5442">
		<path
   style="fill:#ffffff;stroke:#000000;stroke-width:26;stroke-miterlimit:10"
   inkscape:connector-curvature="0"
   id="path5434"
   d="m 3301.7,1616.2 -295.3,-89.5 c -18.1,-5.3 -41,-6.7 -59,-4.3 l 8.5,-3.6 1,-3.8 c 8.5,-7.4 13,-18.2 10.3,-36.1 l -52.5,-328.7 c -3.1,-12.7 -3,-16.2 -11.2,-25.3 -8.2,-9.1 -49.9,-0.5 -60.7,3.8 L 2542,1245 c -18.6,6.2 -22.5,32 -19.2,53.8 l 59.7,335.6 c 3.3,21.7 16,27.6 32.2,28.7 l 4.2,-1.8 c 0.3,-0.1 0.7,-0.2 1,-0.3 -4,3.1 -5.1,6.6 -3.4,10.1 -3,35 22.1,39.7 22.1,39.7 l 313.5,97.1 c 26.3,7.4 48.9,1.4 66.6,-6.2 l 290.8,-130.3 c 23.8,-10 15.6,-41.5 15.6,-41.5 -2.6,-5 -10.6,-10 -23.4,-13.7 z"
   class="st12" />
		<path
   style="fill:#ffffff;stroke:#000000;stroke-width:26;stroke-miterlimit:10"
   inkscape:connector-curvature="0"
   id="path5436"
   d="m 4175.5,1236.7 -3.7,-2.3 c -1.7,-1.7 -3.9,-3.4 -6.5,-4.9 L 3719.7,957 c -21.3,-12.8 -66.2,-16.6 -101.1,-8.8 -3,0.5 -5.9,1.1 -8.7,1.8 L 3410,996.4 c -42.6,9.9 -55.3,26.4 -46.7,38.8 0.1,5 3.7,10 11.1,14.4 l 445,286.8 c 21.8,13.1 83.1,17.9 117,9 l 216.8,-59.7 c 23.2,-6.1 35.1,-16.5 33.3,-26.6 3.7,-7.6 0.4,-15.6 -11,-22.4 z"
   class="st12" />
		<path
   style="fill:#ffffff;stroke:#000000;stroke-width:26;stroke-miterlimit:10"
   inkscape:connector-curvature="0"
   id="path5438"
   d="M 1759.1,1510.6 1563,1465.1 c -2.8,-0.7 -5.6,-1.2 -8.6,-1.7 -34.3,-7.7 -78.3,-4 -99.2,8.6 l -437,267.2 c -2.6,1.6 -4.7,3.2 -6.4,4.8 l -3.7,2.2 c -11.1,6.7 -14.4,14.6 -10.6,22 -1.8,9.9 9.9,20 32.7,26.1 l 212.6,58.6 c 33.2,8.8 93.3,4.1 114.7,-8.8 l 436.3,-281.2 c 7.3,-4.4 10.8,-9.3 10.9,-14.1 8.6,-12.3 -3.9,-28.5 -45.6,-38.2 z"
   class="st12" />
		<path
   style="fill:#ffffff;stroke:#000000;stroke-width:26;stroke-miterlimit:10"
   inkscape:connector-curvature="0"
   id="path5440"
   d="m 1871,271.1 c -2.9,-10 -16,-18.5 -37.8,-22.7 l -215.3,-30.6 c -38.4,-7.3 -74.7,1.9 -99,20.5 l -370.7,283.9 c -6.4,4.9 -10.2,9.9 -11.8,14.8 -5.9,12.9 1.4,30.7 2.4,31.6 1.2,1.4 2.6,2.8 4.3,4.2 6.1,6.2 17.1,11.4 32.5,14.3 l 231.2,43.7 c 37.6,7.1 86.9,-1.5 110.2,-19.4 L 1855.1,316 c 5.1,-3.9 8.6,-8 10.4,-12 9.1,-10.3 11.4,-22.8 5.5,-32.9 z"
   class="st12" />
	</g><path
   style="fill:none;stroke:#000000;stroke-width:4.71810007"
   inkscape:connector-curvature="0"
   id="path5444"
   d="m 613.4,1263.5 c 0,0 121.9,61.2 84.7,77.6 -37.2,16.4 -146.6,-4.6 -146.6,-4.6"
   class="st13" /><polygon
   style="fill:#ffffff;stroke:#000000;stroke-width:4.69999981;stroke-miterlimit:10"
   id="polygon5446"
   points="433.1,1248.3 626,1299.5 560.8,1326.8 367.9,1275.6 "
   class="st14" /><polygon
   style="fill:#ffffff;stroke:#000000;stroke-width:4.71810007"
   id="polygon5448"
   points="461.6,1177.4 523.3,1193.6 522.4,1295.5 460.7,1279.3 "
   class="st15" /><polygon
   style="fill:#ffffff;stroke:#000000;stroke-width:4.71810007"
   id="polygon5450"
   points="527.4,1193.7 539.8,1186.1 538.9,1286.6 526.5,1294.3 "
   class="st15" /><polygon
   style="fill:#ffffff;stroke:#000000;stroke-width:4.71810007"
   id="polygon5452"
   points="19.4,1334.1 671.8,1370.8 671.5,1409.4 510,1483.8 23.9,1352.7 "
   class="st15" /><polygon
   style="fill:#ffffff;stroke:#000000;stroke-width:4.71810007"
   id="polygon5454"
   points="188.8,1238.7 673.4,1369.8 503.9,1464.2 19.4,1333.2 "
   class="st15" /><polygon
   style="fill:#ffffff;stroke:#000000;stroke-width:4.71810007"
   id="polygon5456"
   points="332.8,1398.7 446.3,1331.7 180.9,1261.3 58.1,1326.7 "
   class="st15" /><polygon
   style="fill:#ffffff;stroke:#000000;stroke-width:4.71810007"
   id="polygon5458"
   points="509.4,1443.1 616.7,1379.1 518.8,1355.5 412.1,1420.6 "
   class="st15" /><line
   style="fill:none;stroke:#000000;stroke-width:4.71810007"
   id="line5460"
   y2="1381.9"
   x2="353.10001"
   y1="1311.5"
   x1="83"
   class="st13" /><line
   style="fill:none;stroke:#000000;stroke-width:4.71810007"
   id="line5462"
   y2="1365.1"
   x2="385.70001"
   y1="1293.2"
   x1="115.7"
   class="st13" /><line
   style="fill:none;stroke:#000000;stroke-width:4.71810007"
   id="line5464"
   y2="1348.4"
   x2="416.79999"
   y1="1276.5"
   x1="152.89999"
   class="st13" /><line
   style="fill:none;stroke:#000000;stroke-width:4.71810007"
   id="line5466"
   y2="1270.8"
   x2="213.3"
   y1="1334.7"
   x1="92.099998"
   class="st13" /><line
   style="fill:none;stroke:#000000;stroke-width:4.71810007"
   id="line5468"
   y2="1278.8"
   x2="244.2"
   y1="1327.5"
   x1="150.89999"
   class="st13" /><line
   style="fill:none;stroke:#000000;stroke-width:4.71810007"
   id="line5470"
   y2="1286.9"
   x2="279.70001"
   y1="1335.6"
   x1="191.10001"
   class="st13" /><line
   style="fill:none;stroke:#000000;stroke-width:4.71810007"
   id="line5472"
   y2="1296.4"
   x2="312.10001"
   y1="1346.8"
   x1="229.7"
   class="st13" /><line
   style="fill:none;stroke:#000000;stroke-width:4.71810007"
   id="line5474"
   y2="1304.4"
   x2="339.79999"
   y1="1354.8"
   x1="260.5"
   class="st13" /><line
   style="fill:none;stroke:#000000;stroke-width:4.71810007"
   id="line5476"
   y2="1314"
   x2="373.79999"
   y1="1364.3"
   x1="292.89999"
   class="st13" /><line
   style="fill:none;stroke:#000000;stroke-width:4.71810007"
   id="line5478"
   y2="1323.6"
   x2="406.20001"
   y1="1386.1"
   x1="302"
   class="st13" /><line
   style="fill:none;stroke:#000000;stroke-width:4.71810007"
   id="line5480"
   y2="1363.5"
   x2="548.09998"
   y1="1424.4"
   x1="445.5"
   class="st13" /><line
   style="fill:none;stroke:#000000;stroke-width:4.71810007"
   id="line5482"
   y2="1371.5"
   x2="582.09998"
   y1="1432.5"
   x1="481"
   class="st13" /><line
   style="fill:none;stroke:#000000;stroke-width:4.71810007"
   id="line5484"
   y2="1393.3"
   x2="592.70001"
   y1="1370.8"
   x1="498.60001"
   class="st13" /><line
   style="fill:none;stroke:#000000;stroke-width:4.71810007"
   id="line5486"
   y2="1408.5"
   x2="564.79999"
   y1="1386"
   x1="473.70001"
   class="st13" /><line
   style="fill:none;stroke:#000000;stroke-width:4.71810007"
   id="line5488"
   y2="1423.7"
   x2="536.79999"
   y1="1401.3"
   x1="447.29999"
   class="st13" /><path
   style="fill:#ffffff;stroke:#000000;stroke-width:4.71810007"
   inkscape:connector-curvature="0"
   id="path5490"
   d="m 813.7,1416.9 c 16,22.1 -40.6,65.1 -75.7,81 -34,15.4 -65.8,-7.1 -71.8,-15.4 -17.5,-23.8 17.5,-67 51.3,-83 29.1,-14 73.5,-14 96.2,17.4 z"
   class="st15" /><path
   style="fill:#ffffff;stroke:#000000;stroke-width:4.71810007"
   inkscape:connector-curvature="0"
   id="path5492"
   d="m 714.8,1402.1 c 17,-2.9 75.9,-14.8 83.1,53.3"
   class="st15" /><path
   style="fill:none;stroke:#000000;stroke-width:4.71810007"
   inkscape:connector-curvature="0"
   id="path5494"
   d="m 620.1,1274.4 c 0,0 130.7,93.9 182.4,15.5 35.3,-53.5 178,-12.4 107.6,73.6 -28.6,34.9 -114.8,37.7 -114.8,37.7 0,0 -12.2,-14 -34,2.8"
   class="st13" /><polygon
   style="fill:#ffffff;stroke:#000000;stroke-width:4.71810007"
   id="polygon5496"
   points="247.2,785.8 280.8,773.2 754.3,869.8 759.2,1281.8 734.3,1301.7 "
   class="st15" /><polygon
   style="fill:#ffffff;stroke:#000000;stroke-width:4.71810007"
   id="polygon5498"
   points="247.2,787.3 727.5,883.1 731.2,1301.7 252.9,1169.1 "
   class="st15" /><polygon
   style="fill:none;stroke:#000000;stroke-width:4.71810007"
   id="polygon5500"
   points="268.6,815.4 705.7,906.1 708.4,1252 276.4,1136.8 "
   class="st13" /><path
   style="fill:#ffffff;stroke:#000000;stroke-width:4.46750021"
   inkscape:connector-curvature="0"
   id="path5502"
   d="m 2617,1666.6 c -5.6,39 21.6,44.2 21.6,44.2 l 313.5,97.1 c 26.3,7.4 48.9,1.4 66.6,-6.2 l 290.8,-130.3 c 17.6,-7.6 14.1,-15.8 17.8,-41.7"
   class="st16" /><path
   style="fill:#ffffff;stroke:#000000;stroke-width:4.46750021"
   inkscape:connector-curvature="0"
   id="path5504"
   d="m 2928.5,1527.1 -302.8,130.6 c -17.6,7.6 -11.3,19.7 14.1,27.1 l 295.3,89.5 c 25.4,7.4 60.3,7.2 77.9,-0.4 l 302.8,-130.7 c 17.6,-7.6 11.3,-19.7 -14.1,-27.1 l -295.3,-89.5 c -25.4,-7.3 -60.3,-7.1 -77.9,0.5 z m 244.8,149.4 c 12.2,3.5 15.2,9.4 6.8,13 l -48.5,20.9 c -8.5,3.7 -25.2,3.7 -37.4,0.2 l -57.6,-16.7 c -12.2,-3.5 -15.2,-9.4 -6.8,-13 l 48.5,-20.9 c 8.5,-3.7 25.2,-3.7 37.4,-0.2 z m -5.6,-75.9 -289.8,125 -187,-54.3 289.9,-125 z"
   class="st16" /><line
   style="fill:none;stroke:#000000;stroke-width:4.46750021"
   id="line5506"
   y2="1590.2"
   x2="3127.3"
   y1="1714.5"
   x1="2839.3999"
   class="st17" /><line
   style="fill:none;stroke:#000000;stroke-width:4.46750021"
   id="line5508"
   y2="1578.7"
   x2="3089.7"
   y1="1703.3"
   x1="2800.8"
   class="st17" /><line
   style="fill:none;stroke:#000000;stroke-width:4.46750021"
   id="line5510"
   y2="1568.3"
   x2="3054"
   y1="1693.3"
   x1="2764.1001"
   class="st17" /><line
   style="fill:none;stroke:#000000;stroke-width:4.46750021"
   id="line5512"
   y2="1556.7"
   x2="3016.3999"
   y1="1682.2"
   x1="2725.6001"
   class="st17" /><line
   style="fill:none;stroke:#000000;stroke-width:4.46750021"
   id="line5514"
   y2="1660.7"
   x2="2713.3"
   y1="1715.3"
   x1="2901.7"
   class="st17" /><line
   style="fill:none;stroke:#000000;stroke-width:4.46750021"
   id="line5516"
   y2="1649.1"
   x2="2740.2"
   y1="1703.7"
   x1="2928.6001"
   class="st17" /><line
   style="fill:none;stroke:#000000;stroke-width:4.46750021"
   id="line5518"
   y2="1657.8"
   x2="2970.7"
   y1="1614.3"
   x1="2820.8"
   class="st17" /><line
   style="fill:none;stroke:#000000;stroke-width:4.46750021"
   id="line5520"
   y2="1645.4"
   x2="2994.7"
   y1="1602.7"
   x1="2847.6001"
   class="st17" /><line
   style="fill:none;stroke:#000000;stroke-width:4.46750021"
   id="line5522"
   y2="1681"
   x2="2916.8999"
   y1="1637.5"
   x1="2767"
   class="st17" /><line
   style="fill:none;stroke:#000000;stroke-width:4.46750021"
   id="line5524"
   y2="1668.6"
   x2="2941.1001"
   y1="1625.9"
   x1="2793.8999"
   class="st17" /><line
   style="fill:none;stroke:#000000;stroke-width:4.46750021"
   id="line5526"
   y2="1634.2"
   x2="3023"
   y1="1591.2"
   x1="2874.5"
   class="st17" /><line
   style="fill:none;stroke:#000000;stroke-width:4.46750021"
   id="line5528"
   y2="1622.2"
   x2="3048.5"
   y1="1579.6"
   x1="2901.3"
   class="st17" /><line
   style="fill:none;stroke:#000000;stroke-width:4.46750021"
   id="line5530"
   y2="1568"
   x2="2928.2"
   y1="1622.6"
   x1="3116.6001"
   class="st17" /><line
   style="fill:none;stroke:#000000;stroke-width:4.46750021"
   id="line5532"
   y2="1556.4"
   x2="2955.1001"
   y1="1611"
   x1="3143.3999"
   class="st17" /><path
   style="fill:#ffffff;stroke:#000000;stroke-width:4.46750021"
   inkscape:connector-curvature="0"
   id="path5534"
   d="m 2964.2,1487.4 -8.3,31.4 -341.1,144.3 c -16.2,-1.1 -29,-7 -32.2,-28.7 l -59.7,-335.6 c -3.3,-21.7 0.6,-47.6 19.2,-53.8 l 300.7,-116.2 c 10.8,-4.3 44.1,-7.8 60.7,-3.8"
   class="st16" /><path
   style="fill:#ffffff;stroke:#000000;stroke-width:4.46750021"
   inkscape:connector-curvature="0"
   id="path5536"
   d="m 2886,1128 -332.9,124 c -12.1,7.3 -21.3,26.8 -18,48.4 l 59.7,333.4 c 3.3,21.6 15.7,33.1 27.8,25.8 L 2951.2,1519 c 12.1,-7.3 19.2,-18.6 16,-40.2 l -52.5,-328.7 c -6,-23.7 -11,-27.5 -28.7,-22.1 z m 64.1,346.8 c 2.8,18.4 1.1,25.6 -10.7,30.9 L 2630,1635.6 c -12.4,7.6 -21.4,6.1 -24.2,-12.4 l -53.9,-315 c -2.8,-18.5 5,-39.5 17.4,-47.1 L 2878.9,1147 c 12.4,-7.6 18.1,-0.1 21.9,25 z"
   class="st16" /><path
   style="fill:#ffffff;stroke:#000000;stroke-width:4.57520008"
   inkscape:connector-curvature="0"
   id="path5538"
   d="m 3936.2,1345.4 c -33.9,9 -95.1,4.1 -117,-9 l -445,-286.8 c -21.6,-13 -10.7,-30.4 24.5,-38.8 l 227.5,-46 c 35.2,-8.4 81.3,-4.7 102.9,8.4 l 445.6,272.4 c 21.8,13.1 12,31 -21.9,40 z"
   class="st18" /><path
   style="fill:#ffffff;stroke:#000000;stroke-width:4.57520008"
   inkscape:connector-curvature="0"
   id="path5540"
   d="m 3932.1,1337.2 c -35.7,9.5 -89.3,4.4 -112.4,-9.4 l -448.5,-285.6 c -20.6,-12.3 -12.5,-33.8 38.8,-45.7 l 199.9,-46.4 c 37.1,-8.9 89.9,-4 112.8,9.8 l 452.9,276.9 c 23.1,13.9 12.9,32.8 -22.9,42.2 z"
   class="st18" /><path
   style="fill:#ffffff;stroke:#000000;stroke-width:4.57520008"
   inkscape:connector-curvature="0"
   id="path5542"
   d="m 3933.9,1324.8 c -33.9,9 -84.9,4.2 -106.7,-8.9 L 3386.6,1035 c -21.6,-13 -10.7,-30.4 24.5,-38.8 l 205.6,-47.5 c 35.2,-8.4 81.3,-4.7 102.9,8.4 l 445.6,272.4 c 21.8,13.1 12,31 -21.9,40 z"
   class="st18" /><path
   style="fill:#ffffff;stroke:#000000;stroke-width:4.57520008"
   inkscape:connector-curvature="0"
   id="path5544"
   d="m 3564.4,974.6 c 0.9,0.5 0.4,1.3 -1,1.6 l -54.1,12.9 c -1.5,0.3 -3.4,0.2 -4.3,-0.3 v 0 c -0.9,-0.5 -0.4,-1.3 1,-1.6 l 54.1,-12.9 c 1.5,-0.4 3.4,-0.2 4.3,0.3 z"
   class="st18" /><path
   style="fill:#ffffff;stroke:#000000;stroke-width:4.57520008"
   inkscape:connector-curvature="0"
   id="path5546"
   d="m 3494.8,991.9 c 2.2,1.3 1.1,3.1 -2.5,4 -3.6,0.9 -8.4,0.5 -10.7,-0.9 -2.2,-1.3 -1.1,-3.1 2.5,-4 3.7,-0.8 8.5,-0.4 10.7,0.9 z"
   class="st18" /><path
   style="fill:#ffffff;stroke:#000000;stroke-width:4.57520008"
   inkscape:connector-curvature="0"
   id="path5548"
   d="m 3580.8,969.4 c 0.9,0.5 0.1,1.3 -1.7,1.8 -1.8,0.4 -4,0.3 -4.9,-0.2 -0.9,-0.5 -0.1,-1.3 1.7,-1.8 1.8,-0.4 4,-0.3 4.9,0.2 z"
   class="st18" /><polygon
   style="fill:#ffffff;stroke:#000000;stroke-width:4.57520008"
   id="polygon5550"
   points="3402.6,1035.1 3714.6,962.1 4130.8,1216.9 3818.9,1299.4 "
   class="st18" /><ellipse
   style="fill:#ffffff;stroke:#000000;stroke-width:4.57522488"
   id="ellipse5552"
   ry="37.100201"
   rx="13.600075"
   cy="4011.7595"
   cx="-1262.2216"
   class="st18"
   transform="rotate(-89.810711)" /><ellipse
   style="fill:#ffffff;stroke:#000000;stroke-width:4.57522535"
   id="ellipse5554"
   ry="33.200184"
   rx="11.800065"
   cy="4011.6113"
   cx="-1262.1229"
   class="st18"
   transform="rotate(-89.809451)" /><g
   id="g5560">
		<path
   style="fill:#ffffff;stroke:#000000;stroke-width:4.57520008"
   inkscape:connector-curvature="0"
   id="path5556"
   d="m 4058.9,1299.2 -30.2,7.7 c -0.3,0.1 -0.6,0.2 -0.9,0.3 l 27.6,-7 c 3.1,-0.8 5.7,0.3 5.8,2.5 0.1,2.2 -2.3,4.6 -5.4,5.3 l -30.1,7.6 c -0.2,0 -0.3,0.1 -0.5,0.1 1,0.4 2.3,0.5 3.7,0.2 l 30.2,-7.7 c 3.1,-0.8 5.6,-3.5 5.6,-6 -0.1,-2.5 -2.6,-3.8 -5.8,-3 z"
   class="st18" />
		<path
   style="stroke:#000000;stroke-width:4.57520008"
   inkscape:connector-curvature="0"
   id="path5558"
   d="m 4055.8,1308 c 3.1,-0.8 5.5,-3.2 5.4,-5.3 -0.1,-2.2 -2.7,-3.3 -5.8,-2.5 l -27.6,7 c -2.7,1 -4.7,3.4 -4.7,5.7 0,1.4 0.8,2.4 2.1,2.9 0.2,0 0.3,0 0.5,-0.1 z"
   class="st19" />
	</g><path
   style="fill:none;stroke:#000000;stroke-width:4.57520008"
   inkscape:connector-curvature="0"
   id="path5562"
   d="m 4064.7,1302.2 c 0.1,2.5 -2.4,5.2 -5.6,6 l -30.2,7.7 c -3.1,0.8 -5.7,-0.6 -5.8,-3.1 v 0 c -0.1,-2.5 2.4,-5.2 5.6,-6 l 30.2,-7.7 c 3.2,-0.7 5.7,0.6 5.8,3.1 z"
   class="st20" /><path
   style="fill:#ffffff;stroke:#000000;stroke-width:4.48670006"
   inkscape:connector-curvature="0"
   id="path5564"
   d="m 1242.9,1852.8 c 33.2,8.8 93.3,4.1 114.7,-8.8 l 436.3,-281.2 c 21.2,-12.8 10.5,-29.8 -24.1,-38 l -223.1,-45.1 c -34.5,-8.2 -79.7,-4.6 -100.9,8.2 l -437,267.2 c -21.4,12.8 -11.8,30.4 21.4,39.2 z"
   class="st21" /><path
   style="fill:#ffffff;stroke:#000000;stroke-width:4.48670006"
   inkscape:connector-curvature="0"
   id="path5566"
   d="m 1247,1844.8 c 35,9.3 87.6,4.3 110.2,-9.2 l 439.9,-280.1 c 20.2,-12.1 12.3,-33.1 -38,-44.8 L 1563,1465.2 c -36.4,-8.7 -88.2,-3.9 -110.7,9.6 l -444.1,271.5 c -22.7,13.6 -12.6,32.1 22.4,41.4 z"
   class="st21" /><path
   style="fill:#ffffff;stroke:#000000;stroke-width:4.48670006"
   inkscape:connector-curvature="0"
   id="path5568"
   d="m 1245.1,1832.6 c 33.2,8.8 83.3,4.1 104.7,-8.7 l 432.1,-275.5 c 21.2,-12.8 10.5,-29.8 -24.1,-38 l -201.6,-46.6 c -34.5,-8.2 -79.7,-4.6 -100.9,8.2 l -437,267.2 c -21.4,12.8 -11.8,30.4 21.4,39.2 z"
   class="st21" /><g
   id="g5574">
		<path
   style="fill:#ffffff;stroke:#000000;stroke-width:4.48670006"
   inkscape:connector-curvature="0"
   id="path5570"
   d="m 1122.6,1807.4 29.7,7.6 c 0.3,0.1 0.6,0.2 0.9,0.3 l -27,-6.8 c -3.1,-0.8 -5.6,0.3 -5.7,2.4 -0.1,2.1 2.3,4.5 5.3,5.2 l 29.5,7.4 c 0.2,0 0.3,0.1 0.5,0.1 -1,0.4 -2.2,0.5 -3.6,0.2 l -29.7,-7.6 c -3.1,-0.8 -5.5,-3.4 -5.5,-5.8 0,-2.4 2.5,-3.8 5.6,-3 z"
   class="st21" />
		<path
   style="stroke:#000000;stroke-width:4.48670006"
   inkscape:connector-curvature="0"
   id="path5572"
   d="m 1125.7,1816.1 c -3.1,-0.8 -5.4,-3.1 -5.3,-5.2 0.1,-2.1 2.7,-3.2 5.7,-2.4 l 27,6.8 c 2.6,1 4.6,3.3 4.6,5.5 0,1.3 -0.8,2.3 -2,2.8 -0.2,0 -0.3,0 -0.5,-0.1 z"
   class="st22" />
	</g><path
   style="fill:none;stroke:#000000;stroke-width:4.48670006"
   inkscape:connector-curvature="0"
   id="path5576"
   d="m 1116.9,1810.4 c -0.1,2.4 2.4,5.1 5.5,5.8 l 29.7,7.6 c 3.1,0.8 5.6,-0.6 5.7,-3 v 0 c 0.1,-2.4 -2.4,-5.1 -5.5,-5.8 l -29.7,-7.6 c -3.1,-0.8 -5.6,0.6 -5.7,3 z"
   class="st23" /><path
   style="fill:#ffffff;stroke:#000000;stroke-width:4.48670006"
   inkscape:connector-curvature="0"
   id="path5578"
   d="m 1739.6,1515.7 -90.9,-20.6 c -4.1,2.5 -9.5,4.8 -15.6,6.3 -15.1,3.8 -29,1.8 -31,-4.4 -1.1,-3.4 1.6,-7.4 6.8,-10.9 l -56.5,-12.8 c -34,-8.1 -78.4,-4.5 -99.3,8.1 l -423.5,256.2 c -21.1,12.6 -11.6,26.5 21.1,35.2 l 184.8,49.6 c 32.7,8.7 90.1,6.5 111.2,-6.1 l 416.5,-266.4 c 27.3,-17.9 19.5,-26.5 -23.6,-34.2 z"
   class="st21" /><path
   style="fill:#ffffff;stroke:#000000;stroke-width:4.48670006"
   inkscape:connector-curvature="0"
   id="path5580"
   d="m 1631.3,1490.7 c 0.2,1.6 -2.7,3.1 -6.6,3.4 -3.9,0.3 -7.2,-0.7 -7.4,-2.2 -0.2,-1.5 2.7,-3.1 6.6,-3.4 3.9,-0.4 7.2,0.6 7.4,2.2 z"
   class="st21" /><path
   style="fill:#ffffff;stroke:#000000;stroke-width:4.77400017"
   inkscape:connector-curvature="0"
   id="path5582"
   d="m 1406.8,630.8 c 37.6,7.1 86.9,-1.5 110.2,-19.4 L 1855.1,316 c 23.3,-17.8 11.7,-38.1 -25.9,-45.2 L 1619,241.3 c -37.6,-7.1 -72.4,1.6 -95.6,19.4 l -373.7,281.2 c -23.3,17.8 -11.7,38.1 25.9,45.2 z"
   class="st24" /><path
   style="fill:#ffffff;stroke:#000000;stroke-width:4.77400017"
   inkscape:connector-curvature="0"
   id="path5584"
   d="m 1404.1,628.6 c 38.4,7.3 89.3,-1.8 113.5,-20.4 L 1858.1,311 c 24.3,-18.6 22.9,-49.3 -15.6,-56.6 l -225.4,-20.9 c -38.4,-7.3 -74.7,1.9 -99,20.5 l -374.6,274.7 c -17.1,11.4 -6,38.9 -4.7,40 5.8,7.1 17.4,12.9 34.3,16.1 z"
   class="st24" /><path
   style="fill:#ffffff;stroke:#000000;stroke-width:4.77400017"
   inkscape:connector-curvature="0"
   id="path5586"
   d="m 1782.1,372.5 c 0.2,2.1 1.7,2.5 3.5,1 l 34.7,-30.5 c 1.7,-1.5 3,-4.4 2.8,-6.5 v 0 c -0.2,-2.1 -1.7,-2.5 -3.5,-1 l -34.7,30.5 c -1.8,1.5 -3,4.4 -2.8,6.5 z"
   class="st24" /><path
   style="fill:#ffffff;stroke:#000000;stroke-width:4.77400017"
   inkscape:connector-curvature="0"
   id="path5588"
   d="m 1727,420.3 c 0.2,2.1 1.7,2.5 3.5,1 l 34.7,-30.5 c 1.7,-1.5 3,-4.4 2.8,-6.5 v 0 c -0.2,-2.1 -1.7,-2.5 -3.5,-1 l -34.7,30.5 c -1.7,1.5 -2.9,4.5 -2.8,6.5 z"
   class="st24" /><path
   style="fill:#ffffff;stroke:#000000;stroke-width:4.77400017"
   inkscape:connector-curvature="0"
   id="path5590"
   d="m 1183,579.9 c 0.8,3.6 3.8,6.2 6.7,5.9 2.9,-0.3 4.6,-3.5 3.8,-7.1 -0.8,-3.6 -3.8,-6.2 -6.7,-5.9 -2.9,0.4 -4.6,3.5 -3.8,7.1 z"
   class="st24" /><g
   id="g5596">
		<path
   style="fill:#ffffff;stroke:#000000;stroke-width:4.77400017"
   inkscape:connector-curvature="0"
   id="path5592"
   d="m 1186.3,572.9 c -1,1.3 -1.5,3.3 -1,5.5 0.8,3.6 3.8,6.2 6.7,5.9 0.1,0 0.2,-0.1 0.3,-0.1 -0.7,0.9 -1.7,1.5 -2.8,1.6 -2.9,0.3 -5.9,-2.3 -6.7,-5.9 -0.8,-3.4 0.8,-6.5 3.5,-7 z"
   class="st24" />
		<path
   style="stroke:#000000;stroke-width:4.77400017"
   inkscape:connector-curvature="0"
   id="path5594"
   d="m 1185.3,578.4 c -0.5,-2.2 0,-4.2 1,-5.5 0.1,0 0.2,-0.1 0.3,-0.1 2.9,-0.3 5.9,2.3 6.7,5.9 0.5,2.2 0,4.2 -1,5.5 -0.1,0 -0.2,0.1 -0.3,0.1 -2.9,0.3 -5.9,-2.3 -6.7,-5.9 z"
   class="st25" />
	</g><path
   style="fill:#ffffff;stroke:#000000;stroke-width:4.77400017"
   inkscape:connector-curvature="0"
   id="path5598"
   d="m 1319.1,604.1 c 0.2,2.1 -1.2,3.6 -3,3.2 l -37,-6.9 c -1.8,-0.3 -3.5,-2.3 -3.7,-4.5 v 0 c -0.2,-2.1 1.2,-3.6 3,-3.2 l 37,6.9 c 1.9,0.4 3.5,2.4 3.7,4.5 z"
   class="st24" /><path
   style="fill:#ffffff;stroke:#000000;stroke-width:4.77400017"
   inkscape:connector-curvature="0"
   id="path5600"
   d="m 1405,612.9 c 38.4,7.3 89.3,-1.9 113.5,-20.4 L 1859,295.3 c 24.3,-18.6 12.8,-39.6 -25.7,-46.8 L 1618,217.9 c -38.4,-7.3 -74.7,1.9 -99,20.5 l -370.7,283.9 c -24.3,18.6 -12.7,39.6 25.7,46.9 z"
   class="st24" /><path
   style="fill:#ffffff;stroke:#000000;stroke-width:4.77400017"
   inkscape:connector-curvature="0"
   id="path5602"
   d="m 1405.4,610.2 c 37.6,7.1 86.9,-1.5 110.2,-19.4 l 338.1,-295.4 c 34.1,-26.1 -0.1,-40.3 -25.9,-45.2 l -210.2,-29.7 c -37.6,-7.1 -72.4,1.6 -95.6,19.4 L 1153.7,522 c -23.3,17.8 -11.7,38.1 25.9,45.2 z"
   class="st24" /><path
   style="fill:#ffffff;stroke:#000000;stroke-width:4.77400017"
   inkscape:connector-curvature="0"
   id="path5604"
   d="m 1611.3,232.9 c -2.4,1.8 -1.2,3.9 2.5,4.6 3.8,0.7 8.8,-0.2 11.1,-2 2.4,-1.8 1.2,-3.9 -2.5,-4.6 -3.7,-0.7 -8.7,0.2 -11.1,2 z"
   class="st24" /><path
   style="fill:#ffffff;stroke:#000000;stroke-width:4.77400017"
   inkscape:connector-curvature="0"
   id="path5606"
   d="m 1754.9,257.7 c -1.4,1.1 -0.3,2.4 2.5,2.9 2.8,0.5 6.3,0.1 7.7,-1 1.4,-1.1 0.3,-2.4 -2.5,-2.9 -2.8,-0.5 -6.3,-0.1 -7.7,1 z"
   class="st24" /><polygon
   style="fill:#ffffff;stroke:#000000;stroke-width:4.77400017"
   id="polygon5608"
   points="1836.7,296.7 1529.5,245.9 1170.5,520.9 1507.9,584.9 "
   class="st24" /><path
   style="fill:#ffffff;stroke:#000000;stroke-width:4.77400017"
   inkscape:connector-curvature="0"
   id="path5610"
   d="m 1272.6,560.2 c -4.6,3.5 -2.8,7.5 4.1,8.8 l 66.7,12.7 c 6.9,1.3 16.1,-0.5 20.8,-4 l 2.6,-2 c 4.6,-3.5 2.8,-7.5 -4.1,-8.8 L 1296,554.2 c -6.9,-1.3 -16.1,0.5 -20.8,4 z"
   class="st24" /><path
   style="fill:#ffffff;stroke:#000000;stroke-width:4.77400017"
   inkscape:connector-curvature="0"
   id="path5612"
   d="m 1207,541.8 7,1.3 1.3,-1 9.4,3.7 -13.5,-0.6 1.6,-1.2 -7,-1.3 c -2.7,-0.5 -6.3,0.1 -8,1.4 -1.7,1.3 -0.9,2.8 1.8,3.3 l 12.5,2.4 -1.3,1 -12.5,-2.4 c -3.8,-0.7 -4.9,-2.8 -2.6,-4.6 2.5,-1.8 7.5,-2.7 11.3,-2 z"
   class="st24" /><polygon
   style="fill:#ffffff;stroke:#000000;stroke-width:4.77400017"
   id="polygon5614"
   points="1427,583.7 1456.8,589.4 1444.9,598.6 1415,592.9 "
   class="st24" /><polyline
   style="fill:none;stroke:#000000;stroke-width:4.77400017"
   id="polyline5616"
   points="1413.4,591.6 1425.4,582.5 1455.3,588.1  "
   class="st26" /><path
   style="fill:#ffffff;stroke:#000000;stroke-width:4.77400017"
   inkscape:connector-curvature="0"
   id="path5618"
   d="m 1650.2,242.1 c -1.2,1.1 -0.5,2.2 1.4,2.5 l 72.3,11.1 c 1.9,0.3 4.5,-0.4 5.7,-1.5 v 0 c 1.2,-1.1 0.6,-2.2 -1.4,-2.5 L 1656.8,241 c -2,-0.3 -5.4,0 -6.6,1.1 z"
   class="st24" />
<g
   id="Ebene_3">
	<path
   class="st12"
   d="M2990.2,55.6l-30.7-11.8L2521,130.6l-5.6,371.6l22.7,18.4h2.8l175.8-44.3v28.9l-76.1,19.5l59.5,25.5l177-45.3   l-59.5-25.5l-25.5,6.5v-28.5l191.8-48.3L2990.2,55.6z"
   id="path5621" />
	<g
   id="Ebene_2">
	</g>
	<polygon
   class="st27"
   points="2515.4,502.3 2538.1,520.7 2990.2,55.6 2959.5,43.8 2521,130.6  "
   id="polygon5624" />
	<path
   class="st11"
   d="M2694.6,483.7c0,0-115.6,47.3-82.8,64.9c32.8,17.6,134.1,6.1,134.1,6.1"
   id="path5626" />
	<path
   class="st11"
   d="M2793.7,461.5c0,0,304.7,22.5,195.4-37.2c-92.2-50.5,38.2-66.5,112.9-19.6c30.4,19.1-39.3,50.6,39,74.7   c1,0.3,12.6-12.3,30.3,0"
   id="path5628" />
	<path
   class="st12"
   d="M3206.9,478.8c-23.1-12.4-58.9-13.6-78,11.7c-8.4,11.1,5.5,29.6,23.8,45.5l-111.5-63.4l-444.5,116.1l1.4,36.3   l147.2,69.4l445.9-116.1l3.8-15.3c24.1,7.4,46-7.8,50.6-13.8C3260.5,529.9,3233.6,493.1,3206.9,478.8z"
   id="path5630" />
	<path
   class="st28"
   d="M2694.6,483.7c0,0-115.6,47.3-82.8,64.9c32.8,17.6,134.1,6.1,134.1,6.1"
   id="path5632" />
	<path
   class="st27"
   d="M3128.9,490.5c-13.6,17.9,30.8,55.2,58.6,69.4c26.9,13.7,53.2-4.1,58.3-10.7c14.7-19.2-12.2-56.1-38.9-70.3   C3183.8,466.5,3148,465.2,3128.9,490.5z"
   id="path5634" />
	<path
   class="st27"
   d="M3208.9,481.1c-13.6-2.9-60.7-14.4-68.4,41.9"
   id="path5636" />
	<path
   class="st28"
   d="M2793.7,461.5c0,0,304.7,22.5,195.4-37.2c-92.2-50.5,38.2-66.5,112.9-19.6c30.4,19.1-39.3,50.6,39,74.7   c1,0.3,12.6-12.3,30.3,0"
   id="path5638" />
	<polygon
   class="st14"
   points="2700,550.2 2877,504.9 2817.5,479.4 2640.6,524.7  "
   id="polygon5640" />
	<polygon
   class="st27"
   points="2735.4,521.9 2792.1,507.6 2792.1,414.3 2735.4,428.7  "
   id="polygon5642" />
	<polygon
   class="st27"
   points="2716.7,513.7 2730.1,520.7 2730.1,428.7 2716.7,421.6  "
   id="polygon5644" />
	<polygon
   class="st27"
   points="2745.3,694.4 3191.3,578.3 3195.5,561.3 2598.1,589.6 2598.1,625  "
   id="polygon5646" />
	<polygon
   class="st27"
   points="2751,676.5 3195.5,560.4 3041.2,472.6 2596.7,588.7  "
   id="polygon5648" />
	<polygon
   class="st27"
   points="2891.2,530.5 3003,591.4 2751,655.1 2647.7,592.8  "
   id="polygon5650" />
	<polygon
   class="st27"
   points="3044.2,491.4 3146.6,549.7 3054.2,574.5 2952.2,513.8  "
   id="polygon5652" />
	<line
   class="st28"
   x1="2980.4"
   y1="577.3"
   x2="2732.6"
   y2="639.5"
   id="line5654" />
	<line
   class="st28"
   x1="2950.6"
   y1="560.3"
   x2="2702.9"
   y2="624"
   id="line5656" />
	<line
   class="st28"
   x1="2916.7"
   y1="544.7"
   x2="2674.6"
   y2="608.4"
   id="line5658" />
	<line
   class="st28"
   x1="2971.9"
   y1="598.5"
   x2="2861.5"
   y2="539"
   id="line5660" />
	<line
   class="st28"
   x1="2918.1"
   y1="591.4"
   x2="2833.1"
   y2="546.1"
   id="line5662" />
	<line
   class="st28"
   x1="2881.3"
   y1="598.5"
   x2="2800.6"
   y2="553.2"
   id="line5664" />
	<line
   class="st28"
   x1="2845.9"
   y1="608.4"
   x2="2770.8"
   y2="561.7"
   id="line5666" />
	<line
   class="st28"
   x1="2817.6"
   y1="615.5"
   x2="2745.4"
   y2="568.8"
   id="line5668" />
	<line
   class="st28"
   x1="2787.8"
   y1="624"
   x2="2714.2"
   y2="577.3"
   id="line5670" />
	<line
   class="st28"
   x1="2779.3"
   y1="643.8"
   x2="2684.5"
   y2="585.8"
   id="line5672" />
	<line
   class="st28"
   x1="3119"
   y1="556.6"
   x2="3017.3"
   y2="498.5"
   id="line5674" />
	<line
   class="st28"
   x1="3085.9"
   y1="563.5"
   x2="2986.2"
   y2="505.6"
   id="line5676" />
	<line
   class="st28"
   x1="3062.7"
   y1="505.6"
   x2="2976.3"
   y2="525.4"
   id="line5678" />
	<line
   class="st28"
   x1="3092.8"
   y1="520.7"
   x2="3005.9"
   y2="540.9"
   id="line5680" />
	<line
   class="st28"
   x1="3119"
   y1="534.5"
   x2="3028.6"
   y2="555.1"
   id="line5682" />
	<polygon
   class="st27"
   points="2540.9,520.7 2983.9,409.1 2990.2,57 2545.4,142.9  "
   id="polygon5684" />
	<polygon
   class="st28"
   points="2562.1,475.4 2966.1,374.5 2970.3,82.5 2565.2,164.2  "
   id="polygon5686" />
</g>
</svg>