<?xml version="1.0" encoding="utf-8"?>
<!-- Generator: Adobe Illustrator 19.2.1, SVG Export Plug-In . SVG Version: 6.00 Build 0)  -->
<svg version="1.1" xmlns="http://www.w3.org/2000/svg" xmlns:xlink="http://www.w3.org/1999/xlink" x="0px" y="0px"
	 viewBox="0 0 4212 1876" style="enable-background:new 0 0 4212 1876;" xml:space="preserve">
<style type="text/css">
	.st0{opacity:0.43;}
	.st1{fill:none;stroke:#FFFFFF;stroke-width:38;}
	.st2{fill:none;stroke:#FFFFFF;stroke-width:38;stroke-dasharray:50.1844,25.0922;}
	.st3{fill:none;stroke:#FFFFFF;stroke-width:38;stroke-dasharray:50.9415,25.4707;}
	.st4{fill:none;stroke:#FFFFFF;stroke-width:38;stroke-dasharray:50.073,25.0365;}
	.st5{fill:none;stroke:#FFFFFF;stroke-width:38;stroke-dasharray:50.912,25.456;}
	.st6{fill:none;stroke:#FFFFFF;stroke-width:38;stroke-dasharray:50.854,25.427;}
	.st7{fill:none;stroke:#FFFFFF;stroke-width:38;stroke-dasharray:50.6036,25.3018;}
	.st8{fill:none;}
	.st9{fill:none;stroke:#FFFFFF;stroke-width:38;stroke-dasharray:49.7099,24.8549;}
	.st10{fill:none;stroke:#FFFFFF;stroke-width:38;stroke-dasharray:49.5516,24.7758;}
	.st11{fill:none;stroke:#000000;stroke-width:26;}
	.st12{fill:#FFFFFF;stroke:#000000;stroke-width:26;stroke-miterlimit:10;}
	.st13{fill:none;stroke:#000000;stroke-width:4.7181;}
	.st14{fill:#FFFFFF;stroke:#000000;stroke-width:4.7;stroke-miterlimit:10;}
	.st15{fill:#FFFFFF;stroke:#000000;stroke-width:4.7181;}
	.st16{fill:#FFFFFF;stroke:#000000;stroke-width:4.4675;}
	.st17{fill:none;stroke:#000000;stroke-width:4.4675;}
	.st18{fill:#FFFFFF;stroke:#000000;stroke-width:4.5752;}
	.st19{stroke:#000000;stroke-width:4.5752;}
	.st20{fill:none;stroke:#000000;stroke-width:4.5752;}
	.st21{fill:#FFFFFF;stroke:#000000;stroke-width:4.4867;}
	.st22{stroke:#000000;stroke-width:4.4867;}
	.st23{fill:none;stroke:#000000;stroke-width:4.4867;}
	.st24{fill:#FFFFFF;stroke:#000000;stroke-width:4.774;}
	.st25{stroke:#000000;stroke-width:4.774;}
	.st26{fill:none;stroke:#000000;stroke-width:4.774;}
	.st27{fill:#FFFFFF;stroke:#000000;stroke-width:4.3186;}
	.st28{fill:none;stroke:#000000;stroke-width:4.3186;}
</style>
<g id="Ebene_1">
	<g class="st0">
		<g>
			<path class="st1" d="M664.4,1248.5c-7.7-3.6-15.2-7.3-22.4-11.1"/>
			<path class="st2" d="M620,1225.3c-95.3-55.7-145.3-124.2-142.4-127.9c8.3-10.5,607-471.1,962.7,496.3"/>
			<path class="st1" d="M1444.6,1605.4c2.8,7.8,5.6,15.6,8.4,23.6c6.2-4.6,12.5-10.1,18.9-16.4"/>
			<path class="st3" d="M1489.1,1593.9C1677.6,1372.7,1962.9,513.9,2576,395.7"/>
			<path class="st1" d="M2588.6,393.4c8.2-1.4,16.4-2.7,24.7-3.9"/>
		</g>
	</g>
	<g class="st0">
		<g>
			<path class="st1" d="M3777.1,1125.2c-7,4.9-13.7,9.7-20.3,14.6"/>
			<path class="st4" d="M3736.9,1155.1c-216.6,171.3-224.5,351.5-853.7,476.2c-191.8,38-519-526-1169.8-737.9
				C1033,671.9,379,1021.2,375.7,1007.4C372.3,993.1,1273.6,694,2225,721c1078.6,30.6,1591.4,469.7,1600,448.4
				c9.3-23.1-697.9-465.6-1384-212.4c-381,140.6-1120.8,884.6-956,653.4c327.5-459.6,160.9-952.2,90.3-1073"/>
			<path class="st1" d="M1568.6,526.7c-7.8-11.8-13.9-17.8-17.2-17.2"/>
		</g>
	</g>
	<g class="st0">
		<g>
			<path class="st1" d="M483.7,1025.4c-1.8-5-1-13.4,2.2-24.6"/>
			<path class="st5" d="M494.7,976.9C577.9,782.5,1081,145,1509.4,444.8"/>
			<path class="st1" d="M1519.7,452.2c6.6,4.9,13.2,10,19.8,15.3c3.3-7.7,6.7-15.3,10.2-22.8"/>
			<path class="st6" d="M1561,421.9c241.8-462.4,992.2-498.8,1141.2-163.7"/>
			<path class="st1" d="M2707.1,269.9c3,7.7,5.7,15.6,8.1,23.6c7.3-4.3,14.5-8.5,21.6-12.6"/>
			<path class="st7" d="M2758.9,268.6c805.4-438.7,938.3,606.7,942.4,821.3"/>
			<path class="st1" d="M3701.4,1102.6c-0.1,14.5-1,23.2-2.4,24.7"/>
		</g>
	</g>
	<g>
		<path class="st8" d="M1485.5,1691.2"/>
	</g>
	<g>
		<path class="st8" d="M1071.6,1043.4"/>
	</g>
	<g class="st0">
		<g>
			<path class="st1" d="M2883.2,1631.3c-8.4-0.7-16.7-1.5-24.9-2.3"/>
			<path class="st9" d="M2833.6,1626.6c-497.5-48.3-783.5-135-1312.9,51.9"/>
			<path class="st1" d="M1509,1682.7c-7.8,2.8-15.6,5.6-23.5,8.5"/>
		</g>
	</g>
	<g>
		<path class="st8" d="M3609,1133.4"/>
	</g>
	<g class="st0">
		<g>
			<path class="st1" d="M1597,421c3.4-7,7.7-14.1,12.9-21.4"/>
			<path class="st10" d="M1625.6,380.4C1717.5,279.2,1959.9,173,2129,217c261.2,68,586.3,983.8,652.1,1176.6"/>
			<path class="st1" d="M2785.1,1405.3c5.2,15.3,7.9,23.7,7.9,23.7"/>
		</g>
	</g>
	<path class="st11" d="M613.4,1263.5c0,0,121.9,61.2,84.7,77.6c-37.2,16.4-146.6-4.6-146.6-4.6"/>
	<path class="st11" d="M620.1,1274.4c0,0,130.7,93.9,182.4,15.5c35.3-53.5,178-12.4,107.6,73.6c-28.6,34.9-114.8,37.7-114.8,37.7"/>
	<g>
		<polygon class="st12" points="671.8,1370.8 188.8,1238.7 19.4,1333.2 19.4,1334.1 23.9,1352.7 510,1483.8 671.5,1409.4 		"/>
		<path class="st12" d="M813.7,1416.9c-22.7-31.3-67.1-31.3-96.3-17.4c-33.7,16.1-68.7,59.3-51.3,83c6.1,8.2,37.9,30.8,71.8,15.4
			C773.1,1482,829.8,1439,813.7,1416.9z"/>
		<path class="st12" d="M252.9,1169.1l208.3,57.7l-0.3,28.9l-27.8-7.4l-65.2,27.3l192.9,51.2l65.2-27.3l-87-23.1l0.2-27.9
			l191.9,53.2l3.1,0l24.9-19.9l-4.9-412l-473.6-96.7l-33.6,12.6l0,1.6L252.9,1169.1z"/>
	</g>
	<g>
		<path class="st12" d="M3301.7,1616.2l-295.3-89.5c-18.1-5.3-41-6.7-59-4.3l8.5-3.6l1-3.8c8.5-7.4,13-18.2,10.3-36.1l-52.5-328.7
			c-3.1-12.7-3-16.2-11.2-25.3c-8.2-9.1-49.9-0.5-60.7,3.8L2542,1245c-18.6,6.2-22.5,32-19.2,53.8l59.7,335.6
			c3.3,21.7,16,27.6,32.2,28.7l4.2-1.8c0.3-0.1,0.7-0.2,1-0.3c-4,3.1-5.1,6.6-3.4,10.1c-3,35,22.1,39.7,22.1,39.7l313.5,97.1
			c26.3,7.4,48.9,1.4,66.6-6.2l290.8-130.3c23.8-10,15.6-41.5,15.6-41.5C3322.5,1624.9,3314.5,1619.9,3301.7,1616.2z"/>
		<path class="st12" d="M4175.5,1236.7l-3.7-2.3c-1.7-1.7-3.9-3.4-6.5-4.9L3719.7,957c-21.3-12.8-66.2-16.6-101.1-8.8
			c-3,0.5-5.9,1.1-8.7,1.8l-199.9,46.4c-42.6,9.9-55.3,26.4-46.7,38.8c0.1,5,3.7,10,11.1,14.4l445,286.8c21.8,13.1,83.1,17.9,117,9
			l216.8-59.7c23.2-6.1,35.1-16.5,33.3-26.6C4190.2,1251.5,4186.9,1243.5,4175.5,1236.7z"/>
		<path class="st12" d="M1759.1,1510.6l-196.1-45.5c-2.8-0.7-5.6-1.2-8.6-1.7c-34.3-7.7-78.3-4-99.2,8.6l-437,267.2
			c-2.6,1.6-4.7,3.2-6.4,4.8l-3.7,2.2c-11.1,6.7-14.4,14.6-10.6,22c-1.8,9.9,9.9,20,32.7,26.1l212.6,58.6
			c33.2,8.8,93.3,4.1,114.7-8.8l436.3-281.2c7.3-4.4,10.8-9.3,10.9-14.1C1813.3,1536.5,1800.8,1520.3,1759.1,1510.6z"/>
		<path class="st12" d="M1871,271.1c-2.9-10-16-18.5-37.8-22.7l-215.3-30.6c-38.4-7.3-74.7,1.9-99,20.5l-370.7,283.9
			c-6.4,4.9-10.2,9.9-11.8,14.8c-5.9,12.9,1.4,30.7,2.4,31.6c1.2,1.4,2.6,2.8,4.3,4.2c6.1,6.2,17.1,11.4,32.5,14.3l231.2,43.7
			c37.6,7.1,86.9-1.5,110.2-19.4l338.1-295.4c5.1-3.9,8.6-8,10.4-12C1874.6,293.7,1876.9,281.2,1871,271.1z"/>
	</g>
	<path class="st13" d="M613.4,1263.5c0,0,121.9,61.2,84.7,77.6c-37.2,16.4-146.6-4.6-146.6-4.6"/>
	<polygon class="st14" points="560.8,1326.8 367.9,1275.6 433.1,1248.3 626,1299.5 	"/>
	<polygon class="st15" points="522.4,1295.5 460.7,1279.3 461.6,1177.4 523.3,1193.6 	"/>
	<polygon class="st15" points="538.9,1286.6 526.5,1294.3 527.4,1193.7 539.8,1186.1 	"/>
	<polygon class="st15" points="510,1483.8 23.9,1352.7 19.4,1334.1 671.8,1370.8 671.5,1409.4 	"/>
	<polygon class="st15" points="503.9,1464.2 19.4,1333.2 188.8,1238.7 673.4,1369.8 	"/>
	<polygon class="st15" points="180.9,1261.3 58.1,1326.7 332.8,1398.7 446.3,1331.7 	"/>
	<polygon class="st15" points="518.8,1355.5 412.1,1420.6 509.4,1443.1 616.7,1379.1 	"/>
	<line class="st13" x1="83" y1="1311.5" x2="353.1" y2="1381.9"/>
	<line class="st13" x1="115.7" y1="1293.2" x2="385.7" y2="1365.1"/>
	<line class="st13" x1="152.9" y1="1276.5" x2="416.8" y2="1348.4"/>
	<line class="st13" x1="92.1" y1="1334.7" x2="213.3" y2="1270.8"/>
	<line class="st13" x1="150.9" y1="1327.5" x2="244.2" y2="1278.8"/>
	<line class="st13" x1="191.1" y1="1335.6" x2="279.7" y2="1286.9"/>
	<line class="st13" x1="229.7" y1="1346.8" x2="312.1" y2="1296.4"/>
	<line class="st13" x1="260.5" y1="1354.8" x2="339.8" y2="1304.4"/>
	<line class="st13" x1="292.9" y1="1364.3" x2="373.8" y2="1314"/>
	<line class="st13" x1="302" y1="1386.1" x2="406.2" y2="1323.6"/>
	<line class="st13" x1="445.5" y1="1424.4" x2="548.1" y2="1363.5"/>
	<line class="st13" x1="481" y1="1432.5" x2="582.1" y2="1371.5"/>
	<line class="st13" x1="498.6" y1="1370.8" x2="592.7" y2="1393.3"/>
	<line class="st13" x1="473.7" y1="1386" x2="564.8" y2="1408.5"/>
	<line class="st13" x1="447.3" y1="1401.3" x2="536.8" y2="1423.7"/>
	<path class="st15" d="M813.7,1416.9c16,22.1-40.6,65.1-75.7,81c-34,15.4-65.8-7.1-71.8-15.4c-17.5-23.8,17.5-67,51.3-83
		C746.6,1385.5,791,1385.5,813.7,1416.9z"/>
	<path class="st15" d="M714.8,1402.1c17-2.9,75.9-14.8,83.1,53.3"/>
	<path class="st13" d="M620.1,1274.4c0,0,130.7,93.9,182.4,15.5c35.3-53.5,178-12.4,107.6,73.6c-28.6,34.9-114.8,37.7-114.8,37.7
		s-12.2-14-34,2.8"/>
	<polygon class="st15" points="759.2,1281.8 734.3,1301.7 247.2,785.8 280.8,773.2 754.3,869.8 	"/>
	<polygon class="st15" points="731.2,1301.7 252.9,1169.1 247.2,787.3 727.5,883.1 	"/>
	<polygon class="st13" points="708.4,1252 276.4,1136.8 268.6,815.4 705.7,906.1 	"/>
	<path class="st16" d="M2617,1666.6c-5.6,39,21.6,44.2,21.6,44.2l313.5,97.1c26.3,7.4,48.9,1.4,66.6-6.2l290.8-130.3
		c17.6-7.6,14.1-15.8,17.8-41.7"/>
	<path class="st16" d="M2928.5,1527.1l-302.8,130.6c-17.6,7.6-11.3,19.7,14.1,27.1l295.3,89.5c25.4,7.4,60.3,7.2,77.9-0.4
		l302.8-130.7c17.6-7.6,11.3-19.7-14.1-27.1l-295.3-89.5C2981,1519.3,2946.1,1519.5,2928.5,1527.1z M3173.3,1676.5
		c12.2,3.5,15.2,9.4,6.8,13l-48.5,20.9c-8.5,3.7-25.2,3.7-37.4,0.2l-57.6-16.7c-12.2-3.5-15.2-9.4-6.8-13l48.5-20.9
		c8.5-3.7,25.2-3.7,37.4-0.2L3173.3,1676.5z M3167.7,1600.6l-289.8,125l-187-54.3l289.9-125L3167.7,1600.6z"/>
	<line class="st17" x1="2839.4" y1="1714.5" x2="3127.3" y2="1590.2"/>
	<line class="st17" x1="2800.8" y1="1703.3" x2="3089.7" y2="1578.7"/>
	<line class="st17" x1="2764.1" y1="1693.3" x2="3054" y2="1568.3"/>
	<line class="st17" x1="2725.6" y1="1682.2" x2="3016.4" y2="1556.7"/>
	<line class="st17" x1="2901.7" y1="1715.3" x2="2713.3" y2="1660.7"/>
	<line class="st17" x1="2928.6" y1="1703.7" x2="2740.2" y2="1649.1"/>
	<line class="st17" x1="2820.8" y1="1614.3" x2="2970.7" y2="1657.8"/>
	<line class="st17" x1="2847.6" y1="1602.7" x2="2994.7" y2="1645.4"/>
	<line class="st17" x1="2767" y1="1637.5" x2="2916.9" y2="1681"/>
	<line class="st17" x1="2793.9" y1="1625.9" x2="2941.1" y2="1668.6"/>
	<line class="st17" x1="2874.5" y1="1591.2" x2="3023" y2="1634.2"/>
	<line class="st17" x1="2901.3" y1="1579.6" x2="3048.5" y2="1622.2"/>
	<line class="st17" x1="3116.6" y1="1622.6" x2="2928.2" y2="1568"/>
	<line class="st17" x1="3143.4" y1="1611" x2="2955.1" y2="1556.4"/>
	<path class="st16" d="M2964.2,1487.4l-8.3,31.4l-341.1,144.3c-16.2-1.1-29-7-32.2-28.7l-59.7-335.6c-3.3-21.7,0.6-47.6,19.2-53.8
		l300.7-116.2c10.8-4.3,44.1-7.8,60.7-3.8"/>
	<path class="st16" d="M2886,1128l-332.9,124c-12.1,7.3-21.3,26.8-18,48.4l59.7,333.4c3.3,21.6,15.7,33.1,27.8,25.8l328.6-140.6
		c12.1-7.3,19.2-18.6,16-40.2l-52.5-328.7C2908.7,1126.4,2903.7,1122.6,2886,1128z M2950.1,1474.8c2.8,18.4,1.1,25.6-10.7,30.9
		L2630,1635.6c-12.4,7.6-21.4,6.1-24.2-12.4l-53.9-315c-2.8-18.5,5-39.5,17.4-47.1l309.6-114.1c12.4-7.6,18.1-0.1,21.9,25
		L2950.1,1474.8z"/>
	<path class="st18" d="M3936.2,1345.4c-33.9,9-95.1,4.1-117-9l-445-286.8c-21.6-13-10.7-30.4,24.5-38.8l227.5-46
		c35.2-8.4,81.3-4.7,102.9,8.4l445.6,272.4c21.8,13.1,12,31-21.9,40L3936.2,1345.4z"/>
	<path class="st18" d="M3932.1,1337.2c-35.7,9.5-89.3,4.4-112.4-9.4l-448.5-285.6c-20.6-12.3-12.5-33.8,38.8-45.7l199.9-46.4
		c37.1-8.9,89.9-4,112.8,9.8l452.9,276.9c23.1,13.9,12.9,32.8-22.9,42.2L3932.1,1337.2z"/>
	<path class="st18" d="M3933.9,1324.8c-33.9,9-84.9,4.2-106.7-8.9L3386.6,1035c-21.6-13-10.7-30.4,24.5-38.8l205.6-47.5
		c35.2-8.4,81.3-4.7,102.9,8.4l445.6,272.4c21.8,13.1,12,31-21.9,40L3933.9,1324.8z"/>
	<path class="st18" d="M3564.4,974.6c0.9,0.5,0.4,1.3-1,1.6l-54.1,12.9c-1.5,0.3-3.4,0.2-4.3-0.3l0,0c-0.9-0.5-0.4-1.3,1-1.6
		l54.1-12.9C3561.6,973.9,3563.5,974.1,3564.4,974.6L3564.4,974.6z"/>
	<path class="st18" d="M3494.8,991.9c2.2,1.3,1.1,3.1-2.5,4c-3.6,0.9-8.4,0.5-10.7-0.9c-2.2-1.3-1.1-3.1,2.5-4
		C3487.8,990.2,3492.6,990.6,3494.8,991.9z"/>
	<path class="st18" d="M3580.8,969.4c0.9,0.5,0.1,1.3-1.7,1.8c-1.8,0.4-4,0.3-4.9-0.2c-0.9-0.5-0.1-1.3,1.7-1.8
		C3577.7,968.8,3579.9,968.9,3580.8,969.4z"/>
	<polygon class="st18" points="4130.8,1216.9 3818.9,1299.4 3402.6,1035.1 3714.6,962.1 	"/>
	
		<ellipse transform="matrix(3.303727e-03 -1 1 3.303727e-03 2718.8276 5278.8545)" class="st18" cx="4007.6" cy="1275.5" rx="13.6" ry="37.1"/>
	
		<ellipse transform="matrix(3.325721e-03 -1 1 3.325721e-03 2718.6641 5278.6157)" class="st18" cx="4007.4" cy="1275.4" rx="11.8" ry="33.2"/>
	<g>
		<path class="st18" d="M4058.9,1299.2l-30.2,7.7c-0.3,0.1-0.6,0.2-0.9,0.3l27.6-7c3.1-0.8,5.7,0.3,5.8,2.5c0.1,2.2-2.3,4.6-5.4,5.3
			l-30.1,7.6c-0.2,0-0.3,0.1-0.5,0.1c1,0.4,2.3,0.5,3.7,0.2l30.2-7.7c3.1-0.8,5.6-3.5,5.6-6
			C4064.6,1299.7,4062.1,1298.4,4058.9,1299.2z"/>
		<path class="st19" d="M4055.8,1308c3.1-0.8,5.5-3.2,5.4-5.3c-0.1-2.2-2.7-3.3-5.8-2.5l-27.6,7c-2.7,1-4.7,3.4-4.7,5.7
			c0,1.4,0.8,2.4,2.1,2.9c0.2,0,0.3,0,0.5-0.1L4055.8,1308z"/>
	</g>
	<path class="st20" d="M4064.7,1302.2c0.1,2.5-2.4,5.2-5.6,6l-30.2,7.7c-3.1,0.8-5.7-0.6-5.8-3.1l0,0c-0.1-2.5,2.4-5.2,5.6-6
		l30.2-7.7C4062.1,1298.4,4064.6,1299.7,4064.7,1302.2L4064.7,1302.2z"/>
	<path class="st21" d="M1242.9,1852.8c33.2,8.8,93.3,4.1,114.7-8.8l436.3-281.2c21.2-12.8,10.5-29.8-24.1-38l-223.1-45.1
		c-34.5-8.2-79.7-4.6-100.9,8.2l-437,267.2c-21.4,12.8-11.8,30.4,21.4,39.2L1242.9,1852.8z"/>
	<path class="st21" d="M1247,1844.8c35,9.3,87.6,4.3,110.2-9.2l439.9-280.1c20.2-12.1,12.3-33.1-38-44.8l-196.1-45.5
		c-36.4-8.7-88.2-3.9-110.7,9.6l-444.1,271.5c-22.7,13.6-12.6,32.1,22.4,41.4L1247,1844.8z"/>
	<path class="st21" d="M1245.1,1832.6c33.2,8.8,83.3,4.1,104.7-8.7l432.1-275.5c21.2-12.8,10.5-29.8-24.1-38l-201.6-46.6
		c-34.5-8.2-79.7-4.6-100.9,8.2l-437,267.2c-21.4,12.8-11.8,30.4,21.4,39.2L1245.1,1832.6z"/>
	<g>
		<path class="st21" d="M1122.6,1807.4l29.7,7.6c0.3,0.1,0.6,0.2,0.9,0.3l-27-6.8c-3.1-0.8-5.6,0.3-5.7,2.4
			c-0.1,2.1,2.3,4.5,5.3,5.2l29.5,7.4c0.2,0,0.3,0.1,0.5,0.1c-1,0.4-2.2,0.5-3.6,0.2l-29.7-7.6c-3.1-0.8-5.5-3.4-5.5-5.8
			C1117,1808,1119.5,1806.6,1122.6,1807.4z"/>
		<path class="st22" d="M1125.7,1816.1c-3.1-0.8-5.4-3.1-5.3-5.2c0.1-2.1,2.7-3.2,5.7-2.4l27,6.8c2.6,1,4.6,3.3,4.6,5.5
			c0,1.3-0.8,2.3-2,2.8c-0.2,0-0.3,0-0.5-0.1L1125.7,1816.1z"/>
	</g>
	<path class="st23" d="M1116.9,1810.4c-0.1,2.4,2.4,5.1,5.5,5.8l29.7,7.6c3.1,0.8,5.6-0.6,5.7-3l0,0c0.1-2.4-2.4-5.1-5.5-5.8
		l-29.7-7.6C1119.5,1806.6,1117,1808,1116.9,1810.4L1116.9,1810.4z"/>
	<path class="st21" d="M1739.6,1515.7l-90.9-20.6c-4.1,2.5-9.5,4.8-15.6,6.3c-15.1,3.8-29,1.8-31-4.4c-1.1-3.4,1.6-7.4,6.8-10.9
		l-56.5-12.8c-34-8.1-78.4-4.5-99.3,8.1l-423.5,256.2c-21.1,12.6-11.6,26.5,21.1,35.2l184.8,49.6c32.7,8.7,90.1,6.5,111.2-6.1
		l416.5-266.4C1790.5,1532,1782.7,1523.4,1739.6,1515.7z"/>
	<path class="st21" d="M1631.3,1490.7c0.2,1.6-2.7,3.1-6.6,3.4c-3.9,0.3-7.2-0.7-7.4-2.2s2.7-3.1,6.6-3.4
		C1627.8,1488.1,1631.1,1489.1,1631.3,1490.7z"/>
	<path class="st24" d="M1406.8,630.8c37.6,7.1,86.9-1.5,110.2-19.4l338.1-295.4c23.3-17.8,11.7-38.1-25.9-45.2L1619,241.3
		c-37.6-7.1-72.4,1.6-95.6,19.4l-373.7,281.2c-23.3,17.8-11.7,38.1,25.9,45.2L1406.8,630.8z"/>
	<path class="st24" d="M1404.1,628.6c38.4,7.3,89.3-1.8,113.5-20.4L1858.1,311c24.3-18.6,22.9-49.3-15.6-56.6l-225.4-20.9
		c-38.4-7.3-74.7,1.9-99,20.5l-374.6,274.7c-17.1,11.4-6,38.9-4.7,40c5.8,7.1,17.4,12.9,34.3,16.1L1404.1,628.6z"/>
	<path class="st24" d="M1782.1,372.5c0.2,2.1,1.7,2.5,3.5,1l34.7-30.5c1.7-1.5,3-4.4,2.8-6.5l0,0c-0.2-2.1-1.7-2.5-3.5-1l-34.7,30.5
		C1783.1,367.5,1781.9,370.4,1782.1,372.5L1782.1,372.5z"/>
	<path class="st24" d="M1727,420.3c0.2,2.1,1.7,2.5,3.5,1l34.7-30.5c1.7-1.5,3-4.4,2.8-6.5l0,0c-0.2-2.1-1.7-2.5-3.5-1l-34.7,30.5
		C1728.1,415.3,1726.9,418.3,1727,420.3L1727,420.3z"/>
	<path class="st24" d="M1183,579.9c0.8,3.6,3.8,6.2,6.7,5.9c2.9-0.3,4.6-3.5,3.8-7.1c-0.8-3.6-3.8-6.2-6.7-5.9
		C1183.9,573.2,1182.2,576.3,1183,579.9z"/>
	<g>
		<path class="st24" d="M1186.3,572.9c-1,1.3-1.5,3.3-1,5.5c0.8,3.6,3.8,6.2,6.7,5.9c0.1,0,0.2-0.1,0.3-0.1
			c-0.7,0.9-1.7,1.5-2.8,1.6c-2.9,0.3-5.9-2.3-6.7-5.9C1182,576.5,1183.6,573.4,1186.3,572.9z"/>
		<path class="st25" d="M1185.3,578.4c-0.5-2.2,0-4.2,1-5.5c0.1,0,0.2-0.1,0.3-0.1c2.9-0.3,5.9,2.3,6.7,5.9c0.5,2.2,0,4.2-1,5.5
			c-0.1,0-0.2,0.1-0.3,0.1C1189.1,584.6,1186.1,582,1185.3,578.4z"/>
	</g>
	<path class="st24" d="M1319.1,604.1c0.2,2.1-1.2,3.6-3,3.2l-37-6.9c-1.8-0.3-3.5-2.3-3.7-4.5l0,0c-0.2-2.1,1.2-3.6,3-3.2l37,6.9
		C1317.3,600,1318.9,602,1319.1,604.1L1319.1,604.1z"/>
	<path class="st24" d="M1405,612.9c38.4,7.3,89.3-1.9,113.5-20.4L1859,295.3c24.3-18.6,12.8-39.6-25.7-46.8l-215.3-30.6
		c-38.4-7.3-74.7,1.9-99,20.5l-370.7,283.9c-24.3,18.6-12.7,39.6,25.7,46.9L1405,612.9z"/>
	<path class="st24" d="M1405.4,610.2c37.6,7.1,86.9-1.5,110.2-19.4l338.1-295.4c34.1-26.1-0.1-40.3-25.9-45.2l-210.2-29.7
		c-37.6-7.1-72.4,1.6-95.6,19.4l-368.3,282.1c-23.3,17.8-11.7,38.1,25.9,45.2L1405.4,610.2z"/>
	<path class="st24" d="M1611.3,232.9c-2.4,1.8-1.2,3.9,2.5,4.6c3.8,0.7,8.8-0.2,11.1-2c2.4-1.8,1.2-3.9-2.5-4.6
		C1618.7,230.2,1613.7,231.1,1611.3,232.9z"/>
	<path class="st24" d="M1754.9,257.7c-1.4,1.1-0.3,2.4,2.5,2.9c2.8,0.5,6.3,0.1,7.7-1c1.4-1.1,0.3-2.4-2.5-2.9
		C1759.8,256.2,1756.3,256.6,1754.9,257.7z"/>
	<polygon class="st24" points="1170.5,520.9 1507.9,584.9 1836.7,296.7 1529.5,245.9 	"/>
	<path class="st24" d="M1272.6,560.2c-4.6,3.5-2.8,7.5,4.1,8.8l66.7,12.7c6.9,1.3,16.1-0.5,20.8-4l2.6-2c4.6-3.5,2.8-7.5-4.1-8.8
		l-66.7-12.7c-6.9-1.3-16.1,0.5-20.8,4L1272.6,560.2z"/>
	<path class="st24" d="M1207,541.8l7,1.3l1.3-1l9.4,3.7l-13.5-0.6l1.6-1.2l-7-1.3c-2.7-0.5-6.3,0.1-8,1.4c-1.7,1.3-0.9,2.8,1.8,3.3
		l12.5,2.4l-1.3,1l-12.5-2.4c-3.8-0.7-4.9-2.8-2.6-4.6C1198.2,542,1203.2,541.1,1207,541.8z"/>
	<polygon class="st24" points="1444.9,598.6 1415,592.9 1427,583.7 1456.8,589.4 	"/>
	<polyline class="st26" points="1413.4,591.6 1425.4,582.5 1455.3,588.1 	"/>
	<path class="st24" d="M1650.2,242.1c-1.2,1.1-0.5,2.2,1.4,2.5l72.3,11.1c1.9,0.3,4.5-0.4,5.7-1.5l0,0c1.2-1.1,0.6-2.2-1.4-2.5
		l-71.4-10.7C1654.8,240.7,1651.4,241,1650.2,242.1L1650.2,242.1z"/>
</g>
<g id="Ebene_3">
	<path class="st12" d="M2990.2,55.6l-30.7-11.8L2521,130.6l-5.6,371.6l22.7,18.4h2.8l175.8-44.3v28.9l-76.1,19.5l59.5,25.5l177-45.3
		l-59.5-25.5l-25.5,6.5v-28.5l191.8-48.3L2990.2,55.6z"/>
	<g id="Ebene_2">
	</g>
	<polygon class="st27" points="2515.4,502.3 2538.1,520.7 2990.2,55.6 2959.5,43.8 2521,130.6 	"/>
	<path class="st11" d="M2694.6,483.7c0,0-115.6,47.3-82.8,64.9c32.8,17.6,134.1,6.1,134.1,6.1"/>
	<path class="st11" d="M2793.7,461.5c0,0,304.7,22.5,195.4-37.2c-92.2-50.5,38.2-66.5,112.9-19.6c30.4,19.1-39.3,50.6,39,74.7
		c1,0.3,12.6-12.3,30.3,0"/>
	<path class="st12" d="M3206.9,478.8c-23.1-12.4-58.9-13.6-78,11.7c-8.4,11.1,5.5,29.6,23.8,45.5l-111.5-63.4l-444.5,116.1l1.4,36.3
		l147.2,69.4l445.9-116.1l3.8-15.3c24.1,7.4,46-7.8,50.6-13.8C3260.5,529.9,3233.6,493.1,3206.9,478.8z"/>
	<path class="st28" d="M2694.6,483.7c0,0-115.6,47.3-82.8,64.9c32.8,17.6,134.1,6.1,134.1,6.1"/>
	<path class="st27" d="M3128.9,490.5c-13.6,17.9,30.8,55.2,58.6,69.4c26.9,13.7,53.2-4.1,58.3-10.7c14.7-19.2-12.2-56.1-38.9-70.3
		C3183.8,466.5,3148,465.2,3128.9,490.5z"/>
	<path class="st27" d="M3208.9,481.1c-13.6-2.9-60.7-14.4-68.4,41.9"/>
	<path class="st28" d="M2793.7,461.5c0,0,304.7,22.5,195.4-37.2c-92.2-50.5,38.2-66.5,112.9-19.6c30.4,19.1-39.3,50.6,39,74.7
		c1,0.3,12.6-12.3,30.3,0"/>
	<polygon class="st14" points="2700,550.2 2877,504.9 2817.5,479.4 2640.6,524.7 	"/>
	<polygon class="st27" points="2735.4,521.9 2792.1,507.6 2792.1,414.3 2735.4,428.7 	"/>
	<polygon class="st27" points="2716.7,513.7 2730.1,520.7 2730.1,428.7 2716.7,421.6 	"/>
	<polygon class="st27" points="2745.3,694.4 3191.3,578.3 3195.5,561.3 2598.1,589.6 2598.1,625 	"/>
	<polygon class="st27" points="2751,676.5 3195.5,560.4 3041.2,472.6 2596.7,588.7 	"/>
	<polygon class="st27" points="2891.2,530.5 3003,591.4 2751,655.1 2647.7,592.8 	"/>
	<polygon class="st27" points="3044.2,491.4 3146.6,549.7 3054.2,574.5 2952.2,513.8 	"/>
	<line class="st28" x1="2980.4" y1="577.3" x2="2732.6" y2="639.5"/>
	<line class="st28" x1="2950.6" y1="560.3" x2="2702.9" y2="624"/>
	<line class="st28" x1="2916.7" y1="544.7" x2="2674.6" y2="608.4"/>
	<line class="st28" x1="2971.9" y1="598.5" x2="2861.5" y2="539"/>
	<line class="st28" x1="2918.1" y1="591.4" x2="2833.1" y2="546.1"/>
	<line class="st28" x1="2881.3" y1="598.5" x2="2800.6" y2="553.2"/>
	<line class="st28" x1="2845.9" y1="608.4" x2="2770.8" y2="561.7"/>
	<line class="st28" x1="2817.6" y1="615.5" x2="2745.4" y2="568.8"/>
	<line class="st28" x1="2787.8" y1="624" x2="2714.2" y2="577.3"/>
	<line class="st28" x1="2779.3" y1="643.8" x2="2684.5" y2="585.8"/>
	<line class="st28" x1="3119" y1="556.6" x2="3017.3" y2="498.5"/>
	<line class="st28" x1="3085.9" y1="563.5" x2="2986.2" y2="505.6"/>
	<line class="st28" x1="3062.7" y1="505.6" x2="2976.3" y2="525.4"/>
	<line class="st28" x1="3092.8" y1="520.7" x2="3005.9" y2="540.9"/>
	<line class="st28" x1="3119" y1="534.5" x2="3028.6" y2="555.1"/>
	<polygon class="st27" points="2540.9,520.7 2983.9,409.1 2990.2,57 2545.4,142.9 	"/>
	<polygon class="st28" points="2562.1,475.4 2966.1,374.5 2970.3,82.5 2565.2,164.2 	"/>
</g>
</svg>
