<?xml version="1.0" encoding="UTF-8" standalone="no"?>
<svg
   xmlns:dc="http://purl.org/dc/elements/1.1/"
   xmlns:cc="http://creativecommons.org/ns#"
   xmlns:rdf="http://www.w3.org/1999/02/22-rdf-syntax-ns#"
   xmlns:svg="http://www.w3.org/2000/svg"
   xmlns="http://www.w3.org/2000/svg"
   xmlns:sodipodi="http://sodipodi.sourceforge.net/DTD/sodipodi-0.dtd"
   xmlns:inkscape="http://www.inkscape.org/namespaces/inkscape"
   viewBox="0 0 1025.45 873.5"
   version="1.1"
   id="svg137"
   sodipodi:docname="distance.svg"
   inkscape:version="0.92.4 (33fec40, 2019-01-16)">
  <metadata
     id="metadata141">
    <rdf:RDF>
      <cc:Work
         rdf:about="">
        <dc:format>image/svg+xml</dc:format>
        <dc:type
           rdf:resource="http://purl.org/dc/dcmitype/StillImage" />
      </cc:Work>
    </rdf:RDF>
  </metadata>
  <sodipodi:namedview
     pagecolor="#ffffff"
     bordercolor="#666666"
     borderopacity="1"
     objecttolerance="10"
     gridtolerance="10"
     guidetolerance="10"
     inkscape:pageopacity="0"
     inkscape:pageshadow="2"
     inkscape:window-width="1735"
     inkscape:window-height="1217"
     id="namedview139"
     showgrid="false"
     inkscape:snap-text-baseline="true"
     inkscape:zoom="1.1516886"
     inkscape:cx="510.1201"
     inkscape:cy="436.75"
     inkscape:window-x="0"
     inkscape:window-y="36"
     inkscape:window-maximized="0"
     inkscape:current-layer="svg137" />
  <defs
     id="defs4">
    <style
       id="style2">.cls-1,.cls-3,.cls-6{fill:#fff;}.cls-1,.cls-2,.cls-3,.cls-4,.cls-5,.cls-6{stroke:#7e8285;}.cls-1,.cls-2,.cls-5,.cls-6{stroke-width:3px;}.cls-2,.cls-4,.cls-5{fill:none;}.cls-3,.cls-4,.cls-5,.cls-6{stroke-linejoin:bevel;}.cls-3,.cls-4{stroke-width:2.65px;}.cls-7{font-size:62.1px;font-family:Myriad-Roman, Myriad Roman;}.cls-7,.cls-9{fill:#80b4d9;}.cls-8{letter-spacing:0.02em;}</style>
  </defs>
  <title
     id="title6">Element 3</title>
  <g
     data-name="Layer 25"
     id="Layer_25">
    <path
       style="fill:#ffffff;stroke:#7e8285;stroke-width:3px"
       inkscape:connector-curvature="0"
       id="path8"
       d="m 3.84,827.63 c -4.63,3.74 0,2.89 2.34,3.48 L 84.67,851 a 11.36,11.36 0 0 0 7.81,-1.23 l 127.06,-81.14 c 2,-1.26 1.69,-2.76 -0.65,-3.34 L 140,746.59 a 11.46,11.46 0 0 0 -7.81,1.23 z"
       class="cls-1" />
    <polygon
       style="fill:none;stroke:#7e8285;stroke-width:3px"
       id="polygon10"
       points="201.78,769.32 135.21,752.76 32.92,817.66 102.23,834.99 "
       class="cls-2" />
    <path
       style="fill:none;stroke:#7e8285;stroke-width:3px"
       inkscape:connector-curvature="0"
       id="path12"
       d="m 78.77,838.71 c -2.49,1.6 -2.12,3.48 0.82,4.22 a 14.47,14.47 0 0 0 9.85,-1.55 c 2.49,-1.59 2.12,-3.48 -0.82,-4.21 a 14.41,14.41 0 0 0 -9.85,1.54 z M 24.13,825.05 c -2.49,1.59 -2.12,3.47 0.82,4.21 a 14.33,14.33 0 0 0 9.84,-1.55 c 2.49,-1.59 2.13,-3.47 -0.82,-4.21 a 14.39,14.39 0 0 0 -9.84,1.55 z m 27.32,6.83 c -2.49,1.59 -2.12,3.48 0.82,4.21 a 14.41,14.41 0 0 0 9.85,-1.54 c 2.49,-1.59 2.12,-3.48 -0.82,-4.22 a 14.42,14.42 0 0 0 -9.85,1.55 z"
       class="cls-2" />
    <path
       style="fill:#ffffff;stroke:#7e8285;stroke-width:3px"
       inkscape:connector-curvature="0"
       id="path14"
       d="m 6.6,849.51 73.2,21.12 c 6.54,1.58 5.67,2.73 13.61,-2.09 l 123.44,-81.67 c 2,-1.33 4.31,-4.29 4.56,-6.6 l 0.39,-9.4 c 0,-3.13 0,-5 -1.79,-5.19 L 91.49,851.46 a 13.11,13.11 0 0 1 -7.69,1 L 5.52,830.23 c -1.68,-0.44 -3.75,0 -4,2.24 l 1.24,11.14 c -0.67,3.28 2.15,5.46 3.84,5.9 z"
       class="cls-1" />
  </g>
  <g
     data-name="Ebene 10"
     id="Ebene_10">
    <path
       style="fill:#ffffff;stroke:#7e8285;stroke-width:2.6500001px;stroke-linejoin:bevel"
       inkscape:connector-curvature="0"
       id="path17"
       d="m 177.66,50.41 c 0,0 21.34,-35.26 102.16,-30.52 34.69,2 65.53,14.24 65.53,32.55 0,34.59 -65.53,44.61 -65.53,44.61 0,0 -23.14,34.73 -102.16,44.95"
       class="cls-3" />
    <line
       style="fill:none;stroke:#7e8285;stroke-width:2.6500001px;stroke-linejoin:bevel"
       id="line19"
       y2="19.889999"
       x2="277.89001"
       y1="95.160004"
       x1="279.82001"
       class="cls-4" />
    <path
       style="fill:none;stroke:#7e8285;stroke-width:3px;stroke-linejoin:bevel"
       inkscape:connector-curvature="0"
       id="path21"
       d="m 102.7,478.19 17,-13.33 a 6.09,6.09 0 0 0 0.86,-9 7.13,7.13 0 0 0 -9.59,-0.8 l -29.54,23.1 z"
       class="cls-5" />
    <path
       style="fill:none;stroke:#7e8285;stroke-width:3px;stroke-linejoin:bevel"
       inkscape:connector-curvature="0"
       id="path23"
       d="m 189.75,476.56 17.41,-13.33 a 6,6 0 0 0 0.87,-9 7.41,7.41 0 0 0 -9.79,-0.8 l -30.17,23.11 z"
       class="cls-5" />
    <polygon
       style="fill:#ffffff;stroke:#7e8285;stroke-width:3px"
       id="polygon25"
       points="33.13,523.62 55.44,523.21 55.44,544.9 33.13,543.68 "
       class="cls-1" />
    <polygon
       style="fill:#ffffff;stroke:#7e8285;stroke-width:3px"
       id="polygon27"
       points="55.87,524.44 64.62,516.26 64.62,537.95 55.87,544.49 "
       class="cls-1" />
    <path
       style="fill:#ffffff;stroke:#7e8285;stroke-width:3px"
       inkscape:connector-curvature="0"
       id="path29"
       d="m 218.86,464.91 c -16.52,-3.77 -38.91,-6.09 -63.61,-6.09 -24.7,0 -47.09,2.32 -63.61,6.09 L 31.33,508.4 h 131.46 z"
       class="cls-1" />
    <polygon
       style="fill:#ffffff;stroke:#7e8285;stroke-width:3px;stroke-linejoin:bevel"
       id="polygon31"
       points="219.73,465.64 164.5,508.21 164.5,529.76 219.73,484.47 "
       class="cls-6" />
    <path
       style="fill:#ffffff;stroke:#7e8285;stroke-width:3px"
       inkscape:connector-curvature="0"
       id="path33"
       d="m 102.06,468.7 c -1.33,-1 -5,-1.75 -9.47,-1.71 h -0.1 l -10.71,0.08 -10.11,6.07 10.24,-0.08"
       class="cls-1" />
    <path
       style="fill:#ffffff;stroke:#7e8285;stroke-width:3px"
       inkscape:connector-curvature="0"
       id="path35"
       d="M 164.1,508.81 C 147,504.63 123.1,502 96.65,502 70.2,502 46.3,504.6 29.2,508.78 V 530 c 17.1,4.18 41,6.78 67.45,6.78 26.45,0 50.35,-2.62 67.45,-6.78 z"
       class="cls-1" />
    <path
       style="fill:#ffffff;stroke:#7e8285;stroke-width:3px;stroke-linejoin:bevel"
       inkscape:connector-curvature="0"
       id="path37"
       d="m 164.67,503.92 h 0.79 a 38.58,38.58 0 0 0 5.17,0.32 h 5.16 l 7.62,-7 -15.09,-0.43 h -0.12 c -1,0 -2,0.05 -2.87,0.12 h -0.66 c -6.49,0 -11.76,1.57 -11.76,3.5"
       class="cls-6" />
    <polygon
       style="fill:#ffffff;stroke:#7e8285;stroke-width:3px;stroke-linejoin:bevel"
       id="polygon39"
       points="183.72,497.02 175.4,503.76 175.4,548.98 183.72,541.12 "
       class="cls-6" />
    <polygon
       style="fill:#ffffff;stroke:#7e8285;stroke-width:3px;stroke-linejoin:bevel"
       id="polygon41"
       points="152.7,548.41 175.27,549.27 175.27,504.66 168.24,504.66 168.24,528.39 152.39,533.25 "
       class="cls-6" />
    <path
       style="fill:none;stroke:#7e8285;stroke-width:3px;stroke-linejoin:bevel"
       inkscape:connector-curvature="0"
       id="path43"
       d="m 178.51,496.43 c 0,0 -12.66,-2.54 -21.17,-1.36 -8.51,1.18 -4.75,5 -4.75,5 l 16.21,4.13"
       class="cls-5" />
    <path
       style="fill:#ffffff;stroke:#7e8285;stroke-width:3px;stroke-linejoin:bevel"
       inkscape:connector-curvature="0"
       id="path45"
       d="m 205.56,474.78 h 2.62 l 4.27,0.13 7.72,-6 -14.28,-0.37 h -0.11 c -1,0 -3.14,0.09 -3.35,0.09 -6.14,0 -11.13,1.32 -11.13,2.94"
       class="cls-6" />
    <polygon
       style="fill:#ffffff;stroke:#7e8285;stroke-width:3px;stroke-linejoin:bevel"
       id="polygon47"
       points="220.46,468.92 212.59,475.29 212.59,517.21 220.46,510.6 "
       class="cls-6" />
    <polygon
       style="fill:#ffffff;stroke:#7e8285;stroke-width:3px;stroke-linejoin:bevel"
       id="polygon49"
       points="193.07,516.66 212.01,517.76 212.01,475.19 204.97,475.19 204.97,497.84 192.76,506.3 "
       class="cls-6" />
    <path
       style="fill:none;stroke:#7e8285;stroke-width:3px;stroke-linejoin:bevel"
       inkscape:connector-curvature="0"
       id="path51"
       d="m 214.79,468.21 c 0,0 -11.61,-2.18 -19.42,-1.16 -7.81,1.02 -4.36,4.32 -4.36,4.32 l 14.87,3.55"
       class="cls-5" />
    <path
       style="fill:none;stroke:#7e8285;stroke-width:3px"
       inkscape:connector-curvature="0"
       id="path53"
       d="m 87.81,466.62 c 0,0 16.38,-2.33 14.8,0.91 -1.58,3.24 -22.46,5.59 -22.46,5.59"
       class="cls-2" />
    <line
       style="fill:none;stroke:#7e8285;stroke-width:3px"
       id="line55"
       y2="480.53"
       x2="70.32"
       y1="473.53"
       x1="70.32"
       class="cls-2" />
    <path
       style="fill:#ffffff;stroke:#7e8285;stroke-width:3px"
       inkscape:connector-curvature="0"
       id="path57"
       d="m 64.43,494.35 c -1.34,-1.12 -5,-1.9 -9.49,-1.9 H 44.12 l -10.07,6.38 H 44.3"
       class="cls-1" />
    <path
       style="fill:none;stroke:#7e8285;stroke-width:3px"
       inkscape:connector-curvature="0"
       id="path59"
       d="m 51.08,492.41 c 0,0 16.37,-2.34 14.79,0.91 -1.58,3.25 -22.45,5.59 -22.45,5.59"
       class="cls-2" />
    <line
       style="fill:none;stroke:#7e8285;stroke-width:3px"
       id="line61"
       y2="419.31"
       x2="262.10001"
       y1="412.31"
       x1="262.10001"
       class="cls-2" />
    <path
       style="fill:#ffffff;stroke:#7e8285;stroke-width:3px;stroke-linejoin:bevel"
       inkscape:connector-curvature="0"
       id="path63"
       d="m 204.33,454.48 a 2.94,2.94 0 0 1 -3,2.84 v 0 a 2.94,2.94 0 0 1 -3,-2.84 v -69.62 a 2.94,2.94 0 0 1 3,-2.84 v 0 a 2.94,2.94 0 0 1 3,2.84 z"
       class="cls-6" />
    <path
       style="fill:#ffffff;stroke:#7e8285;stroke-width:3px;stroke-linejoin:bevel"
       inkscape:connector-curvature="0"
       id="path65"
       d="m 117.74,454.48 a 2.94,2.94 0 0 1 -3,2.84 v 0 a 2.94,2.94 0 0 1 -3,-2.84 v -69.62 a 2.94,2.94 0 0 1 3,-2.84 v 0 a 2.94,2.94 0 0 1 3,2.84 z"
       class="cls-6" />
    <path
       style="fill:#ffffff;stroke:#7e8285;stroke-width:3px;stroke-linejoin:bevel"
       inkscape:connector-curvature="0"
       id="path67"
       d="m 246.5,348.69 c 0,7.47 -3.23,13.52 -7.22,13.52 v 0 c -4,0 -7.22,-6 -7.22,-13.52 V 18 c 0,-7.46 3.23,-13.52 7.22,-13.52 v 0 c 4,0 7.22,6.06 7.22,13.52 z"
       class="cls-6" />
    <path
       style="fill:#ffffff;stroke:#7e8285;stroke-width:2.6500001px;stroke-linejoin:bevel"
       inkscape:connector-curvature="0"
       id="path69"
       d="m 174.6,140.48 c 0,0 68.48,-14.64 68.48,-46.48 0,-31.84 -68.48,-44.92 -68.48,-44.92 z"
       class="cls-3" />
    <path
       style="fill:#ffffff;stroke:#7e8285;stroke-width:2.6500001px;stroke-linejoin:bevel"
       inkscape:connector-curvature="0"
       id="path71"
       d="m 1021.07,48.05 c 0,0 -21.33,-35.26 -102.16,-30.52 -34.7,2 -65.54,14.24 -65.54,32.55 0,34.59 65.54,44.61 65.54,44.61 0,0 23.09,34.74 102.16,44.91"
       class="cls-3" />
    <line
       style="fill:none;stroke:#7e8285;stroke-width:2.6500001px;stroke-linejoin:bevel"
       id="line73"
       y2="17.530001"
       x2="920.84003"
       y1="92.809998"
       x1="918.90997"
       class="cls-4" />
    <path
       style="fill:#ffffff;stroke:#7e8285;stroke-width:3px;stroke-linejoin:bevel"
       inkscape:connector-curvature="0"
       id="path75"
       d="m 952.22,345.68 c 0,7.46 3.24,13.51 7.23,13.51 v 0 c 4,0 7.21,-6.05 7.21,-13.51 V 15 c 0,-7.47 -3.23,-13.52 -7.21,-13.52 v 0 c -4,0 -7.23,6.05 -7.23,13.52 z"
       class="cls-6" />
    <path
       style="fill:#ffffff;stroke:#7e8285;stroke-width:2.6500001px;stroke-linejoin:bevel"
       inkscape:connector-curvature="0"
       id="path77"
       d="m 1024.12,138.12 c 0,0 -68.48,-14.64 -68.48,-46.49 0,-31.85 68.48,-44.91 68.48,-44.91 z"
       class="cls-3" />
  </g>
  <text
     class="cls-7"
     id="text88"
     style="font-size:62.09999847px;font-family:Myriad-Roman, 'Myriad Roman';fill:#80b4d9;fill-rule:nonzero"
     x="367.42007"
     y="96.028297">20 <tspan
   class="cls-8"
   x="444.2901"
   y="96.028297"
   id="tspan80"
   style="letter-spacing:0.02em;fill-rule:nonzero">k</tspan>
<tspan
   x="474.47009"
   y="96.028297"
   id="tspan82"
   style="fill-rule:nonzero">m - 300km</tspan>
</text>
  <text
     class="cls-7"
     id="text90"
     style="font-size:62.09999847px;font-family:Myriad-Roman, 'Myriad Roman';fill:#80b4d9"
     x="461.89001"
     y="585.65997">40 m - 300 m</text>
  <g
     data-name="Ebene 12"
     id="Ebene_12">
    <polygon
       style="fill:#80b4d9"
       id="polygon93"
       points="277.51,160.9 861.13,160.9 861.13,171.86 881.4,164.38 901.67,156.91 881.4,149.43 861.13,141.96 861.13,154.25 277.51,154.25 "
       class="cls-9" />
    <path
       style="fill:#ffffff;stroke:#7e8285;stroke-width:3px"
       inkscape:connector-curvature="0"
       id="path95"
       d="m 150.75,652.8 c 1.19,8.28 0.06,10.92 5.71,13.36 l 93.22,41.78 c 5.65,2.43 12.9,4.34 21.33,2 l 100.5,-31.13 c 0,0 8.72,-1.65 6.92,-14.15"
       class="cls-1" />
    <path
       style="fill:#ffffff;stroke:#7e8285;stroke-width:3px"
       inkscape:connector-curvature="0"
       id="path97"
       d="m 253.6,619.78 -94.68,28.69 c -8.14,2.36 -10.17,6.25 -4.53,8.68 L 251.48,699 c 5.64,2.43 16.8,2.49 25,0.13 l 94.67,-28.7 c 8.15,-2.35 10.17,-6.25 4.53,-8.68 L 278.6,619.87 c -5.69,-2.39 -16.87,-2.46 -25,-0.09 z m -35,42.67 c 3.91,-1.14 9.28,-1.12 12,0.06 l 15.55,6.7 c 2.71,1.18 1.74,3 -2.17,4.18 l -18.47,5.36 c -3.9,1.13 -9.27,1.11 -12,-0.07 L 197.91,672 c -2.7,-1.16 -1.73,-3 2.17,-4.17 z m 43.28,-36.37 92.92,40.08 -60,17.39 -92.91,-40.08 z"
       class="cls-1" />
    <line
       style="fill:none;stroke:#7e8285;stroke-width:3px"
       id="line99"
       y2="640.15002"
       x2="214.84"
       y1="679.96997"
       x1="307.14001"
       class="cls-2" />
    <line
       style="fill:none;stroke:#7e8285;stroke-width:3px"
       id="line101"
       y2="636.44"
       x2="226.87"
       y1="676.39001"
       x1="319.48999"
       class="cls-2" />
    <line
       style="fill:none;stroke:#7e8285;stroke-width:3px"
       id="line103"
       y2="633.12"
       x2="238.34"
       y1="673.20001"
       x1="331.25"
       class="cls-2" />
    <line
       style="fill:none;stroke:#7e8285;stroke-width:3px"
       id="line105"
       y2="629.40002"
       x2="250.37"
       y1="669.62"
       x1="343.59"
       class="cls-2" />
    <line
       style="fill:none;stroke:#7e8285;stroke-width:3px"
       id="line107"
       y2="662.72998"
       x2="347.54001"
       y1="680.26001"
       x1="287.14999"
       class="cls-2" />
    <line
       style="fill:none;stroke:#7e8285;stroke-width:3px"
       id="line109"
       y2="659.02002"
       x2="338.92999"
       y1="676.53998"
       x1="278.53"
       class="cls-2" />
    <line
       style="fill:none;stroke:#7e8285;stroke-width:3px"
       id="line111"
       y2="661.81"
       x2="265.04001"
       y1="647.88"
       x1="313.10001"
       class="cls-2" />
    <line
       style="fill:none;stroke:#7e8285;stroke-width:3px"
       id="line113"
       y2="657.84003"
       x2="257.32001"
       y1="644.15997"
       x1="304.48999"
       class="cls-2" />
    <line
       style="fill:none;stroke:#7e8285;stroke-width:3px"
       id="line115"
       y2="669.23999"
       x2="282.26999"
       y1="655.29999"
       x1="330.32001"
       class="cls-2" />
    <line
       style="fill:none;stroke:#7e8285;stroke-width:3px"
       id="line117"
       y2="665.27002"
       x2="274.53"
       y1="651.59003"
       x1="321.70999"
       class="cls-2" />
    <line
       style="fill:none;stroke:#7e8285;stroke-width:3px"
       id="line119"
       y2="654.25"
       x2="248.25999"
       y1="640.45001"
       x1="295.87"
       class="cls-2" />
    <line
       style="fill:none;stroke:#7e8285;stroke-width:3px"
       id="line121"
       y2="650.40997"
       x2="240.09"
       y1="636.72998"
       x1="287.26999"
       class="cls-2" />
    <line
       style="fill:none;stroke:#7e8285;stroke-width:3px"
       id="line123"
       y2="633.01001"
       x2="278.66"
       y1="650.53003"
       x1="218.25999"
       class="cls-2" />
    <line
       style="fill:none;stroke:#7e8285;stroke-width:3px"
       id="line125"
       y2="629.31"
       x2="270.03"
       y1="646.81"
       x1="209.64999"
       class="cls-2" />
    <path
       style="fill:#ffffff;stroke:#7e8285;stroke-width:3px"
       inkscape:connector-curvature="0"
       id="path127"
       d="m 267.11,607.17 2.68,10.08 109.35,46.26 c 5.21,-0.35 9.28,-2.24 10.32,-9.21 l 19.15,-107.6 c 1.05,-7 -0.19,-15.24 -6.15,-17.23 l -96.39,-37.25 c -3.46,-1.38 -14.14,-2.49 -19.47,-1.23"
       class="cls-1" />
    <path
       style="fill:#ffffff;stroke:#7e8285;stroke-width:3px"
       inkscape:connector-curvature="0"
       id="path129"
       d="m 283,499.11 -16.83,105.36 c -1.05,6.91 1.25,10.54 5.11,12.89 l 105.35,45 c 3.87,2.36 7.86,-1.35 8.9,-8.27 L 404.67,547.2 c 1.05,-6.91 -1.9,-13.17 -5.77,-15.51 L 292.19,492 c -5.68,-1.77 -7.3,-0.54 -9.19,7.11 z m 4.44,7 c 1.22,-8.06 3,-10.45 7,-8 l 99.24,36.57 c 4,2.42 6.5,9.19 5.59,15.1 L 382,650.72 c -0.9,5.92 -3.76,6.39 -7.75,4 l -99.21,-41.63 c -3.77,-1.7 -4.32,-4 -3.42,-9.92 z"
       class="cls-1" />
    <polygon
       style="fill:#80b4d9"
       id="polygon131"
       points="404.89,451.74 865.88,451.74 865.88,462.7 886.15,455.23 906.42,447.75 886.15,440.27 865.88,432.8 865.88,445.09 404.89,445.09 "
       class="cls-9" />
    <polygon
       style="fill:#80b4d9"
       id="polygon133"
       points="404.89,712.14 778.88,712.14 778.88,723.1 799.15,715.63 819.42,708.15 799.15,700.67 778.88,693.2 778.88,705.49 404.89,705.49 "
       class="cls-9" />
  </g>
  <text
     xml:space="preserve"
     style="font-style:normal;font-weight:normal;font-size:40px;line-height:1.25;font-family:sans-serif;letter-spacing:0px;word-spacing:0px;fill:#000000;fill-opacity:1;stroke:none"
     x="711.99799"
     y="95.160004"
     id="text1022"><tspan
       sodipodi:role="line"
       id="tspan1020"
       x="711.99799"
       y="130.55063" /></text>
</svg>
