<svg xmlns="http://www.w3.org/2000/svg" viewBox="0 0 659.07 361.76"><defs><style>.cls-1,.cls-11,.cls-14,.cls-16,.cls-18,.cls-2,.cls-5,.cls-6,.cls-7{fill:none;}.cls-1{stroke:#80b4d9;stroke-width:5px;}.cls-2,.cls-3,.cls-4,.cls-5{stroke:#7e8285;stroke-width:1.38px;}.cls-2,.cls-4{stroke-linejoin:bevel;}.cls-10,.cls-12,.cls-13,.cls-15,.cls-17,.cls-19,.cls-3,.cls-4,.cls-8,.cls-9{fill:#fff;}.cls-10,.cls-11,.cls-12,.cls-13,.cls-14,.cls-15,.cls-16,.cls-6,.cls-7,.cls-8,.cls-9{stroke:#979aa3;}.cls-6{stroke-width:2.31px;}.cls-7{stroke-width:1.81px;}.cls-8{stroke-width:1.37px;}.cls-9{stroke-width:1.36px;}.cls-10,.cls-11{stroke-width:2.09px;}.cls-12{stroke-width:2.18px;}.cls-13,.cls-14{stroke-width:2.13px;}.cls-15,.cls-16{stroke-width:2.25px;}.cls-17,.cls-18,.cls-19{stroke:#9ea2ac;}.cls-17,.cls-18{stroke-width:1.81px;}.cls-19{stroke-width:1.9px;}</style></defs><title>Element 1</title><g id="Ebene_2" data-name="Ebene 2"><g id="Ebene_18" data-name="Ebene 18"><line class="cls-1" x1="108.71" y1="262.7" x2="160.71" y2="96.7"/><line class="cls-1" x1="152.71" y1="93.7" x2="489.71" y2="93.7"/><line class="cls-1" x1="489.71" y1="93.7" x2="532.71" y2="242.7"/></g><g id="Ebene_19" data-name="Ebene 19"><path class="cls-2" d="M139.65,91.92l14.4-11.26a5.15,5.15,0,0,0,.72-7.58,6,6,0,0,0-8.09-.67l-25,19.51Z"/><path class="cls-2" d="M213.17,90.53l14.7-11.25a5.08,5.08,0,0,0,.74-7.58,6.25,6.25,0,0,0-8.27-.68L194.86,90.53Z"/><polygon class="cls-3" points="99.74 148.26 80.9 147.22 80.9 130.28 99.74 129.94 99.74 148.26"/><polygon class="cls-3" points="107.5 142.38 100.11 147.91 100.11 130.97 107.5 124.06 107.5 142.38"/><path class="cls-3" d="M237.75,80.69c-13.94-3.17-32.86-5.13-53.72-5.13s-39.77,2-53.72,5.13L79.38,117.43h111Z"/><polygon class="cls-4" points="191.85 135.47 238.49 97.22 238.49 81.32 191.85 117.26 191.85 135.47"/><path class="cls-3" d="M139.12,83.9c-1.13-.88-4.18-1.48-8-1.45H131l-9,.06-8.54,5.13,8.65-.06"/><path class="cls-3" d="M191.51,117.77c-14.45-3.53-34.62-5.73-57-5.73s-42.52,2.2-57,5.73v17.88c14.44,3.53,34.62,5.73,57,5.73s42.52-2.2,57-5.73Z"/><path class="cls-4" d="M192,113.65h.67a35.43,35.43,0,0,0,4.36.27h4.36l6.44-5.9-12.74-.37H195c-.85,0-1.66,0-2.43.1H192c-5.48,0-9.93,1.33-9.93,3"/><polygon class="cls-4" points="201.05 151.7 208.08 145.06 208.08 107.82 201.05 113.51 201.05 151.7"/><polygon class="cls-4" points="195.01 134.31 181.62 138.42 181.88 151.22 200.94 151.94 200.94 114.27 195.01 114.27 195.01 134.31"/><path class="cls-2" d="M203.68,107.32s-10.69-2.14-17.88-1.15-4,4.26-4,4.26l13.69,3.48"/><path class="cls-4" d="M226.53,89h2.21l3.61.11,6.52-5.06-12.07-.32h-.09c-.81,0-2.65.08-2.83.08-5.19,0-9.39,1.11-9.39,2.48"/><polygon class="cls-4" points="232.46 124.87 239.11 119.28 239.11 84.08 232.46 89.46 232.46 124.87"/><polygon class="cls-4" points="226.02 108.51 215.72 115.65 215.97 124.41 231.97 125.33 231.97 89.38 226.02 89.38 226.02 108.51"/><path class="cls-2" d="M234.32,83.49s-9.81-1.84-16.4-1-3.68,3.66-3.68,3.66l12.56,3"/><path class="cls-5" d="M127.08,82.15s13.84-2,12.5.76-19,4.72-19,4.72"/><line class="cls-5" x1="112.31" y1="87.98" x2="112.31" y2="93.89"/><path class="cls-3" d="M107.34,105.56c-1.13-1-4.2-1.6-8-1.6H90.18l-8.5,5.4h8.65"/><path class="cls-5" d="M96.06,103.92s13.83-2,12.49.77-19,4.72-19,4.72"/><line class="cls-5" x1="80.55" y1="109.76" x2="80.55" y2="115.67"/><path class="cls-4" d="M225.49,71.89a2.49,2.49,0,0,1-2.57,2.4h0a2.49,2.49,0,0,1-2.57-2.4V13.09a2.49,2.49,0,0,1,2.57-2.4h0a2.49,2.49,0,0,1,2.57,2.4Z"/><path class="cls-4" d="M152.36,71.89a2.49,2.49,0,0,1-2.57,2.4h0a2.49,2.49,0,0,1-2.57-2.4V13.09a2.49,2.49,0,0,1,2.57-2.4h0a2.49,2.49,0,0,1,2.57,2.4Z"/><path class="cls-2" d="M470.65,81.92l14.4-11.26a5.15,5.15,0,0,0,.72-7.58,6,6,0,0,0-8.09-.67L452.73,81.92Z"/><path class="cls-2" d="M544.17,80.53l14.7-11.25a5.08,5.08,0,0,0,.74-7.58,6.25,6.25,0,0,0-8.27-.68L525.86,80.53Z"/><polygon class="cls-3" points="430.74 138.26 411.9 137.22 411.9 120.28 430.74 119.94 430.74 138.26"/><polygon class="cls-3" points="438.5 132.38 431.11 137.91 431.11 120.97 438.5 114.06 438.5 132.38"/><path class="cls-3" d="M568.75,70.69c-13.94-3.17-32.86-5.13-53.72-5.13s-39.77,2-53.72,5.13l-50.93,36.74h111Z"/><polygon class="cls-4" points="522.85 125.47 569.49 87.22 569.49 71.32 522.85 107.26 522.85 125.47"/><path class="cls-3" d="M470.12,73.9c-1.13-.88-4.18-1.48-8-1.45H462l-9,.06-8.54,5.13,8.65-.06"/><path class="cls-3" d="M522.51,107.77c-14.45-3.53-34.62-5.73-57-5.73s-42.52,2.2-57,5.73v17.88c14.44,3.53,34.62,5.73,57,5.73s42.52-2.2,57-5.73Z"/><path class="cls-4" d="M523,103.65h.67a33.57,33.57,0,0,0,4.36.27h4.36l6.44-5.9-12.75-.37H526c-.85,0-1.66,0-2.43.1H523c-5.48,0-9.93,1.33-9.93,3"/><polygon class="cls-4" points="532.05 141.7 539.08 135.06 539.08 97.82 532.05 103.51 532.05 141.7"/><polygon class="cls-4" points="526.01 124.31 512.62 128.42 512.88 141.22 531.94 141.94 531.94 104.27 526.01 104.27 526.01 124.31"/><path class="cls-2" d="M534.68,97.32S524,95.18,516.8,96.17s-4,4.26-4,4.26l13.69,3.48"/><path class="cls-4" d="M557.53,79h2.21l3.61.11,6.52-5.06-12.07-.32h-.09c-.81,0-2.65.08-2.83.08-5.19,0-9.39,1.11-9.39,2.48"/><polygon class="cls-4" points="563.46 114.87 570.11 109.28 570.11 74.08 563.46 79.46 563.46 114.87"/><polygon class="cls-4" points="557.02 98.51 546.72 105.65 546.98 114.41 562.97 115.33 562.97 79.38 557.02 79.38 557.02 98.51"/><path class="cls-2" d="M565.32,73.49s-9.81-1.84-16.4-1-3.68,3.66-3.68,3.66l12.56,3"/><path class="cls-5" d="M458.08,72.15s13.84-2,12.5.76-19,4.72-19,4.72"/><line class="cls-5" x1="443.31" y1="77.98" x2="443.31" y2="83.89"/><path class="cls-3" d="M438.34,95.56c-1.13-1-4.2-1.6-8-1.6h-9.14l-8.5,5.4h8.65"/><path class="cls-5" d="M427.06,93.92s13.83-2,12.49.77-19,4.72-19,4.72"/><line class="cls-5" x1="411.55" y1="99.76" x2="411.55" y2="105.67"/><path class="cls-4" d="M556.49,61.89a2.49,2.49,0,0,1-2.57,2.4h0a2.49,2.49,0,0,1-2.57-2.4V3.09a2.49,2.49,0,0,1,2.57-2.4h0a2.49,2.49,0,0,1,2.57,2.4Z"/><path class="cls-4" d="M483.36,61.89a2.49,2.49,0,0,1-2.57,2.4h0a2.49,2.49,0,0,1-2.57-2.4V3.09a2.49,2.49,0,0,1,2.57-2.4h0a2.49,2.49,0,0,1,2.57,2.4Z"/><path class="cls-6" d="M133.13,307.83s27.11,13.31,18.91,17-32.47-.74-32.47-.74"/><polygon class="cls-7" points="121.63 321.93 78.83 310.97 93.21 304.81 136.01 315.76 121.63 321.93"/><polygon class="cls-8" points="113.07 315.08 99.37 311.61 99.37 289.06 113.07 292.53 113.07 315.08"/><polygon class="cls-9" points="116.7 313.09 113.97 314.8 113.97 292.54 116.7 290.83 116.7 313.09"/><polygon class="cls-9" points="110.67 356.79 2.82 328.71 1.79 324.6 146.28 331.45 146.28 340.01 110.67 356.79"/><polygon class="cls-9" points="109.3 352.47 1.79 324.39 39.11 303.17 146.62 331.24 109.3 352.47"/><polygon class="cls-10" points="37.4 308.17 10.35 322.89 71.3 338.3 96.29 323.23 37.4 308.17"/><polygon class="cls-10" points="112.39 328.37 88.9 342.99 110.47 347.78 134.09 333.4 112.39 328.37"/><line class="cls-11" x1="15.83" y1="319.47" x2="75.75" y2="334.53"/><line class="cls-11" x1="23.02" y1="315.36" x2="82.94" y2="330.76"/><line class="cls-11" x1="31.24" y1="311.59" x2="89.79" y2="327"/><line class="cls-11" x1="17.88" y1="324.6" x2="44.59" y2="310.22"/><line class="cls-11" x1="30.89" y1="322.89" x2="51.44" y2="311.93"/><line class="cls-11" x1="39.8" y1="324.6" x2="59.31" y2="313.65"/><line class="cls-11" x1="48.36" y1="327" x2="66.5" y2="315.7"/><line class="cls-11" x1="55.2" y1="328.71" x2="72.67" y2="317.41"/><line class="cls-11" x1="62.39" y1="330.76" x2="80.2" y2="319.47"/><line class="cls-11" x1="64.45" y1="335.56" x2="87.39" y2="321.52"/><line class="cls-11" x1="96.29" y1="343.77" x2="118.89" y2="330.08"/><line class="cls-11" x1="104.17" y1="345.49" x2="126.42" y2="331.79"/><line class="cls-11" x1="107.93" y1="331.79" x2="128.82" y2="336.58"/><line class="cls-11" x1="102.45" y1="335.22" x2="122.66" y2="340.01"/><line class="cls-11" x1="96.63" y1="338.64" x2="116.49" y2="343.43"/><path class="cls-12" d="M177.78,341.38c3.6,4.87-8.87,14.49-16.61,18.08-7.49,3.47-14.57-1.45-15.93-3.26-3.91-5.23,3.75-14.87,11.19-18.49C162.87,334.58,172.69,334.49,177.78,341.38Z"/><path class="cls-13" d="M155.87,338.3c3.76-.69,16.77-3.43,18.49,11.64"/><path class="cls-14" d="M134.64,310.22s29.1,20.54,40.4,3.08c7.71-11.91,39.37-3.08,24,16.09-6.26,7.79-25.34,8.56-25.34,8.56s-2.74-3.08-7.53.69"/><polygon class="cls-15" points="165.45 311.59 159.97 316.04 52.47 204.08 59.88 201.22 164.11 221.71 165.45 311.59"/><polygon class="cls-15" points="159.29 316.04 53.15 287.62 52.47 204.42 158.2 224.69 159.29 316.04"/><polygon class="cls-16" points="154.16 305.09 58.29 280.43 57.26 210.59 153.41 229.83 154.16 305.09"/><path class="cls-17" d="M509.38,298.6c-1.17,8.17,4.52,9.25,4.52,9.25l65.68,20.34a20.44,20.44,0,0,0,13.94-1.29l60.92-27.31c3.69-1.59,2.95-3.32,3.73-8.73"/><path class="cls-17" d="M574.65,269.37,511.2,296.74c-3.68,1.59-2.36,4.13,3,5.67L576,321.17c5.33,1.54,12.63,1.5,16.32-.09l63.44-27.37c3.69-1.59,2.36-4.13-3-5.68L591,269.28C585.64,267.74,578.34,267.78,574.65,269.37Zm51.28,31.3c2.55.73,3.18,2,1.42,2.72l-10.16,4.39c-1.78.76-5.29.78-7.84,0l-12.07-3.5c-2.55-.74-3.18-2-1.42-2.73L606,297.2c1.77-.76,5.28-.78,7.83,0Zm-1.18-15.9L564,311l-39.18-11.37,60.72-26.19Z"/><line class="cls-18" x1="555.97" y1="308.62" x2="616.29" y2="282.6"/><line class="cls-18" x1="547.9" y1="306.28" x2="608.42" y2="280.17"/><line class="cls-18" x1="540.21" y1="304.19" x2="600.93" y2="278"/><line class="cls-18" x1="532.15" y1="301.85" x2="593.07" y2="275.57"/><line class="cls-18" x1="569.03" y1="308.81" x2="529.57" y2="297.35"/><line class="cls-18" x1="574.66" y1="306.38" x2="535.19" y2="294.93"/><line class="cls-18" x1="552.07" y1="287.65" x2="583.48" y2="296.75"/><line class="cls-18" x1="557.7" y1="285.22" x2="588.52" y2="294.16"/><line class="cls-18" x1="540.82" y1="292.5" x2="572.22" y2="301.61"/><line class="cls-18" x1="546.45" y1="290.07" x2="577.28" y2="299.01"/><line class="cls-18" x1="563.33" y1="282.79" x2="594.45" y2="291.81"/><line class="cls-18" x1="568.96" y1="280.36" x2="599.79" y2="289.3"/><line class="cls-18" x1="614.05" y1="289.38" x2="574.58" y2="277.93"/><line class="cls-18" x1="619.68" y1="286.95" x2="580.22" y2="275.51"/><path class="cls-19" d="M582.13,261l-1.75,6.59-71.46,30.23c-3.4-.23-6.07-1.46-6.75-6l-12.51-70.31c-.69-4.56.13-10,4-11.26l63-24.35c2.26-.9,9.24-1.62,12.72-.8"/><path class="cls-19" d="M565.74,185.77l-69.74,26c-2.52,1.53-4.45,5.62-3.77,10.14l12.51,69.85c.68,4.52,3.29,6.94,5.82,5.41L579.4,267.7c2.53-1.54,4-3.9,3.34-8.42l-11-68.86C570.51,185.43,569.45,184.62,565.74,185.77Zm13.44,72.64c.59,3.86.22,5.37-2.24,6.48L512.11,292.1c-2.61,1.58-4.48,1.27-5.07-2.6l-11.29-66c-.59-3.87,1.05-8.28,3.65-9.87l64.86-23.89c2.6-1.59,3.79,0,4.59,5.24Z"/></g></g></svg>