<?xml version="1.0" encoding="UTF-8" standalone="no"?>
<svg
   xmlns:dc="http://purl.org/dc/elements/1.1/"
   xmlns:cc="http://creativecommons.org/ns#"
   xmlns:rdf="http://www.w3.org/1999/02/22-rdf-syntax-ns#"
   xmlns:svg="http://www.w3.org/2000/svg"
   xmlns="http://www.w3.org/2000/svg"
   viewBox="0 0 1122.5198 821.57617"
   height="821.57617"
   width="1122.5198"
   xml:space="preserve"
   id="svg2"
   version="1.1"><metadata
     id="metadata8"><rdf:RDF><cc:Work
         rdf:about=""><dc:format>image/svg+xml</dc:format><dc:type
           rdf:resource="http://purl.org/dc/dcmitype/StillImage" /><dc:title></dc:title></cc:Work></rdf:RDF></metadata><defs
     id="defs6"><clipPath
       id="clipPath110"
       clipPathUnits="userSpaceOnUse"><path
         id="path108"
         d="m 427.72168,371.35934 h 173.6142 V 353.4917 h -173.6142 z" /></clipPath></defs><g
     transform="matrix(1.3333333,0,0,-1.3333333,0,821.57617)"
     id="g10"><g
       transform="scale(1,-1)"
       id="g12"><path
         id="path14"
         style="fill:none;stroke:#888e98;stroke-width:7.06774998;stroke-linecap:butt;stroke-linejoin:miter;stroke-miterlimit:4;stroke-dasharray:none;stroke-opacity:1"
         d="m 439.33008,-187.93848 c 0,0 82.93164,40.71875 57.82812,52.02832 -25.09668,11.30762 -99.29931,-2.26464 -99.29931,-2.26464" /><path
         id="path16"
         style="fill:none;stroke:#888e98;stroke-width:5.5515399;stroke-linecap:butt;stroke-linejoin:miter;stroke-miterlimit:4;stroke-dasharray:none;stroke-opacity:1"
         d="m 404.14893,-144.7998 c 0,0 -130.91309,-33.51465 -130.91309,-33.51465 0,0 43.98633,-18.85157 43.98633,-18.85157 0,0 130.91357,33.51172 130.91357,33.51172 0,0 -43.98681,18.8545 -43.98681,18.8545 z" /><path
         id="path18"
         style="fill:#ffffff;fill-opacity:1;fill-rule:nonzero;stroke:none"
         d="m 377.96533,-165.74512 c 0,0 -41.8916,-10.61035 -41.8916,-10.61035 0,0 0,-68.98144 0,-68.98144 0,0 41.8916,10.60937 41.8916,10.60937 0,0 0,68.98242 0,68.98242 z" /><path
         id="path20"
         style="fill:none;stroke:#888e98;stroke-width:4.19134998;stroke-linecap:butt;stroke-linejoin:miter;stroke-miterlimit:4;stroke-dasharray:none;stroke-opacity:1"
         d="m 377.96533,-165.74512 c 0,0 -41.8916,-10.61035 -41.8916,-10.61035 0,0 0,-68.98144 0,-68.98144 0,0 41.8916,10.60937 41.8916,10.60937 0,0 0,68.98242 0,68.98242 z" /><path
         id="path22"
         style="fill:#ffffff;fill-opacity:1;fill-rule:nonzero;stroke:none"
         d="m 389.08838,-171.8457 c 0,0 -8.38135,5.2373 -8.38135,5.2373 0,0 0,-68.07031 0,-68.07031 0,0 8.38135,-5.24024 8.38135,-5.24024 0,0 0,68.07325 0,68.07325 z" /><path
         id="path24"
         style="fill:none;stroke:#888e98;stroke-width:4.16381979;stroke-linecap:butt;stroke-linejoin:miter;stroke-miterlimit:4;stroke-dasharray:none;stroke-opacity:1"
         d="m 389.08838,-171.8457 c 0,0 -8.38135,5.2373 -8.38135,5.2373 0,0 0,-68.07031 0,-68.07031 0,0 8.38135,-5.24024 8.38135,-5.24024 0,0 0,68.07325 0,68.07325 z" /><path
         id="path26"
         style="fill:#ffffff;fill-opacity:1;fill-rule:nonzero;stroke:none"
         d="m 370.63428,-38.18164 c 0,0 -329.89014,-85.87109 -329.89014,-85.87109 0,0 -3.14209,-12.57129 -3.14209,-12.57129 0,0 441.94483,20.94726 441.94483,20.94726 0,0 0,26.17871 0,26.17871 0,0 -108.9126,51.31641 -108.9126,51.31641 z" /><path
         id="path28"
         style="fill:none;stroke:#888e98;stroke-width:4.16381979;stroke-linecap:butt;stroke-linejoin:miter;stroke-miterlimit:4;stroke-dasharray:none;stroke-opacity:1"
         d="m 370.63428,-38.18164 c 0,0 -329.89014,-85.87109 -329.89014,-85.87109 0,0 -3.14209,-12.57129 -3.14209,-12.57129 0,0 441.94483,20.94726 441.94483,20.94726 0,0 0,26.17871 0,26.17871 0,0 -108.9126,51.31641 -108.9126,51.31641 z" /><path
         id="path30"
         style="fill:#ffffff;fill-opacity:1;fill-rule:nonzero;stroke:none"
         d="m 366.44092,-51.38379 c 0,0 -328.8418,-85.87695 -328.8418,-85.87695 0,0 114.15186,-64.93262 114.15186,-64.93262 0,0 328.84179,85.87793 328.84179,85.87793 0,0 -114.15185,64.93164 -114.15185,64.93164 z" /><path
         id="path32"
         style="fill:none;stroke:#888e98;stroke-width:4.16381979;stroke-linecap:butt;stroke-linejoin:miter;stroke-miterlimit:4;stroke-dasharray:none;stroke-opacity:1"
         d="m 366.44092,-51.38379 c 0,0 -328.8418,-85.87695 -328.8418,-85.87695 0,0 114.15186,-64.93262 114.15186,-64.93262 0,0 328.84179,85.87793 328.84179,85.87793 0,0 -114.15185,64.93164 -114.15185,64.93164 z" /><path
         id="path34"
         style="fill:#ffffff;fill-opacity:1;fill-rule:nonzero;stroke:none"
         d="m 146.521,-186.89258 c 0,0 -82.73731,45.03223 -82.73731,45.03223 0,0 186.41651,47.12207 186.41651,47.12207 0,0 76.44628,-46.07715 76.44628,-46.07715 0,0 -180.12548,-46.07715 -180.12548,-46.07715 z" /><path
         id="path36"
         style="fill:none;stroke:#888e98;stroke-width:6.3783102;stroke-linecap:butt;stroke-linejoin:miter;stroke-miterlimit:4;stroke-dasharray:none;stroke-opacity:1"
         d="m 146.521,-186.89258 c 0,0 -82.73731,45.03223 -82.73731,45.03223 0,0 186.41651,47.12207 186.41651,47.12207 0,0 76.44628,-46.07715 76.44628,-46.07715 0,0 -180.12548,-46.07715 -180.12548,-46.07715 z" /><path
         id="path38"
         style="fill:#ffffff;fill-opacity:1;fill-rule:nonzero;stroke:none"
         d="m 375.87402,-125.10352 c 0,0 -71.84521,44.70899 -71.84521,44.70899 0,0 65.97265,14.66113 65.97265,14.66113 0,0 72.26807,-43.98633 72.26807,-43.98633 0,0 -66.39551,-15.38379 -66.39551,-15.38379 z" /><path
         id="path40"
         style="fill:none;stroke:#888e98;stroke-width:6.3783102;stroke-linecap:butt;stroke-linejoin:miter;stroke-miterlimit:4;stroke-dasharray:none;stroke-opacity:1"
         d="m 375.87402,-125.10352 c 0,0 -71.84521,44.70899 -71.84521,44.70899 0,0 65.97265,14.66113 65.97265,14.66113 0,0 72.26807,-43.98633 72.26807,-43.98633 0,0 -66.39551,-15.38379 -66.39551,-15.38379 z" /><path
         id="path42"
         style="fill:none;stroke:#888e98;stroke-width:6.3783102;stroke-linecap:butt;stroke-linejoin:miter;stroke-miterlimit:4;stroke-dasharray:none;stroke-opacity:1"
         d="m 80.53711,-152.33398 c 0,0 183.27148,46.07714 183.27148,46.07714" /><path
         id="path44"
         style="fill:none;stroke:#888e98;stroke-width:6.3783102;stroke-linecap:butt;stroke-linejoin:miter;stroke-miterlimit:4;stroke-dasharray:none;stroke-opacity:1"
         d="m 102.53369,-164.90039 c 0,0 183.26807,47.12598 183.26807,47.12598" /><path
         id="path46"
         style="fill:none;stroke:#888e98;stroke-width:6.3783102;stroke-linecap:butt;stroke-linejoin:miter;stroke-miterlimit:4;stroke-dasharray:none;stroke-opacity:1"
         d="m 127.6665,-176.4209 c 0,0 179.08301,47.12891 179.08301,47.12891" /><path
         id="path48"
         style="fill:none;stroke:#888e98;stroke-width:6.3783102;stroke-linecap:butt;stroke-linejoin:miter;stroke-miterlimit:4;stroke-dasharray:none;stroke-opacity:1"
         d="m 86.82227,-136.62402 c 0,0 81.68847,-43.98438 81.68847,-43.98438" /><path
         id="path50"
         style="fill:none;stroke:#888e98;stroke-width:6.3783102;stroke-linecap:butt;stroke-linejoin:miter;stroke-miterlimit:4;stroke-dasharray:none;stroke-opacity:1"
         d="m 126.61768,-141.86035 c 0,0 62.83789,-33.51465 62.83789,-33.51465" /><path
         id="path52"
         style="fill:none;stroke:#888e98;stroke-width:6.3783102;stroke-linecap:butt;stroke-linejoin:miter;stroke-miterlimit:4;stroke-dasharray:none;stroke-opacity:1"
         d="m 153.84766,-136.62402 c 0,0 59.69287,-33.5127 59.69287,-33.5127" /><path
         id="path54"
         style="fill:none;stroke:#888e98;stroke-width:6.3783102;stroke-linecap:butt;stroke-linejoin:miter;stroke-miterlimit:4;stroke-dasharray:none;stroke-opacity:1"
         d="m 180.02881,-129.29785 c 0,0 55.50732,-34.55371 55.50732,-34.55371" /><path
         id="path56"
         style="fill:none;stroke:#888e98;stroke-width:6.3783102;stroke-linecap:butt;stroke-linejoin:miter;stroke-miterlimit:4;stroke-dasharray:none;stroke-opacity:1"
         d="m 200.97363,-124.05469 c 0,0 53.41065,-34.56347 53.41065,-34.56347" /><path
         id="path58"
         style="fill:none;stroke:#888e98;stroke-width:6.3783102;stroke-linecap:butt;stroke-linejoin:miter;stroke-miterlimit:4;stroke-dasharray:none;stroke-opacity:1"
         d="m 222.96777,-117.77441 c 0,0 54.4585,-34.55957 54.4585,-34.55957" /><path
         id="path60"
         style="fill:none;stroke:#888e98;stroke-width:6.3783102;stroke-linecap:butt;stroke-linejoin:miter;stroke-miterlimit:4;stroke-dasharray:none;stroke-opacity:1"
         d="m 229.25146,-103.11426 c 0,0 70.16553,-42.93457 70.16553,-42.93457" /><path
         id="path62"
         style="fill:none;stroke:#888e98;stroke-width:6.3783102;stroke-linecap:butt;stroke-linejoin:miter;stroke-miterlimit:4;stroke-dasharray:none;stroke-opacity:1"
         d="m 326.64648,-77.98047 c 0,0 69.12061,-41.88769 69.12061,-41.88769" /><path
         id="path64"
         style="fill:none;stroke:#888e98;stroke-width:6.3783102;stroke-linecap:butt;stroke-linejoin:miter;stroke-miterlimit:4;stroke-dasharray:none;stroke-opacity:1"
         d="m 350.73682,-72.74219 c 0,0 68.07226,-41.88965 68.07226,-41.88965" /><path
         id="path66"
         style="fill:none;stroke:#888e98;stroke-width:6.3783102;stroke-linecap:butt;stroke-linejoin:miter;stroke-miterlimit:4;stroke-dasharray:none;stroke-opacity:1"
         d="m 362.25195,-114.63184 c 0,0 63.88086,14.66016 63.88086,14.66016" /><path
         id="path68"
         style="fill:none;stroke:#888e98;stroke-width:6.3783102;stroke-linecap:butt;stroke-linejoin:miter;stroke-miterlimit:4;stroke-dasharray:none;stroke-opacity:1"
         d="m 345.49756,-104.15918 c 0,0 61.7876,14.66113 61.7876,14.66113" /><path
         id="path70"
         style="fill:none;stroke:#888e98;stroke-width:6.3783102;stroke-linecap:butt;stroke-linejoin:miter;stroke-miterlimit:4;stroke-dasharray:none;stroke-opacity:1"
         d="m 327.69482,-93.68652 c 0,0 60.73682,14.66015 60.73682,14.66015" /><path
         id="path72"
         style="fill:#ffffff;fill-opacity:1;fill-rule:nonzero;stroke:none"
         d="m 575.89648,-85.31152 c 10.99903,14.89941 -27.12793,44.32812 -50.79687,55.30273 -22.91113,10.62793 -44.5791,-4.43555 -48.72461,-9.97656 -11.97852,-15.99903 11.45898,-45.45996 34.21387,-56.53613 19.69043,-9.5879 49.75195,-9.85352 65.30761,11.20996 z" /><path
         id="path74"
         style="fill:none;stroke:#888e98;stroke-width:6.66245985;stroke-linecap:butt;stroke-linejoin:miter;stroke-miterlimit:4;stroke-dasharray:none;stroke-opacity:1"
         d="m 575.89648,-85.31152 c 10.99903,14.89941 -27.12793,44.32812 -50.79687,55.30273 -22.91113,10.62793 -44.5791,-4.43555 -48.72461,-9.97656 -11.97852,-15.99903 11.45898,-45.45996 34.21387,-56.53613 19.69043,-9.5879 49.75195,-9.85352 65.30761,11.20996 z" /><path
         id="path76"
         style="fill:#ffffff;fill-opacity:1;fill-rule:nonzero;stroke:none"
         d="m 508.86816,-94.73438 c 11.52344,-2.09472 51.31641,-10.47558 56.55664,35.6084" /><path
         id="path78"
         style="fill:none;stroke:#888e98;stroke-width:6.50860977;stroke-linecap:butt;stroke-linejoin:miter;stroke-miterlimit:4;stroke-dasharray:none;stroke-opacity:1"
         d="m 508.86816,-94.73438 c 11.52344,-2.09472 51.31641,-10.47558 56.55664,35.6084" /><path
         id="path80"
         style="fill:none;stroke:#888e98;stroke-width:6.50860977;stroke-linecap:butt;stroke-linejoin:miter;stroke-miterlimit:4;stroke-dasharray:none;stroke-opacity:1"
         d="m 443.94238,-180.6084 c 0,0 89.01856,62.83399 123.57715,9.42285 23.56836,-36.43164 120.43164,-9.42285 73.30371,49.22168 -19.12304,23.79981 -77.49609,26.18067 -77.49609,26.18067 0,0 -8.37598,-9.42676 -23.03613,2.09668" /><path
         id="path82"
         style="fill:#ffffff;fill-opacity:1;fill-rule:nonzero;stroke:none"
         d="m 538.19434,-176.4209 c 0,0 -16.75782,13.61524 -16.75782,13.61524 0,0 -328.83838,-342.45508 -328.83838,-342.45508 0,0 22.67774,-8.74024 22.67774,-8.74024 0,0 318.8081,62.65479 318.8081,62.65479 0,0 4.11036,274.92529 4.11036,274.92529 z" /><path
         id="path84"
         style="fill:none;stroke:#888e98;stroke-width:6.88208008;stroke-linecap:butt;stroke-linejoin:miter;stroke-miterlimit:4;stroke-dasharray:none;stroke-opacity:1"
         d="m 538.19434,-176.4209 c 0,0 -16.75782,13.61524 -16.75782,13.61524 0,0 -328.83838,-342.45508 -328.83838,-342.45508 0,0 22.67774,-8.74024 22.67774,-8.74024 0,0 318.8081,62.65479 318.8081,62.65479 0,0 4.11036,274.92529 4.11036,274.92529 z" /><path
         id="path86"
         style="fill:#ffffff;fill-opacity:1;fill-rule:nonzero;stroke:none"
         d="m 519.3457,-162.80566 c 0,0 -324.65332,-86.92188 -324.65332,-86.92188 0,0 -2.09424,-254.48535 -2.09424,-254.48535 0,0 323.40186,61.99023 323.40186,61.99023 0,0 3.3457,279.417 3.3457,279.417 z" /><path
         id="path88"
         style="fill:none;stroke:#888e98;stroke-width:6.88208008;stroke-linecap:butt;stroke-linejoin:miter;stroke-miterlimit:4;stroke-dasharray:none;stroke-opacity:1"
         d="m 519.3457,-162.80566 c 0,0 -324.65332,-86.92188 -324.65332,-86.92188 0,0 -2.09424,-254.48535 -2.09424,-254.48535 0,0 323.40186,61.99023 323.40186,61.99023 0,0 3.3457,279.417 3.3457,279.417 z" /><path
         id="path90"
         style="fill:none;stroke:#888e98;stroke-width:6.88208008;stroke-linecap:butt;stroke-linejoin:miter;stroke-miterlimit:4;stroke-dasharray:none;stroke-opacity:1"
         d="m 503.63379,-196.31738 c 0,0 -293.23291,-75.40039 -293.23291,-75.40039 0,0 -3.14258,-213.64356 -3.14258,-213.64356 0,0 294.08154,58.84619 294.08154,58.84619 0,0 2.29395,230.19776 2.29395,230.19776 z" /><path
         id="path92"
         style="fill:#ffffff;fill-opacity:1;fill-rule:nonzero;stroke:none"
         d="m 641.49316,-172.21484 c 0,0 -226.11816,0 -226.11816,0 0,0 0,-258.97022 0,-258.97022 0,0 226.11816,0 226.11816,0 0,0 0,258.97022 0,258.97022 z" /><path
         id="path94"
         style="fill:none;stroke:#231f20;stroke-width:1.48441005;stroke-linecap:butt;stroke-linejoin:miter;stroke-miterlimit:4;stroke-dasharray:none;stroke-opacity:1"
         d="m 641.49316,-172.21484 c 0,0 -226.11816,0 -226.11816,0 0,0 0,-258.97022 0,-258.97022 0,0 226.11816,0 226.11816,0 0,0 0,258.97022 0,258.97022 z" /><path
         id="path96"
         style="fill:#79b1d7;fill-opacity:1;fill-rule:nonzero;stroke:none"
         d="m 454.63477,-469.17188 c 5.47265,5.4751 5.47265,14.34913 0,19.82129 -5.47559,5.47461 -14.34864,5.47461 -19.82422,0.001 -5.47461,-5.4751 -5.47461,-14.35059 0,-19.8252 5.47558,-5.47314 14.34863,-5.47314 19.82422,0.002 z" /><path
         id="path98"
         style="fill:#79b1d7;fill-opacity:1;fill-rule:nonzero;stroke:none"
         d="m 444.71289,-517.24854 c -15.4834,0.002 -30.04443,6.03321 -40.99023,16.98291 -3.48536,3.48682 -3.48536,9.13672 0,12.62354 3.4873,3.4834 9.13818,3.4834 12.62109,-0.002 7.57813,-7.57764 17.6543,-11.75244 28.37207,-11.75488 10.7207,-0.002 20.80371,4.17529 28.38965,11.75927 3.48926,3.48389 9.13867,3.48145 12.62012,-0.002 3.4873,-3.48682 3.4873,-9.13672 0,-12.62354 -10.95508,-10.95214 -25.52149,-16.98486 -41.0127,-16.98291 z" /><path
         id="path100"
         style="fill:#79b1d7;fill-opacity:1;fill-rule:nonzero;stroke:none"
         d="m 377.28809,-526.69141 c -3.48633,3.4834 -3.48633,9.13526 0,12.61963 3.48632,3.48633 9.13476,3.48633 12.62011,0 30.22608,-30.22314 79.40332,-30.22314 109.62793,-0.002 3.48633,3.48633 9.13672,3.48633 12.61914,0 3.48828,-3.48389 3.48828,-9.13574 0,-12.62012 -37.18359,-37.18261 -97.68408,-37.17969 -134.86718,0.002 z" /><path
         id="path102"
         style="fill:#79b1d7;fill-opacity:1;fill-rule:nonzero;stroke:none"
         d="m 345.07715,-558.90869 c -3.48584,3.48291 -3.48584,9.13623 0,12.61963 3.48681,3.48681 9.13428,3.48681 12.62012,0 47.98584,-47.98242 126.06543,-47.98242 174.05078,0.003 3.48633,3.48535 9.13769,3.48535 12.62011,0 3.48536,-3.48438 3.48536,-9.13721 0,-12.62012 -54.9414,-54.94678 -144.3457,-54.94678 -199.29101,-0.002 z" /><g
         transform="scale(1,-1)"
         id="g104"><g
           id="g106" /><g
           id="g118"><g
             style="opacity:0.55"
             id="g116"
             clip-path="url(#clipPath110)"><g
               id="g114"
               transform="scale(1,-1)"><path
                 id="path112"
                 style="fill:#79b1d7;fill-opacity:1;fill-rule:nonzero;stroke:none"
                 d="m 601.33594,-353.4917 c 0,0 -173.61426,0 -173.61426,0 0,0 0,-17.86768 0,-17.86768 0,0 173.61426,0 173.61426,0 0,0 0,17.86768 0,17.86768 z" /></g></g></g></g><g
         transform="scale(1,-1)"
         id="g120"><text
           id="text144"
           style="font-variant:normal;font-size:14.76523018px;font-family:LucidaSans;-inkscape-font-specification:LucidaSans-Demi;writing-mode:lr-tb;fill:#231f20;fill-opacity:1;fill-rule:nonzero;stroke:none"
           transform="matrix(1,0,0,-1,429.54822,404.77246)"><tspan
             id="tspan122"
             y="0"
             x="0 10.188008 19.888765 26.606945 36.307701 41.017811 51.885017 56.68372 63.401897 73.191246 82.626228 89.344406 95.324326 100.03443 109.46941">Turn Airport on</tspan><tspan
             id="tspan124"
             y="17.718275"
             x="0 10.188008 19.888765 26.606945 36.307701 41.017811 51.885017 56.68372 63.401897 73.191246 82.626228 89.344406 95.324326 100.03443 109.46941 115.59698">Turn Airport off</tspan><tspan
             id="tspan126"
             y="47.494576"
             x="0 6.1275706 12.830985 21.48341 30.135834 34.845943 44.620525 53.302479 63.003235 67.801933 71.448952 81.149704 89.802132">free qaul.net</tspan><tspan
             id="tspan128"
             y="68.412331"
             x="0 9.7007561 18.353182 23.15188 32.896931 42.597687 52.387035 61.822018">neighbor</tspan><tspan
             id="tspan130"
             y="89.330231"
             x="0 14.322273 22.930403 36.278172 41.07687 49.758823">myWlan</tspan><tspan
             id="tspan132"
             y="110.24725"
             x="0 6.1275706 12.830985 21.48341 31.272757 39.925182 46.64336 51.442062 60.788452">frederike</tspan><tspan
             id="tspan134"
             y="131.16426"
             x="0 11.516879 20.169304 24.968004 39.290276 50.644737 59.297165 65.277084">HeimNetz</tspan><tspan
             id="tspan136"
             y="152.08215"
             x="0 10.483314 17.186728 25.839153 35.539909 44.266159 54.055508 62.707932 69.426109">Kreuzberg</tspan><tspan
             id="tspan138"
             y="178.65913"
             x="0 6.1718659 15.606848 20.405548 30.106304 34.816414 44.251396 50.231312 59.932068 68.584496 75.302673 80.012779 89.713539 98.365959 104.34588 117.08827 126.52325 133.24144">Join other network</tspan><tspan
             id="tspan140"
             y="196.37801"
             x="0 10.512844 17.231024 25.883448 34.565403 40.545322 49.197746 53.907856 65.247551 73.899979 79.879898 92.622292 102.05727 108.77545 118.12184 121.76885 125.41586">Create Network...</tspan><tspan
             id="tspan142"
             y="214.09584"
             x="0 12.151784 21.941132 30.593557 40.294312 45.004421 56.358883 65.011307 70.991226 83.73362 93.168602 99.872017 109.21841 113.92851 122.9796 129.69778 138.3502 144.47777 153.1302 159.84837 168.50081 178.20155 186.05666 194.70909">Open Network Preferences</tspan></text>
<g
           transform="scale(1,-1)"
           id="g146"><path
             id="path148"
             style="fill:none;stroke:#231f20;stroke-width:1.24654996;stroke-linecap:butt;stroke-linejoin:miter;stroke-miterlimit:4;stroke-dasharray:none;stroke-opacity:1"
             d="m 430.83594,-377.71631 c 0,0 170.07031,0 170.07031,0" /><path
             id="path150"
             style="fill:none;stroke:#231f20;stroke-width:1.24654996;stroke-linecap:butt;stroke-linejoin:miter;stroke-miterlimit:4;stroke-dasharray:none;stroke-opacity:1"
             d="m 430.83496,-245.65332 c 0,0 173.29199,0 173.29199,0" /><path
             id="path152"
             style="fill:#231f20;fill-opacity:1;fill-rule:nonzero;stroke:none"
             d="m 593.75195,-351.71094 c 2.28321,0 4.20215,2.27832 4.72364,5.34131 0,0 -9.44727,0 -9.44727,0 0.52148,-3.06299 2.44238,-5.34131 4.72363,-5.34131 z m 0.69434,13.09278 c 0,0 -1.55078,0 -1.55078,0 0,0 0,-4.89502 0,-4.89502 0,0 1.55078,0 1.55078,0 0,0 0,4.89502 0,4.89502 z m 5.27637,-7.75147 c -0.57325,-3.74756 -3.03223,-6.57275 -5.97071,-6.57275 -2.9375,0 -5.39648,2.82519 -5.96972,6.57275 0,0 -1.00684,0 -1.00684,0 0,0 0,10.52734 0,10.52734 0,0 13.9541,0 13.9541,0 0,0 0,-10.52734 0,-10.52734 0,0 -1.00683,0 -1.00683,0 z" /><path
             id="path154"
             style="fill:#231f20;fill-opacity:1;fill-rule:nonzero;stroke:none"
             d="m 593.75195,-330.66943 c 2.28321,0 4.20215,2.27929 4.72364,5.34082 0,0 -9.44727,0 -9.44727,0 0.52148,-3.06153 2.44238,-5.34082 4.72363,-5.34082 z m 0.69434,13.09228 c 0,0 -1.55078,0 -1.55078,0 0,0 0,-4.89502 0,-4.89502 0,0 1.55078,0 1.55078,0 0,0 0,4.89502 0,4.89502 z m 5.27637,-7.75146 c -0.57325,-3.74659 -3.03223,-6.57276 -5.97071,-6.57276 -2.9375,0 -5.39648,2.82617 -5.96972,6.57276 0,0 -1.00684,0 -1.00684,0 0,0 0,10.52783 0,10.52783 0,0 13.9541,0 13.9541,0 0,0 0,-10.52783 0,-10.52783 0,0 -1.00683,0 -1.00683,0 z" /><path
             id="path156"
             style="fill:#231f20;fill-opacity:1;fill-rule:nonzero;stroke:none"
             d="m 593.75195,-309.62793 c 2.28321,0 4.20215,2.2793 4.72364,5.3418 0,0 -9.44727,0 -9.44727,0 0.52148,-3.0625 2.44238,-5.3418 4.72363,-5.3418 z m 0.69434,13.0918 c 0,0 -1.55078,0 -1.55078,0 0,0 0,-4.89453 0,-4.89453 0,0 1.55078,0 1.55078,0 0,0 0,4.89453 0,4.89453 z m 5.27637,-7.75 c -0.57325,-3.74805 -3.03223,-6.57227 -5.97071,-6.57227 -2.9375,0 -5.39648,2.82422 -5.96972,6.57227 0,0 -1.00684,0 -1.00684,0 0,0 0,10.52636 0,10.52636 0,0 13.9541,0 13.9541,0 0,0 0,-10.52636 0,-10.52636 0,0 -1.00683,0 -1.00683,0 z" /><path
             id="path158"
             style="fill:#231f20;fill-opacity:1;fill-rule:nonzero;stroke:none"
             d="m 593.75195,-288.58594 c 2.28321,0 4.20215,2.27832 4.72364,5.34082 0,0 -9.44727,0 -9.44727,0 0.52148,-3.0625 2.44238,-5.34082 4.72363,-5.34082 z m 0.69434,13.09278 c 0,0 -1.55078,0 -1.55078,0 0,0 0,-4.89551 0,-4.89551 0,0 1.55078,0 1.55078,0 0,0 0,4.89551 0,4.89551 z m 5.27637,-7.75196 c -0.57325,-3.74707 -3.03223,-6.57226 -5.97071,-6.57226 -2.9375,0 -5.39648,2.82519 -5.96972,6.57226 0,0 -1.00684,0 -1.00684,0 0,0 0,10.52735 0,10.52735 0,0 13.9541,0 13.9541,0 0,0 0,-10.52735 0,-10.52735 0,0 -1.00683,0 -1.00683,0 z" /><path
             id="path160"
             style="fill:#231f20;fill-opacity:1;fill-rule:nonzero;stroke:none"
             d="m 593.75195,-267.54395 c 2.28321,0 4.20215,2.27832 4.72364,5.33985 0,0 -9.44727,0 -9.44727,0 0.52148,-3.06153 2.44238,-5.33985 4.72363,-5.33985 z m 0.69434,13.09278 c 0,0 -1.55078,0 -1.55078,0 0,0 0,-4.89551 0,-4.89551 0,0 1.55078,0 1.55078,0 0,0 0,4.89551 0,4.89551 z m 5.27637,-7.75293 c -0.57325,-3.7461 -3.03223,-6.57227 -5.97071,-6.57227 -2.9375,0 -5.39648,2.82617 -5.96972,6.57227 0,0 -1.00684,0 -1.00684,0 0,0 0,10.5293 0,10.5293 0,0 13.9541,0 13.9541,0 0,0 0,-10.5293 0,-10.5293 0,0 -1.00683,0 -1.00683,0 z" /><path
             id="path162"
             style="fill:#ffffff;fill-opacity:1;fill-rule:nonzero;stroke:none"
             d="m 549.5625,-359.33008 c 0,0 0.0811,44.86914 0.0811,44.86914 0,0 6.88672,-10.00195 8.63282,-12.53808 1.22754,3.24951 6.91015,18.29199 6.91015,18.29199 0,0 8.11426,-3.06494 8.11426,-3.06494 0,0 -5.6084,-14.84522 -6.80664,-18.01905 2.9375,0.6709 14.57715,3.32764 14.57715,3.32764 0,0 -31.51465,-35.88916 -31.51465,-35.88916 0,0 0.006,3.02246 0.006,3.02246 z" /><path
             id="path164"
             style="fill:none;stroke:#231f20;stroke-width:0.67404002;stroke-linecap:butt;stroke-linejoin:miter;stroke-miterlimit:4;stroke-dasharray:none;stroke-opacity:1"
             d="m 549.5625,-359.33008 c 0,0 0.0811,44.86914 0.0811,44.86914 0,0 6.88672,-10.00195 8.63282,-12.53808 1.22754,3.24951 6.91015,18.29199 6.91015,18.29199 0,0 8.11426,-3.06494 8.11426,-3.06494 0,0 -5.6084,-14.84522 -6.80664,-18.01905 2.9375,0.6709 14.57715,3.32764 14.57715,3.32764 0,0 -31.51465,-35.88916 -31.51465,-35.88916 0,0 0.006,3.02246 0.006,3.02246 z" /><path
             id="path166"
             style="fill:#231f20;fill-opacity:1;fill-rule:nonzero;stroke:none"
             d="m 551.83887,-356.31152 c 3.11035,3.54199 19.32715,22.01025 22.89355,26.07129 -3.75879,-0.85791 -11.8584,-2.70704 -11.8584,-2.70704 0,0 6.78516,17.96045 7.5,19.85303 -1.12793,0.42627 -2.73828,1.03418 -3.86523,1.46045 -0.7168,-1.89697 -7.64258,-20.22851 -7.64258,-20.22851 0,0 -4.73242,6.875 -6.96484,10.11767 -0.01,-5.56543 -0.0537,-29.8706 -0.0625,-34.56689 z" /><path
             id="path168"
             style="fill:none;stroke:#ffffff;stroke-width:0.97060001;stroke-linecap:butt;stroke-linejoin:miter;stroke-miterlimit:4;stroke-dasharray:none;stroke-opacity:1"
             d="m 662.75684,-6.56348 c 0,0 -634.30957,0 -634.30957,0 0,0 0,-609.1333 0,-609.1333 0,0 634.30957,0 634.30957,0 0,0 0,609.1333 0,609.1333 z" /></g></g></g></g></svg>