<?xml version="1.0" encoding="UTF-8" standalone="no"?>
<svg
   xmlns:dc="http://purl.org/dc/elements/1.1/"
   xmlns:cc="http://creativecommons.org/ns#"
   xmlns:rdf="http://www.w3.org/1999/02/22-rdf-syntax-ns#"
   xmlns:svg="http://www.w3.org/2000/svg"
   xmlns="http://www.w3.org/2000/svg"
   id="SVGRoot"
   version="1.1"
   viewBox="0 0 1920 1080"
   height="1080px"
   width="1920px">
  <defs
     id="defs1343">
    <clipPath
       id="clipPath18"
       clipPathUnits="userSpaceOnUse">
      <path
         id="path16"
         d="m 305.05566,239.51172 h 42.41892 V 110.60741 h -42.41892 z" />
    </clipPath>
    <clipPath
       id="clipPath34"
       clipPathUnits="userSpaceOnUse">
      <path
         id="path32"
         d="m 377.38086,228.92676 h 30.4248 V 122.33691 h -30.4248 z" />
    </clipPath>
    <clipPath
       id="clipPath50"
       clipPathUnits="userSpaceOnUse">
      <path
         id="path48"
         d="m 408.0029,236.11523 h 40.93558 V 131.39061 H 408.0029 Z" />
    </clipPath>
    <clipPath
       id="clipPath66"
       clipPathUnits="userSpaceOnUse">
      <path
         id="path64"
         d="m 400.2334,245.07031 h 42.33887 V 115.8623 H 400.2334 Z" />
    </clipPath>
    <clipPath
       id="clipPath82"
       clipPathUnits="userSpaceOnUse">
      <path
         id="path80"
         d="m 286.63086,239.76367 h 49.29736 V 107.52051 h -49.29736 z" />
    </clipPath>
    <clipPath
       id="clipPath98"
       clipPathUnits="userSpaceOnUse">
      <path
         id="path96"
         d="m 363.96774,226.86719 h 33.59769 v -99.61133 h -33.59769 z" />
    </clipPath>
    <clipPath
       id="clipPath114"
       clipPathUnits="userSpaceOnUse">
      <path
         id="path112"
         d="m 444.21484,259.05954 h 45.58692 V 91.75391 h -45.58692 z" />
    </clipPath>
    <clipPath
       id="clipPath130"
       clipPathUnits="userSpaceOnUse">
      <path
         id="path128"
         d="m 340.37988,222.54295 h 30.37107 v -89.45604 h -30.37107 z" />
    </clipPath>
    <clipPath
       id="clipPath146"
       clipPathUnits="userSpaceOnUse">
      <path
         id="path144"
         d="m 288.73389,303.63184 h 76.46777 v -87.11133 h -76.46777 z" />
    </clipPath>
    <clipPath
       id="clipPath162"
       clipPathUnits="userSpaceOnUse">
      <path
         id="path160"
         d="m 287.42578,305.39844 h 20.00388 V 165.3584 h -20.00388 z" />
    </clipPath>
    <clipPath
       id="clipPath178"
       clipPathUnits="userSpaceOnUse">
      <path
         id="path176"
         d="M 313.83008,213.67676 H 451.27634 V 157.51367 H 313.83008 Z" />
    </clipPath>
    <clipPath
       id="clipPath194"
       clipPathUnits="userSpaceOnUse">
      <path
         id="path192"
         d="m 404.8735,283.85352 h 17.21048 V 181.79784 H 404.8735 Z" />
    </clipPath>
    <clipPath
       id="clipPath210"
       clipPathUnits="userSpaceOnUse">
      <path
         id="path208"
         d="M 392.59079,286.66794 H 444.7207 V 237.54688 H 392.59079 Z" />
    </clipPath>
    <clipPath
       id="clipPath226"
       clipPathUnits="userSpaceOnUse">
      <path
         id="path224"
         d="M 467.97263,249.89844 H 502.1709 V 119.37012 h -34.19827 z" />
    </clipPath>
    <clipPath
       id="clipPath246"
       clipPathUnits="userSpaceOnUse">
      <path
         id="path244"
         d="m 259.99414,209.37791 h 16.77393 v -54.45115 h -16.77393 z" />
    </clipPath>
    <clipPath
       id="clipPath262"
       clipPathUnits="userSpaceOnUse">
      <path
         id="path260"
         d="m 240.56787,211.29492 h 18.90039 v -56.03515 h -18.90039 z" />
    </clipPath>
    <clipPath
       id="clipPath278"
       clipPathUnits="userSpaceOnUse">
      <path
         id="path276"
         d="m 265.80176,209.07811 h 21.63135 v -51.07323 h -21.63135 z" />
    </clipPath>
    <clipPath
       id="clipPath294"
       clipPathUnits="userSpaceOnUse">
      <path
         id="path292"
         d="M 285.01807,210.93065 H 303.9834 V 156.22168 H 285.01807 Z" />
    </clipPath>
    <clipPath
       id="clipPath310"
       clipPathUnits="userSpaceOnUse">
      <path
         id="path308"
         d="m 224.63231,214.17188 h 22.04053 v -68.97266 h -22.04053 z" />
    </clipPath>
    <clipPath
       id="clipPath326"
       clipPathUnits="userSpaceOnUse">
      <path
         id="path324"
         d="m 224.63231,248.71483 h 20.32913 v -35.13379 h -20.32913 z" />
    </clipPath>
  </defs>
  <metadata
     id="metadata1346">
    <rdf:RDF>
      <cc:Work
         rdf:about="">
        <dc:format>image/svg+xml</dc:format>
        <dc:type
           rdf:resource="http://purl.org/dc/dcmitype/StillImage" />
        <dc:title></dc:title>
      </cc:Work>
    </rdf:RDF>
  </metadata>
  <g
     id="layer1">
    <g
       transform="matrix(4.7818543,0,0,4.7818543,-12592.287,-4253.8976)"
       id="g2349">
      <g
         transform="matrix(1.3333333,0,0,-1.3333333,2343.7334,1236.2394)"
         id="g12">
        <g
           id="g14" />
        <g
           id="g26">
          <g
             clip-path="url(#clipPath18)"
             id="g24"
             style="opacity:0.47999998">
            <g
               transform="scale(1,-1)"
               id="g22">
              <path
                 d="m 312.25391,-197.10547 c -0.39942,1.01758 -1.09864,1.98633 -0.9834,3.19629 0.3247,0.24414 0.65381,0.49121 0.9834,0.73828 0.1582,-1.04101 0.36816,-3.25488 0,-3.93457 z m 27.67089,-2.33691 c -0.58154,2.01074 -0.0259,5.68457 0.49219,7.99121 0.082,-0.0371 0.16309,-0.0781 0.24658,-0.12207 0.2876,-3.0791 0.52442,-5.10352 -0.73877,-7.86914 z m 0,49.19433 c -1.59863,0.0381 -3.19824,0.0791 -4.79638,0.1211 0.0298,3.56543 0.87158,7.31738 0.24609,10.82031 -0.80859,4.5293 -2.52002,8.25 -3.56738,12.54687 -0.57813,2.36817 -1.53223,8.89356 -0.61475,10.45606 3.02149,0.44824 5.22412,2.93652 2.21436,4.91699 -1.37744,0.90723 -4.91602,0.9541 -6.76367,0.49121 0,-0.16211 0,-0.32617 0,-0.49121 0.36914,-0.49121 0.7373,-0.98437 1.10498,-1.47558 -0.69825,-0.32715 -1.39258,-0.65528 -2.08887,-0.98243 -0.22559,-0.94336 -0.34326,-5.9375 0,-7.13574 0.46289,-1.61523 1.48242,-2.75781 1.72119,-4.79687 -0.082,-1.02246 -0.16064,-2.04786 -0.24853,-3.07227 0.0879,-2.37891 0.1665,-4.75586 0.24853,-7.13574 -0.24853,-0.90039 -0.49121,-1.80274 -0.7373,-2.70508 -0.31739,-1.58301 0.16699,-3.31445 0.36914,-4.5498 0.37451,-2.30762 -0.0776,-5.75098 -0.61573,-7.62598 -0.20507,-0.0391 -0.41113,-0.0811 -0.61572,-0.12207 0.0737,-1.07227 0.30811,-1.99024 -0.12158,-2.95215 0,0.0811 0,0.16504 0,0.24609 -1.75977,2.85352 -0.0566,6.55079 -0.61426,10.20899 -0.5498,3.58887 -1.75683,7.32129 -0.98584,11.3125 0.20557,1.06055 0.8667,1.76269 1.10889,2.58398 -0.084,0.77832 -0.16602,1.5586 -0.24658,2.33594 -0.3711,2.44531 0.69336,3.9375 -0.61426,5.90234 -3.13477,0.69239 -9.39502,-2.08984 -7.99414,-5.28613 0.63965,-1.59863 2.2124,-3.10937 4.18017,-3.44336 -0.44677,-5.25097 -2.59472,-8.5957 -3.56396,-13.03613 -0.45654,-2.07715 -0.25342,-4.85742 0,-6.88672 0.16064,-1.3252 -0.76025,-1.20801 -0.98584,-1.96777 0.16406,-0.65625 0.32715,-1.31446 0.49219,-1.96973 0.0464,-0.24414 -0.44971,-5.64453 -0.61573,-6.39355 -0.54248,-2.43946 -2.47753,-4.74903 -3.0747,-7.37989 -0.97608,-4.2998 0.78027,-12.94629 -0.61426,-16.47851 -0.73535,-0.65625 -1.47656,-1.3125 -2.2124,-1.96973 -1.57325,-1.26855 -3.771,-3.96191 -4.55127,-5.90234 -1.20703,-3.00391 1.4209,-17.83594 2.58203,-20.66407 0.67871,-1.65429 2.19531,-3.76855 3.56543,-4.79394 1.07471,-0.80469 3.01806,-1.30274 3.68994,-2.46192 -0.0415,-0.32519 -0.082,-0.65527 -0.12207,-0.98242 0.36816,-0.45019 0.7373,-0.90039 1.10547,-1.35351 -0.2461,-0.30274 -0.27783,-0.33692 -0.36817,-0.86035 1.26514,-0.9834 1.91114,-2.58594 3.93409,-2.82813 0.28613,-1.63574 -0.23975,-3.80176 0.125,-5.28809 1.04248,-4.28125 5.08496,-9.34082 10.69824,-7.99414 5.98828,1.43555 6.14453,12.87598 2.95312,17.71094 1.42725,0.41016 2.16309,1.34375 3.44287,1.84375 1.68311,0.66113 3.98731,1.17774 5.53467,2.33399 3.36084,2.52148 3.20166,11.02539 4.05908,16.35937 0.47364,2.96582 1.56153,6.17871 0.36768,9.5918 -1.34521,3.84277 -4.56348,7.17969 -6.1499,10.94726 -1.25342,2.98243 3.29785,7.7334 2.46094,12.17383 -0.55909,2.96192 -2.17774,5.87988 -2.95215,8.61035 0.0415,1.10645 0.083,2.21485 0.12353,3.32032 -0.28418,1.94336 -0.58886,3.87793 -0.49219,6.15136 z"
                 style="fill:#231f20;fill-opacity:1;fill-rule:evenodd;stroke:none"
                 id="path20" />
            </g>
          </g>
        </g>
      </g>
      <g
         transform="matrix(1.3333333,0,0,-1.3333333,2343.7334,1236.2394)"
         id="g28">
        <g
           id="g30" />
        <g
           id="g42">
          <g
             clip-path="url(#clipPath34)"
             id="g40"
             style="opacity:0.47999998">
            <g
               transform="scale(1,-1)"
               id="g38">
              <path
                 d="m 392.65771,-129.00977 c -0.0288,0.0566 -0.0576,0.11524 -0.0869,0.17188 0.35693,0.58691 1.10596,1.31641 1.84131,1.49805 -0.23145,-0.2627 -0.46729,-0.53028 -0.70117,-0.79297 -0.19434,-0.49414 -0.45948,-0.76172 -1.05323,-0.87696 z m -0.34912,-0.52539 c 0.1709,0.2627 0.0181,0.14161 0.34912,0.2627 0,-0.0293 0,-0.0606 0,-0.0898 -0.11523,-0.0576 -0.23144,-0.11524 -0.34912,-0.17286 z m -5.8833,-11.50293 c -0.76806,1.4336 -3.03418,6.34766 -2.19531,8.42969 0.40186,0.99805 1.11133,1.85156 1.13965,3.33594 0.0898,0 0.17578,0 0.26269,0 0.1626,-1.50781 0.92041,-2.91992 1.23194,-4.04004 0.34375,-1.24609 -0.0156,-4.68457 -0.26367,-6.14453 -0.10108,-0.59961 0.0928,-1.20899 -0.1753,-1.58106 z m 17.03125,-27.2207 c -0.0283,0.55859 -0.0576,1.11328 -0.0869,1.66992 0.29199,0.0869 0.58642,0.17676 0.87793,0.26074 0,-0.0557 0,-0.11718 0,-0.17382 0.0859,-0.29493 0.17578,-0.58399 0.26465,-0.87793 -0.26465,-0.42969 -0.49317,-0.7295 -1.05567,-0.87891 z m -10.27099,-60.66797 c 2.6289,0.1211 5.18164,2.49121 5.70654,4.56446 -0.0894,0.78906 -0.17529,1.58007 -0.26221,2.37011 0.65674,2.38281 0.41211,6.1543 -0.79297,8.25489 -0.96679,0.0947 -1.70214,0.27832 -1.8413,1.22949 0.94287,0.97656 1.42041,1.96191 2.19335,3.16113 0.80323,1.25098 2.8125,1.28223 3.51319,3.15723 0.77734,2.08496 0.47851,4.59277 1.05371,7.20019 0.48291,2.19141 1.01611,5.73633 -0.35205,7.02539 0.47021,1.95899 0.9375,3.9209 1.40478,5.88086 0.76661,4.07813 -0.53027,9.38574 0.9668,13.08301 0.49609,0.7627 0.99512,1.52441 1.49121,2.28516 0.35205,0.23339 0.70117,0.46777 1.05078,0.70117 0.54053,0.95703 0.7168,2.9414 0.0913,3.77344 -0.27783,0.37304 -1.84033,1.40527 -2.45752,1.31933 -0.52783,-0.11621 -1.05566,-0.2334 -1.58154,-0.34961 -0.11817,0.14453 -0.2334,0.29199 -0.34863,0.43555 -0.90918,0.11816 -1.81739,0.2334 -2.72364,0.35449 -0.7622,2.5166 -1.52295,5.03223 -2.28515,7.54785 -0.93213,2.28516 -2.31836,4.86914 -2.98291,7.55371 -0.59619,2.41309 -0.26026,5.21485 -0.87989,7.63672 -0.97656,3.82617 -3.10156,7.50879 -2.10644,11.85449 1.86719,0.53614 2.14599,2.75 3.59863,3.59864 1.0708,0.625 2.55762,0.0811 3.69141,0.79199 0.24707,0.75195 0.30566,1.36133 -0.0889,2.01758 -3.3584,1.45996 -4.8457,0.62597 -8.25635,0.52539 -0.64111,0.20508 -1.28711,0.41211 -1.93115,0.61719 -1.28613,-0.0586 -2.57275,-0.11817 -3.86133,-0.17676 -0.8208,-0.17481 -1.63867,-0.35156 -2.45996,-0.52735 -0.76904,-0.47461 0.006,-0.69921 -1.66601,-0.70117 -1.29444,-0.33008 -2.64844,-0.0469 -3.68848,-0.61328 0.32178,-1.66894 0.64307,-3.33691 0.96533,-5.00683 0.54883,-0.85059 1.25928,-1.40137 1.58203,-2.63672 0.9458,-3.61524 -0.41845,-9.03907 0.43848,-13.167 0.875,-4.22949 2.98193,-6.73144 3.6875,-10.97265 0.26807,-1.61914 0.19141,-6.125 -0.26367,-7.37696 -0.32227,-0.4121 -0.64502,-0.8164 -0.9668,-1.22949 -0.22852,-0.81933 0.30713,-1.58301 0.0884,-2.54492 -0.47315,-2.08008 -0.0952,-4.93262 -0.17676,-7.37402 -0.0688,-2.14844 -1.01172,-4.4668 -0.52637,-6.84961 0.2627,-0.7041 0.52637,-1.40821 0.792,-2.1084 -2.26514,-1.81543 -0.61524,-3.48535 -1.14258,-5.7959 -0.43848,-1.43457 -0.87695,-2.86816 -1.31836,-4.30273 -0.0864,-0.70313 -0.17334,-1.40137 -0.26074,-2.10547 -0.35108,-0.67285 -0.70459,-1.34766 -1.05518,-2.02051 -0.41308,-1.53613 0.52051,-2.51855 0.26318,-4.04102 -0.37304,-2.21093 -0.99902,-4.58789 0.17432,-6.49414 1.92139,-3.11328 6.13916,-3.59082 7.99317,-6.76269 0.40673,-0.0273 0.81689,-0.0586 1.229,-0.0869 0,-0.0293 0,-0.0605 0,-0.0869 -1.71777,-1.51758 -3.01611,-8.46191 -1.05566,-10.79883 0.78515,-0.93457 2.42431,-2.15429 3.6875,-2.54785 0.55859,-0.0898 1.11328,-0.17676 1.66992,-0.26172 z"
                 style="fill:#231f20;fill-opacity:1;fill-rule:evenodd;stroke:none"
                 id="path36" />
            </g>
          </g>
        </g>
      </g>
      <g
         transform="matrix(1.3333333,0,0,-1.3333333,2343.7334,1236.2394)"
         id="g44">
        <g
           id="g46" />
        <g
           id="g58">
          <g
             clip-path="url(#clipPath50)"
             id="g56"
             style="opacity:0.47999998">
            <g
               transform="scale(1,-1)"
               id="g54">
              <path
                 d="m 416.95654,-195.45313 c 0.0356,0 0.0767,0 0.11524,0 -0.0562,0.0352 -0.11524,0.0762 -0.17334,0.11133 0.02,-0.0351 0.0405,-0.0762 0.0581,-0.11133 z m -0.5791,-1.85351 c 0.02,0.041 0.0415,0.0791 0.0591,0.11621 -0.0176,-0.0371 -0.0391,-0.0752 -0.0591,-0.11621 z m -6.75537,-0.11231 c 0.0176,0.0381 0.0352,0.0752 0.0552,0.11231 -0.02,-0.0371 -0.0376,-0.0742 -0.0552,-0.11231 z m 4.61914,-0.80859 c 0.0176,0.0371 0.0352,0.0752 0.0615,0.11328 -0.0264,-0.0381 -0.0439,-0.0762 -0.0615,-0.11328 z m -3.28955,-0.40723 c 0.0352,0 0.0732,0 0.1084,0 -0.0527,0.0391 -0.1084,0.0801 -0.16748,0.11524 0.0176,-0.0352 0.041,-0.0762 0.0591,-0.11524 z m 0.17334,-0.11425 c 0.0176,0.041 0.0356,0.0762 0.0532,0.11425 -0.0356,0 -0.0732,0 -0.11816,0 0.0268,-0.0381 0.0449,-0.0732 0.0649,-0.11425 z m 0.34131,-0.28907 c -0.006,0.0879 0.0239,0.0596 -0.0527,0.1709 0.0176,-0.0527 0.0352,-0.11133 0.0527,-0.1709 z m 2.72168,-0.0586 c 0,0.17676 0,0.34766 0,0.51855 0,-0.17089 0,-0.34179 0,-0.51855 z m -3.58399,-0.28906 c 0.10596,0.083 0.0357,0.007 0.11182,0.11816 -0.0352,-0.0381 -0.0703,-0.0781 -0.11182,-0.11816 z m 0.34766,-0.11328 c 0.0352,0 0.0732,0 0.1084,0 -0.0908,0.0576 -0.18506,0.11328 -0.28858,0.17382 0.0767,-0.10351 0.0972,-0.0957 0.18018,-0.17382 z m -1.2124,0 c 0.0351,0 0.0767,0 0.11719,0 -0.0615,0.0381 -0.11719,0.0781 -0.1792,0.11328 0.0181,-0.0352 0.0381,-0.0752 0.062,-0.11328 z m 1.3208,-0.11524 c 0.0268,0.042 0.0449,0.0771 0.0649,0.11524 -0.02,-0.0381 -0.0381,-0.0733 -0.0649,-0.11524 z m 0.29736,-0.17383 c 0.0386,0 0.0737,0 0.10889,0 -0.0352,0 -0.0703,0 -0.10889,0 z m 3.35156,-0.11425 c 0.0176,0.0352 0.0356,0.0762 0.0532,0.11425 -0.0176,-0.0381 -0.0356,-0.0791 -0.0532,-0.11425 z m -4.96972,0 c 0.0351,0 0.0767,0 0.11719,0 -0.0405,0 -0.082,0 -0.11719,0 z m 1.78906,-0.0596 c 0.0376,0 0.0791,0 0.11426,0 -0.10205,0.0566 -0.0112,0.0527 -0.11426,0 z m -1.55664,-0.46387 c 0.0356,0 0.0708,0 0.11133,0 -0.0405,0 -0.0757,0 -0.11133,0 z m 0.11133,-0.0557 c 0.0415,0 0.0767,0 0.11523,0 -0.0386,0 -0.0737,0 -0.11523,0 z m 4.74072,-0.0576 c 0.0732,0.18945 0.0352,0.46289 -0.0615,0.63672 0.0176,-0.21192 0.0352,-0.42481 0.0615,-0.63672 z m -4.62549,0 c 0.062,0 0.11768,0 0.17383,0 -0.0562,0 -0.11182,0 -0.17383,0 z m 0.17383,-0.0576 c 0.041,0 0.0762,0 0.11475,0 -0.0386,0 -0.0737,0 -0.11475,0 z m 4.50732,-0.22949 c 0,0.0937 0,0.1914 0,0.28711 0,-0.0957 0,-0.19336 0,-0.28711 z m -3.64209,-0.86524 c 0.0376,0 0.082,0 0.12012,0 -0.0381,0 -0.0825,0 -0.12012,0 z m 0.17627,-0.0586 c 0.0352,0 0.0767,0 0.11475,0 -0.0381,0 -0.0796,0 -0.11475,0 z m 3.63428,-5.8916 c 0.0439,0 0.082,0 0.11719,0 -0.0352,0 -0.0732,0 -0.11719,0 z m 0.17627,-0.11817 c 0.0405,0 0.0767,0 0.11182,0 -0.0352,0 -0.0713,0 -0.11182,0 z m 0.17627,-0.11328 c 0.0352,0 0.0708,0 0.11475,0 -0.0439,0 -0.0796,0 -0.11475,0 z m 0.40283,-0.2334 c 0.0356,0 0.0742,0 0.11231,0 -0.0381,0 -0.0767,0 -0.11231,0 z m -0.52099,-0.28808 c 0.0361,0 0.0742,0 0.11816,0 -0.0439,0 -0.082,0 -0.11816,0 z m 0.11816,-0.0557 c 0.0527,0 0.11475,0 0.16748,0 -0.0527,0 -0.11474,0 -0.16748,0 z m 0.16748,-0.0596 c 0.0352,0 0.0767,0 0.11817,0 -0.0415,0 -0.083,0 -0.11817,0 z m -0.40283,-0.28515 c 0.0386,0 0.0767,0 0.11719,0 -0.0405,0 -0.0786,0 -0.11719,0 z m 15.24512,-27.32031 c 5.45214,0.006 7.18847,5.68554 8.60937,9.87793 0.4209,0.78808 0.84473,1.57714 1.26758,2.36621 0.32422,1.20019 -0.24707,1.98925 -0.29102,3.00097 1.58887,0.83301 3.71387,0.62403 5.25879,1.85059 1.07129,0.85058 0.98828,1.95117 1.49707,3.35156 0.23535,0.34668 0.46778,0.6875 0.69434,1.03516 0.82129,1.81543 2.10742,5.27343 1.15625,8.08886 -0.54395,1.61622 -2.69824,3.4043 -4.09863,4.27051 -0.0176,5.57227 1.2832,10.9043 0.40625,16.17383 -0.23243,1.38965 0.57617,2.93359 0.28808,3.9834 -0.13867,0.17383 -0.27051,0.34766 -0.40527,0.52148 0.04,0.61426 0.0762,1.23047 0.11719,1.84766 -0.0772,1.71191 -0.15918,3.4248 -0.23243,5.13769 -0.23242,1.15333 -0.45898,2.3125 -0.69433,3.46583 -0.56738,2.83203 -0.70899,5.4375 -1.21192,8.49218 -0.15625,2.32422 -0.30371,4.65528 -0.46484,6.98438 -0.47754,2.63086 -1.03613,5.2041 -1.33105,8.08691 -0.18457,1.90918 -0.39649,3.59278 -0.74707,5.31445 -0.16407,0.80567 -0.0733,1.64747 -0.39942,2.25098 -0.80957,0.0967 -1.62207,0.19141 -2.43066,0.28809 -0.13281,0.5332 0.14941,1.14453 0.23535,1.50293 0.21484,0.90625 0.0176,1.74218 0.16992,2.65332 0.11524,0.28906 0.23242,0.57812 0.34473,0.86621 0.51465,1.58105 -1.58594,2.38379 -2.59864,2.60058 -0.61425,0.13575 -1.4707,-0.0351 -1.90625,-0.17382 -0.49121,-0.15528 -1.04199,-0.28711 -1.20898,-0.75 -0.30859,-0.82911 1.12891,-4.07129 0.92383,-5.71289 -0.69141,-0.19434 -0.62988,-0.40723 -1.04199,-0.81348 -0.55078,-0.0293 -0.97657,0.0478 -1.04102,0.34766 -0.33008,0.25195 -0.4541,0.58203 -0.80664,0.80566 -0.27148,1.42773 -0.5332,2.84961 -0.80273,4.27832 -0.29786,0.19531 -0.77735,0.23047 -1.16016,0.40039 -0.0977,0.55859 -0.18848,1.11523 -0.28809,1.67383 -0.94726,1.41015 -4.16894,0.19824 -4.96972,-0.40235 -0.22657,-2.27734 1.06836,-3.59863 1.91015,-5.02636 0.36426,-0.61133 0.41114,-1.32422 0.6377,-2.07715 0.1123,-0.40527 0.45117,-0.62695 0.40332,-1.03809 -0.32129,-0.0566 -0.60547,-0.10254 -0.75684,-0.35058 -0.26172,-0.46973 -0.28418,-1.39356 -0.74707,-1.6709 -0.57324,-0.39453 -2.01465,-0.2461 -2.94238,-0.22852 -1.28809,-4.49707 -2.42725,-10.37597 -0.87402,-15.53711 0.78906,-1.79199 1.58007,-3.58007 2.36914,-5.37304 0.0586,-1.1709 0.12109,-2.34864 0.17675,-3.52246 0.14063,-0.85547 0.54981,-2.48243 0.52051,-3.11914 -0.13574,-2.54493 -1.08593,-5.40821 -1.38574,-7.73731 0.0527,-0.73242 0.11426,-1.46289 0.16797,-2.19531 -0.20899,-1.18067 -0.94483,-2.52539 -0.68945,-3.92774 0.15039,-0.53613 0.30664,-1.07812 0.46289,-1.61328 -0.0772,-0.46484 -0.51514,-0.80078 -0.40039,-1.44531 0.0586,-0.37891 0.2705,-0.74121 0.17285,-1.15625 -0.37598,-0.10254 -0.71436,-0.24707 -1.10254,-0.0586 0.005,0.83593 0.50244,1.30664 0.46142,1.73339 -1.3208,-0.82128 -2.89502,-6.41796 -3.46289,-8.37402 -0.0767,0 -0.15332,0 -0.22656,0 -0.37109,0.29102 -0.73584,0.5791 -1.09766,0.86817 -0.0649,-0.16602 -0.29443,-0.24219 -0.11767,-0.23633 0.33545,-0.31446 1.02978,-0.64453 1.03564,-1.44043 -0.27343,-0.0889 -0.18505,-0.12403 -0.3413,-0.28907 -0.0791,0.042 -0.15577,0.0771 -0.23536,0.11719 -0.35351,1.07813 -0.94482,1.60645 -1.78613,2.19336 0.0239,-0.33984 -0.15869,-0.26855 0.0527,-0.46289 -0.0352,-0.0762 -0.0703,-0.15332 -0.11719,-0.22949 -0.25049,0.0937 -0.23242,0.19433 -0.40381,0.34766 0.45068,-0.90625 0.88867,-1.81055 1.33057,-2.71387 0.0205,0 0.0381,0 0.0557,0 0,0.1123 0,0.23047 0,0.34179 0.10059,-0.0176 0.19482,-0.0352 0.2915,-0.0557 0.0767,-0.15625 0.15284,-0.30664 0.23535,-0.46289 -0.0234,-0.11621 -0.0439,-0.22852 -0.0649,-0.34668 -0.0351,-0.0176 -0.0762,-0.0381 -0.11474,-0.0586 -0.0557,0.0586 -0.11475,0.11816 -0.17041,0.17675 0.0356,-0.23242 0.0732,-0.46191 0.11474,-0.69531 -0.23242,-0.28711 -0.46191,-0.57617 -0.69433,-0.86426 -0.44434,-0.93554 -0.22364,-2.0664 -0.9209,-2.71289 -0.0801,0.0352 -0.15332,0.0771 -0.23242,0.11231 -0.0356,0.84375 -0.14746,1.85351 -0.521,2.48242 0.0288,-0.84082 0.36768,-1.20605 0.17627,-1.90625 -0.023,0 -0.0405,0 -0.062,0 -0.23535,0.0996 -0.29981,0.16992 -0.40283,0.40625 -0.1294,-0.10645 -0.0791,-0.10645 -0.28565,-0.17383 -0.53222,0.71485 -1.38232,1.18555 -2.02441,1.79199 -0.0352,-0.0176 -0.0767,-0.0381 -0.11426,-0.0596 0.11426,-0.13379 0.229,-0.26757 0.34717,-0.40332 0.3916,-0.0732 0.7915,-0.67968 1.09765,-1.04004 0,-0.0576 0,-0.11523 0,-0.17089 -0.0439,-0.0205 -0.0796,-0.042 -0.11474,-0.0596 -0.22656,0.0625 -0.11817,0.11523 -0.29151,0 0.041,-0.0586 0.0767,-0.11426 0.11768,-0.17383 0.48535,-0.34766 2.86572,-2.71778 2.53955,-3.2334 -0.0386,0.0381 -0.0767,0.0762 -0.11474,0.11523 -0.32374,0.19434 -0.39405,0.53711 -0.63575,0.80567 -0.96191,1.07129 -1.66894,1.54883 -2.42431,2.65918 0.0615,0.22949 0.14697,0.0859 0.0557,0.22949 -0.13525,0.0977 -0.271,0.19531 -0.40576,0.28906 0.0967,-0.1709 0.19678,-0.34668 0.29346,-0.51855 -0.0757,0 -0.1587,0 -0.23536,0 -0.73242,0.97168 -2.40966,2.4248 -3.51855,3.34863 -0.10938,-0.23437 0.006,-0.15332 -0.23584,-0.11621 0.0557,-0.0947 0.12109,-0.18848 0.17383,-0.28906 0.35644,-0.0937 2.53906,-2.21875 2.7749,-2.6543 -0.0415,-0.0371 -0.0767,-0.0771 -0.11475,-0.11719 -0.0439,0.04 -0.083,0.0801 -0.12109,0.11719 -0.18848,0.15332 -0.37891,0.30957 -0.57373,0.46191 -0.0527,-0.16211 -0.29102,-0.2373 -0.11719,-0.23242 0.25293,-0.1914 0.50244,-0.38281 0.74658,-0.57617 -0.0557,-0.0381 -0.10839,-0.0762 -0.16748,-0.11523 0.55664,-0.0791 0.90918,-0.40332 1.15332,-0.75098 -0.0581,-0.0176 -0.11474,-0.0381 -0.17334,-0.0576 0.3003,-0.0654 0.37354,-0.14648 0.521,-0.34765 -0.14111,-0.14649 -0.0708,-0.0303 -0.1123,-0.1709 0.67968,-0.32324 1.04834,-1.05274 1.4917,-1.61719 0.83056,-1.03125 1.98681,-2.20215 2.48974,-3.52246 0.0557,-0.29199 0.11475,-0.58106 0.17383,-0.86817 -0.0591,-0.0596 -0.11816,-0.11523 -0.17383,-0.17089 0.82129,-0.91895 0.53906,-3.59571 1.44776,-5.37305 1.30322,-2.58301 3.32519,-3.90723 4.33105,-6.35254 0.18603,-1 0.38281,-2.00391 0.57422,-3.00391 0.24414,-0.79492 0.73535,-1.25878 0.97949,-1.96093 0.0449,-0.37012 0.0801,-0.73535 0.11816,-1.10059 0.41993,-0.95898 0.84083,-1.92383 1.27051,-2.88281 0.0937,-0.46485 0.19141,-0.92676 0.28907,-1.38965 0.3496,-1.31152 0.87597,-2.47754 1.61816,-3.58008 0.56445,-0.83887 1.42383,-1.40332 2.47754,-1.85058 0.44433,-0.13282 0.89062,-0.26465 1.33008,-0.40332 z"
                 style="fill:#231f20;fill-opacity:1;fill-rule:evenodd;stroke:none"
                 id="path52" />
            </g>
          </g>
        </g>
      </g>
      <g
         transform="matrix(1.3333333,0,0,-1.3333333,2343.7334,1236.2394)"
         id="g60">
        <g
           id="g62" />
        <g
           id="g74">
          <g
             clip-path="url(#clipPath66)"
             id="g72"
             style="opacity:0.47999998">
            <g
               transform="scale(1,-1)"
               id="g70">
              <path
                 d="m 410.7207,-201.51855 c -0.8789,1.49707 -0.62256,4.26464 -1.1709,5.9414 -0.24755,0.74902 -0.9121,0.85938 -1.25244,1.41113 -0.60156,0.97266 -0.84326,3.06836 -0.62548,4.22266 0.54687,0.10352 1.09375,0.20801 1.64404,0.3125 0.57861,-0.5293 3.27588,-7.70801 2.97021,-8.75977 -0.34765,-1.17968 -1.05224,-2.07324 -1.56543,-3.12792 z m 8.21289,-43.55176 c 6.38965,0.0127 5.88965,3.30859 8.05371,7.35058 0.36426,0.5752 0.72754,1.14356 1.09375,1.71875 0.18067,0.57422 0.36329,1.14649 0.54786,1.72168 1.42187,2.49512 3.7666,4.94239 4.7705,7.81739 0.12891,0.68066 0.25684,1.35546 0.39063,2.03418 0.62598,0.59863 1.25,1.19824 1.875,1.79785 1.64355,2.0498 3.17578,4.32812 3.91016,7.27343 0.70312,3.18067 1.4082,6.3584 2.11132,9.53809 0.29004,0.98047 1.19141,2.52246 0.7793,3.75488 -0.30469,0.92481 -1.32715,1.31641 -2.1084,1.79493 0.042,1.80859 -1.08789,2.15625 -2.42383,2.583 0.52246,3.04883 1.04102,6.09766 1.56446,9.14942 0.30273,0.958 1.40527,2.87793 0.93554,4.1416 -0.47558,1.02246 -4.57519,2.54687 -5.8623,2.97461 0.16992,2.71582 0.26562,5.80664 0.70312,8.67969 0.0264,10.7871 0.0508,21.58203 0.0791,32.37011 -2.16211,0.61035 -5.30274,0.47754 -7.50977,1.17383 -0.15527,2.31836 -0.3125,4.63965 -0.46582,6.95899 0,1.12011 0,2.24121 0,3.3623 -0.12012,0.54102 -0.57129,0.95117 -0.39063,1.87598 0.25293,1.31054 0.75196,3.13379 1.16993,4.30078 0.49804,1.375 1.39062,4.49316 0.31347,5.86426 -0.98144,1.73046 -4.40625,0.77343 -5.5498,0 -0.24707,-0.91993 0.0928,-2.89551 -0.31348,-3.90625 -0.31152,0.3125 -0.625,0.62597 -0.9375,0.9375 -1.62597,0.67089 -4.84033,1.39453 -6.25732,-0.0801 -0.0215,-1.73145 3.50049,-7.05957 4.45703,-8.29004 -0.0239,-0.0771 -0.0513,-0.15528 -0.0767,-0.2334 -0.31836,-0.0977 -0.39551,-0.12598 -0.5459,-0.38867 -1.36035,-3.06153 -0.521,-8.0625 -2.03418,-10.9502 -0.7832,0.13086 -1.56543,0.26074 -2.34863,0.39356 -1.53028,0.23242 -3.72608,-0.73047 -4.69141,-1.33301 -0.0513,-1.84863 -0.10351,-3.69727 -0.15527,-5.55078 -0.61133,-3.62695 -0.30811,-7.96582 -0.93848,-11.72559 -0.0264,-1.80176 -0.0522,-3.60058 -0.0786,-5.39844 -0.47217,-3.80859 0.33642,-6.20898 -0.23486,-9.61621 -0.15528,-0.92675 0.19335,-2.12304 -0.15674,-2.8164 -0.0259,0 -0.0503,0 -0.0767,0 -0.0508,0.35644 -0.082,0.34179 -0.23487,0.54687 -0.65527,-0.042 -0.64697,-0.32617 -1.01513,-0.4707 -0.8711,-0.33398 -2.27832,0.49219 -2.89307,0.083 -0.78564,-0.44141 -1.22412,-1.50489 -1.41016,-2.58203 -0.73535,-0.21973 -1.95166,-0.26954 -2.34521,-0.85938 0.36719,-2.21582 0.73047,-4.43359 1.09668,-6.64844 -0.29736,-2.14257 -1.88574,-4.06152 -1.4082,-6.87988 0.13037,-0.60156 0.26123,-1.19824 0.39209,-1.79785 0,-1.19922 0,-2.40039 0,-3.59668 1.11865,-6.35938 2.23974,-12.72266 3.36181,-19.08106 0.5044,-2.15722 2.47363,-3.41601 3.43994,-5.1582 0.0781,-0.39355 0.15577,-0.78418 0.23487,-1.17383 0.36865,-0.91992 1.21777,-1.91406 1.71826,-2.73828 0.6084,-0.99414 0.80224,-2.12304 1.48633,-3.05078 0.72168,-0.97461 2.76513,-3.26074 2.89257,-4.6123 -0.0249,-0.0781 -0.0522,-0.15723 -0.0771,-0.2334 -1.74024,-0.0176 -1.84864,-1.1377 -2.34327,-2.34668 0.42188,-0.91211 0.95655,-1.08399 1.87647,-1.48438 0.43164,-3.25 1.13476,-5.72558 3.67139,-6.80468 0.65332,-0.12989 1.30664,-0.2627 1.958,-0.38965 z"
                 style="fill:#231f20;fill-opacity:1;fill-rule:evenodd;stroke:none"
                 id="path68" />
            </g>
          </g>
        </g>
      </g>
      <g
         transform="matrix(1.3333333,0,0,-1.3333333,2343.7334,1236.2394)"
         id="g76">
        <g
           id="g78" />
        <g
           id="g90">
          <g
             clip-path="url(#clipPath82)"
             id="g88"
             style="opacity:0.47999998">
            <g
               transform="scale(1,-1)"
               id="g86">
              <path
                 d="m 310.74902,-147.07422 c -0.55029,1.88867 -1.13867,2.86035 -2.27002,4.08399 0.019,1.66601 1.04053,2.9414 1.43995,4.38085 0.77343,2.8125 0.76123,5.78809 1.66308,8.24317 0.0479,0 0.0996,0 0.14893,0 0,-1.73438 0,-3.47656 0,-5.21875 0.2456,-1.54883 0.62646,-3.59277 0.38281,-5.13574 0.0737,-0.95996 0.15039,-1.917 0.22119,-2.87305 -0.40283,-0.6582 -0.80371,-1.31348 -1.20898,-1.96875 -0.125,-0.50391 -0.24805,-1.00781 -0.37696,-1.51172 z m -14.13867,-37.65137 c -0.0225,0.48047 -0.0464,1.1045 0.15137,1.36524 0.22119,0.32812 0.60303,0.43847 0.9834,0.60254 0.0776,-0.22949 0.15283,-0.45215 0.22656,-0.68555 -0.45215,-0.42383 -0.90674,-0.85352 -1.36133,-1.28223 z m 14.13867,-55.03808 c 5.3042,0.15039 10.2417,4.30371 7.18311,9.22363 1.01855,1.3584 1.04443,2.34473 -0.0737,3.77832 -0.25147,0.27734 -0.50537,0.55567 -0.75928,0.83301 -0.24658,0.95703 0.8501,4.39648 1.21192,4.98926 1.64209,0.62011 8.97998,3.75 9.75439,4.76269 1.38428,2.44434 2.77051,4.89258 4.1582,7.33301 0.30323,2.04395 0.60498,4.08105 0.90479,6.125 0.88818,3.87988 1.55127,8.22168 2.7998,11.94531 -0.64843,0.98047 -2.91308,1.25196 -4.4624,1.28223 -0.40186,2.38672 -2.32715,3.97754 -3.17725,5.97656 -0.31298,0.74317 -0.11767,1.40235 -0.52783,1.96485 -0.55517,0.76757 -2.19433,2.47558 -2.41894,3.32519 1.25634,0.83008 1.10937,2.86719 1.51025,4.61133 0.66553,2.86328 -0.45752,6.4082 -1.1333,9.3789 -0.12549,1.50782 -0.25,3.02344 -0.37695,4.53516 -0.47022,2.65137 -0.23487,6.36328 -0.6792,8.91797 0.0239,0.91211 0.0483,1.81836 0.0757,2.72363 -0.17773,1.69043 -0.35303,3.37696 -0.53125,5.06739 0.26563,0.72558 1.25293,1.10351 1.28516,2.11523 -0.42871,1.28613 -0.85645,2.57129 -1.28516,3.85742 -0.60058,2.2207 -1.16992,4.08008 -1.73877,6.04883 -0.32568,1.86133 -0.65478,3.72949 -0.98242,5.5957 -0.3291,1.03223 -0.65479,2.06739 -0.98242,3.09864 -0.25147,0.37695 -0.50537,0.7539 -0.75586,1.13183 -0.54981,1.64551 1.0957,3.29102 0.60205,4.8418 -0.29541,0.93262 -0.78516,1.55664 -1.20703,2.27051 0.41455,1.19922 2.66406,5.08105 0.52783,6.12304 -1.44482,0.77149 -5.24414,0.30762 -5.97266,-0.68554 -0.37695,-0.51563 -0.3291,-1.32715 -0.45459,-2.11231 -0.2915,-0.0488 -0.37695,-0.0586 -0.52783,-0.2334 -0.27246,-0.53418 -0.12646,-1.50488 -0.30371,-2.1875 -0.58398,0 -0.92724,-0.15039 -1.13281,-0.52734 -0.24512,-0.63086 -0.28125,-2.06836 -0.37549,-2.72363 -0.0254,0.0478 -0.0532,0.10351 -0.0772,0.15136 -0.48828,0.56934 -0.66699,0.56543 -1.43847,0.9043 -0.31202,1.09766 -0.16456,3.4707 -0.75635,4.46582 -0.93604,1.56934 -4.53418,3.05762 -6.72901,1.7334 -0.78466,-3.47559 1.35645,-5.26953 1.74024,-7.86133 -0.7041,-1.23047 -1.4126,-2.46484 -2.1167,-3.7041 -0.25098,-0.94141 0.60986,-1.30469 0.75732,-1.88867 0.0757,-0.30762 -0.39209,-3.53809 -0.52929,-4.16211 -0.60059,-2.70801 -1.65137,-5.61621 -2.49659,-8.16406 -0.4458,-1.35157 -0.15722,-2.56836 -0.60498,-4.08399 -0.3413,-1.14746 -1.49316,-2.05664 -1.96582,-3.24902 -0.6333,-1.59863 -0.15332,-3.36817 -0.0762,-4.98926 -0.47168,-0.34375 -1.2583,-0.89551 -1.43506,-1.51269 -0.34228,-1.1836 0.47852,-1.88575 0.60547,-2.72168 0.24658,-1.64356 -0.0444,-3.57227 0.29981,-5.37012 0.22851,-1.2334 0.45263,-2.46875 0.68115,-3.70313 -0.31885,-1.85156 -0.98438,-4.09765 -1.3584,-6.27343 -0.66797,-3.86133 0.92773,-7.34571 1.43359,-10.20899 -3.45117,-1.99414 -4.18847,-6.23535 -5.4414,-10.35742 -0.20215,-1.03223 -0.40528,-2.06348 -0.60498,-3.09863 -0.31787,-0.52539 -3.45996,-0.72071 -4.15967,-1.58887 1.1333,-3.40039 2.26807,-6.80176 3.40185,-10.20801 0.32911,-2.03613 0.65674,-4.08203 0.9834,-6.12305 0.49756,-1.60449 1.57959,-2.55078 2.42139,-3.77832 0.67139,-0.98828 1.01953,-2.05468 1.73779,-2.94824 1.63916,-2.05469 4.18506,-2.5039 6.80469,-3.63086 1.3042,-0.55859 2.46045,-1.38965 3.93115,-1.81445 -0.40625,-2.00195 -2.17578,-3.36719 -2.79785,-5.44434 -0.89307,-2.98339 1.86182,-11.47363 3.40283,-12.70117 1.07325,-0.85644 2.8291,-0.47851 4.23291,-1.05566 z"
                 style="fill:#231f20;fill-opacity:1;fill-rule:evenodd;stroke:none"
                 id="path84" />
            </g>
          </g>
        </g>
      </g>
      <g
         transform="matrix(1.3333333,0,0,-1.3333333,2343.7334,1236.2394)"
         id="g92">
        <g
           id="g94" />
        <g
           id="g106">
          <g
             clip-path="url(#clipPath98)"
             id="g104"
             style="opacity:0.47999998">
            <g
               transform="scale(1,-1)"
               id="g102">
              <path
                 d="m 384.35059,-225.89063 c 0.0415,0.0234 0.085,0.042 0.125,0.0625 -0.04,-0.0205 -0.0835,-0.0391 -0.125,-0.0625 z m 9.97265,51.43067 c -0.10595,0 -0.2124,0 -0.31689,0 -0.37891,-1.36035 -2.30567,-2.5791 -3.34424,-3.34375 -0.0635,0 -0.12695,0 -0.19092,0 0,0.0615 0,0.12207 0,0.19043 0.67774,2.17676 0.78076,4.67969 1.2002,7.1289 0,2.22559 0,4.46094 0,6.69043 0,1.76661 0,3.53321 0,5.29883 0.18261,1.19532 0.25976,3.1836 0.75634,4.35449 0.33594,0.78907 0.95118,1.59473 1.19971,2.52247 0.12647,1.60253 0.25147,3.19921 0.37891,4.79882 0.69629,4.42383 0.3584,10.6377 -1.07324,14.07618 0.66748,-0.0244 1.17334,-0.01 1.76806,0.12011 1.03858,1.40137 1.65576,2.92969 -0.7583,3.47657 -0.54785,0.0625 -1.09326,0.12207 -1.63965,0.18652 -0.35449,0.12891 -0.29052,0.55176 -0.63183,0.69629 -1.27881,0.53515 -3.15772,0.74609 -4.3545,1.00781 -0.19189,-1.37305 -0.35693,-2.70215 -0.8833,-3.84766 -0.39209,-0.85351 -0.94531,-0.79101 -1.19824,-2.14648 -0.34765,-1.85742 0.61133,-3.61426 0.37793,-5.17578 -0.31543,-1.36817 -0.63086,-2.73242 -0.94678,-4.09766 -0.25341,-2.69824 -0.50537,-5.38769 -0.75732,-8.07812 -0.3457,-2.00196 -0.79395,-3.81153 -1.13574,-5.62305 -0.50244,-2.66309 -0.35401,-5.24609 -1.00928,-7.56934 -0.17969,-0.63085 -0.061,-1.89648 -0.63184,-2.14648 -0.78955,3.22656 -0.16211,7.02832 -0.69287,10.60449 -0.64941,4.36524 -0.77295,10.69629 0.1875,15.02149 0.37451,1.67675 1.36768,3.0664 1.95655,4.73144 -0.7793,0.80567 -1.51612,1.5459 -2.27198,2.39258 0.15869,0.83301 0.60791,1.6084 0.56934,2.52832 -0.93213,1.05859 -3.92578,1.01563 -5.36328,0.63184 -0.19483,-1.03321 -0.0435,-1.75 0,-2.8418 -0.38086,0 -0.75879,0 -1.1377,0 -1.00879,-1.83203 -2.35888,-3.99219 -2.83935,-6.3125 -0.0649,-1.17383 -0.12744,-2.35352 -0.18897,-3.53125 -1.08105,-6.4209 0.36328,-12.70801 -0.75781,-19.56152 0.0635,-1.72852 0.12598,-3.45313 0.18896,-5.17676 -0.33496,-0.94727 -0.67333,-1.89356 -1.00781,-2.83887 -0.48926,-2.31055 0.8125,-3.78808 0.81885,-5.87207 -2.07275,-0.1123 -4.02148,-1.78125 -4.29248,-3.6582 -0.1333,-0.94434 0.64404,-1.70508 0.38086,-2.46094 -0.65283,-1.13574 -1.30469,-2.27539 -1.95752,-3.40723 -0.042,-0.67578 -0.083,-1.34961 -0.12451,-2.01953 -0.21045,-0.77929 -0.42139,-1.55859 -0.63233,-2.33398 0.12598,-1.33106 0.25293,-2.65137 0.37696,-3.97559 0.48681,-2.66894 0.58886,-5.45801 1.13672,-7.82715 0.41552,-1.78711 0.48437,-3.73535 1.2622,-5.2373 0.85498,-1.6582 4.35694,-2.63867 6.18555,-3.46973 1.23096,-0.56152 2.33496,-2.04492 3.28076,-2.96484 -0.0386,-1.48926 -0.92187,-2.47559 -1.19775,-3.79004 -0.17432,-0.82422 0.40088,-1.28809 0.50537,-1.83203 0.14355,-0.75684 -0.42822,-1.11426 -0.38086,-1.7002 0.30469,-3.75586 2.97949,-6.8955 7.57422,-5.80664 0.77783,0.29395 1.55713,0.58887 2.33398,0.88281 2.72705,1.2959 1.30371,7.04297 0.44141,9.27637 -0.28223,0.73828 -1.35645,1.38574 -0.81983,2.52832 1.25733,0.56641 1.71338,2.09571 2.71289,2.90039 0.39991,0.1045 0.79981,0.20606 1.20069,0.31055 0.98535,0.44531 1.97754,0.88477 2.96728,1.32812 2.24414,1.55762 3.7041,4.62696 4.28955,7.76172 -0.021,0.65332 -0.0435,1.30762 -0.064,1.95606 0.58057,2.08691 2.18164,5.55371 1.70508,8.39355 -0.49219,2.93067 -1.23096,5.56739 -1.76807,8.14258 -0.125,1.15625 -0.25244,2.31348 -0.37988,3.47266 -0.27295,0.60742 -0.54492,1.21972 -0.81934,1.83105 -0.0625,1.13574 -0.12646,2.2666 -0.1875,3.4043 z"
                 style="fill:#231f20;fill-opacity:1;fill-rule:evenodd;stroke:none"
                 id="path100" />
            </g>
          </g>
        </g>
      </g>
      <g
         transform="matrix(1.3333333,0,0,-1.3333333,2343.7334,1236.2394)"
         id="g108">
        <g
           id="g110" />
        <g
           id="g122">
          <g
             clip-path="url(#clipPath114)"
             id="g120"
             style="opacity:0.47999998">
            <g
               transform="scale(1,-1)"
               id="g118">
              <path
                 d="m 471.4541,-102.39844 c 0.11035,0.22071 0.19043,0.23828 0.25098,0 -0.085,0 -0.16699,0 -0.25098,0 z m -0.83301,-12.21191 c -0.18652,1.30176 -1.29882,7.50488 -0.75488,8.1123 0.30371,0 0.61231,0 0.91699,0 0.43848,-1.583 0.47754,-3.20215 2.09375,-3.60058 -0.12597,-0.79395 -1.73144,-4.21973 -2.25586,-4.51172 z m -4.60449,-144.44629 c 5.91699,-0.0605 8.78809,1.14648 10.28906,5.44043 0.39747,1.13672 0.83692,3.1748 0.50098,4.6709 -0.33789,1.53613 -1.63574,2.07812 -2.08887,3.35351 -0.46191,1.28418 -0.0947,3.32325 0.083,4.51172 2.75391,1.07227 2.16406,3.96875 4.26563,5.60938 2.64648,2.07324 4.76757,3.98242 6.85839,6.61035 0.58594,0.69433 1.1709,1.39258 1.75782,2.08691 0.41504,1.53614 0.83203,3.07031 1.25293,4.60645 0.27734,0.52051 0.55761,1.05761 0.833,1.58691 0.25586,1.11133 -1.0957,3.08985 -0.833,4.85059 0.62011,4.14648 -0.625,5.88574 -1.1709,8.77636 -0.54883,2.91407 0.75879,6.89258 0.25098,10.20508 -0.1709,2.59473 -0.33301,5.18067 -0.50293,7.78321 0.70507,4.52832 0.35351,9.75097 1.08691,14.46679 0.0566,1.56055 0.1123,3.12403 0.16894,4.68946 0.167,3.07031 0.33399,6.125 0.50098,9.18652 -2.14746,0.0908 -4.29297,0.17383 -6.43945,0.25684 0,0.0303 0,0.0654 0,0.0908 0.76758,2.34765 1.2168,8.1289 0.75293,11.03125 -0.16309,1.00586 -0.8916,4.26367 -0.75293,4.94531 0.34668,1.7041 1.14062,3.54394 1.50488,5.43066 0.84375,4.35547 0.15234,9.17871 0,13.63867 0.0283,2.72852 0.0547,5.45313 0.083,8.18946 0.0254,4.2334 0.0566,8.47656 0.082,12.70898 0.085,1.02442 0.3125,2.29199 -0.16504,3.10254 -0.19726,0.10449 -0.38965,0.22168 -0.58691,0.33887 0.0361,1.62304 0.61914,2.66699 -0.16504,3.75097 -2.64844,1.09375 -5.50781,0.13477 -7.61328,-1.1621 -0.0283,-0.25489 -0.0547,-0.50196 -0.0811,-0.75098 -2.23047,-0.6416 -4.46094,-1.28711 -6.69238,-1.92871 -0.0566,0.0293 -0.11133,0.0596 -0.16895,0.0908 -0.13769,1.43945 -0.27734,2.88867 -0.41699,4.3457 -0.44922,0.2168 -0.89355,0.44336 -1.33789,0.66895 0.0303,1.08398 0.43359,2.41601 -0.085,3.18261 -0.82422,1.31055 -4.94922,0.98926 -6.94238,0.57325 -0.61817,-0.125 -0.60547,-0.56348 -1.00293,-0.74512 -1.38965,-0.08692 -2.79102,-0.17383 -4.18164,-0.25684 -4.23535,-0.70215 -9.37403,-1.07129 -10.78907,-4.51465 -0.29394,-0.71289 0.6211,-1.1289 0.83692,-1.41601 0.19726,-0.37305 0.38965,-0.73242 0.58691,-1.0957 1.42969,-1.36231 5.52735,0.26464 7.43946,-0.74219 0.0957,-3.32715 0.5791,-3.64453 2.17578,-5.36231 -0.0566,-1.45312 -0.91504,-2.32031 -1.25391,-3.59082 -0.1123,-1.08496 -0.22266,-2.17383 -0.33203,-3.26269 0,-2.1211 0,-4.24219 0,-6.3584 -0.0576,-2.28613 -0.11426,-4.57324 -0.1709,-6.85938 0,-4.58984 0.0176,-8.96679 0.66992,-13.12695 0.27539,-1.75586 -1.59179,-2.25879 -1.2539,-4.43652 0.51855,-3.33203 0.12402,-6.51074 0.66894,-10.03321 0.11231,-1.76562 0.22266,-3.52246 0.33594,-5.27539 -0.22754,-1.30078 -0.48633,-2.77636 -0.50293,-4.35156 -2.05859,0.45215 -1.90039,0.75098 -4.09668,0.33399 -0.52539,-1.07422 -2.28027,-3.79493 -1.75781,-5.68653 0.63965,-1.08398 1.28418,-2.17285 1.92187,-3.25293 0.0303,-0.5332 0.0586,-1.0664 0.084,-1.5957 0.40039,-1.62695 0.94629,-3.82227 1.16894,-5.6875 0.19629,-1.58398 -0.28125,-3.33496 0.085,-4.93262 0.4209,-0.77539 0.83985,-1.56152 1.25879,-2.34179 0.53321,-1.08008 1.06641,-2.9336 1.33594,-4.01368 0.0557,-2.70214 0.1123,-5.41308 0.16699,-8.11035 0.0859,-1.67969 0.16602,-3.34961 0.25098,-5.02441 0.30664,-1.08008 0.61426,-2.17188 0.91992,-3.26172 0.43359,-2.42871 -0.14062,-4.82715 0.58594,-6.60645 -0.51465,-0.67285 -1.48145,-1.14453 -1.75684,-2.0039 0.78711,-0.0606 2.15332,0.0342 2.51074,-0.50293 1.97461,-3.62305 1.10254,-10.70215 3.50977,-13.79883 -0.4209,-0.91602 -0.46387,-2.08301 0.16992,-3.10156 1.2461,-0.46973 4.23242,-2.60645 5.0166,-3.58789 0,-0.0303 0,-0.0566 0,-0.0859 -1.80468,0.0293 -4.75976,-0.27832 -5.43359,-1.42383 -0.0566,-0.44238 -0.11523,-0.89844 -0.16992,-1.34082 -0.24903,-0.35937 -0.50196,-0.72363 -0.75391,-1.09277 0.14063,-0.21582 0.28223,-0.44239 0.41797,-0.66211 -0.83008,-1.10742 -0.86914,-1.04688 -0.58496,-2.67774 -0.51856,-0.28613 -0.93945,-0.47754 -1,-1.25293 0.67676,-0.85058 2.27539,-2.6123 2.00586,-4.18164 -0.11914,-0.68554 -0.74121,-1.05078 -0.58692,-1.92675 0.32911,-1.83008 1.58497,-4.09864 2.59082,-5.43165 1.16895,-1.55175 2.79883,-1.34277 4.68555,-2.25976 z"
                 style="fill:#231f20;fill-opacity:1;fill-rule:evenodd;stroke:none"
                 id="path116" />
            </g>
          </g>
        </g>
      </g>
      <g
         transform="matrix(1.3333333,0,0,-1.3333333,2343.7334,1236.2394)"
         id="g124">
        <g
           id="g126" />
        <g
           id="g138">
          <g
             clip-path="url(#clipPath130)"
             id="g136"
             style="opacity:0.47999998">
            <g
               transform="scale(1,-1)"
               id="g134">
              <path
                 d="m 355.33789,-168.71094 c -0.33252,1.35156 -0.27295,3.3418 -0.52393,4.6416 -0.11669,0.59571 0.36719,0.54786 0.2627,1.0459 -0.0483,0.23633 -0.36768,0.4375 -0.43896,0.61914 -0.35254,0.89356 0.38623,1.88184 0.17626,2.6211 -0.1289,0.45215 -1.04931,1.69922 -0.78808,2.45215 0.13379,0.37988 0.56103,0.84765 0.70068,1.2207 0.11475,0.6416 0.2334,1.28222 0.3501,1.92578 0.0693,-0.0889 0.0298,-0.0264 0.0889,-0.17285 1.08935,-1.36621 0.21142,-3.08301 -0.17627,-4.63477 -0.0361,-0.14355 -0.17676,-0.60644 -0.0889,-0.88086 0.28906,-0.8955 1.17236,-1.47558 1.3125,-2.62109 -0.26269,-0.75977 -0.5249,-1.51856 -0.7876,-2.27344 -0.28076,-1.09375 0.10254,-2.10058 0.2627,-3.06152 0.0644,-0.38672 -0.14063,-0.49121 -0.17529,-0.88184 -0.0581,0 -0.11524,0 -0.17481,0 z m 9.88477,-5.68066 c -0.0347,0.49512 -0.25,0.66015 -0.35059,0.95996 0,0.58203 0,1.16894 0,1.74902 0.0591,0 0.11865,0 0.17432,0 0,-0.68457 0.21972,-1.00195 0.35498,-1.48828 0.1416,-0.52441 9.7e-4,-0.77148 0.0859,-1.2207 -0.0859,0 -0.17724,0 -0.26464,0 z m 0.61474,-5.50977 c -0.008,0.42578 -0.10595,1.01563 0.0854,1.31055 0.0562,-0.40625 0.11865,-0.81543 0.17725,-1.22363 -0.0899,-0.0274 -0.17725,-0.0606 -0.2627,-0.0869 z m -0.61474,-2.88867 c 0.0151,0.7041 0.28564,1.11328 0.43896,1.66016 0.0283,0 0.0561,0 0.0869,0 0,-0.1377 0,-0.29297 0,-0.43848 -0.26807,-0.45801 -0.0332,-0.97754 -0.52588,-1.22168 z m -0.70069,13.99121 c 0.0127,-0.70703 0.10401,-1.70996 -0.0859,-2.26855 -0.0693,0.085 -0.0303,0.0254 -0.0854,0.1748 -0.17188,0.27637 -0.0645,0.69043 -0.17383,1.05274 -0.0542,0.16601 -0.30518,0.40039 -0.35498,0.52539 -0.0278,0.58007 -0.0547,1.16113 -0.0859,1.74707 -0.19336,0.82129 -0.49072,1.67968 -0.69971,2.36425 -0.11914,0.38477 -0.0215,1.09864 -0.0879,1.39844 0,0.46289 0,0.92774 0,1.40039 0,1.27637 0.10108,2.47852 0,3.58692 0,0.55273 0,1.10058 0,1.66113 -0.20312,0.91406 -0.4834,1.61035 -0.6997,2.44629 -0.0562,1.10937 -0.1167,2.21582 -0.17432,3.32422 -0.17676,0.74902 -0.31201,1.60254 -0.43799,2.44629 -0.0444,0.30761 0.11231,0.68066 0,1.13672 -0.42871,1.77734 -0.81006,3.64062 -1.3999,5.42578 -0.39942,1.21875 -1.60742,1.1289 -1.83692,1.9209 -0.11328,0.1621 -0.14697,0.37597 -0.17431,0.61816 0.63623,0.31445 0.84619,0.76855 1.31201,1.22461 -0.0347,0.84277 -0.52246,1.04101 -0.61279,1.8418 0.28466,0.11328 0.46435,0.33789 0.52685,0.69335 0.01,0.0234 -0.479,2.20313 -0.61279,2.53907 -1.31543,0.63965 -4.04736,0.62011 -5.15967,-0.17774 -0.36133,-0.25195 -0.54639,-0.75976 -0.78906,-1.13672 -0.23535,-0.35937 -0.88281,-1.13183 -0.61279,-1.91796 0.083,-0.25293 0.3374,-0.41114 0.4375,-0.70899 -0.69239,-0.42578 -0.73194,-1.09863 -0.52442,-2.01074 -1.48828,-0.64453 -1.71826,-2.34473 -2.09814,-4.10938 0.0264,-0.875 0.0562,-1.75293 0.0859,-2.62597 -0.30712,-0.95606 -1.45556,-1.51758 -1.57421,-2.71289 0.27539,-0.33692 0.49804,-0.92871 0.52441,-1.48438 -1.14063,-1.14355 -0.7124,-2.47754 -1.31348,-4.11133 -0.25634,-0.70019 -1.43017,-3.37402 -1.22363,-4.19824 0.0908,-0.36035 0.35303,-0.79199 0.43604,-1.13965 -0.6587,-1.7334 -0.69141,-3.09082 -0.0874,-5.07031 0.13868,-0.45117 -0.0913,-1.22461 -0.17382,-1.57519 -0.22754,-0.9629 0.0229,-3.28907 0.17382,-3.9375 0.19092,-0.8086 -0.208,-1.56153 -0.34863,-2.09766 0,-0.96582 0,-1.92676 0,-2.88867 -0.0537,-0.13575 -0.29687,-0.40821 -0.34814,-0.61328 0.0283,-0.70215 0.0562,-1.39551 0.0859,-2.09864 -0.0791,-0.35351 -0.28564,-0.89258 -0.17627,-1.40234 0.10157,-0.45606 -0.0351,-1.26465 0.0903,-1.83984 0.31543,-1.42872 0.59961,-3.66504 0.34814,-4.98145 -0.1875,-0.99023 0.49365,-1.96875 0.0864,-2.88867 -0.0298,0 -0.0547,0 -0.0864,0 -0.14014,1.2334 -0.2749,2.70703 -0.52588,3.85449 -0.0264,0.6709 -0.0566,1.34082 -0.0874,2.00879 -0.1958,0.88477 -0.44141,2.27734 -0.26123,3.15137 0.1499,0.73437 -0.4458,1.22558 -0.26416,1.74609 0.0347,0.0967 0.30859,0.28418 0.35156,0.43945 0.11377,0.41993 -0.041,0.82911 0,1.22266 -0.2041,0.15039 -0.40723,0.29102 -0.61279,0.44141 0.13086,0.51269 0.42627,1.18261 0.52539,1.74707 0.0464,0.2666 -0.14551,0.90136 -0.17432,1.13574 -0.0913,0.70996 0.16748,1.27734 0.17432,2.10156 -0.19971,0.1084 -0.19776,0.14258 -0.52539,0.17285 -0.19385,-0.29785 -0.5044,-0.57422 -0.61328,-0.96386 -0.12256,-0.43946 0.0278,-1.04688 -0.0874,-1.4004 -0.0698,0.0957 -0.0298,0.0293 -0.0874,0.17774 -0.80762,1.24512 0.70117,2.85254 0.78809,3.7666 -0.13281,0.0469 -0.1499,0.0557 -0.35059,0.0898 -0.53515,-0.54101 -1.29297,-0.77832 -1.92383,-1.23144 -0.19091,-0.1377 -0.17968,-0.46582 -0.34814,-0.61133 -1.65332,-1.43164 -1.25781,-2.62012 -1.22461,-5.16504 -0.0596,0 -0.11914,0 -0.1748,0 0,0.0303 0,0.0654 0,0.0918 -0.2168,0.23144 -0.12745,0.35351 -0.52637,0.43555 -0.0889,-0.0684 -0.0254,-0.0264 -0.17383,-0.0889 -0.0591,-0.15918 -0.0854,-0.33985 -0.0889,-0.61328 0.3291,-0.54199 0.23242,-1.37696 0.43604,-2.00684 0.43408,-1.34082 0.32031,-2.79394 0.61328,-4.11426 0.062,-0.27539 -0.0566,-0.65039 -0.0854,-0.78222 -0.18652,-0.83887 -0.10254,-2.21582 0,-2.7168 0.15527,-0.77637 -0.20605,-1.45605 0,-2.36426 0.21973,-0.97363 0.56641,-1.72363 0.78564,-2.62011 0.0298,-0.81739 0.0596,-1.63477 0.0854,-2.4502 0.96143,-3.83594 1.23536,-8.2373 2.44971,-11.89844 0.70166,-2.10156 4.04932,-2.09179 5.94873,-3.0625 0.33545,-0.16797 0.41455,-0.63672 0.61279,-0.95996 0.33057,-0.5293 0.67041,-1.14941 1.05079,-1.66211 0.2666,-0.3623 0.7041,-0.57715 0.875,-1.04883 0.11084,-0.19824 -0.1587,-1.6748 -0.4375,-1.83593 -0.10254,0.0723 -0.14795,0.0664 -0.35254,0.0859 -0.0811,-0.15234 -0.10791,-0.1455 -0.17188,-0.35058 -0.47705,-0.58985 -0.34326,-1.93067 -0.0889,-2.53418 0.13331,-0.0508 0.14893,-0.0596 0.35157,-0.0869 0.0889,0.0703 0.023,0.0293 0.1748,0.0869 0,-0.11719 0,-0.23731 0,-0.35254 -0.2334,-0.3584 -0.11035,-1.63086 0,-2.0127 0.42774,-1.47754 2.03467,-3.38867 4.11182,-3.0625 3.38867,0.53907 4.18945,1.86621 3.67236,5.77637 0.0576,0 0.11719,0 0.17481,0 0.16503,-0.15723 0.0693,-0.16406 0.26123,-0.0908 0.21093,0.0781 0.1455,0.0391 0.26172,0.17774 0.52685,0.6289 -0.18946,2.21777 -0.60889,2.53613 -0.16651,0.10156 -0.46533,0.0527 -0.52783,0.0879 -0.93946,1.12598 -10e-4,2.30078 0.35351,3.23828 0.18311,0.49316 0.13623,1.11523 0.43701,1.48633 0.38623,0.32422 0.96924,0.31054 1.48536,0.52148 1.12402,0.46582 2.28613,0.95996 3.5,1.39942 0.77685,0.28711 1.7373,0.38281 2.01123,1.13867 0.25439,0.35058 0.20507,0.83105 0.35156,1.31152 0.31055,1.03223 0.50195,2.2793 0.78613,3.41504 0.0278,0.55274 0.0576,1.10449 0.0889,1.66113 0.81689,3.39161 0.56103,7.50098 1.39844,10.84864 0,0.66308 0,1.34082 0,2.00976 0.2041,0.92481 0.15527,2.19531 0.34863,3.06055 0.0752,0.34082 -0.11475,0.73242 -0.17236,0.96289 -0.0596,0.76269 -0.11866,1.51855 -0.17627,2.27539 -0.19336,0.81152 -0.56446,1.8252 -0.35157,2.70703 0.20899,0.86133 -0.0249,2.22754 -0.25976,2.71777 0.0283,0.43555 0.0552,0.87403 0.0835,1.3125 -0.3916,1.5625 -0.8833,2.76563 -2.0083,3.58594 -0.24804,0.17871 -1.64843,1.21778 -1.83838,1.05274 -0.14306,-0.12207 -0.0976,-0.0557 -0.17285,-0.26075 0.70459,-0.85058 1.43555,-2.55859 0.78711,-3.94433 -0.15674,0.0586 -0.0879,0.0215 -0.17676,0.0879 -0.53662,0.83496 -0.0591,2.23633 -1.3125,2.36426 -0.0903,-0.0664 -0.0244,-0.0303 -0.17431,-0.0928 0,0.125 0,0.24219 0,0.35352 0.2124,0.33594 0.1626,1.50586 0.17431,1.92187 -0.16259,0.0625 -0.33935,0.083 -0.61328,0.0859 z"
                 style="fill:#231f20;fill-opacity:1;fill-rule:evenodd;stroke:none"
                 id="path132" />
            </g>
          </g>
        </g>
      </g>
      <g
         transform="matrix(1.3333333,0,0,-1.3333333,2343.7334,1236.2394)"
         id="g140">
        <g
           id="g142" />
        <g
           id="g154">
          <g
             clip-path="url(#clipPath146)"
             id="g152"
             style="opacity:0.52999998">
            <g
               transform="scale(1,-1)"
               id="g150">
              <path
                 d="m 291.95508,-303.63184 c 0.18847,1.02686 0.8291,1.72461 1.92138,2.09082 2.92872,1.53174 5.93409,2.89795 9.01514,4.1001 6.52979,2.75147 13.5874,5.06885 19.67334,8.76807 1.28418,0.7793 2.0957,1.26172 2.64746,2.58984 0.56348,1.35645 0.98682,2.77051 1.56836,4.12598 1.27393,2.9668 2.1211,6.02832 4.10889,8.5957 1.04346,1.34668 2.35937,2.42578 3.42822,3.74024 0.79199,0.97461 0.9917,1.35449 2.19727,1.98632 3.48486,1.8252 7.3164,3.17774 10.95556,4.66504 1.51612,0.62012 3.75537,1.22852 5.12793,2.12403 0.52637,0.34375 1.34961,1.09082 1.93994,1.5332 1.56446,1.17383 3.03809,2.16992 4.79493,3.09668 1.41943,0.74707 4.13623,2.64941 5.86816,2.64648 -0.14697,2.16309 -0.94287,3.89356 -1.4292,6.0127 -1.39062,6.06152 -2.95166,12.00781 -5.14648,17.83789 -1.1958,3.17969 -2.1045,6.41699 -3.1958,9.62695 -0.0864,0.25293 -0.98243,2.96094 -1.12061,3.07129 -3.31641,0.25098 -6.63623,0.37012 -9.96191,0.44043 -2.396,0.0625 -4.792,0.0752 -7.18897,0.0391 -1.41308,0.0439 -2.80224,-0.10449 -4.16797,-0.44336 -1.16943,-0.83593 -0.27051,-1.46484 -0.66357,-2.63378 -0.32129,-0.95801 -1.13477,-1.17774 -1.81348,-1.77051 -2.28613,-1.99707 -5.32129,-2.65625 -8.0708,-3.97363 -4.44873,-2.13184 -8.45898,-5.68555 -11.10254,-9.86915 -0.91504,-1.44824 -1.52148,-3.0625 -2.43213,-4.51074 -0.49804,-0.79199 -1.14843,-1.15527 -1.71142,-1.80859 -0.55908,-0.64649 -0.88135,-1.39258 -1.29444,-2.15332 -1.09765,-2.01856 -2.35205,-3.95215 -3.61132,-5.87305 -1.08594,-1.6582 -2.77393,-5.46387 -4.8794,-6.02148 -1.0542,-0.2793 -1.62207,0.30371 -2.46191,0.67675 -0.16553,0.0732 -0.47071,-0.007 -0.52637,0.0215 -0.23145,0.11816 -0.82324,0.7207 -1.01904,0.74512 -1.15625,0.13769 -1.89356,-12.60157 -1.9585,-13.79004 -0.28174,-5.14942 -0.1665,-10.33789 -0.18457,-15.49317 -0.008,-2.21582 0.12695,-4.40429 -0.11328,-6.61621 -0.37598,-3.45703 -2.15723,-6.47461 -2.31543,-9.92627 -0.0371,-0.80175 -0.29834,-2.55468 0.22119,-3.20459"
                 style="fill:#231f20;fill-opacity:1;fill-rule:evenodd;stroke:none"
                 id="path148" />
            </g>
          </g>
        </g>
      </g>
      <g
         transform="matrix(1.3333333,0,0,-1.3333333,2343.7334,1236.2394)"
         id="g156">
        <g
           id="g158" />
        <g
           id="g170">
          <g
             clip-path="url(#clipPath162)"
             id="g168"
             style="opacity:0.52999998">
            <g
               transform="scale(1,-1)"
               id="g166">
              <path
                 d="m 289.5,-305.19482 c 0.24854,2.5332 1.2373,5.67529 1.97803,8.35253 0.84814,3.06592 1.88965,6.10694 2.76953,9.17334 1.05762,3.68457 1.21435,7.5 1.89746,11.26758 2.20801,12.18164 3.29834,24.57032 5.26709,36.79785 0.55078,3.42188 0.78027,6.73829 0.77148,10.18946 -0.006,2.2334 0.73047,4.33398 0.71729,6.57129 -0.0186,3.27539 0.006,6.55273 -0.0107,9.83007 -0.0176,3.56543 0.42822,7.13379 0.44922,10.71582 0.0215,3.67969 0.18164,7.32129 0.3916,10.99708 0.17236,3.01464 0.90478,6.01464 0.97461,9.01562 0.0542,2.35938 -0.146,4.78125 -0.0161,7.13281 0.15723,2.85157 0.50391,6.55469 0.65869,9.69043"
                 style="fill:none;stroke:#231f20;stroke-width:4.16807985;stroke-linecap:butt;stroke-linejoin:miter;stroke-miterlimit:4;stroke-dasharray:none;stroke-opacity:1"
                 id="path164" />
            </g>
          </g>
        </g>
      </g>
      <g
         transform="matrix(1.3333333,0,0,-1.3333333,2343.7334,1236.2394)"
         id="g172">
        <g
           id="g174" />
        <g
           id="g186">
          <g
             clip-path="url(#clipPath178)"
             id="g184"
             style="opacity:0.52999998">
            <g
               transform="scale(1,-1)"
               id="g182">
              <path
                 d="m 313.83008,-213.67676 c 2.66406,0.6416 5.00879,1.33008 7.44189,2.70996 1.81153,1.02735 3.8418,2.07422 5.92432,2.60742 4.29053,1.09961 8.70947,1.0625 13.0708,1.69239 4.47607,0.64746 8.92432,1.48047 13.396,2.13672 2.85595,0.41797 5.78808,0.70996 8.67187,0.6748 4.57422,-0.0557 8.90381,0.77539 13.43945,1.30176 3.09473,0.35937 5.40332,0.27344 8.43409,0.25683 0.20068,-0.002 3.67187,0.0703 1.89648,-0.006 2.47168,0.10449 4.92383,0.25976 7.40332,0.2539 4.56592,-0.008 9.22559,0.27149 13.78125,-0.005 1.32959,-0.0801 2.65234,-0.40723 3.97754,-0.47363 1.08057,-0.0547 2.19043,0.0137 3.27197,0.0107 5.33545,-0.009 10.55371,-0.0889 15.87598,-0.56445 1.32519,-0.11817 2.63086,-0.42774 3.94824,-0.56739 -0.2334,0.0244 0.8711,-9.7e-4 0.40527,0.0283 2.62598,-0.16797 5.27735,-0.11816 7.89356,-0.34863 1.18262,-0.10449 2.25977,-0.10547 3.46973,-0.10742 1.32714,-9.8e-4 3.94531,-0.50391 5.12695,0.0644 0.19141,2.46875 -1.24512,5.05078 -1.62207,7.47266 -0.54688,3.53027 -0.12988,6.92676 -1.24024,10.37011 -0.37304,1.15625 -0.77539,2.31934 -0.66503,3.55372 0.0703,0.79589 0.49511,1.49609 0.57812,2.27343 0.10547,0.98731 -0.34375,2.05176 -0.4834,3.01758 -0.47265,3.25781 -0.0859,6.58789 0.17578,9.8457 0.25782,3.21485 1.417,10.76172 -3.93945,9.89649 -1.10547,-0.17774 -2.10742,-0.67188 -3.2373,-0.74121 -2.47364,-0.15235 -4.98633,0.19238 -7.47657,0.0635 -5.97949,-0.30859 -11.85156,-1.93457 -17.81103,-2.13964 -2.50293,-0.085 -5.02149,0.0693 -7.52637,0.0459 -5.49951,-0.0498 -10.99609,-0.26953 -16.4956,-0.30664 -3.04004,-0.0195 -6.12208,0.1875 -9.15674,-0.0225 -2.42627,-0.16992 -4.74805,-0.91699 -7.05225,-1.64843 -4.19531,-1.33106 -8.42041,-3.10059 -12.79932,-3.68067 -2.27636,-0.30273 -4.52978,-1.03613 -6.74072,-1.62305 -4.5039,-1.19726 -8.9956,-2.43945 -13.50879,-3.60156 -1.84179,-0.47461 -3.86718,-0.73242 -5.6709,-1.30469 0.46582,0.14747 0.28174,0.0693 -0.15283,-0.12793 -1.08447,-0.49121 -2.39599,-0.95898 -3.57715,-1.12011 -0.0947,-0.0127 -0.93603,-0.22657 -1.04443,-0.0469 -0.005,0.007 -0.15234,0.46192 0.0439,0.37207 0.33593,-0.15039 0.47509,0.73242 0.19043,-0.26172 -0.44776,-1.56738 -1.77051,-2.89355 -2.22364,-4.54394 -0.38183,-1.39356 -0.25049,-2.7002 -0.33154,-4.11133 -0.0811,-1.39746 -0.67871,-2.40234 -1.50147,-3.51074 -3.00683,-4.05469 -5.45019,-7.91504 -7.32275,-12.62793 -0.75977,-1.91309 -1.8999,-3.57813 -1.68359,-5.64844 0.11523,-1.09863 -0.12842,-1.82519 -0.47705,-2.84082 -0.49561,-1.44434 -1.52832,-2.04492 -2.521,-3.16601 -0.65771,-0.74219 -0.77441,-1.66016 -1.48633,-2.38477"
                 style="fill:#231f20;fill-opacity:1;fill-rule:evenodd;stroke:none"
                 id="path180" />
            </g>
          </g>
        </g>
      </g>
      <g
         transform="matrix(1.3333333,0,0,-1.3333333,2343.7334,1236.2394)"
         id="g188">
        <g
           id="g190" />
        <g
           id="g202">
          <g
             clip-path="url(#clipPath194)"
             id="g200"
             style="opacity:0.52999998">
            <g
               transform="scale(1,-1)"
               id="g198">
              <path
                 d="m 406.90527,-183.83008 c 0.54834,-0.73047 3.44532,-22.70117 3.59082,-24.95117 0.19825,-3.0625 1.05909,-12.83887 1.20557,-14.73438 0.50977,-6.61914 1.4458,-13.15039 2.01855,-19.75097 0.4917,-5.67188 3.70069,-25.57715 3.9917,-27.54395 0.55762,-3.76465 2.04639,-7.10058 2.33985,-11.01074"
                 style="fill:none;stroke:#231f20;stroke-width:4.06376982;stroke-linecap:round;stroke-linejoin:miter;stroke-miterlimit:4;stroke-dasharray:none;stroke-opacity:1"
                 id="path196" />
            </g>
          </g>
        </g>
      </g>
      <g
         transform="matrix(1.3333333,0,0,-1.3333333,2343.7334,1236.2394)"
         id="g204">
        <g
           id="g206" />
        <g
           id="g218">
          <g
             clip-path="url(#clipPath210)"
             id="g216"
             style="opacity:0.52999998">
            <g
               transform="scale(1,-1)"
               id="g214">
              <path
                 d="m 399.09863,-286.22168 c 4.16797,0.7002 8.18799,2.15332 12.18408,3.48535 7.19678,2.39942 14.36573,4.92188 21.68409,6.9336 3.1914,0.87695 6.38867,1.50878 9.63769,2.10351 0.33985,0.0615 1.72364,0.13281 1.98145,0.37988 0.20703,0.19727 0.12402,0.58692 0.0781,1.09571 -0.28808,3.24609 -1.00879,6.43847 -1.79101,9.59375 -1.03321,4.16406 -2.35547,8.34082 -2.64063,12.6455 -0.13867,2.09375 0.45703,4.52637 -0.1582,6.5586 -0.23828,0.78613 -1.25781,1.73828 -1.02734,2.58887 0.15234,0.56445 1.0039,0.69726 0.72949,1.25293 -0.27832,0.56543 -1.72949,0.0146 -1.58496,0.99804 0.10449,0.7041 2.33203,1.29883 0.0625,0.92285 -9.32129,-1.54296 -18.28321,-5.06738 -27.19776,-8.04589 -5.98437,-1.99707 -12.46094,-2.18262 -18.46533,-4.19336 0.14844,-1.26368 0.0234,-2.62891 0.02,-3.88184 -0.0181,-5.99219 0.41309,-11.76367 1.36719,-17.68652 0.80468,-4.99414 1.7124,-10.13477 1.77197,-15.19727"
                 style="fill:#231f20;fill-opacity:1;fill-rule:evenodd;stroke:none"
                 id="path212" />
            </g>
          </g>
        </g>
      </g>
      <g
         transform="matrix(1.3333333,0,0,-1.3333333,2343.7334,1236.2394)"
         id="g220">
        <g
           id="g222" />
        <g
           id="g234">
          <g
             clip-path="url(#clipPath226)"
             id="g232"
             style="opacity:0.45">
            <g
               transform="scale(1,-1)"
               id="g230">
              <path
                 d="m 496.55078,-154.53418 c 0.0859,0.17773 0.15137,0.19043 0.19629,0 -0.0654,0 -0.13086,0 -0.19629,0 z m -0.0684,-1.3916 c 0.0899,0.17676 0.15235,0.19629 0.19922,0 -0.0654,0 -0.13086,0 -0.19922,0 z m -16.80078,-93.97266 c 0.83984,0.0879 1.68164,0.18262 2.52149,0.26465 0.55566,-0.041 1.10644,-0.082 1.6621,-0.12695 2.16211,-0.15723 5.28125,0.39746 6.31055,1.99511 0.85742,1.32715 1.0166,2.66895 1.52539,4.44043 0.24024,0.83692 0.23242,2.67579 -0.0674,3.65625 -0.49219,1.60938 -3.30176,2.81836 -2.25684,5.50782 2.2041,5.66992 9.89258,3.00879 12.41602,8.90625 0.68066,1.57715 0.30371,4.30078 -0.0654,6.03906 -0.30957,1.46875 -0.0596,2.31934 -0.46387,3.58594 -0.83691,2.62011 -2.00683,5.13476 -2.52344,8.16894 -0.31933,1.88086 0.21387,8.17969 0.92969,9.56543 0.36231,0.7002 1.30371,1.17676 1.39746,2.05371 -0.0928,0.11035 -0.18066,0.22852 -0.26758,0.33399 -0.46679,0.15039 -0.87695,0.33691 -0.92968,0.92676 0.3623,0.87792 1.40722,2.29882 0.8623,3.12597 -0.53125,0.17481 -1.0625,0.35449 -1.59375,0.53125 -0.26562,0.88965 0.31836,2.02149 0.46485,2.99024 0.34375,2.29785 0.583,5.87988 0.19921,7.96972 -0.29101,1.60645 -0.80078,3.55176 -1.1289,5.24805 -0.39844,2.04687 0.0625,4.24219 -0.33399,6.37305 -0.64746,3.48925 -1.47461,7.58984 -1.99121,10.82129 -0.0664,0.43847 0.28614,0.90527 0.39844,1.32714 0.36523,1.39649 0.65918,5.25879 0.40137,7.042 -0.26856,2.68457 -0.53223,5.36035 -0.79981,8.04004 0.4668,0.37304 0.93164,0.74609 1.39551,1.12207 0.50879,1.14941 0.23438,3.125 0.0684,4.38671 0.041,0.5752 0.084,1.15137 0.13281,1.72559 0.01,1.62988 -0.11133,3.02148 -0.40136,4.31641 -0.29883,1.34863 0.20605,2.22363 -0.59571,3.12695 0.92578,4.21973 0.12403,5.96484 -3.2539,6.83398 -1.17286,0.29786 -2.87793,0.39942 -3.78516,-0.26855 -0.64746,-0.46973 -0.48047,-1.70703 -0.79785,-2.5166 -0.58301,0.3457 -0.97656,0.9375 -1.66016,1.18847 -1.58789,0.59571 -4.87012,0.75977 -6.30859,-0.12597 -0.39453,-1.65137 0.42969,-2.83594 1.26269,-3.65723 -0.42187,-1.06152 -0.84277,-2.12207 -1.26269,-3.18848 -0.33399,-1.23437 -0.66309,-2.47558 -0.99805,-3.72168 -0.48535,-1.25781 -0.97168,-2.5166 -1.46094,-3.78613 0,-0.52929 0,-1.05176 0,-1.58887 -0.34961,-1.45898 -0.708,-2.92285 -1.06152,-4.3789 -0.13281,-1.14746 -0.26562,-2.30371 -0.39746,-3.46094 -0.61621,-3.13574 -1.34961,-6.27539 -1.92676,-9.35937 -0.25586,-1.37012 0.52442,-2.89258 0.73047,-3.99024 -0.0234,-1.21094 -0.0439,-2.42676 -0.0664,-3.64551 0.31153,-1.90234 0.8711,-4.14453 0.66504,-6.17382 -0.55664,-5.49414 -1.15332,-11.21387 -0.26757,-16.21289 -0.0645,-1.23633 -0.13184,-2.47559 -0.19922,-3.7168 -0.16309,-1.02539 0.20703,-1.9375 0.33496,-2.79102 -0.77051,-0.5166 -1.46582,-1.09179 -1.79492,-2.05273 -1.40235,0.77734 -2.56348,2.21972 -4.64844,2.26074 -0.27539,-0.15234 -0.51367,-0.26074 -0.66602,-0.53223 -0.77441,-1.3955 -0.41797,-5.84472 -0.72851,-7.77246 -0.49707,-3.08691 -1.02442,-7.16308 -0.40039,-10.49121 0.55468,-1.92969 1.10644,-3.85156 1.66211,-5.78125 0.96093,-3.48047 1.59668,-6.52734 3.51855,-8.96387 1.75098,-2.21582 8.85547,-1.80468 8.89941,-5.04492 -0.041,-0.0684 -0.0908,-0.13965 -0.13378,-0.19824 -1.03711,-0.0791 -2.37696,0.0273 -3.38575,-0.20508 -0.52636,-0.71386 -0.15136,-0.71386 -0.39746,-1.52441 -0.22168,-0.18067 -0.44433,-0.35352 -0.66211,-0.53223 -0.25097,-0.37988 0.0225,-0.80176 -0.13574,-1.19629 -0.0996,-0.24609 -0.55859,-0.38672 -0.66309,-0.72754 -0.14746,-0.46972 -0.52148,-1.92089 -0.46386,-2.26171 0.085,-0.33399 0.17578,-0.66114 0.26269,-0.9961 -0.0361,-0.82324 -0.44238,-1.44922 -0.59765,-2.12109 -0.29981,-1.29297 0.44336,-4.24219 0.59765,-5.24903 0.0977,-0.6416 -0.29785,-0.89941 -0.39843,-1.32812 -0.22657,-0.94629 0.19335,-2.09473 0.53222,-2.58789 0.72559,-1.06836 1.45215,-1.06836 2.79004,-1.59766 z"
                 style="fill:#231f20;fill-opacity:1;fill-rule:evenodd;stroke:none"
                 id="path228" />
            </g>
          </g>
        </g>
      </g>
      <g
         id="g236"
         transform="matrix(1.3333333,0,0,1.3333333,2343.7334,1236.2394)">
        <path
           d="m 510.52539,-89.94141 c 0,0 -282.52637,0 -282.52637,0 0,0 0,-217.33349 0,-217.33349 0,0 282.52637,0 282.52637,0 0,0 0,217.33349 0,217.33349 z"
           style="fill:none;stroke:#ffffff;stroke-width:1.34160995;stroke-linecap:round;stroke-linejoin:miter;stroke-miterlimit:4;stroke-dasharray:none;stroke-opacity:1"
           id="path238" />
        <g
           id="g240"
           transform="scale(1,-1)">
          <g
             id="g242" />
          <g
             id="g254">
            <g
               clip-path="url(#clipPath246)"
               id="g252"
               style="opacity:0.5">
              <g
                 transform="scale(1,-1)"
                 id="g250">
                <path
                   d="m 267.83887,-200.3623 c -0.0395,0.22363 -0.0771,0.44628 -0.11621,0.66992 0.01,0 0.0225,0 0.0308,0 0.0171,-0.0186 0.0381,-0.0391 0.0576,-0.0576 0.125,-0.0869 0.25097,-0.17578 0.37597,-0.26172 0,-0.0312 0,-0.0586 0,-0.0898 -0.11328,-0.0859 -0.23144,-0.17383 -0.34814,-0.26074 z m -4.52149,-9.01563 c 2.45655,-0.0322 3.18653,3.11328 2.15869,4.90234 0.24903,0.70411 1.34131,0.63965 2.01319,0.93164 0.34424,0.15235 0.44385,0.49415 0.72851,0.7002 0.0899,-0.0654 0.17725,-0.13574 0.26416,-0.20313 0,-0.0293 0,-0.0586 0,-0.0869 -0.20898,-0.13184 -0.3916,-0.19336 -0.4082,-0.52637 0.21875,-0.22461 0.6665,-0.33007 0.84375,-0.58203 0.0962,-0.22558 0.1958,-0.44726 0.29297,-0.67187 0.24023,-0.39063 0.62891,-0.75586 0.90283,-1.13672 -0.14014,-0.1836 -0.23047,-0.29883 -0.31885,-0.55664 1.79444,-1.4209 5.48096,-0.11719 5.04737,2.62695 -0.19239,1.2168 -0.58106,1.84863 -1.02246,2.71192 -0.12891,0.2539 -0.50635,0.8496 -0.40967,1.13867 0.32324,0.4375 0.64453,0.875 0.96484,1.31347 0.37988,0.57032 0.64112,1.34864 0.78565,2.12891 0.31445,1.66406 -0.39307,2.9834 -0.69873,4.17285 -0.13086,0.5166 -0.125,0.86426 -0.29102,1.3418 -0.0796,0.13574 -0.15527,0.27246 -0.23437,0.40722 -0.0508,0.40821 -0.0967,0.81641 -0.14551,1.22657 0.0376,0.20996 0.1748,0.57617 0.0869,0.87402 -0.28223,0.97168 -0.37695,2.16406 -0.64209,3.23828 -0.11474,0.31348 -0.23144,0.62207 -0.34912,0.9336 -0.0957,0.49902 0.22559,0.99218 0.32275,1.37207 0.1377,0.55761 0.0293,1.14746 -0.063,1.66308 0.0122,0.30078 0.021,0.60352 0.0317,0.90528 -0.0767,0.11621 -0.15673,0.23144 -0.23242,0.34863 -0.19824,0.55371 -0.25732,1.1289 -0.52539,1.60449 -0.27148,0.48047 -0.83984,0.66797 -1.08008,0.99121 -0.0986,0.29297 -0.19336,0.58399 -0.2915,0.87598 -0.18408,0.32031 -0.37061,0.6416 -0.55566,0.96387 -0.0859,0.56445 -0.17432,1.12695 -0.2627,1.69335 -0.25146,0.82422 -0.50537,1.6504 -0.75684,2.47754 -0.0342,0.1377 -0.40869,1.77832 -0.40869,1.77832 -0.0967,0.0205 -0.19531,0.0391 -0.29199,0.0606 -0.008,0.01 -0.02,0.0186 -0.0293,0.0273 0.10254,0.95118 0.56153,1.35157 0.99219,1.92579 0.55029,0.73632 0.91699,1.61425 1.45996,2.33593 0.22217,0.2959 0.35303,0.32032 0.72754,0.49414 0.34815,0.16114 0.31592,0.59961 0.55615,0.84668 0.0996,0.10352 0.25977,0.083 0.34815,0.20313 0,0.0791 0,0.15723 0,0.2334 0.37305,0.0869 0.84228,0.40625 1.07812,0.70215 0.042,0.0859 0.0811,0.1748 0.11768,0.26171 0.27441,0.0977 0.54492,0.19336 0.81885,0.29102 0.125,0.14551 0.25097,0.29199 0.37597,0.4375 0.52491,0.38379 1.08545,0.625 1.5503,1.0498 -0.10791,0.56055 -0.66309,1.02442 -0.96338,1.43165 -0.95069,1.2832 -1.96533,2.6621 -3.24024,3.61621 -0.28222,0.21386 -1.30468,1.08886 -1.80761,0.96289 -1.14893,-0.28907 0.21289,-1.81446 0.38086,-2.07227 -0.0107,-0.0859 -0.0225,-0.17285 -0.0303,-0.26172 -0.0933,-0.0215 -0.14844,-0.0391 -0.20361,-0.0869 0.0488,-0.0977 0.0942,-0.19629 0.14453,-0.29102 -0.0195,-0.0205 -0.0405,-0.04 -0.0591,-0.0586 -0.0195,0.008 -0.0366,0.0186 -0.0576,0.0273 -0.0591,0.21387 -0.16309,0.43555 -0.32178,0.55567 -0.58789,-0.3252 0.72998,-2.5625 0.96094,-2.80176 -0.16455,-0.39844 -0.13623,-0.60645 0.0894,-0.9043 -0.55567,-0.79687 -1.89209,-2.83105 -2.85791,-3.06152 -0.0986,0.55273 -0.19434,1.10742 -0.29248,1.66113 -0.0308,0.23438 0.16601,0.24902 0.11669,0.43652 -0.0674,0.0898 -0.13427,0.17774 -0.20507,0.26465 -0.0801,0.30957 0.0884,0.96875 0.14599,1.25293 0.0562,0.25977 -0.0264,0.5166 -0.0293,0.7295 0,0.25488 0.32177,0.40136 0.40869,0.61425 0.18506,0.44922 0.57226,2.22168 0.32129,2.6543 -1.07227,0.44141 -2.40479,0.0527 -3.50098,-0.14648 -0.80469,-0.11524 -1.61182,-0.23243 -2.41943,-0.35059 -0.35791,-0.12012 -0.64307,-0.33496 -0.87696,-0.58203 -0.0171,-1.22656 0.79834,-0.95606 1.60547,-1.3418 0.28662,-0.79785 1.19776,-0.98242 1.80664,-1.45996 -0.063,-0.21289 0.22949,-1.00879 0.35303,-1.22363 -0.25098,-0.64258 0.0669,-0.68262 0.0278,-1.57617 -0.0767,-0.7793 -0.15674,-1.55664 -0.23291,-2.33399 0,-0.35937 0,-0.7207 0,-1.07812 -0.17285,-0.51856 -1.7998,-1.69825 -2.24756,-2.13086 -0.2832,-0.27344 -0.68115,-1.05957 -0.96045,-1.22657 -0.5,-0.2246 -1.2749,0.1045 -1.5205,-0.37793 0.71582,-2.58496 0.479,-5.84277 1.229,-8.31445 0.12061,-0.40722 0.15967,-0.81152 0.34912,-1.13867 -0.28369,-0.35449 -0.88183,-0.57227 -1.02392,-1.0498 -0.008,-0.32032 -0.0166,-0.64356 -0.0274,-0.96387 -0.0644,-0.16992 -0.24316,-0.31738 -0.29053,-0.55176 -0.0117,-0.15723 -0.0195,-0.3125 -0.0283,-0.46875 -0.24023,-0.46094 -0.93896,-0.77051 -1.02197,-1.22461 -0.0366,-0.20215 0.33643,-1.11035 0.43652,-1.25391 0.14551,-0.10839 0.29346,-0.21582 0.43946,-0.32128 0.4082,-0.79297 0.38867,-1.77735 0.72705,-2.65528 0.28906,-0.74219 0.71582,-1.15332 1.13574,-1.71972 0,-0.0312 0,-0.0596 0,-0.0908 -0.28467,-0.0156 -1.19482,-1.00196 -1.28174,-1.22364 -0.0674,-0.34082 -0.1333,-0.68066 -0.20312,-1.02051 -0.25733,0.16211 -0.35303,0.43067 -0.64209,0.58204 -1.04297,-0.86133 -0.57227,-2.57715 -0.49561,-3.7334 0.0366,-0.54297 0.58252,-0.44629 0.2334,-1.22364 0.0811,-0.13476 0.24805,-0.17675 0.32031,-0.29296 0.12598,-0.20801 0.0981,-0.41797 0.23096,-0.58399 0,-0.01 0,-0.0205 0,-0.0293 -0.27344,-0.0517 -0.2793,-0.24902 -0.46436,-0.32031 -0.38232,-0.14941 -0.6333,-0.0469 -0.90576,-0.2334 -0.10937,-0.99218 0.16114,-1.58593 0.37891,-2.3623 0.0312,-0.34082 0.0591,-0.68262 0.0903,-1.02149 0.20899,-0.7832 0.88135,-1.56445 1.69141,-1.78027 -0.0684,-0.62402 -0.13428,-1.24414 -0.20606,-1.86621 -0.0703,-0.2002 -0.3247,-0.26367 -0.37695,-0.49609 -0.0557,-0.23926 0.11426,-0.28907 0.0552,-0.55469 -0.22461,-1.02734 -0.69629,-1.5293 0,-2.50781 0.34668,-0.48145 1.2666,-0.47852 1.66552,-0.84766 z"
                   style="fill:#231f20;fill-opacity:1;fill-rule:evenodd;stroke:none"
                   id="path248" />
              </g>
            </g>
          </g>
        </g>
        <g
           id="g256"
           transform="scale(1,-1)">
          <g
             id="g258" />
          <g
             id="g270">
            <g
               clip-path="url(#clipPath262)"
               id="g268"
               style="opacity:0.5">
              <g
                 transform="scale(1,-1)"
                 id="g266">
                <path
                   d="m 252.03418,-210.74609 c 0.0239,0.0127 0.0483,0.0234 0.0703,0.0352 -0.022,-0.0117 -0.0464,-0.0225 -0.0703,-0.0352 z m 5.61035,28.93164 c -0.0596,0 -0.11914,0 -0.17822,0 -0.21338,-0.76563 -1.29736,-1.45118 -1.88135,-1.88086 -0.0361,0 -0.0713,0 -0.10742,0 0,0.0352 0,0.0693 0,0.10742 0.38135,1.22461 0.43994,2.63281 0.67529,4.01074 0,1.25195 0,2.50977 0,3.76367 0,0.99317 0,1.98731 0,2.9795 0.10254,0.67285 0.146,1.79199 0.4253,2.45019 0.18945,0.44336 0.53515,0.89649 0.6748,1.41895 0.0713,0.90136 0.14209,1.80078 0.21338,2.70019 0.39111,2.48731 0.20117,5.9834 -0.60401,7.91797 0.37598,-0.0147 0.66016,-0.005 0.99512,0.0664 0.5835,0.79004 0.93164,1.64941 -0.42724,1.95703 -0.30811,0.0351 -0.61475,0.0693 -0.92188,0.10449 -0.19971,0.0732 -0.16357,0.31055 -0.35547,0.3916 -0.71924,0.30176 -1.77685,0.4209 -2.4497,0.56738 -0.10792,-0.77148 -0.20069,-1.51953 -0.49756,-2.16406 -0.22022,-0.48047 -0.53077,-0.44531 -0.67334,-1.20703 -0.19629,-1.04492 0.34375,-2.03418 0.21289,-2.91211 -0.17774,-0.76953 -0.35547,-1.53711 -0.53321,-2.30469 -0.14257,-1.51855 -0.28418,-3.03125 -0.42578,-4.54589 -0.19433,-1.12598 -0.44677,-2.14356 -0.63867,-3.16211 -0.28271,-1.49805 -0.19922,-2.95118 -0.56836,-4.25782 -0.10107,-0.35547 -0.0342,-1.06836 -0.35498,-1.208 -0.44433,1.81543 -0.0913,3.9541 -0.39014,5.96484 -0.36474,2.45605 -0.43457,6.01758 0.10596,8.45019 0.21045,0.94434 0.76953,1.72559 1.10059,2.66211 -0.43848,0.45411 -0.85303,0.8711 -1.27832,1.34668 0.0889,0.46875 0.34179,0.9043 0.32031,1.42188 -0.52441,0.59473 -2.2085,0.57129 -3.01709,0.35547 -0.10986,-0.58203 -0.0249,-0.98438 0,-1.59961 -0.21436,0 -0.42725,0 -0.64014,0 -0.56738,-1.0293 -1.32715,-2.24512 -1.59716,-3.55078 -0.0366,-0.65918 -0.0718,-1.32422 -0.10645,-1.98633 -0.60791,-3.61133 0.20508,-7.14844 -0.42578,-11.00293 0.0352,-0.97363 0.0703,-1.94336 0.10644,-2.91309 -0.18847,-0.53222 -0.37939,-1.06543 -0.56738,-1.59765 -0.27539,-1.29981 0.45654,-2.12989 0.46094,-3.30176 -1.16651,-0.0644 -2.2627,-1.00293 -2.41504,-2.05859 -0.0757,-0.53028 0.36182,-0.95899 0.21387,-1.38477 -0.3667,-0.6377 -0.73389,-1.28027 -1.10059,-1.91602 -0.0239,-0.37988 -0.0469,-0.75976 -0.0703,-1.13769 -0.11865,-0.4375 -0.23731,-0.87598 -0.35596,-1.3125 0.0713,-0.74805 0.14258,-1.49024 0.2124,-2.23633 0.27344,-1.50098 0.33106,-3.07031 0.63916,-4.40332 0.23389,-1.00488 0.27246,-2.10156 0.70996,-2.94629 0.48096,-0.93262 2.45118,-1.4834 3.48047,-1.95117 0.6919,-0.31641 1.31348,-1.14941 1.84522,-1.66797 -0.022,-0.83789 -0.51904,-1.39258 -0.67383,-2.13281 -0.0981,-0.46192 0.22559,-0.72461 0.28418,-1.0293 0.0811,-0.42578 -0.24072,-0.62695 -0.21436,-0.95703 0.1709,-2.1123 1.67627,-3.87891 4.26123,-3.2666 0.43702,0.16504 0.87598,0.33105 1.3125,0.49609 1.53467,0.72852 0.7334,3.96192 0.24854,5.21973 -0.15869,0.41504 -0.76318,0.7793 -0.46143,1.42187 0.70752,0.31934 0.96387,1.17871 1.52637,1.63086 0.2251,0.0596 0.44971,0.11719 0.67481,0.17481 0.55517,0.25097 1.11279,0.49804 1.66992,0.74804 1.2622,0.87598 2.08398,2.60254 2.41308,4.36622 -0.0117,0.36718 -0.0244,0.73535 -0.0361,1.10058 0.32617,1.17285 1.22705,3.12305 0.95947,4.72168 -0.27685,1.64844 -0.69238,3.13086 -0.99463,4.58008 -0.0708,0.65039 -0.14257,1.30078 -0.21386,1.95215 -0.15381,0.34375 -0.30664,0.68652 -0.46143,1.03125 -0.0351,0.63965 -0.0703,1.27441 -0.10498,1.91504 z"
                   style="fill:#231f20;fill-opacity:1;fill-rule:evenodd;stroke:none"
                   id="path264" />
              </g>
            </g>
          </g>
        </g>
        <g
           id="g272"
           transform="scale(1,-1)">
          <g
             id="g274" />
          <g
             id="g286">
            <g
               clip-path="url(#clipPath278)"
               id="g284"
               style="opacity:0.5">
              <g
                 transform="scale(1,-1)"
                 id="g282">
                <path
                   d="m 274.38672,-208.95508 c 0.125,-0.0625 0.47266,-0.12305 0.47266,-0.12305 0,0 0.24511,0.1045 0.24511,0.1045 0,0 0.40918,-0.1045 0.40918,-0.1045 0,0 0.14307,0.12305 0.14307,0.12305 0,0 0.6748,0.041 0.89892,0.16211 0.2251,0.12402 0.40918,0.14453 0.67481,0.39063 0.26611,0.24511 0.47168,0.53125 0.47168,0.53125 0,0 -0.28858,0.28515 -0.28858,0.28515 0,0 0.28858,0.34864 0.30811,0.5752 0.021,0.22265 0.2251,0.53027 0.24707,0.71386 0.019,0.18458 -0.0415,0.69434 -0.0415,0.89942 0,0.20508 0.0415,1.39062 0,1.63379 -0.042,0.24707 -0.042,0.53418 -0.16407,0.71679 -0.125,0.18458 -0.10302,0.41114 -0.18603,0.61426 -0.0806,0.20313 -0.14258,0.49121 -0.28565,0.5127 -0.14306,0.0205 0.24659,0.83594 0.24659,0.83594 0,0 0.77783,0.55175 0.96093,0.59179 0.18311,0.0449 0.32618,0.24512 0.6128,0.45117 0.28613,0.20704 0.55224,0.20704 0.81738,0.46973 0.26709,0.26563 1.39258,2.22949 1.73926,3.21289 0.34765,0.98145 0.79638,2.26856 0.79638,2.26856 0,0 0.20459,0.10156 0.48926,0.22363 0.28906,0.12402 0.53418,0.10351 0.73731,0.67578 0.20507,0.57129 0.36865,0.71484 0.36865,1.22656 0,0.50879 0.0195,0.75489 0.10156,1.04395 0.082,0.28613 0.40772,0.38672 0.63379,0.61035 0.2251,0.22754 0.45117,0.14551 0.59424,0.41113 0.14258,0.26465 0.021,0.63379 0,0.87891 -0.0205,0.24316 -0.36914,0.71484 -0.36914,0.71484 0,0 -0.14258,0.0615 -0.14258,0.0615 0,0 0.28662,0.20507 0.2666,0.38964 -0.02,0.18262 -0.082,0.18262 -0.082,0.30664 0,0.12208 0.0205,0.30469 0.0205,0.48926 0,0.18653 -0.0815,1.7793 -0.10401,2.02539 -0.0181,0.24512 -0.32568,0.51075 -0.32568,0.51075 0,0 -0.24463,0.18457 -0.26709,0.39062 -0.019,0.20215 -0.082,0.3252 -0.26514,0.3457 -0.18408,0.0195 -0.36767,0.10157 -0.69482,0.0195 -0.32666,-0.082 -0.18311,0.10254 -0.47217,-0.20605 -0.28467,-0.30469 -0.36621,-0.26367 -0.51025,-0.48926 -0.14307,-0.22461 -0.28565,-0.36719 -0.24463,-0.55176 0.0415,-0.18359 -0.082,-0.30566 0.14307,-0.26562 0.22363,0.0391 0.30664,0.0391 0.30664,0.0391 0,0 0.77734,-0.875 0.77734,-0.875 0,0 0.24512,-0.24707 0.18457,-0.37109 -0.0615,-0.12012 -0.16406,-0.28711 -0.16406,-0.28711 0,0 -0.16309,0.10449 -0.42969,0 -0.26709,-0.0986 -0.53076,-0.22363 -0.6543,-0.4082 -0.12207,-0.1836 -0.2456,-0.34766 -0.26562,-0.49024 -0.02,-0.14355 -0.0811,-0.55176 -0.12207,-0.71387 -0.042,-0.16503 -0.2041,-0.16503 -0.36865,-0.36914 -0.16456,-0.20605 -0.20362,-0.73535 -0.22413,-0.81738 -0.019,-0.0801 -0.61523,-0.57129 -0.61523,-0.57129 0,0 -1.0415,-0.69531 -1.0415,-0.69531 0,0 -0.22559,0.65137 -0.14502,0.89844 0.0835,0.24414 0.20605,0.57226 0.0625,0.83984 -0.14307,0.26367 -0.18311,0.32324 -0.22461,0.46973 -0.042,0.14062 -0.10059,0.22363 0.0415,0.46972 0.14307,0.2461 0.30567,0.51075 0.3667,0.65528 0.0625,0.14062 0.2876,0.55078 0.2876,0.67383 0,0.12109 0,0.26464 0,0.55078 0,0.28613 0.041,0.42871 0.0601,0.55078 0.022,0.125 0,0.39258 0.0825,0.59472 0.082,0.20313 0.20507,0.69434 0.26513,1.02247 0.062,0.32714 -0.02,0.63183 0.062,0.93945 0.082,0.30957 0.22364,0.90234 0.24463,1.20703 0.021,0.30566 -0.021,0.61328 0,0.85937 0.021,0.24512 0.14307,0.69336 0.14307,0.69336 0,0 -0.16406,0.1045 -0.14307,0.26563 0.021,0.16601 0.10108,0.45215 0.16504,0.5957 0.0596,0.14258 0.18311,1.73633 0.2461,2.02344 0.062,0.28711 0.10254,0.41113 0.10254,0.83789 0,0.43066 0,0.30664 -0.0205,0.75684 -0.02,0.44921 -0.14502,0.75586 -0.02,0.98144 0.1206,0.22559 0.0806,1.08399 0.16113,1.34863 0.0835,0.26758 0.021,0.73536 0.021,0.73536 0,0 0.10351,0.042 0.28711,0.38964 0.18408,0.34571 0.24511,0.28516 0.26513,0.65332 0.019,0.36817 0.041,0.49122 0.061,0.7793 0.02,0.28613 -0.042,0.24414 0.0811,0.55078 0.12256,0.30664 0.0825,0.22559 0.16407,0.75684 0.0815,0.5293 0.10156,0.85937 0.10156,0.85937 0,0 0.2666,0.083 0.42871,0.40821 0.16504,0.32519 0.39111,0.69726 0.67676,1.04492 0.28613,0.3457 0.38769,0.61035 0.63281,0.89648 0.24463,0.28809 0.47119,0.49121 0.48975,0.83985 0.0215,0.3457 -0.0186,0.26465 0.083,0.77636 0.10352,0.50977 0.20606,1.61426 0.26563,1.79786 0.0625,0.18457 -0.0415,0.22656 0.104,0.57519 0.14112,0.3457 0.1001,0.61328 0.1001,0.61328 0,0 -0.8999,0.28516 -0.8999,0.28516 0,0 -0.14258,0.24414 0.24463,0.28613 0.3916,0.04 0.26757,0.12305 0.43212,0.04 0.16309,-0.082 0.26417,-0.20605 0.57129,-0.26562 0.30664,-0.0606 0.36768,-0.083 0.65528,-0.0606 0.28662,0.0195 0.30615,-0.082 0.55176,0.0606 0.24462,0.1455 0.20556,0.0596 0.36816,0.24414 0.16309,0.1875 0.34668,0.51171 0.26514,0.5957 -0.0811,0.0801 -0.40821,0.30371 -0.51075,0.51074 -0.10254,0.2041 -0.69531,0.63184 -0.83886,0.71289 -0.14405,0.084 -0.36768,0.18653 -0.63379,0.18653 -0.26514,0 -1.24756,0.04 -1.3291,0.0596 -0.0815,0.0225 0.061,0.61425 0.061,0.61425 0,0 -1.14453,0.53223 -1.26807,0.55078 -0.12255,0.0225 -0.75537,0.042 -0.96044,0.084 -0.20264,0.04 -0.71485,0.0195 -0.75635,-0.14356 -0.04,-0.16503 -0.0806,-0.89941 -0.0806,-0.89941 0,0 0.22559,-0.10352 0.22559,-0.10352 0,0 -0.082,-0.0596 -0.10352,-0.26464 -0.021,-0.20606 -0.021,-0.20606 0.0405,-0.5127 0.063,-0.30371 0.12353,-0.49121 0.12353,-0.77441 0,-0.28614 0.0205,-0.55371 -0.22607,-0.83985 -0.24561,-0.28613 -0.69434,-1.22656 -0.75635,-1.38769 -0.061,-0.16699 -0.42773,-0.75879 -0.48974,-0.86035 -0.061,-0.10352 -0.94141,-2.61719 -1.04346,-2.90332 -0.10303,-0.28516 -0.89795,-2.45313 -0.91992,-2.68164 -0.0195,-0.22364 -0.81885,-2.47168 -0.83887,-2.67579 -0.02,-0.20605 -1.26758,-3.90429 -1.39111,-4.12988 -0.1211,-0.22461 -0.71387,-2.16797 -0.71387,-2.26953 0,-0.10352 -0.22461,-0.55273 -0.22461,-0.55273 0,0 -0.3501,0.51367 -0.45068,0.79687 -0.10254,0.28613 -0.51123,1.22656 -0.55274,1.63477 -0.0415,0.41015 -0.2041,1.55761 -0.22461,1.86328 -0.0195,0.30664 -0.0195,0.87793 -0.10205,1.12304 -0.082,0.2461 -0.28467,0.90137 -0.36767,1.1045 -0.0811,0.20605 -0.24463,0.88086 -0.24463,1.30957 0,0.42968 -0.38965,1.00097 -0.38965,1.28613 0,0.28613 -0.12207,0.18555 0.083,0.55078 0.20508,0.36914 0.55127,1.08691 0.59228,1.33399 0.042,0.24511 0.0615,0.79589 0.0615,1.04003 0,0.2461 -0.082,1.35059 -0.0615,1.63477 0.019,0.28711 -0.10205,0.44922 0.0615,0.73828 0.16357,0.28418 0.34765,0.54981 0.36718,0.75586 0.0205,0.2041 0.10254,0.32813 0.061,0.46973 -0.0405,0.14258 -0.10254,0.40918 -0.10254,0.40918 0,0 0.32764,0.20507 0.40918,0.38867 0.0815,0.18457 0.0815,0.73535 0.32764,1.10254 0.24365,0.36816 0.36914,0.36816 0.38818,0.55371 0.0215,0.18457 0.10303,0.26465 0.0405,0.3457 -0.0596,0.083 -0.42871,0.16504 -0.65479,0.16504 -0.22461,0 -0.34668,0.0606 -0.79492,0.0811 -0.44922,0.0186 -1.57471,-0.34766 -1.57471,-0.34766 0,0 -0.49023,-0.10156 -0.51074,-0.3252 -0.0225,-0.22558 -0.10352,-0.30859 -0.16455,-0.47265 -0.0615,-0.16211 -0.34961,-0.44727 -0.34961,-0.44727 0,0 -0.0591,-0.69433 -0.0591,-0.69433 0,0 0.20361,0.0391 0.20361,0.0391 0,0 -0.0605,-0.5332 -0.0605,-0.5332 0,0 -0.43017,-0.14161 -0.5122,-0.20411 -0.0806,-0.0605 -0.22461,-0.63281 -0.22461,-0.77734 0,-0.14258 -0.10156,-1.91992 -0.26563,-2.18848 -0.16211,-0.26464 -0.44873,-3.53711 -0.44873,-3.84179 0,-0.30664 -0.0405,-1.1045 0.0205,-1.34864 0.0596,-0.24609 -0.061,-0.75586 -0.061,-0.98242 0,-0.22558 -0.0405,-0.93945 0.0195,-1.20801 0.0625,-0.26464 0.28662,-1.8789 0.30761,-2.06445 0.0195,-0.18457 -0.10205,-0.26367 -0.16504,-0.59082 -0.0605,-0.32812 -0.26464,-1.24805 -0.1621,-1.55469 0.10156,-0.30761 0.32714,-1.30761 0.32714,-1.45312 0,-0.1416 0.04,-0.42871 0.04,-0.42871 0,0 -0.22412,-0.26465 -0.22412,-0.38965 0,-0.12012 0.14258,-0.63184 0.14258,-0.63184 0,0 -0.10156,0.0811 -0.14258,-0.34863 -0.0415,-0.42773 -0.10254,-0.44922 -0.0415,-0.63379 0.0605,-0.18457 -0.10156,-0.28418 -0.0195,-0.45019 0.0801,-0.16211 0.14306,-0.20215 0.061,-0.30469 -0.082,-0.10254 -0.34863,-0.12305 -0.43115,-0.22656 -0.0825,-0.10157 -0.30664,-1.49219 -0.28662,-1.67676 0.021,-0.1836 0.082,-0.8584 0.082,-0.8584 0,0 -0.28565,-0.67481 -0.28565,-0.67481 0,0 0.14209,-0.18261 -0.20458,-0.10156 -0.34766,0.0811 -0.44825,0.0811 -0.6128,0.16504 -0.16601,0.0801 -0.59424,0.42871 -0.61474,0.34668 -0.021,-0.083 -0.30567,-0.20508 -0.1836,-0.71777 0.12305,-0.51172 0.1836,-1.04102 0.12305,-1.20508 -0.0615,-0.16309 -0.20361,-0.49121 -0.34815,-0.63379 -0.14257,-0.14355 -0.32568,-0.61426 -0.36718,-0.73633 -0.0405,-0.12402 -0.4292,-1.28808 -0.4292,-1.28808 0,0 0.12207,-0.69434 0.14209,-0.89942 0.022,-0.20508 0.55371,-2.78027 0.61426,-3.02539 0.0615,-0.24609 0.04,-0.53222 0.10156,-0.65527 0.062,-0.12207 0.40869,-0.49024 0.40869,-0.57129 0,-0.083 -0.0825,-0.51172 0.0215,-0.75879 0.10303,-0.24414 0.26514,-0.46973 0.38721,-0.67187 0.12354,-0.20313 0.30908,-0.30762 0.30908,-0.47071 0,-0.16504 -0.0845,-0.40918 0.02,-0.67578 0.10205,-0.26562 0.36719,-0.71484 0.48975,-0.9209 0.12305,-0.20215 0.2456,-0.41015 0.42871,-0.55176 0.18408,-0.14062 0.73682,-0.63085 0.81982,-0.67578 0.0811,-0.04 0.79541,-0.1416 0.79541,-0.1416 0,0 1.06543,-0.61426 1.20801,-0.65332 0.14209,-0.0439 0.36719,-0.10254 0.61182,-0.24609 0.24658,-0.14258 0.7373,-0.34766 0.79883,-0.42871 0.061,-0.083 0.16308,-0.34864 0.18213,-0.44922 0.0229,-0.10449 0.34863,-0.38965 0.34863,-0.47071 0,-0.0801 0.38818,0.0625 0.38818,-0.0801 0,-0.14551 -0.14404,-0.43262 -0.16308,-0.55469 -0.0205,-0.12207 0,-0.24707 -0.082,-0.34766 -0.082,-0.10156 -0.30664,-0.24511 -0.42871,-0.39062 -0.12304,-0.14063 -0.34716,-0.30567 -0.3872,-0.53028 -0.041,-0.22558 -0.10401,-0.55078 -0.082,-0.69335 0.0186,-0.14161 0.18359,-0.22364 0.14208,-0.43067 -0.0405,-0.20312 -0.02,-0.40918 -0.18505,-0.67578 -0.16211,-0.2627 -0.20264,-0.42578 -0.18506,-0.56934 0.0229,-0.1455 0.063,-0.45019 0.10303,-0.67578 0.042,-0.22558 -0.019,-0.36523 0.125,-0.6123 0.14208,-0.24512 -0.16504,-0.22656 0.30664,-0.34863 0.46777,-0.12208 0.69238,-0.16407 0.73388,-0.24708 0.0415,-0.0791 0.22461,-0.22363 0.26514,-0.30761 0.0415,-0.0811 0.22607,-0.0391 0.34668,-0.10059 z"
                   style="fill:#231f20;fill-opacity:1;fill-rule:evenodd;stroke:none"
                   id="path280" />
              </g>
            </g>
          </g>
        </g>
        <g
           id="g288"
           transform="scale(1,-1)">
          <g
             id="g290" />
          <g
             id="g302">
            <g
               clip-path="url(#clipPath294)"
               id="g300"
               style="opacity:0.5">
              <g
                 transform="scale(1,-1)"
                 id="g298">
                <path
                   d="m 289.7334,-207.52832 c 0,0 0.0903,-0.91504 0.0903,-0.91504 0,0 -0.0713,-0.28613 -0.0713,-0.28613 0,0 -0.0727,-0.43262 0.0957,-0.62598 0.16895,-0.19238 0.50538,-0.50683 0.64844,-0.50683 0.14405,0 0.52832,-0.23926 0.67285,-0.26368 0.14405,-0.0225 0.50342,-0.0947 0.67237,-0.21289 0.16894,-0.12011 0.40966,-0.33593 0.5542,-0.38476 0.14404,-0.0488 0.958,-0.14551 1.05761,-0.14551 0.0972,0 0.62354,-0.16602 0.74512,0.0459 0.12012,0.21972 0.98486,0.81933 1.08106,0.98828 0.0972,0.1709 0.57763,0.50391 0.7207,0.72168 0.14599,0.2168 0.48047,0.86426 0.5542,1.1543 0.0718,0.28613 0.28808,0.72363 0.38476,0.83984 0.0957,0.11914 0.48096,0.62695 0.55274,0.93652 0.0718,0.31739 0.0957,1.25489 0.16699,1.49512 0.0747,0.23828 0.12158,0.71777 0.12158,0.93555 0,0.21582 -0.12158,0.40722 -0.14453,0.65039 -0.0254,0.24023 -0.11963,0.55176 -0.0254,0.67187 0.0986,0.11914 0.33789,0.35938 0.43311,0.4541 0.0962,0.0996 0.28906,0.16993 0.67285,0.16993 0.3872,0 0.81884,0.33886 0.9375,0.38476 0.12207,0.0469 1.10644,0.89063 1.20508,0.89063 0.0933,0 0.45507,0.52929 0.5039,0.8164 0.0454,0.28809 0.19141,0.96094 0.43262,1.63672 0.24023,0.66992 0.21631,1.07715 0.33447,1.58203 0.11963,0.50489 0.16895,0.83985 0.19336,1.22754 0.0249,0.38574 0.24023,0.93945 0.24023,1.27735 0,0.33593 -0.21533,0.54882 0,0.93261 0.21631,0.38867 0.26612,1.34864 0.33692,1.63672 0.0708,0.28809 -0.0249,0.60254 0.0239,0.72168 0.0469,0.11914 0.19336,0.29004 0.19336,0.38574 0,0.0918 -0.0259,0.45606 -0.12158,0.79102 -0.0957,0.33887 -0.1665,0.69824 -0.19238,0.84082 -0.0239,0.14258 -0.26318,0.4834 -0.26318,0.74805 0,0.26269 -0.33643,0.69726 -0.55372,0.98437 -0.21582,0.28906 -0.36035,0.38574 -0.52832,0.74414 -0.16992,0.36231 -0.26464,0.41211 -0.50634,0.77051 -0.24024,0.36035 -0.45557,0.57812 -0.62354,0.76758 -0.16943,0.19238 -0.31396,0.60547 -0.4082,0.76855 -0.0982,0.1709 -0.38526,0.29297 -0.43555,0.53028 -0.0459,0.24316 0,0.19433 -0.11865,0.38769 -0.12012,0.18848 -0.38281,0.35938 -0.43311,0.57422 -0.0488,0.2168 0.0967,0.38281 -0.11865,0.55469 -0.21533,0.16699 -0.31445,0.36133 -0.26514,0.5039 0.0498,0.14649 0.0957,0.28711 0.0957,0.28711 0,0 0.14306,0.0977 0.14306,0.3125 0,0.21778 -0.18896,0.36035 -0.11816,0.5293 0.0713,0.16895 0.11816,0.33691 0.14453,0.43359 0.0234,0.0947 0.14307,0.3584 0.14307,0.3584 0,0 0.16797,-0.0215 0.0478,0.21387 -0.12109,0.24316 -0.12109,0.29101 -0.12109,0.53223 0,0.23925 0.24121,0.72363 0.29052,1.22656 0.0483,0.50488 0.0229,1.37012 0.0952,1.82715 0.0723,0.45605 0.28955,1.10644 0.33642,1.66015 0.0474,0.55078 0.0967,0.91407 0.0967,1.2959 0,0.3877 -0.1206,0.7959 -0.1206,0.98633 0,0.19238 0,0.36035 0,0.50684 0,0.1416 0.0239,0.21484 -0.0474,0.52636 -0.0727,0.31543 0.11866,0.33399 0.19141,0.50782 0.0718,0.16308 0,0.26269 0,0.69433 0,0.43457 -0.14404,0.7002 0.0493,0.91504 0.19189,0.21387 0.23877,0.28711 0.23877,0.53125 0,0.23633 -0.11866,1.1748 -0.11866,1.48828 0,0.31152 0.19043,0.88867 0.19043,1.25 0,0.35645 0.0498,0.84082 0.0269,1.22363 -0.0269,0.38575 -0.14551,0.77051 -0.0269,0.96387 0.1211,0.18945 0.38575,0.52637 0.41016,0.74317 0.0249,0.21972 -0.0244,0.5791 0.12109,0.62597 0.14258,0.0488 0.38282,0.0488 0.57618,0.14356 0.19238,0.10058 0.38671,0.16797 0.33447,0.26562 -0.0464,0.0977 -0.022,1.53906 -0.022,1.53906 0,0 0.69775,0.5752 0.88818,0.62403 0.19287,0.0518 0.74609,0.36035 1.05908,0.57812 0.31348,0.2168 0.5293,0.40918 0.5293,0.40918 0,0 -0.0737,0.48047 -0.26611,0.62207 -0.19141,0.14844 -0.86377,0.24121 -1.2251,0.24121 -0.36182,0 -1.34619,-0.26562 -1.63281,-0.33691 -0.29151,-0.0703 -0.72266,-0.43359 -1.13233,-0.50195 -0.40771,-0.0733 -1.05664,-0.14649 -1.05664,-0.14649 0,0 -0.50732,0.0274 -1.08252,-0.14648 -0.57666,-0.16504 -0.4082,-0.52637 -0.4082,-0.52637 0,0 -0.33692,-0.24121 -0.33692,-0.24121 0,0 -0.0249,0.12207 -0.0478,-0.3584 -0.0225,-0.4834 -0.24023,-1.01269 -0.24023,-1.20508 0,-0.18945 -0.33692,-1.84961 -0.33692,-2.18554 0,-0.33692 -0.36035,-2.66797 -0.36035,-2.79004 0,-0.11914 -0.48047,-2.6211 -0.48047,-2.78614 0,-0.16894 -0.45703,-3.7041 -0.45703,-3.99218 0,-0.28711 -0.65137,-2.78907 -0.65137,-2.95508 0,-0.16992 -0.38378,-1.6377 -0.38378,-1.80664 0,-0.16602 -0.67139,-2.61817 -0.67139,-2.61817 0,0 -0.16846,1.97168 -0.16846,1.97168 0,0 0.11963,4.61719 0.11963,4.78321 0,0.16894 -0.0962,3.19922 -0.0962,3.41113 0,0.21484 -0.0234,0.65234 0,0.89062 0.0239,0.23926 0.48242,0.9375 0.60156,1.32325 0.1211,0.38379 0,0.83984 0.28906,1.36914 0.28711,0.53125 0.30957,1.46875 0.30957,2.33398 0,0.86524 0.146,2.11524 0.146,2.42676 0,0.30957 -0.0469,1.2998 -0.0469,1.2998 0,0 0.48095,0.3584 0.48095,0.3584 0,0 -0.0254,1.03418 -0.0254,1.03418 0,0 -0.0962,0.14649 -0.0962,0.14649 0,0 0.24024,0.33593 0.38525,0.47754 0.14454,0.14648 0.1919,0.26562 0.52735,0.41211 0.33691,0.1416 0.38672,0.26562 0.24121,0.35839 -0.14307,0.0977 -0.28662,0.24121 -0.64893,0.38282 -0.35986,0.14648 -1.05615,0.60449 -1.46533,0.65332 -0.4126,0.0469 -0.93701,0.0469 -1.22656,-0.12207 -0.28858,-0.1709 -0.38428,-0.24121 -0.57666,-0.55371 -0.19287,-0.3086 -0.31299,-0.792 -0.31299,-0.792 0,0 -0.62549,0.0488 -0.62549,0.0488 0,0 -0.35986,-0.16797 -0.38427,-0.5293 -0.0234,-0.36035 -0.28711,-1.3457 -0.28711,-1.3457 0,0 0.26367,-0.0215 0.26367,-0.0215 0,0 -0.38379,-0.91504 -0.50586,-1.23243 -0.12012,-0.30957 -0.69727,-2.09082 -0.69727,-2.23144 0,-0.14648 -0.16797,-2.91211 -0.19287,-3.08008 -0.0229,-0.16601 -0.0229,-1.58496 0.0249,-1.92285 0.0464,-0.33594 -0.0478,-1.46973 -0.0718,-1.58301 -0.0234,-0.12207 -0.26661,-0.62988 -0.21631,-0.81836 0.0474,-0.1914 0,-1.13281 -0.0229,-1.37207 -0.0274,-0.23828 -0.0977,-0.21386 -0.0977,-0.59961 0,-0.38476 -0.0708,-0.91308 -0.0708,-1.1289 0,-0.21973 -0.36084,-1.44629 -0.36084,-1.6836 0,-0.24023 -0.26465,-2.31054 -0.26465,-2.4541 0,-0.14453 -0.36132,-1.63379 -0.36132,-1.80176 0,-0.17089 -0.11963,-0.62695 -0.19288,-0.86718 -0.0713,-0.24024 -0.28808,-3.36621 -0.28808,-3.36621 0,0 0.0976,-0.33106 0,-0.40723 -0.0952,-0.0732 -0.31104,-0.28613 -0.40723,-0.38477 -0.0981,-0.0957 -0.24365,-0.28808 -0.24365,-0.28808 0,0 -0.26318,0.11914 -0.26318,0.11914 0,0 -0.38233,-0.14258 -0.45508,-0.30957 -0.0742,-0.1709 -0.26465,-1.7334 -0.26465,-1.7334 0,0 -0.3125,-0.38574 -0.33838,-0.52637 -0.0225,-0.14648 -0.30859,-0.81933 -0.30859,-0.93945 0,-0.11914 0.21484,-1.48828 0.21484,-2.0459 0,-0.54785 -0.0483,-1.05566 0.0229,-1.24707 0.0708,-0.19336 0.3374,-0.52734 0.3374,-0.67383 0,-0.14355 -0.16748,-0.23926 -0.19336,-0.33691 -0.0254,-0.0947 0.2168,-0.79199 0.3125,-1.03321 0.0967,-0.23925 0.38428,-1.58496 0.52783,-1.99511 0.14454,-0.41211 0.38526,-1.75391 0.38526,-1.87793 0,-0.11621 0.48193,-1.79981 0.52978,-1.9209 0.0483,-0.11914 0.3833,-1.10449 0.3833,-1.10449 0,0 -0.0947,-0.19141 0.31348,-0.33887 0.40869,-0.1416 0.79346,-0.23926 1.00879,-0.33398 0.21777,-0.0967 0.60205,-0.26368 0.91406,-0.41016 0.31446,-0.14356 0.50586,-0.21387 0.81983,-0.35742 0.30957,-0.14844 0.52685,-0.33789 0.52685,-0.33789 0,0 -0.0483,-0.53321 -0.0483,-0.53321 0,0 0.24024,-0.16308 0.24024,-0.16308 0,0 -0.11963,-0.29004 -0.11963,-0.29004 0,0 -0.33692,0.0215 -0.65088,0.0459 -0.30957,0.0283 -0.60059,0.0732 -0.69483,0.0283 -0.0957,-0.0527 -0.28906,-0.1211 -0.28906,-0.28614 0,-0.17382 -0.0239,-0.26855 -0.0239,-0.38769 0,-0.12012 0,-0.4834 0,-0.4834 0,0 -0.0967,-0.16309 0,-0.23926 0.0942,-0.0713 0.0942,-0.28418 0.0942,-0.28418 0,0 -0.14111,-0.19433 -0.14111,-0.19433 0,0 -0.0498,-0.26758 -0.0498,-0.26758 0,0 -0.0479,-0.26465 -0.0479,-0.26465 0,0 -0.31202,0 -0.31202,0 0,0 -0.13965,-0.1084 -0.13965,-0.25586 0,-0.1416 0.16504,-0.4043 0.23536,-0.49707 0.0718,-0.0977 0.22802,-0.0781 0.16064,-0.29004 -0.0889,-0.27832 0.006,-0.34179 0.006,-0.43945 0,-0.0977 0.32861,-0.33106 0.32861,-0.33106 0,0 0.064,-0.20605 0.064,-0.20605 z"
                   style="fill:#231f20;fill-opacity:1;fill-rule:evenodd;stroke:none"
                   id="path296" />
              </g>
            </g>
          </g>
        </g>
        <g
           id="g304"
           transform="scale(1,-1)">
          <g
             id="g306" />
          <g
             id="g318">
            <g
               clip-path="url(#clipPath310)"
               id="g316"
               style="opacity:0.5">
              <g
                 transform="scale(1,-1)"
                 id="g314">
                <path
                   d="m 245.14697,-175.26172 c -0.19384,0.0176 -0.3916,0.0342 -0.5874,0.0488 -0.0156,-0.0312 -0.0312,-0.0635 -0.0488,-0.0986 0.0332,-0.32422 0.0664,-0.65137 0.0982,-0.97754 0.13086,0.0479 0.26123,0.0967 0.3916,0.14746 0.0503,0.19531 0.0981,0.3916 0.14648,0.58691 0,0 0,0.29297 0,0.29297 z m -0.63623,0.68652 c -0.11719,-0.17089 -0.0727,-0.12597 0,-0.29296 0.11524,0.0176 0.22901,0.0312 0.34326,0.0478 -0.0903,0.18261 -0.15527,0.17383 -0.34326,0.24511 z m -8.52002,11.99707 c 0.0156,0.6836 0.0332,1.37208 0.0488,2.05665 -0.1416,0.81835 -0.396,2.12793 -0.9292,2.59472 0,0 0,0.0977 0,0.0977 -0.25439,-0.62988 0.19776,-1.5791 0.14551,-2.29981 -0.14111,-2.00683 -0.55664,-3.26074 0.24512,-5.19238 0.47363,0.0811 0.94677,0.16504 1.42138,0.24512 -0.38232,0.72851 -0.76416,1.53711 -0.93164,2.49804 z m -4.16211,11.65333 c -0.0322,-0.0312 -0.0644,-0.0654 -0.0976,-0.0967 0.11328,-0.0674 0.22949,-0.13282 0.34424,-0.19629 0,0 0.0947,0 0.0947,0 0.0332,0.0479 0.0674,0.0977 0.0996,0.14648 -0.14648,0.0498 -0.29346,0.0996 -0.44092,0.14649 z m -5.1416,-21.98536 c 0,0 0,0.0977 0,0.0977 -0.14648,-0.22949 -0.29443,-0.45703 -0.43945,-0.68359 0.46924,-0.0859 0.58252,-0.65918 0.63476,-1.12793 0.15625,0.3955 -0.0146,1.33398 -0.19531,1.71386 z m -0.63623,-1.8125 c -0.0327,0.0176 -0.0669,0.0352 -0.0991,0.0488 0.0322,-0.22949 0.0664,-0.45703 0.0991,-0.68555 0,0 0.14649,0 0.14649,0 -0.0479,0.2129 -0.0977,0.42579 -0.14649,0.63672 z m 0.58838,-5.58105 c 0.35791,0.60644 0.24023,1.48926 0.0962,2.10351 -0.063,0.0488 -0.12939,0.0977 -0.19482,0.14747 0,0 0,-0.0986 0,-0.0986 -0.34229,-0.49511 0.0225,-1.52832 0.0986,-2.15234 z m 19.97705,0.83105 c -0.16308,-0.0488 -0.32519,-0.0977 -0.48975,-0.1455 -0.38037,-1.64356 -0.36816,-3.74024 -0.68505,-5.3877 -0.1958,-1.37207 -0.39063,-2.74121 -0.58741,-4.11426 0.37598,-0.22656 0.75049,-0.45605 1.12696,-0.68457 0.30761,-0.70996 -0.61231,-3.08691 -0.78418,-3.96484 -0.52002,-2.64258 -0.36475,-6.03223 -1.71387,-7.83594 -1.2959,-1.73047 -4.39746,-1.50586 -5.62939,-3.86816 -0.21289,-0.54004 0.34179,-1.10547 0.4375,-1.66407 -0.0147,-0.50781 -0.0317,-1.01367 -0.0474,-1.51855 0.19727,-2.16016 -0.52441,-4.83398 -2.69385,-5.3877 -2.45166,-0.62207 -4.08007,1.125 -4.40576,2.88965 0.064,0.54004 0.12989,1.0791 0.19483,1.61621 0.0972,0.6543 -0.29297,0.97657 0,1.66504 0.38427,0.90039 1.40283,0.73731 1.46924,2.05469 -0.4292,0.58984 -0.81788,1.35156 -1.41944,1.76465 -1.42285,0.97754 -3.18603,1.44336 -4.50635,2.49707 -0.80371,0.64355 -1.57763,2.66504 -2.25,4.66406 0,0 0,7.82324 0,7.82324 0.146,0.0811 0.292,0.16309 0.43799,0.24512 0.18018,1.09961 -0.24902,2.57422 -0.43799,3.70606 0,0 0,11.01757 0,11.01757 0.62012,0.89063 1.48584,1.64161 1.90821,1.62989 0.0166,0.55371 0.0322,1.11035 0.0483,1.66797 0.36767,2.05957 0.25586,3.87207 -0.0483,5.82714 0.69677,0.87207 3.09961,0.4668 4.55224,0.43946 -1.05029,3.07422 -0.2666,6.83789 0.58936,9.64453 0.35156,1.1543 0.71484,2.00195 0.68457,3.47851 -0.36621,0.0703 -0.52246,0.11231 -0.78418,0.39161 -0.0366,0.30078 0.0273,0.29589 0.19678,0.48925 -0.22657,0.12989 -0.51953,0.36328 -0.58741,0.63575 0.065,0.52246 0.13135,1.04589 0.19678,1.56835 -0.0811,0.42188 -0.16308,0.84961 -0.24463,1.27149 0.0733,0.48144 0.26612,0.68359 0.34229,1.22266 0.80664,0.60253 4.26758,1.06054 4.94531,0 0.0903,-0.27637 -0.72705,-2.09766 -0.88184,-2.54395 -0.0332,-0.60352 -0.064,-1.20898 -0.0972,-1.8125 -0.28565,-1.09668 -0.8545,-1.55469 -0.83301,-3.47363 1.81738,1.2207 -0.17774,6.42187 4.01562,5.33593 2.45166,-0.63574 -0.0225,-4.70507 -0.2456,-5.77832 -0.28906,-1.39843 0.27881,-1.85644 -0.83106,-2.74218 0.1294,-0.75293 0.59082,-1.22071 0.93067,-1.76465 1.09277,-1.75098 2.51318,-3.40137 2.83789,-5.87402 0.32861,-0.0176 0.6543,-0.0342 0.97998,-0.0488 0.35986,-1.40528 1.31055,-3.96875 1.0293,-5.7295 -0.11426,-0.39355 -0.2295,-0.7832 -0.34278,-1.17675 0.0479,-0.47461 0.0977,-0.94434 0.14649,-1.41797 -0.14649,-1.28809 -0.29444,-2.58203 -0.43994,-3.87012 0,0 0.0479,0 0.0479,0 0.0976,0.21387 0.1958,0.42578 0.29345,0.6377 0.15577,0.0176 0.26758,-0.0586 0.39112,-0.19629 0.34472,-0.39746 -0.14991,-1.74805 -0.29248,-2.15528 -0.27588,-0.66894 -0.55469,-1.33789 -0.83301,-2.00781 -0.16748,-0.62598 0.32031,-3.15625 0.39307,-3.81933 0.0312,-0.0137 0.0635,-0.0312 0.0967,-0.0508 0.27099,0.74805 1.75927,3.91016 1.56787,4.70411 -0.16065,0.65429 -0.55957,1.29589 -0.68506,2.00683 -0.0806,0.44727 0.0874,0.83203 0.14648,1.12598 -0.0825,0.78418 -0.16406,1.56836 -0.24609,2.34961 0.19873,0.22265 0.44482,0.26465 0.73535,0.29492 -0.11133,0.23144 -0.2124,0.24805 -0.24561,0.58691 2.12598,-0.1416 2.47998,-2.71289 2.10547,-4.89746 0.4336,-0.31054 0.59375,-0.68164 0.44092,-1.32129 z"
                   style="fill:#231f20;fill-opacity:1;fill-rule:evenodd;stroke:none"
                   id="path312" />
              </g>
            </g>
          </g>
        </g>
        <g
           id="g320"
           transform="scale(1,-1)">
          <g
             id="g322" />
          <g
             id="g334">
            <g
               clip-path="url(#clipPath326)"
               id="g332"
               style="opacity:0.66000001">
              <g
                 transform="scale(1,-1)"
                 id="g330">
                <path
                   d="m 242.42383,-232.25098 c 0.33545,2.21582 -1.06934,14.10254 1.88135,17.39356 2.95068,3.29004 -4.8418,-0.44238 -7.54981,-3.72363 -2.70801,-3.28125 -12.12305,-2.11426 -12.12305,-2.11426 0,0 0,-28.01953 0,-28.01953 0,0 7.1167,7.21484 7.1167,7.21484 0,0 4.54688,2.125 6.09229,3.61035 1.54541,1.48633 4.24707,3.42285 4.58252,5.63867 z"
                   style="fill:#231f20;fill-opacity:1;fill-rule:evenodd;stroke:none"
                   id="path328" />
              </g>
            </g>
          </g>
        </g>
      </g>
    </g>
  </g>
</svg>
