<?xml version="1.0" encoding="UTF-8" standalone="no"?>
<svg
   xmlns:dc="http://purl.org/dc/elements/1.1/"
   xmlns:cc="http://creativecommons.org/ns#"
   xmlns:rdf="http://www.w3.org/1999/02/22-rdf-syntax-ns#"
   xmlns:svg="http://www.w3.org/2000/svg"
   xmlns="http://www.w3.org/2000/svg"
   viewBox="0 0 1898.1471 1135.791"
   height="1135.791"
   width="1898.1471"
   xml:space="preserve"
   id="svg2"
   version="1.1"><metadata
     id="metadata8"><rdf:RDF><cc:Work
         rdf:about=""><dc:format>image/svg+xml</dc:format><dc:type
           rdf:resource="http://purl.org/dc/dcmitype/StillImage" /><dc:title></dc:title></cc:Work></rdf:RDF></metadata><defs
     id="defs6" /><g
     transform="matrix(1.3333333,0,0,-1.3333333,0,1135.791)"
     id="g10"><g
       transform="scale(1,-1)"
       id="g12"><path
         id="path14"
         style="fill:none;stroke:#79b1d7;stroke-width:10;stroke-linecap:butt;stroke-linejoin:miter;stroke-miterlimit:4;stroke-dasharray:9, 4;stroke-dashoffset:0;stroke-opacity:1"
         d="m 159.66992,-567.72168 c 0,0 183.99756,-23.98096 183.99756,-23.98096" /><path
         id="path16"
         style="fill:none;stroke:#79b1d7;stroke-width:10;stroke-linecap:butt;stroke-linejoin:miter;stroke-miterlimit:4;stroke-dasharray:9, 4;stroke-dashoffset:0;stroke-opacity:1"
         d="m 345.16748,-584.20313 c 0,0 -133.49365,314.98438 -133.49365,314.98438" /><path
         id="path18"
         style="fill:none;stroke:#79b1d7;stroke-width:10;stroke-linecap:butt;stroke-linejoin:miter;stroke-miterlimit:4;stroke-dasharray:9, 4;stroke-dashoffset:0;stroke-opacity:1"
         d="m 352.66699,-587.20264 c 0,0 199.44092,86.79688 199.44092,86.79688" /><path
         id="path20"
         style="fill:none;stroke:#79b1d7;stroke-width:10;stroke-linecap:butt;stroke-linejoin:miter;stroke-miterlimit:4;stroke-dasharray:9, 4;stroke-dashoffset:0;stroke-opacity:1"
         d="m 855.74609,-278.40625 c 0,0 179.03121,-94.5293 179.03121,-94.5293" /><path
         id="path22"
         style="fill:none;stroke:#79b1d7;stroke-width:10;stroke-linecap:butt;stroke-linejoin:miter;stroke-miterlimit:4;stroke-dasharray:9, 4;stroke-dashoffset:0;stroke-opacity:1"
         d="m 1040.5068,-370.07031 c 0,0 179.0313,88.7998 179.0313,88.7998" /><path
         id="path24"
         style="fill:none;stroke:#79b1d7;stroke-width:10;stroke-linecap:butt;stroke-linejoin:miter;stroke-miterlimit:4;stroke-dasharray:9, 4;stroke-dashoffset:0;stroke-opacity:1"
         d="m 960.30078,-604.96045 c 0,0 205.32522,-85.7373 205.32522,-85.7373" /><path
         id="path26"
         style="fill:none;stroke:#79b1d7;stroke-width:10;stroke-linecap:butt;stroke-linejoin:miter;stroke-miterlimit:4;stroke-dasharray:9, 4;stroke-dashoffset:0;stroke-opacity:1"
         d="m 1165.626,-690.69775 c 0,0 159.8994,127.27246 159.8994,127.27246" /><path
         id="path28"
         style="fill:none;stroke:#848b91;stroke-width:1.76389003;stroke-linecap:butt;stroke-linejoin:miter;stroke-miterlimit:4;stroke-dasharray:none;stroke-opacity:1"
         d="m 0.68994,-198.82129 c 0,0 39.74658,49.94336 39.74658,49.94336 0,0 485.25977,30.44043 485.25977,30.44043 0,0 296.40039,-206.86133 296.40039,-206.86133 0,0 -188.85742,-237.30713 -188.85742,-237.30713 0,0 -485.25977,-30.44189 -485.25977,-30.44189 0,0 -147.28955,102.7959 -147.28955,102.7959 M 1422.9199,-155.2334 c 0,0 -104.8095,-131.69726 -104.8095,-131.69726 0,0 -485.26177,-30.44239 -485.26177,-30.44239 0,0 -296.40039,206.86328 -296.40039,206.86328 0,0 87.51026,109.96094 87.51026,109.96094 m 798.9614,-742.5 c 0,0 -477.36033,-29.9458 -477.36033,-29.9458 0,0 -296.40137,206.86426 -296.40137,206.86426 0,0 188.8584,237.30517 188.8584,237.30517 0,0 485.2598,30.44434 485.2598,30.44434 0,0 99.6435,-69.54297 99.6435,-69.54297" /><path
         id="path30"
         style="fill:#ffffff;fill-opacity:1;fill-rule:nonzero;stroke:none"
         d="m 756.89063,-252.27539 c -3.49463,2.82324 4.8e-4,2.18164 1.76464,2.62109 0,0 59.24414,15.04102 59.24414,15.04102 1.76661,0.4414 4.40821,0.0254 5.90039,-0.92871 0,0 95.91016,-61.2461 95.91016,-61.2461 1.49317,-0.95214 1.27442,-2.08496 -0.49121,-2.52636 0,0 -59.5166,-14.13379 -59.5166,-14.13379 -1.76563,-0.44239 -4.4082,-0.0274 -5.90235,0.92676 0,0 -96.90917,60.24609 -96.90917,60.24609 z" /><path
         id="path32"
         style="fill:none;stroke:#848b91;stroke-width:1.95580006;stroke-linecap:butt;stroke-linejoin:miter;stroke-miterlimit:4;stroke-dasharray:none;stroke-opacity:1"
         d="m 756.89063,-252.27539 c -3.49463,2.82324 4.8e-4,2.18164 1.76464,2.62109 0,0 59.24414,15.04102 59.24414,15.04102 1.76661,0.4414 4.40821,0.0254 5.90039,-0.92871 0,0 95.91016,-61.2461 95.91016,-61.2461 1.49317,-0.95214 1.27442,-2.08496 -0.49121,-2.52636 0,0 -59.5166,-14.13379 -59.5166,-14.13379 -1.76563,-0.44239 -4.4082,-0.0274 -5.90235,0.92676 0,0 -96.90917,60.24609 -96.90917,60.24609 z" /><path
         id="path34"
         style="fill:none;stroke:#848b91;stroke-width:1.95580006;stroke-linecap:butt;stroke-linejoin:miter;stroke-miterlimit:4;stroke-dasharray:none;stroke-opacity:1"
         d="m 778.83643,-259.80469 c 0,0 52.3208,13.08496 52.3208,13.08496 0,0 75.14746,-49.57031 75.14746,-49.57031 0,0 -50.25,-12.5 -50.25,-12.5 0,0 -77.21826,48.98535 -77.21826,48.98535 z" /><path
         id="path36"
         style="fill:none;stroke:#848b91;stroke-width:1.84080994;stroke-linecap:butt;stroke-linejoin:miter;stroke-miterlimit:4;stroke-dasharray:none;stroke-opacity:1"
         d="m 792.8291,-249.06934 c -1.88135,1.2002 -1.60498,2.62598 0.61865,3.18067 2.22266,0.55664 5.54883,0.0342 7.43067,-1.16797 1.88037,-1.2002 1.60303,-2.625 -0.61963,-3.18066 -2.22266,-0.55762 -5.54883,-0.0342 -7.42969,1.16796 z m -20.62451,-5.15918 c -1.88135,1.20313 -1.604,2.62598 0.61914,3.18262 2.22266,0.55664 5.54883,0.0332 7.43066,-1.16797 1.88038,-1.20117 1.60401,-2.62597 -0.61962,-3.18164 -2.22364,-0.55664 -5.54981,-0.0312 -7.43018,1.16699 z m 41.24756,10.31641 c -1.88184,1.20313 -1.60254,2.62402 0.62012,3.18164 2.22168,0.55567 5.5498,0.0342 7.43066,-1.16797 1.87988,-1.20312 1.60254,-2.62695 -0.61914,-3.18066 -2.22266,-0.55664 -5.55078,-0.0342 -7.43164,1.16699 z" /><path
         id="path38"
         style="fill:#ffffff;fill-opacity:1;fill-rule:nonzero;stroke:none"
         d="m 758.97168,-235.76465 c 0,0 55.25781,15.94434 55.25781,15.94434 4.93555,1.19238 4.28125,2.06543 10.26758,-1.5752 0,0 93.18457,-61.64941 93.18457,-61.64941 1.51172,-1.00293 3.25391,-3.24024 3.43945,-4.98438 0,0 0.29102,-7.09277 0.29102,-7.09277 0.0205,-2.36426 -0.0234,-3.74316 -1.34766,-3.91992 0,0 -97.00976,64.75293 -97.00976,64.75293 -2.15625,0.98144 -4.63086,1.05468 -5.80762,0.74804 0,0 -59.08691,-16.77734 -59.08691,-16.77734 -1.27442,-0.33008 -2.83692,-0.009 -3.0293,1.69336 0,0 0.93408,8.40625 0.93408,8.40625 -0.49512,2.47949 1.63135,4.12305 2.90674,4.4541 z" /><path
         id="path40"
         style="fill:none;stroke:#848b91;stroke-width:1.90980995;stroke-linecap:butt;stroke-linejoin:miter;stroke-miterlimit:4;stroke-dasharray:none;stroke-opacity:1"
         d="m 758.97168,-235.76465 c 0,0 55.25781,15.94434 55.25781,15.94434 4.93555,1.19238 4.28125,2.06543 10.26758,-1.5752 0,0 93.18457,-61.64941 93.18457,-61.64941 1.51172,-1.00293 3.25391,-3.24024 3.43945,-4.98438 0,0 0.29102,-7.09277 0.29102,-7.09277 0.0205,-2.36426 -0.0234,-3.74316 -1.34766,-3.91992 0,0 -97.00976,64.75293 -97.00976,64.75293 -2.15625,0.98144 -4.63086,1.05468 -5.80762,0.74804 0,0 -59.08691,-16.77734 -59.08691,-16.77734 -1.27442,-0.33008 -2.83692,-0.009 -3.0293,1.69336 0,0 0.93408,8.40625 0.93408,8.40625 -0.49512,2.47949 1.63135,4.12305 2.90674,4.4541 z" /><path
         id="path42"
         style="fill:#ffffff;fill-opacity:1;fill-rule:nonzero;stroke:none"
         d="m 863.10254,-566.34424 c -3.49414,2.82324 9.8e-4,2.18164 1.76562,2.6211 0,0 59.24414,15.04101 59.24414,15.04101 1.76563,0.44141 4.40821,0.0254 5.9004,-0.92871 0,0 95.9102,-61.24609 95.9102,-61.24609 1.4921,-0.95215 1.2734,-2.08496 -0.4922,-2.52637 0,0 -59.51566,-14.13379 -59.51566,-14.13379 -1.7666,-0.44238 -4.4082,-0.0273 -5.90234,0.92676 0,0 -96.91016,60.24609 -96.91016,60.24609 z" /><path
         id="path44"
         style="fill:none;stroke:#848b91;stroke-width:1.95580006;stroke-linecap:butt;stroke-linejoin:miter;stroke-miterlimit:4;stroke-dasharray:none;stroke-opacity:1"
         d="m 863.10254,-566.34424 c -3.49414,2.82324 9.8e-4,2.18164 1.76562,2.6211 0,0 59.24414,15.04101 59.24414,15.04101 1.76563,0.44141 4.40821,0.0254 5.9004,-0.92871 0,0 95.9102,-61.24609 95.9102,-61.24609 1.4921,-0.95215 1.2734,-2.08496 -0.4922,-2.52637 0,0 -59.51566,-14.13379 -59.51566,-14.13379 -1.7666,-0.44238 -4.4082,-0.0273 -5.90234,0.92676 0,0 -96.91016,60.24609 -96.91016,60.24609 z" /><path
         id="path46"
         style="fill:none;stroke:#848b91;stroke-width:1.95580006;stroke-linecap:butt;stroke-linejoin:miter;stroke-miterlimit:4;stroke-dasharray:none;stroke-opacity:1"
         d="m 885.04883,-573.87354 c 0,0 52.32129,13.08497 52.32129,13.08497 0,0 75.14648,-49.57032 75.14648,-49.57032 0,0 -50.25,-12.5 -50.25,-12.5 0,0 -77.21777,48.98535 -77.21777,48.98535 z" /><path
         id="path48"
         style="fill:none;stroke:#848b91;stroke-width:1.84080994;stroke-linecap:butt;stroke-linejoin:miter;stroke-miterlimit:4;stroke-dasharray:none;stroke-opacity:1"
         d="m 899.04199,-563.13818 c -1.88183,1.20019 -1.60547,2.62597 0.61817,3.18066 2.22265,0.55664 5.54882,0.0342 7.43066,-1.16797 1.88086,-1.20019 1.60352,-2.625 -0.61914,-3.18066 -2.22266,-0.55762 -5.54883,-0.0342 -7.42969,1.16797 z m -20.625,-5.15918 c -1.88086,1.20312 -1.60351,2.62597 0.61914,3.18261 2.22266,0.55664 5.54883,0.0332 7.43067,-1.16796 1.87988,-1.20118 1.60449,-2.62598 -0.62012,-3.18165 -2.22266,-0.55664 -5.54883,-0.0312 -7.42969,1.167 z m 41.24707,10.3164 c -1.88183,1.20313 -1.60254,2.62403 0.62012,3.18164 2.22266,0.55567 5.5498,0.0342 7.43066,-1.16797 1.87989,-1.20312 1.60254,-2.62695 -0.61914,-3.18066 -2.22265,-0.55664 -5.5498,-0.0342 -7.43164,1.16699 z" /><path
         id="path50"
         style="fill:#ffffff;fill-opacity:1;fill-rule:nonzero;stroke:none"
         d="m 865.18457,-549.8335 c 0,0 55.25781,15.94434 55.25781,15.94434 4.93555,1.19238 4.28028,2.06543 10.26758,-1.5752 0,0 93.18354,-61.64941 93.18354,-61.64941 1.5118,-1.00293 3.254,-3.24023 3.4395,-4.98437 0,0 0.291,-7.09278 0.291,-7.09278 0.022,-2.36426 -0.023,-3.74316 -1.3476,-3.91992 0,0 -97.0098,64.75293 -97.0098,64.75293 -2.15625,0.98145 -4.63086,1.05469 -5.80664,0.74805 0,0 -59.08789,-16.77735 -59.08789,-16.77735 -1.27344,-0.33008 -2.83594,-0.009 -3.0293,1.69336 0,0 0.93457,8.40625 0.93457,8.40625 -0.49511,2.47949 1.63184,4.12305 2.90723,4.4541 z" /><path
         id="path52"
         style="fill:none;stroke:#848b91;stroke-width:1.90980995;stroke-linecap:butt;stroke-linejoin:miter;stroke-miterlimit:4;stroke-dasharray:none;stroke-opacity:1"
         d="m 865.18457,-549.8335 c 0,0 55.25781,15.94434 55.25781,15.94434 4.93555,1.19238 4.28028,2.06543 10.26758,-1.5752 0,0 93.18354,-61.64941 93.18354,-61.64941 1.5118,-1.00293 3.254,-3.24023 3.4395,-4.98437 0,0 0.291,-7.09278 0.291,-7.09278 0.022,-2.36426 -0.023,-3.74316 -1.3476,-3.91992 0,0 -97.0098,64.75293 -97.0098,64.75293 -2.15625,0.98145 -4.63086,1.05469 -5.80664,0.74805 0,0 -59.08789,-16.77735 -59.08789,-16.77735 -1.27344,-0.33008 -2.83594,-0.009 -3.0293,1.69336 0,0 0.93457,8.40625 0.93457,8.40625 -0.49511,2.47949 1.63184,4.12305 2.90723,4.4541 z" /><path
         id="path54"
         style="fill:#ffffff;fill-opacity:1;fill-rule:nonzero;stroke:none"
         d="m 1407.126,-543.73486 c 3.4941,2.82324 0,2.18164 -1.7656,2.62109 0,0 -59.2442,15.0415 -59.2442,15.0415 -1.7656,0.44141 -4.4082,0.0254 -5.9004,-0.92968 0,0 -95.9101,-61.24561 -95.9101,-61.24561 -1.4922,-0.95215 -1.2735,-2.08496 0.4922,-2.52637 0,0 59.5156,-14.13378 59.5156,-14.13378 1.7656,-0.44239 4.4082,-0.0274 5.9023,0.92675 0,0 96.9102,60.2461 96.9102,60.2461 z" /><path
         id="path56"
         style="fill:none;stroke:#848b91;stroke-width:1.95580006;stroke-linecap:butt;stroke-linejoin:miter;stroke-miterlimit:4;stroke-dasharray:none;stroke-opacity:1"
         d="m 1407.126,-543.73486 c 3.4941,2.82324 0,2.18164 -1.7656,2.62109 0,0 -59.2442,15.0415 -59.2442,15.0415 -1.7656,0.44141 -4.4082,0.0254 -5.9004,-0.92968 0,0 -95.9101,-61.24561 -95.9101,-61.24561 -1.4922,-0.95215 -1.2735,-2.08496 0.4922,-2.52637 0,0 59.5156,-14.13378 59.5156,-14.13378 1.7656,-0.44239 4.4082,-0.0274 5.9023,0.92675 0,0 96.9102,60.2461 96.9102,60.2461 z" /><path
         id="path58"
         style="fill:none;stroke:#848b91;stroke-width:1.95580006;stroke-linecap:butt;stroke-linejoin:miter;stroke-miterlimit:4;stroke-dasharray:none;stroke-opacity:1"
         d="m 1385.1787,-551.26416 c 0,0 -52.3203,13.08496 -52.3203,13.08496 0,0 -75.1465,-49.57031 -75.1465,-49.57031 0,0 50.25,-12.5 50.25,-12.5 0,0 77.2168,48.98535 77.2168,48.98535 z" /><path
         id="path60"
         style="fill:none;stroke:#848b91;stroke-width:1.84080994;stroke-linecap:butt;stroke-linejoin:miter;stroke-miterlimit:4;stroke-dasharray:none;stroke-opacity:1"
         d="m 1363.7568,-541.69678 c -2.2226,0.55567 -2.5,1.98047 -0.6191,3.18067 1.8809,1.20215 5.207,1.72461 7.4297,1.16797 2.2246,-0.55469 2.5,-1.98047 0.6191,-3.18067 -1.8808,-1.20215 -5.207,-1.72558 -7.4297,-1.16797 z m 20.625,-5.1582 c -2.2246,0.55566 -2.5,1.98047 -0.6211,3.18164 1.8829,1.20117 5.209,1.72461 7.4317,1.16797 2.2226,-0.55664 2.5,-1.97949 0.6191,-3.18262 -1.8808,-1.19824 -5.207,-1.72363 -7.4297,-1.16699 z m -41.25,10.31641 c -2.2207,0.55371 -2.498,1.97753 -0.6191,3.18066 1.8809,1.20215 5.209,1.72363 7.4316,1.16797 2.2227,-0.55762 2.502,-1.97852 0.6192,-3.18164 -1.8809,-1.20117 -5.209,-1.72363 -7.4317,-1.16699 z" /><path
         id="path62"
         style="fill:#ffffff;fill-opacity:1;fill-rule:nonzero;stroke:none"
         d="m 1407.9502,-531.67822 c 0,0 0.9355,-8.40625 0.9355,-8.40625 -0.1933,-1.70215 -1.7558,-2.02344 -3.0292,-1.69336 0,0 -59.0879,16.77783 -59.0879,16.77783 -1.1758,0.30664 -3.6504,0.23242 -5.8067,-0.74805 0,0 -97.0097,-64.75341 -97.0097,-64.75341 -1.3243,0.17675 -1.3692,1.55566 -1.3477,3.91992 0,0 0.291,7.09277 0.291,7.09277 0.1856,1.74414 1.9277,3.98145 3.4395,4.98438 0,0 93.1836,61.64892 93.1836,61.64892 5.9863,3.64063 5.332,2.76758 10.2675,1.57617 0,0 55.2579,-15.94531 55.2579,-15.94531 1.2753,-0.33057 3.4023,-1.97412 2.9062,-4.45361 z" /><path
         id="path64"
         style="fill:none;stroke:#848b91;stroke-width:1.90980995;stroke-linecap:butt;stroke-linejoin:miter;stroke-miterlimit:4;stroke-dasharray:none;stroke-opacity:1"
         d="m 1407.9502,-531.67822 c 0,0 0.9355,-8.40625 0.9355,-8.40625 -0.1933,-1.70215 -1.7558,-2.02344 -3.0292,-1.69336 0,0 -59.0879,16.77783 -59.0879,16.77783 -1.1758,0.30664 -3.6504,0.23242 -5.8067,-0.74805 0,0 -97.0097,-64.75341 -97.0097,-64.75341 -1.3243,0.17675 -1.3692,1.55566 -1.3477,3.91992 0,0 0.291,7.09277 0.291,7.09277 0.1856,1.74414 1.9277,3.98145 3.4395,4.98438 0,0 93.1836,61.64892 93.1836,61.64892 5.9863,3.64063 5.332,2.76758 10.2675,1.57617 0,0 55.2579,-15.94531 55.2579,-15.94531 1.2753,-0.33057 3.4023,-1.97412 2.9062,-4.45361 z" /><path
         id="path66"
         style="fill:#ffffff;fill-opacity:1;fill-rule:nonzero;stroke:none"
         d="m 641.05029,-469.75049 c 3.49414,2.82227 -0.002,2.18164 -1.76562,2.6211 0,0 -59.24414,15.04101 -59.24414,15.04101 -1.76563,0.44141 -4.40821,0.0254 -5.90039,-0.92969 0,0 -95.91016,-61.24609 -95.91016,-61.24609 -1.49219,-0.95117 -1.27344,-2.08398 0.49219,-2.52539 0,0 59.51562,-14.13477 59.51562,-14.13477 1.76563,-0.4414 4.40821,-0.0273 5.90235,0.92774 0,0 96.91015,60.24609 96.91015,60.24609 z" /><path
         id="path68"
         style="fill:none;stroke:#848b91;stroke-width:1.95580006;stroke-linecap:butt;stroke-linejoin:miter;stroke-miterlimit:4;stroke-dasharray:none;stroke-opacity:1"
         d="m 641.05029,-469.75049 c 3.49414,2.82227 -0.002,2.18164 -1.76562,2.6211 0,0 -59.24414,15.04101 -59.24414,15.04101 -1.76563,0.44141 -4.40821,0.0254 -5.90039,-0.92969 0,0 -95.91016,-61.24609 -95.91016,-61.24609 -1.49219,-0.95117 -1.27344,-2.08398 0.49219,-2.52539 0,0 59.51562,-14.13477 59.51562,-14.13477 1.76563,-0.4414 4.40821,-0.0273 5.90235,0.92774 0,0 96.91015,60.24609 96.91015,60.24609 z" /><path
         id="path70"
         style="fill:none;stroke:#848b91;stroke-width:1.95580006;stroke-linecap:butt;stroke-linejoin:miter;stroke-miterlimit:4;stroke-dasharray:none;stroke-opacity:1"
         d="m 619.10303,-477.27979 c 0,0 -52.32032,13.08399 -52.32032,13.08399 0,0 -75.14648,-49.57031 -75.14648,-49.57031 0,0 50.25,-12.5 50.25,-12.5 0,0 77.2168,48.98632 77.2168,48.98632 z" /><path
         id="path72"
         style="fill:none;stroke:#848b91;stroke-width:1.84080994;stroke-linecap:butt;stroke-linejoin:miter;stroke-miterlimit:4;stroke-dasharray:none;stroke-opacity:1"
         d="m 597.68115,-467.71338 c -2.22265,0.55664 -2.5,1.98047 -0.61914,3.18164 1.88086,1.20117 5.20703,1.72461 7.42969,1.16797 2.22461,-0.55469 2.5,-1.98047 0.61914,-3.18164 -1.88086,-1.20117 -5.20703,-1.72461 -7.42969,-1.16797 z m 20.625,-5.1582 c -2.22461,0.55664 -2.5,1.98047 -0.62109,3.18164 1.88281,1.20117 5.20898,1.72461 7.43164,1.16797 2.22266,-0.55664 2.5,-1.97852 0.61914,-3.18164 -1.88086,-1.19922 -5.20703,-1.72461 -7.42969,-1.16797 z m -41.25,10.3164 c -2.2207,0.55469 -2.49804,1.97852 -0.61914,3.18164 1.88086,1.20118 5.20899,1.72266 7.43164,1.16797 2.22266,-0.55859 2.50196,-1.97851 0.61914,-3.18164 -1.88086,-1.20117 -5.20898,-1.72461 -7.43164,-1.16797 z" /><path
         id="path74"
         style="fill:#ffffff;fill-opacity:1;fill-rule:nonzero;stroke:none"
         d="m 641.87451,-457.69385 c 0,0 0.93555,-8.40625 0.93555,-8.40625 -0.19336,-1.70312 -1.75586,-2.02344 -3.0293,-1.69336 0,0 -59.08789,16.77735 -59.08789,16.77735 -1.17578,0.30664 -3.65039,0.23242 -5.80664,-0.74805 0,0 -97.00977,-64.75391 -97.00977,-64.75391 -1.32421,0.17774 -1.36914,1.55664 -1.34765,3.91993 0,0 0.29101,7.09375 0.29101,7.09375 0.18555,1.74414 1.92774,3.98046 3.43946,4.98437 0,0 93.18359,61.64844 93.18359,61.64844 5.98633,3.64062 5.33203,2.76758 10.26758,1.57617 0,0 55.25781,-15.94531 55.25781,-15.94531 1.27539,-0.33008 3.40235,-1.97461 2.90625,-4.45313 z" /><path
         id="path76"
         style="fill:none;stroke:#848b91;stroke-width:1.90980995;stroke-linecap:butt;stroke-linejoin:miter;stroke-miterlimit:4;stroke-dasharray:none;stroke-opacity:1"
         d="m 641.87451,-457.69385 c 0,0 0.93555,-8.40625 0.93555,-8.40625 -0.19336,-1.70312 -1.75586,-2.02344 -3.0293,-1.69336 0,0 -59.08789,16.77735 -59.08789,16.77735 -1.17578,0.30664 -3.65039,0.23242 -5.80664,-0.74805 0,0 -97.00977,-64.75391 -97.00977,-64.75391 -1.32421,0.17774 -1.36914,1.55664 -1.34765,3.91993 0,0 0.29101,7.09375 0.29101,7.09375 0.18555,1.74414 1.92774,3.98046 3.43946,4.98437 0,0 93.18359,61.64844 93.18359,61.64844 5.98633,3.64062 5.33203,2.76758 10.26758,1.57617 0,0 55.25781,-15.94531 55.25781,-15.94531 1.27539,-0.33008 3.40235,-1.97461 2.90625,-4.45313 z" /><path
         id="path78"
         style="fill:#ffffff;fill-opacity:1;fill-rule:nonzero;stroke:none"
         d="m 278.60156,-231.74121 c 3.49414,2.82226 -0.002,2.18164 -1.76562,2.62109 0,0 -59.24414,15.04102 -59.24414,15.04102 -1.76563,0.4414 -4.40821,0.0254 -5.90039,-0.92969 0,0 -95.91016,-61.24609 -95.91016,-61.24609 -1.49219,-0.95117 -1.27344,-2.08399 0.49219,-2.52539 0,0 59.51562,-14.13477 59.51562,-14.13477 1.76563,-0.44141 4.40821,-0.0273 5.90235,0.92774 0,0 96.91015,60.24609 96.91015,60.24609 z" /><path
         id="path80"
         style="fill:none;stroke:#848b91;stroke-width:1.95580006;stroke-linecap:butt;stroke-linejoin:miter;stroke-miterlimit:4;stroke-dasharray:none;stroke-opacity:1"
         d="m 278.60156,-231.74121 c 3.49414,2.82226 -0.002,2.18164 -1.76562,2.62109 0,0 -59.24414,15.04102 -59.24414,15.04102 -1.76563,0.4414 -4.40821,0.0254 -5.90039,-0.92969 0,0 -95.91016,-61.24609 -95.91016,-61.24609 -1.49219,-0.95117 -1.27344,-2.08399 0.49219,-2.52539 0,0 59.51562,-14.13477 59.51562,-14.13477 1.76563,-0.44141 4.40821,-0.0273 5.90235,0.92774 0,0 96.91015,60.24609 96.91015,60.24609 z" /><path
         id="path82"
         style="fill:none;stroke:#848b91;stroke-width:1.95580006;stroke-linecap:butt;stroke-linejoin:miter;stroke-miterlimit:4;stroke-dasharray:none;stroke-opacity:1"
         d="m 256.6543,-239.27051 c 0,0 -52.32032,13.08399 -52.32032,13.08399 0,0 -75.14648,-49.57032 -75.14648,-49.57032 0,0 50.25,-12.5 50.25,-12.5 0,0 77.2168,48.98633 77.2168,48.98633 z" /><path
         id="path84"
         style="fill:none;stroke:#848b91;stroke-width:1.84080994;stroke-linecap:butt;stroke-linejoin:miter;stroke-miterlimit:4;stroke-dasharray:none;stroke-opacity:1"
         d="m 235.23242,-229.7041 c -2.22265,0.55664 -2.5,1.98047 -0.61914,3.18164 1.88086,1.20117 5.20703,1.72461 7.42969,1.16797 2.22461,-0.55469 2.5,-1.98047 0.61914,-3.18164 -1.88086,-1.20117 -5.20703,-1.72461 -7.42969,-1.16797 z m 20.625,-5.1582 c -2.22461,0.55664 -2.5,1.98046 -0.62109,3.18164 1.88281,1.20117 5.20898,1.72461 7.43164,1.16796 2.22266,-0.55664 2.5,-1.97851 0.61914,-3.18164 -1.88086,-1.19921 -5.20703,-1.72461 -7.42969,-1.16796 z m -41.25,10.3164 c -2.2207,0.55469 -2.49804,1.97852 -0.61914,3.18164 1.88086,1.20117 5.20899,1.72266 7.43164,1.16797 2.22266,-0.55859 2.50196,-1.97851 0.61914,-3.18164 -1.88086,-1.20117 -5.20898,-1.72461 -7.43164,-1.16797 z" /><path
         id="path86"
         style="fill:#ffffff;fill-opacity:1;fill-rule:nonzero;stroke:none"
         d="m 279.42578,-219.68457 c 0,0 0.93555,-8.40625 0.93555,-8.40625 -0.19336,-1.70313 -1.75586,-2.02344 -3.0293,-1.69336 0,0 -59.08789,16.77734 -59.08789,16.77734 -1.17578,0.30664 -3.65039,0.23243 -5.80664,-0.74804 0,0 -97.00977,-64.75391 -97.00977,-64.75391 -1.32421,0.17774 -1.36914,1.55664 -1.34765,3.91992 0,0 0.29101,7.09375 0.29101,7.09375 0.18555,1.74414 1.92774,3.98047 3.43946,4.98438 0,0 93.18359,61.64844 93.18359,61.64844 5.98633,3.64062 5.33203,2.76757 10.26758,1.57617 0,0 55.25781,-15.94532 55.25781,-15.94532 1.27539,-0.33007 3.40235,-1.9746 2.90625,-4.45312 z" /><path
         id="path88"
         style="fill:none;stroke:#848b91;stroke-width:1.90980995;stroke-linecap:butt;stroke-linejoin:miter;stroke-miterlimit:4;stroke-dasharray:none;stroke-opacity:1"
         d="m 279.42578,-219.68457 c 0,0 0.93555,-8.40625 0.93555,-8.40625 -0.19336,-1.70313 -1.75586,-2.02344 -3.0293,-1.69336 0,0 -59.08789,16.77734 -59.08789,16.77734 -1.17578,0.30664 -3.65039,0.23243 -5.80664,-0.74804 0,0 -97.00977,-64.75391 -97.00977,-64.75391 -1.32421,0.17774 -1.36914,1.55664 -1.34765,3.91992 0,0 0.29101,7.09375 0.29101,7.09375 0.18555,1.74414 1.92774,3.98047 3.43946,4.98438 0,0 93.18359,61.64844 93.18359,61.64844 5.98633,3.64062 5.33203,2.76757 10.26758,1.57617 0,0 55.25781,-15.94532 55.25781,-15.94532 1.27539,-0.33007 3.40235,-1.9746 2.90625,-4.45312 z" /><path
         id="path90"
         style="fill:#ffffff;fill-opacity:1;fill-rule:nonzero;stroke:none"
         d="m 1172.0527,-219.7793 c -1.3984,9.73633 5.3887,11.01953 5.3887,11.01953 0,0 78.2334,24.23633 78.2334,24.23633 6.5703,1.83496 12.2139,0.34766 16.6104,-1.54101 0,0 72.5693,-32.53125 72.5693,-32.53125 4.3975,-1.89551 3.5186,-3.95313 4.4434,-10.39746" /><path
         id="path92"
         style="fill:none;stroke:#9096a1;stroke-width:2.1584301;stroke-linecap:butt;stroke-linejoin:miter;stroke-miterlimit:4;stroke-dasharray:none;stroke-opacity:1"
         d="m 1172.0527,-219.7793 c -1.3984,9.73633 5.3887,11.01953 5.3887,11.01953 0,0 78.2334,24.23633 78.2334,24.23633 6.5703,1.83496 12.2139,0.34766 16.6104,-1.54101 0,0 72.5693,-32.53125 72.5693,-32.53125 4.3975,-1.89551 3.5186,-3.95313 4.4434,-10.39746" /><path
         id="path94"
         style="fill:#ffffff;fill-opacity:1;fill-rule:nonzero;stroke:none"
         d="m 1309.4922,-236.25488 c 0,0 -72.3272,31.20312 -72.3272,31.20312 0,0 -46.6738,-13.54394 -46.6738,-13.54394 0,0 72.3379,-31.2002 72.3379,-31.2002 0,0 46.6631,13.54102 46.6631,13.54102 z m 1.4023,18.9414 c 3.0401,0.87793 3.7911,2.33985 1.6934,3.24512 0,0 -12.1113,5.22461 -12.1113,5.22461 -2.1104,0.91406 -6.292,0.93457 -9.333,0.0537 0,0 -14.375,-4.16992 -14.375,-4.16992 -3.0469,-0.88477 -3.7979,-2.33984 -1.6905,-3.25391 0,0 12.1075,-5.22363 12.1075,-5.22363 2.1113,-0.91113 6.2871,-0.93066 9.3349,-0.0449 0,0 14.374,4.16894 14.374,4.16894 z m -61.0898,-37.28222 c 0,0 -75.5811,32.60156 -75.5811,32.60156 -4.3867,1.89551 -2.8134,4.92578 3.5303,6.76074 0,0 73.6992,22.34082 73.6992,22.34082 6.3487,1.83789 15.0381,1.79102 19.4317,-0.10644 0,0 75.5771,-32.60645 75.5771,-32.60645 4.3936,-1.8916 2.8154,-4.9209 -3.5215,-6.76172 0,0 -73.7089,-22.33301 -73.7089,-22.33301 -6.3292,-1.83984 -15.0303,-1.78906 -19.4268,0.1045 z" /><path
         id="path96"
         style="fill:none;stroke:#9096a1;stroke-width:2.1584301;stroke-linecap:butt;stroke-linejoin:miter;stroke-miterlimit:4;stroke-dasharray:none;stroke-opacity:1"
         d="m 1309.4922,-236.25488 c 0,0 -72.3272,31.20312 -72.3272,31.20312 0,0 -46.6738,-13.54394 -46.6738,-13.54394 0,0 72.3379,-31.2002 72.3379,-31.2002 0,0 46.6631,13.54102 46.6631,13.54102 z m 1.4023,18.9414 c 3.0401,0.87793 3.7911,2.33985 1.6934,3.24512 0,0 -12.1113,5.22461 -12.1113,5.22461 -2.1104,0.91406 -6.292,0.93457 -9.333,0.0537 0,0 -14.375,-4.16992 -14.375,-4.16992 -3.0469,-0.88477 -3.7979,-2.33984 -1.6905,-3.25391 0,0 12.1075,-5.22363 12.1075,-5.22363 2.1113,-0.91113 6.2871,-0.93066 9.3349,-0.0449 0,0 14.374,4.16894 14.374,4.16894 z m -61.0898,-37.28222 c 0,0 -75.5811,32.60156 -75.5811,32.60156 -4.3867,1.89551 -2.8134,4.92578 3.5303,6.76074 0,0 73.6992,22.34082 73.6992,22.34082 6.3487,1.83789 15.0381,1.79102 19.4317,-0.10644 0,0 75.5771,-32.60645 75.5771,-32.60645 4.3936,-1.8916 2.8154,-4.9209 -3.5215,-6.76172 0,0 -73.7089,-22.33301 -73.7089,-22.33301 -6.3292,-1.83984 -15.0303,-1.78906 -19.4268,0.1045 z" /><path
         id="path98"
         style="fill:none;stroke:#9096a1;stroke-width:2.1584301;stroke-linecap:butt;stroke-linejoin:miter;stroke-miterlimit:4;stroke-dasharray:none;stroke-opacity:1"
         d="m 1227.5557,-207.83691 c 0,0 71.8486,-31.00293 71.8486,-31.00293" /><path
         id="path100"
         style="fill:none;stroke:#9096a1;stroke-width:2.1584301;stroke-linecap:butt;stroke-linejoin:miter;stroke-miterlimit:4;stroke-dasharray:none;stroke-opacity:1"
         d="m 1217.9395,-210.62891 c 0,0 72.0996,-31.10058 72.0996,-31.10058" /><path
         id="path102"
         style="fill:none;stroke:#9096a1;stroke-width:2.1584301;stroke-linecap:butt;stroke-linejoin:miter;stroke-miterlimit:4;stroke-dasharray:none;stroke-opacity:1"
         d="m 1208.7793,-213.11133 c 0,0 72.334,-31.20508 72.334,-31.20508" /><path
         id="path104"
         style="fill:none;stroke:#9096a1;stroke-width:2.1584301;stroke-linecap:butt;stroke-linejoin:miter;stroke-miterlimit:4;stroke-dasharray:none;stroke-opacity:1"
         d="m 1199.1748,-215.89844 c 0,0 72.5693,-31.31054 72.5693,-31.31054" /><path
         id="path106"
         style="fill:none;stroke:#9096a1;stroke-width:2.1584301;stroke-linecap:butt;stroke-linejoin:miter;stroke-miterlimit:4;stroke-dasharray:none;stroke-opacity:1"
         d="m 1243.1152,-207.61816 c 0,0 -47.0166,-13.64258 -47.0166,-13.64258" /><path
         id="path108"
         style="fill:none;stroke:#9096a1;stroke-width:2.1584301;stroke-linecap:butt;stroke-linejoin:miter;stroke-miterlimit:4;stroke-dasharray:none;stroke-opacity:1"
         d="m 1249.8213,-210.5127 c 0,0 -47.0166,-13.63671 -47.0166,-13.63671" /><path
         id="path110"
         style="fill:none;stroke:#9096a1;stroke-width:2.1584301;stroke-linecap:butt;stroke-linejoin:miter;stroke-miterlimit:4;stroke-dasharray:none;stroke-opacity:1"
         d="m 1222.9131,-232.8252 c 0,0 37.4092,10.84571 37.4092,10.84571" /><path
         id="path112"
         style="fill:none;stroke:#9096a1;stroke-width:2.1584301;stroke-linecap:butt;stroke-linejoin:miter;stroke-miterlimit:4;stroke-dasharray:none;stroke-opacity:1"
         d="m 1229.6172,-235.71973 c 0,0 36.7168,10.65235 36.7168,10.65235" /><path
         id="path114"
         style="fill:none;stroke:#9096a1;stroke-width:2.1584301;stroke-linecap:butt;stroke-linejoin:miter;stroke-miterlimit:4;stroke-dasharray:none;stroke-opacity:1"
         d="m 1209.5049,-227.0459 c 0,0 37.4062,10.85352 37.4062,10.85352" /><path
         id="path116"
         style="fill:none;stroke:#9096a1;stroke-width:2.1584301;stroke-linecap:butt;stroke-linejoin:miter;stroke-miterlimit:4;stroke-dasharray:none;stroke-opacity:1"
         d="m 1216.2129,-229.93262 c 0,0 36.7256,10.65137 36.7256,10.65137" /><path
         id="path118"
         style="fill:none;stroke:#9096a1;stroke-width:2.1584301;stroke-linecap:butt;stroke-linejoin:miter;stroke-miterlimit:4;stroke-dasharray:none;stroke-opacity:1"
         d="m 1236.3223,-238.61133 c 0,0 37.0664,10.74512 37.0664,10.74512" /><path
         id="path120"
         style="fill:none;stroke:#9096a1;stroke-width:2.1584301;stroke-linecap:butt;stroke-linejoin:miter;stroke-miterlimit:4;stroke-dasharray:none;stroke-opacity:1"
         d="m 1243.0234,-241.50488 c 0,0 36.7276,10.65234 36.7276,10.65234" /><path
         id="path122"
         style="fill:none;stroke:#9096a1;stroke-width:2.1584301;stroke-linecap:butt;stroke-linejoin:miter;stroke-miterlimit:4;stroke-dasharray:none;stroke-opacity:1"
         d="m 1296.7451,-230.75684 c 0,0 -47.0185,-13.64257 -47.0185,-13.64257" /><path
         id="path124"
         style="fill:none;stroke:#9096a1;stroke-width:2.1584301;stroke-linecap:butt;stroke-linejoin:miter;stroke-miterlimit:4;stroke-dasharray:none;stroke-opacity:1"
         d="m 1303.4443,-233.65332 c 0,0 -47.0039,-13.62988 -47.0039,-13.62988" /><path
         id="path126"
         style="fill:#ffffff;fill-opacity:1;fill-rule:nonzero;stroke:none"
         d="m 1258.7129,-264.51563 c 0,0 -2.0811,7.84571 -2.0811,7.84571 0,0 -85.1289,36.01269 -85.1289,36.01269 -4.0547,-0.27441 -7.2256,-1.74511 -8.039,-7.16992 0,0 -14.9024,-83.76465 -14.9024,-83.76465 -0.8174,-5.42675 0.1494,-11.86523 4.7871,-13.41308 0,0 75.0381,-28.99903 75.0381,-28.99903 2.6914,-1.07031 11.0059,-1.93554 15.1543,-0.95605" /><path
         id="path128"
         style="fill:none;stroke:#9096a1;stroke-width:2.26136994;stroke-linecap:butt;stroke-linejoin:miter;stroke-miterlimit:4;stroke-dasharray:none;stroke-opacity:1"
         d="m 1258.7129,-264.51563 c 0,0 -2.0811,7.84571 -2.0811,7.84571 0,0 -85.1289,36.01269 -85.1289,36.01269 -4.0547,-0.27441 -7.2256,-1.74511 -8.039,-7.16992 0,0 -14.9024,-83.76465 -14.9024,-83.76465 -0.8174,-5.42675 0.1494,-11.86523 4.7871,-13.41308 0,0 75.0381,-28.99903 75.0381,-28.99903 2.6914,-1.07031 11.0059,-1.93554 15.1543,-0.95605" /><path
         id="path130"
         style="fill:#ffffff;fill-opacity:1;fill-rule:nonzero;stroke:none"
         d="m 1255.1963,-267.65332 c 0.7041,4.60449 0.2705,6.39746 -2.6611,7.72363 0,0 -77.2344,32.40821 -77.2344,32.40821 -3.1055,1.88476 -5.332,1.51562 -6.0322,-3.08887 0,0 -13.4551,-78.60547 -13.4551,-78.60547 -0.7041,-4.60449 1.2529,-9.86719 4.3525,-11.75293 0,0 77.2608,-28.46875 77.2608,-28.46875 3.1025,-1.8877 4.5107,-0.0205 5.4648,6.24805 0,0 12.3047,75.53613 12.3047,75.53613 z m -16.0029,-86.53516 c 0,0 -83.0762,30.9502 -83.0762,30.9502 -3.0098,1.82715 -5.3086,6.69336 -4.4922,12.07617 0,0 14.8984,83.21484 14.8984,83.21484 0.8135,5.38477 3.918,8.26954 6.9346,6.43946 0,0 82.0068,-35.07813 82.0068,-35.07813 3.0098,-1.8291 4.8028,-4.64941 3.9825,-10.03125 0,0 -13.1035,-82.02344 -13.1035,-82.02344 -1.4707,-5.94824 -2.7344,-6.91308 -7.1504,-5.54785 z" /><path
         id="path132"
         style="fill:none;stroke:#9096a1;stroke-width:2.26136994;stroke-linecap:butt;stroke-linejoin:miter;stroke-miterlimit:4;stroke-dasharray:none;stroke-opacity:1"
         d="m 1255.1963,-267.65332 c 0.7041,4.60449 0.2705,6.39746 -2.6611,7.72363 0,0 -77.2344,32.40821 -77.2344,32.40821 -3.1055,1.88476 -5.332,1.51562 -6.0322,-3.08887 0,0 -13.4551,-78.60547 -13.4551,-78.60547 -0.7041,-4.60449 1.2529,-9.86719 4.3525,-11.75293 0,0 77.2608,-28.46875 77.2608,-28.46875 3.1025,-1.8877 4.5107,-0.0205 5.4648,6.24805 0,0 12.3047,75.53613 12.3047,75.53613 z m -16.0029,-86.53516 c 0,0 -83.0762,30.9502 -83.0762,30.9502 -3.0098,1.82715 -5.3086,6.69336 -4.4922,12.07617 0,0 14.8984,83.21484 14.8984,83.21484 0.8135,5.38477 3.918,8.26954 6.9346,6.43946 0,0 82.0068,-35.07813 82.0068,-35.07813 3.0098,-1.8291 4.8028,-4.64941 3.9825,-10.03125 0,0 -13.1035,-82.02344 -13.1035,-82.02344 -1.4707,-5.94824 -2.7344,-6.91308 -7.1504,-5.54785 z" /><path
         id="path134"
         style="fill:#ffffff;fill-opacity:1;fill-rule:nonzero;stroke:none"
         d="m 21.18799,-505.81104 c 0.9248,6.44434 0.0459,8.50196 4.44336,10.39747 0,0 72.56933,32.53125 72.56933,32.53125 4.39649,1.88867 10.04004,3.37597 16.61036,1.54101 0,0 78.23339,-24.23633 78.23339,-24.23633 0,0 6.78711,-1.2832 5.38868,-11.01953" /><path
         id="path136"
         style="fill:none;stroke:#9096a1;stroke-width:2.1584301;stroke-linecap:butt;stroke-linejoin:miter;stroke-miterlimit:4;stroke-dasharray:none;stroke-opacity:1"
         d="m 21.18799,-505.81104 c 0.9248,6.44434 0.0459,8.50196 4.44336,10.39747 0,0 72.56933,32.53125 72.56933,32.53125 4.39649,1.88867 10.04004,3.37597 16.61036,1.54101 0,0 78.23339,-24.23633 78.23339,-24.23633 0,0 6.78711,-1.2832 5.38868,-11.01953" /><path
         id="path138"
         style="fill:#ffffff;fill-opacity:1;fill-rule:nonzero;stroke:none"
         d="m 107.65674,-526.61377 c 0,0 72.33789,31.2002 72.33789,31.2002 0,0 -46.67383,13.54394 -46.67383,13.54394 0,0 -72.32715,-31.20312 -72.32715,-31.20312 0,0 46.66309,-13.54102 46.66309,-13.54102 z m -33.69141,28.31348 c 3.04785,-0.88575 7.22363,-0.86621 9.33496,0.0449 0,0 12.10742,5.22363 12.10742,5.22363 2.10743,0.91406 1.35645,2.36914 -1.69042,3.25391 0,0 -14.375,4.16992 -14.375,4.16992 -3.04102,0.88086 -7.22266,0.86035 -9.33301,-0.0537 0,0 -12.11133,-5.22461 -12.11133,-5.22461 -2.09766,-0.90527 -1.34668,-2.36719 1.69336,-3.24512 0,0 14.37402,-4.16894 14.37402,-4.16894 z m 27.28906,-33.21778 c 0,0 -73.70898,22.33301 -73.70898,22.33301 -6.33691,1.84082 -7.91504,4.87012 -3.52148,6.76172 0,0 75.57714,32.60645 75.57714,32.60645 4.39356,1.89746 13.08301,1.94433 19.43164,0.10644 0,0 73.69922,-22.34082 73.69922,-22.34082 6.34375,-1.83496 7.917,-4.86523 3.53028,-6.76074 0,0 -75.58106,-32.60156 -75.58106,-32.60156 -4.39648,-1.89356 -13.09765,-1.94434 -19.42676,-0.1045 z" /><path
         id="path140"
         style="fill:none;stroke:#9096a1;stroke-width:2.1584301;stroke-linecap:butt;stroke-linejoin:miter;stroke-miterlimit:4;stroke-dasharray:none;stroke-opacity:1"
         d="m 107.65674,-526.61377 c 0,0 72.33789,31.2002 72.33789,31.2002 0,0 -46.67383,13.54394 -46.67383,13.54394 0,0 -72.32715,-31.20312 -72.32715,-31.20312 0,0 46.66309,-13.54102 46.66309,-13.54102 z m -33.69141,28.31348 c 3.04785,-0.88575 7.22363,-0.86621 9.33496,0.0449 0,0 12.10742,5.22363 12.10742,5.22363 2.10743,0.91406 1.35645,2.36914 -1.69042,3.25391 0,0 -14.375,4.16992 -14.375,4.16992 -3.04102,0.88086 -7.22266,0.86035 -9.33301,-0.0537 0,0 -12.11133,-5.22461 -12.11133,-5.22461 -2.09766,-0.90527 -1.34668,-2.36719 1.69336,-3.24512 0,0 14.37402,-4.16894 14.37402,-4.16894 z m 27.28906,-33.21778 c 0,0 -73.70898,22.33301 -73.70898,22.33301 -6.33691,1.84082 -7.91504,4.87012 -3.52148,6.76172 0,0 75.57714,32.60645 75.57714,32.60645 4.39356,1.89746 13.08301,1.94433 19.43164,0.10644 0,0 73.69922,-22.34082 73.69922,-22.34082 6.34375,-1.83496 7.917,-4.86523 3.53028,-6.76074 0,0 -75.58106,-32.60156 -75.58106,-32.60156 -4.39648,-1.89356 -13.09765,-1.94434 -19.42676,-0.1045 z" /><path
         id="path142"
         style="fill:none;stroke:#9096a1;stroke-width:2.1584301;stroke-linecap:butt;stroke-linejoin:miter;stroke-miterlimit:4;stroke-dasharray:none;stroke-opacity:1"
         d="m 142.93018,-484.65479 c 0,0 -71.84864,-31.00292 -71.84864,-31.00292" /><path
         id="path144"
         style="fill:none;stroke:#9096a1;stroke-width:2.1584301;stroke-linecap:butt;stroke-linejoin:miter;stroke-miterlimit:4;stroke-dasharray:none;stroke-opacity:1"
         d="m 152.54639,-487.44678 c 0,0 -72.09961,-31.10058 -72.09961,-31.10058" /><path
         id="path146"
         style="fill:none;stroke:#9096a1;stroke-width:2.1584301;stroke-linecap:butt;stroke-linejoin:miter;stroke-miterlimit:4;stroke-dasharray:none;stroke-opacity:1"
         d="m 161.70654,-489.9292 c 0,0 -72.33398,-31.20508 -72.33398,-31.20508" /><path
         id="path148"
         style="fill:none;stroke:#9096a1;stroke-width:2.1584301;stroke-linecap:butt;stroke-linejoin:miter;stroke-miterlimit:4;stroke-dasharray:none;stroke-opacity:1"
         d="m 171.31104,-492.71631 c 0,0 -72.56934,-31.31055 -72.56934,-31.31055" /><path
         id="path150"
         style="fill:none;stroke:#9096a1;stroke-width:2.1584301;stroke-linecap:butt;stroke-linejoin:miter;stroke-miterlimit:4;stroke-dasharray:none;stroke-opacity:1"
         d="m 127.37061,-484.43604 c 0,0 47.0166,-13.64257 47.0166,-13.64257" /><path
         id="path152"
         style="fill:none;stroke:#9096a1;stroke-width:2.1584301;stroke-linecap:butt;stroke-linejoin:miter;stroke-miterlimit:4;stroke-dasharray:none;stroke-opacity:1"
         d="m 120.66455,-487.33057 c 0,0 47.0166,-13.63672 47.0166,-13.63672" /><path
         id="path154"
         style="fill:none;stroke:#9096a1;stroke-width:2.1584301;stroke-linecap:butt;stroke-linejoin:miter;stroke-miterlimit:4;stroke-dasharray:none;stroke-opacity:1"
         d="m 147.57275,-509.64307 c 0,0 -37.40918,10.84571 -37.40918,10.84571" /><path
         id="path156"
         style="fill:none;stroke:#9096a1;stroke-width:2.1584301;stroke-linecap:butt;stroke-linejoin:miter;stroke-miterlimit:4;stroke-dasharray:none;stroke-opacity:1"
         d="m 140.86865,-512.5376 c 0,0 -36.71679,10.65235 -36.71679,10.65235" /><path
         id="path158"
         style="fill:none;stroke:#9096a1;stroke-width:2.1584301;stroke-linecap:butt;stroke-linejoin:miter;stroke-miterlimit:4;stroke-dasharray:none;stroke-opacity:1"
         d="m 160.98096,-503.86377 c 0,0 -37.40625,10.85352 -37.40625,10.85352" /><path
         id="path160"
         style="fill:none;stroke:#9096a1;stroke-width:2.1584301;stroke-linecap:butt;stroke-linejoin:miter;stroke-miterlimit:4;stroke-dasharray:none;stroke-opacity:1"
         d="m 154.27295,-506.75049 c 0,0 -36.72559,10.65137 -36.72559,10.65137" /><path
         id="path162"
         style="fill:none;stroke:#9096a1;stroke-width:2.1584301;stroke-linecap:butt;stroke-linejoin:miter;stroke-miterlimit:4;stroke-dasharray:none;stroke-opacity:1"
         d="m 134.16357,-515.4292 c 0,0 -37.0664,10.74512 -37.0664,10.74512" /><path
         id="path164"
         style="fill:none;stroke:#9096a1;stroke-width:2.1584301;stroke-linecap:butt;stroke-linejoin:miter;stroke-miterlimit:4;stroke-dasharray:none;stroke-opacity:1"
         d="m 127.4624,-518.32275 c 0,0 -36.72754,10.65234 -36.72754,10.65234" /><path
         id="path166"
         style="fill:none;stroke:#9096a1;stroke-width:2.1584301;stroke-linecap:butt;stroke-linejoin:miter;stroke-miterlimit:4;stroke-dasharray:none;stroke-opacity:1"
         d="m 73.74072,-507.57471 c 0,0 47.01856,-13.64258 47.01856,-13.64258" /><path
         id="path168"
         style="fill:none;stroke:#9096a1;stroke-width:2.1584301;stroke-linecap:butt;stroke-linejoin:miter;stroke-miterlimit:4;stroke-dasharray:none;stroke-opacity:1"
         d="m 67.0415,-510.47119 c 0,0 47.00391,-13.62988 47.00391,-13.62988" /><path
         id="path170"
         style="fill:#ffffff;fill-opacity:1;fill-rule:nonzero;stroke:none"
         d="m 111.77295,-541.3335 c 0,0 2.08105,7.84571 2.08105,7.84571 0,0 85.12891,36.01269 85.12891,36.01269 4.05469,-0.27441 7.22559,-1.74511 8.03906,-7.16992 0,0 14.90235,-83.76465 14.90235,-83.76465 0.81738,-5.42676 -0.14942,-11.86523 -4.78711,-13.41308 0,0 -75.03809,-28.99903 -75.03809,-28.99903 -2.69141,-1.07031 -11.00586,-1.93554 -15.1543,-0.95605" /><path
         id="path172"
         style="fill:none;stroke:#9096a1;stroke-width:2.26136994;stroke-linecap:butt;stroke-linejoin:miter;stroke-miterlimit:4;stroke-dasharray:none;stroke-opacity:1"
         d="m 111.77295,-541.3335 c 0,0 2.08105,7.84571 2.08105,7.84571 0,0 85.12891,36.01269 85.12891,36.01269 4.05469,-0.27441 7.22559,-1.74511 8.03906,-7.16992 0,0 14.90235,-83.76465 14.90235,-83.76465 0.81738,-5.42676 -0.14942,-11.86523 -4.78711,-13.41308 0,0 -75.03809,-28.99903 -75.03809,-28.99903 -2.69141,-1.07031 -11.00586,-1.93554 -15.1543,-0.95605" /><path
         id="path174"
         style="fill:#ffffff;fill-opacity:1;fill-rule:nonzero;stroke:none"
         d="m 127.59424,-620.00732 c 0.9541,-6.26856 2.3623,-8.13575 5.46484,-6.24805 0,0 77.26074,28.46875 77.26074,28.46875 3.09961,1.88574 5.05664,7.14844 4.35254,11.75293 0,0 -13.45507,78.60547 -13.45507,78.60547 -0.7002,4.60449 -2.92676,4.97363 -6.03223,3.08886 0,0 -77.23438,-32.4082 -77.23438,-32.4082 -2.93164,-1.32617 -3.36523,-3.11914 -2.66113,-7.72363 0,0 12.30469,-75.53613 12.30469,-75.53613 z m -3.45215,-5.45118 c 0,0 -13.10352,82.02344 -13.10352,82.02344 -0.82031,5.38184 0.97266,8.20215 3.98243,10.03125 0,0 82.00683,35.07813 82.00683,35.07813 3.0166,1.83007 6.1211,-1.05469 6.93457,-6.43946 0,0 14.89844,-83.21484 14.89844,-83.21484 0.81641,-5.38281 -1.48242,-10.24902 -4.49219,-12.07617 0,0 -83.07617,-30.9502 -83.07617,-30.9502 -4.41602,-1.36523 -5.67969,-0.40039 -7.15039,5.54785 z" /><path
         id="path176"
         style="fill:none;stroke:#9096a1;stroke-width:2.26136994;stroke-linecap:butt;stroke-linejoin:miter;stroke-miterlimit:4;stroke-dasharray:none;stroke-opacity:1"
         d="m 127.59424,-620.00732 c 0.9541,-6.26856 2.3623,-8.13575 5.46484,-6.24805 0,0 77.26074,28.46875 77.26074,28.46875 3.09961,1.88574 5.05664,7.14844 4.35254,11.75293 0,0 -13.45507,78.60547 -13.45507,78.60547 -0.7002,4.60449 -2.92676,4.97363 -6.03223,3.08886 0,0 -77.23438,-32.4082 -77.23438,-32.4082 -2.93164,-1.32617 -3.36523,-3.11914 -2.66113,-7.72363 0,0 12.30469,-75.53613 12.30469,-75.53613 z m -3.45215,-5.45118 c 0,0 -13.10352,82.02344 -13.10352,82.02344 -0.82031,5.38184 0.97266,8.20215 3.98243,10.03125 0,0 82.00683,35.07813 82.00683,35.07813 3.0166,1.83007 6.1211,-1.05469 6.93457,-6.43946 0,0 14.89844,-83.21484 14.89844,-83.21484 0.81641,-5.38281 -1.48242,-10.24902 -4.49219,-12.07617 0,0 -83.07617,-30.9502 -83.07617,-30.9502 -4.41602,-1.36523 -5.67969,-0.40039 -7.15039,5.54785 z" /><path
         id="path178"
         style="fill:none;stroke:#ffffff;stroke-width:1.08756995;stroke-linecap:butt;stroke-linejoin:miter;stroke-miterlimit:4;stroke-dasharray:none;stroke-opacity:1"
         d="m 1410.2568,-9.73438 c 0,0 -1403.10494,0 -1403.10494,0 0,0 0,-841.56494 0,-841.56494 0,0 1403.10494,0 1403.10494,0 0,0 0,841.56494 0,841.56494 z" /><path
         id="path180"
         style="fill:#ffffff;fill-opacity:1;fill-rule:nonzero;stroke:none"
         d="m 303.39844,-737.10449 c 0,0 40.42822,-8.92237 40.42822,-8.92237 0,0 0,2.29981 0,2.29981 0.43945,-0.83203 0.69727,-1.65772 0.69727,-2.45361 m -0.65186,0.95654 c -0.42041,4.33105 -2.34375,8.61767 -11.88916,10.72412 -11.35693,2.50684 -28.58398,2.38672 -28.58447,-2.60449 0,0 0.0151,186.78515 0.0151,186.78515 0,0 0.19825,-0.0439 0.19825,-0.0439 1.12548,4.27148 18.96142,5.92187 29.07031,2.36523 12.58887,-4.42968 11.34131,-13.29297 11.15918,-13.73828 0,0 0.0308,-183.48779 0.0308,-183.48779 z" /><path
         id="path182"
         style="fill:none;stroke:#848b91;stroke-width:3;stroke-linecap:butt;stroke-linejoin:miter;stroke-miterlimit:4;stroke-dasharray:none;stroke-opacity:1"
         d="m 303.39844,-737.10449 c 0,0 40.42822,-8.92237 40.42822,-8.92237 0,0 0,2.29981 0,2.29981 0.43945,-0.83203 0.69727,-1.65772 0.69727,-2.45361 m -0.65186,0.95654 c -0.42041,4.33105 -2.34375,8.61767 -11.88916,10.72412 -11.35693,2.50684 -28.58398,2.38672 -28.58447,-2.60449 0,0 0.0151,186.78515 0.0151,186.78515 0,0 0.19825,-0.0439 0.19825,-0.0439 1.12548,4.27148 18.96142,5.92187 29.07031,2.36523 12.58887,-4.42968 11.34131,-13.29297 11.15918,-13.73828 0,0 0.0308,-183.48779 0.0308,-183.48779 z" /><path
         id="path184"
         style="fill:#ffffff;fill-opacity:1;fill-rule:nonzero;stroke:none"
         d="m 352.12256,-746.97852 c 0,0.7959 0.25781,1.62159 0.69726,2.45362 0,0 0,-2.29981 0,-2.29981 0,0 40.42823,8.92237 40.42823,8.92237 m -40.44287,175.36816 c -0.18213,0.44531 -1.42969,9.30859 11.15918,13.73828 10.10888,3.55664 27.94482,1.90625 29.07031,-2.36523 0,0 0.19824,0.0439 0.19824,0.0439 0,0 0.0151,-186.78515 0.0151,-186.78515 -4.9e-4,4.99121 -17.22754,5.11132 -28.58448,2.60449 -9.54541,-2.10645 -11.46875,-6.39307 -11.88916,-10.72412 0,0 0.0308,183.48779 0.0308,183.48779 z" /><path
         id="path186"
         style="fill:none;stroke:#848b91;stroke-width:3;stroke-linecap:butt;stroke-linejoin:miter;stroke-miterlimit:4;stroke-dasharray:none;stroke-opacity:1"
         d="m 352.12256,-746.97852 c 0,0.7959 0.25781,1.62159 0.69726,2.45362 0,0 0,-2.29981 0,-2.29981 0,0 40.42823,8.92237 40.42823,8.92237 m -40.44287,175.36816 c -0.18213,0.44531 -1.42969,9.30859 11.15918,13.73828 10.10888,3.55664 27.94482,1.90625 29.07031,-2.36523 0,0 0.19824,0.0439 0.19824,0.0439 0,0 0.0151,-186.78515 0.0151,-186.78515 -4.9e-4,4.99121 -17.22754,5.11132 -28.58448,2.60449 -9.54541,-2.10645 -11.46875,-6.39307 -11.88916,-10.72412 0,0 0.0308,183.48779 0.0308,183.48779 z" /><path
         id="path188"
         style="fill:#ffffff;fill-opacity:1;fill-rule:nonzero;stroke:none"
         d="m 992.12793,-495.26465 c 0,0 40.42867,-8.92285 40.42867,-8.92285 0,0 0,2.30078 0,2.30078 0.4395,-0.83203 0.6973,-1.6582 0.6973,-2.4541 m -0.6514,0.95605 c -0.4209,4.33204 -2.3437,8.61817 -11.8896,10.72461 -11.3565,2.50684 -28.58399,2.38672 -28.58497,-2.60449 0,0 0.0156,186.78516 0.0156,186.78516 0,0 0.19825,-0.0439 0.19825,-0.0439 1.12597,4.27149 18.96192,5.92188 29.07032,2.36524 12.5889,-4.42969 11.3408,-13.29297 11.1592,-13.73828 0,0 0.031,-183.48829 0.031,-183.48829 z" /><path
         id="path190"
         style="fill:none;stroke:#848b91;stroke-width:3;stroke-linecap:butt;stroke-linejoin:miter;stroke-miterlimit:4;stroke-dasharray:none;stroke-opacity:1"
         d="m 992.12793,-495.26465 c 0,0 40.42867,-8.92285 40.42867,-8.92285 0,0 0,2.30078 0,2.30078 0.4395,-0.83203 0.6973,-1.6582 0.6973,-2.4541 m -0.6514,0.95605 c -0.4209,4.33204 -2.3437,8.61817 -11.8896,10.72461 -11.3565,2.50684 -28.58399,2.38672 -28.58497,-2.60449 0,0 0.0156,186.78516 0.0156,186.78516 0,0 0.19825,-0.0439 0.19825,-0.0439 1.12597,4.27149 18.96192,5.92188 29.07032,2.36524 12.5889,-4.42969 11.3408,-13.29297 11.1592,-13.73828 0,0 0.031,-183.48829 0.031,-183.48829 z" /><path
         id="path192"
         style="fill:#ffffff;fill-opacity:1;fill-rule:nonzero;stroke:none"
         d="m 1040.8525,-505.13867 c 0,0.7959 0.2579,1.62109 0.6973,2.45312 0,0 0,-2.29883 0,-2.29883 0,0 40.4277,8.92188 40.4277,8.92188 m -40.4423,175.36816 c -0.1827,0.44532 -1.4297,9.3086 11.1591,13.73829 10.1094,3.55664 27.9454,1.90625 29.0704,-2.36524 0,0 0.1982,0.0439 0.1982,0.0439 0,0 0.015,-186.78516 0.015,-186.78516 0,4.99121 -17.2265,5.11133 -28.5839,2.60449 -9.545,-2.10644 -11.4688,-6.39355 -11.8887,-10.72363 0,0 0.03,183.4873 0.03,183.4873 z" /><path
         id="path194"
         style="fill:none;stroke:#848b91;stroke-width:3;stroke-linecap:butt;stroke-linejoin:miter;stroke-miterlimit:4;stroke-dasharray:none;stroke-opacity:1"
         d="m 1040.8525,-505.13867 c 0,0.7959 0.2579,1.62109 0.6973,2.45312 0,0 0,-2.29883 0,-2.29883 0,0 40.4277,8.92188 40.4277,8.92188 m -40.4423,175.36816 c -0.1827,0.44532 -1.4297,9.3086 11.1591,13.73829 10.1094,3.55664 27.9454,1.90625 29.0704,-2.36524 0,0 0.1982,0.0439 0.1982,0.0439 0,0 0.015,-186.78516 0.015,-186.78516 0,4.99121 -17.2265,5.11133 -28.5839,2.60449 -9.545,-2.10644 -11.4688,-6.39355 -11.8887,-10.72363 0,0 0.03,183.4873 0.03,183.4873 z" /><path
         id="path196"
         style="fill:#ffffff;fill-opacity:1;fill-rule:nonzero;stroke:none"
         d="m 1120.2305,-827.21436 c 0,0 40.4287,-8.92285 40.4287,-8.92285 0,0 0,2.30078 0,2.30078 0.4394,-0.83203 0.6973,-1.6582 0.6973,-2.4541 m -0.6514,0.95606 c -0.4209,4.33203 -2.3438,8.61816 -11.8897,10.72461 -11.3564,2.50683 -28.5839,2.38672 -28.5849,-2.6045 0,0 0.016,186.78516 0.016,186.78516 0,0 0.1982,-0.0439 0.1982,-0.0439 1.126,4.27148 18.962,5.92187 29.0704,2.36523 12.5888,-4.42969 11.3408,-13.29297 11.1591,-13.73828 0,0 0.031,-183.48828 0.031,-183.48828 z" /><path
         id="path198"
         style="fill:none;stroke:#848b91;stroke-width:3;stroke-linecap:butt;stroke-linejoin:miter;stroke-miterlimit:4;stroke-dasharray:none;stroke-opacity:1"
         d="m 1120.2305,-827.21436 c 0,0 40.4287,-8.92285 40.4287,-8.92285 0,0 0,2.30078 0,2.30078 0.4394,-0.83203 0.6973,-1.6582 0.6973,-2.4541 m -0.6514,0.95606 c -0.4209,4.33203 -2.3438,8.61816 -11.8897,10.72461 -11.3564,2.50683 -28.5839,2.38672 -28.5849,-2.6045 0,0 0.016,186.78516 0.016,186.78516 0,0 0.1982,-0.0439 0.1982,-0.0439 1.126,4.27148 18.962,5.92187 29.0704,2.36523 12.5888,-4.42969 11.3408,-13.29297 11.1591,-13.73828 0,0 0.031,-183.48828 0.031,-183.48828 z" /><path
         id="path200"
         style="fill:#ffffff;fill-opacity:1;fill-rule:nonzero;stroke:none"
         d="m 1168.9551,-837.08838 c 0,0.7959 0.2578,1.62109 0.6972,2.45313 0,0 0,-2.29883 0,-2.29883 0,0 40.4278,8.92187 40.4278,8.92187 m -40.4424,175.36817 c -0.1826,0.44531 -1.4297,9.30859 11.1592,13.73828 10.1094,3.55664 27.9453,1.90625 29.0703,-2.36524 0,0 0.1982,0.0439 0.1982,0.0439 0,0 0.015,-186.78516 0.015,-186.78516 0,4.99121 -17.2266,5.11133 -28.584,2.6045 -9.5449,-2.10645 -11.4688,-6.39356 -11.8887,-10.72364 0,0 0.03,183.48731 0.03,183.48731 z" /><path
         id="path202"
         style="fill:none;stroke:#848b91;stroke-width:3;stroke-linecap:butt;stroke-linejoin:miter;stroke-miterlimit:4;stroke-dasharray:none;stroke-opacity:1"
         d="m 1168.9551,-837.08838 c 0,0.7959 0.2578,1.62109 0.6972,2.45313 0,0 0,-2.29883 0,-2.29883 0,0 40.4278,8.92187 40.4278,8.92187 m -40.4424,175.36817 c -0.1826,0.44531 -1.4297,9.30859 11.1592,13.73828 10.1094,3.55664 27.9453,1.90625 29.0703,-2.36524 0,0 0.1982,0.0439 0.1982,0.0439 0,0 0.015,-186.78516 0.015,-186.78516 0,4.99121 -17.2266,5.11133 -28.584,2.6045 -9.5449,-2.10645 -11.4688,-6.39356 -11.8887,-10.72364 0,0 0.03,183.48731 0.03,183.48731 z" /><path
         id="path204"
         style="fill:#ffffff;fill-opacity:1;fill-rule:nonzero;stroke:none"
         d="m 357.96436,-737.71387 c 0,0 -19.17725,0 -19.17725,0 0,0 0,457.47657 0,457.47657 0,0 2.54785,5.24902 9.75439,5.25878 7.67139,0.0108 9.42286,-5.25878 9.42286,-5.25878 0,0 0,-457.47657 0,-457.47657 z" /><path
         id="path206"
         style="fill:none;stroke:#6d7479;stroke-width:3;stroke-linecap:butt;stroke-linejoin:miter;stroke-miterlimit:4;stroke-dasharray:none;stroke-opacity:1"
         d="m 357.96436,-737.71387 c 0,0 -19.17725,0 -19.17725,0 0,0 0,457.47657 0,457.47657 0,0 2.54785,5.24902 9.75439,5.25878 7.67139,0.0108 9.42286,-5.25878 9.42286,-5.25878 0,0 0,-457.47657 0,-457.47657 z" /><path
         id="path208"
         style="fill:#ffffff;fill-opacity:1;fill-rule:nonzero;stroke:none"
         d="m 368.12744,-713.66406 c 0.18262,-0.48438 0.30078,-0.97852 0.30078,-1.48438 0,-4.9707 -9.14062,-9 -20.41699,-9 -10.50879,0 -19.1543,3.5 -20.28418,8 0,0 -0.19922,0 -0.19922,0 0,0 0,186 0,186 0,-4.9707 11.07666,-10.06933 22.40576,-8.75781 10.14844,1.1748 15.8667,5.60742 18.19385,9.4668 0,0 0,-184.22461 0,-184.22461 z" /><path
         id="path210"
         style="fill:none;stroke:#848b91;stroke-width:3;stroke-linecap:butt;stroke-linejoin:miter;stroke-miterlimit:4;stroke-dasharray:none;stroke-opacity:1"
         d="m 368.12744,-713.66406 c 0.18262,-0.48438 0.30078,-0.97852 0.30078,-1.48438 0,-4.9707 -9.14062,-9 -20.41699,-9 -10.50879,0 -19.1543,3.5 -20.28418,8 0,0 -0.19922,0 -0.19922,0 0,0 0,186 0,186 0,-4.9707 11.07666,-10.06933 22.40576,-8.75781 10.14844,1.1748 15.8667,5.60742 18.19385,9.4668 0,0 0,-184.22461 0,-184.22461 z" /><path
         id="path212"
         style="fill:none;stroke:#848b91;stroke-width:3;stroke-linecap:butt;stroke-linejoin:miter;stroke-miterlimit:4;stroke-dasharray:none;stroke-opacity:1"
         d="m 328.01953,-716.31641 c 0,0 39.86475,1.86524 39.86475,1.86524" /><path
         id="path214"
         style="fill:#ffffff;fill-opacity:1;fill-rule:nonzero;stroke:none"
         d="m 368.42285,-525.34961 c 0.31494,-6.38379 -8.11621,-12.47949 -19.19922,-13.74512 -11.34375,-1.29297 -21.14599,2.96289 -21.89209,9.50879 -0.003,0.0293 4.9e-4,0.0586 -0.002,0.0879 0,0 41.09375,4.14844 41.09375,4.14844 z" /><path
         id="path216"
         style="fill:none;stroke:#848b91;stroke-width:3;stroke-linecap:butt;stroke-linejoin:miter;stroke-miterlimit:4;stroke-dasharray:none;stroke-opacity:1"
         d="m 368.42285,-525.34961 c 0.31494,-6.38379 -8.11621,-12.47949 -19.19922,-13.74512 -11.34375,-1.29297 -21.14599,2.96289 -21.89209,9.50879 -0.003,0.0293 4.9e-4,0.0586 -0.002,0.0879 0,0 41.09375,4.14844 41.09375,4.14844 z" /><path
         id="path218"
         style="fill:#ffffff;fill-opacity:1;fill-rule:nonzero;stroke:none"
         d="m 357.96436,-737.40332 c 0,2.27637 -4.21875,4.12207 -9.42286,4.12207 -5.2041,0 -9.42285,-1.8457 -9.42285,-4.12207 0,-2.27686 4.21875,-4.12256 9.42285,-4.12256 5.20411,0 9.42286,1.8457 9.42286,4.12256 z" /><path
         id="path220"
         style="fill:none;stroke:#848b91;stroke-width:3;stroke-linecap:butt;stroke-linejoin:miter;stroke-miterlimit:4;stroke-dasharray:none;stroke-opacity:1"
         d="m 357.96436,-737.40332 c 0,2.27637 -4.21875,4.12207 -9.42286,4.12207 -5.2041,0 -9.42285,-1.8457 -9.42285,-4.12207 0,-2.27686 4.21875,-4.12256 9.42285,-4.12256 5.20411,0 9.42286,1.8457 9.42286,4.12256 z" /><path
         id="path222"
         style="fill:#ffffff;fill-opacity:1;fill-rule:nonzero;stroke:none"
         d="m 1046.6943,-495.87402 c 0,0 -19.1777,0 -19.1777,0 0,0 0,457.47656 0,457.47656 0,0 2.5488,5.24902 9.7549,5.25879 7.6709,0.01074 9.4228,-5.25879 9.4228,-5.25879 0,0 0,-457.47656 0,-457.47656 z" /><path
         id="path224"
         style="fill:none;stroke:#848b91;stroke-width:3;stroke-linecap:butt;stroke-linejoin:miter;stroke-miterlimit:4;stroke-dasharray:none;stroke-opacity:1"
         d="m 1046.6943,-495.87402 c 0,0 -19.1777,0 -19.1777,0 0,0 0,457.47656 0,457.47656 0,0 2.5488,5.24902 9.7549,5.25879 7.6709,0.01074 9.4228,-5.25879 9.4228,-5.25879 0,0 0,-457.47656 0,-457.47656 z" /><path
         id="path226"
         style="fill:#ffffff;fill-opacity:1;fill-rule:nonzero;stroke:none"
         d="m 1056.8574,-471.82422 c 0.1826,-0.48437 0.3008,-0.97851 0.3008,-1.48437 0,-4.97071 -9.1406,-9 -20.417,-9 -10.5088,0 -19.1543,3.5 -20.2842,8 0,0 -0.1992,0 -0.1992,0 0,0 0,186 0,186 0,-4.97071 11.0772,-10.06934 22.4053,-8.75782 10.1484,1.17481 15.8672,5.60743 18.1943,9.4668 0,0 0,-184.22461 0,-184.22461 z" /><path
         id="path228"
         style="fill:none;stroke:#848b91;stroke-width:3;stroke-linecap:butt;stroke-linejoin:miter;stroke-miterlimit:4;stroke-dasharray:none;stroke-opacity:1"
         d="m 1056.8574,-471.82422 c 0.1826,-0.48437 0.3008,-0.97851 0.3008,-1.48437 0,-4.97071 -9.1406,-9 -20.417,-9 -10.5088,0 -19.1543,3.5 -20.2842,8 0,0 -0.1992,0 -0.1992,0 0,0 0,186 0,186 0,-4.97071 11.0772,-10.06934 22.4053,-8.75782 10.1484,1.17481 15.8672,5.60743 18.1943,9.4668 0,0 0,-184.22461 0,-184.22461 z" /><path
         id="path230"
         style="fill:none;stroke:#848b91;stroke-width:3;stroke-linecap:butt;stroke-linejoin:miter;stroke-miterlimit:4;stroke-dasharray:none;stroke-opacity:1"
         d="m 1016.749,-474.47656 c 0,0 39.8653,1.86523 39.8653,1.86523" /><path
         id="path232"
         style="fill:#ffffff;fill-opacity:1;fill-rule:nonzero;stroke:none"
         d="m 1057.1533,-283.50977 c 0.3145,-6.38378 -8.1172,-12.47949 -19.1992,-13.74511 -11.3437,-1.29297 -21.1465,2.96289 -21.8926,9.50879 0,0.0293 0,0.0586 0,0.0879 0,0 41.0937,4.14843 41.0937,4.14843 z" /><path
         id="path234"
         style="fill:none;stroke:#848b91;stroke-width:3;stroke-linecap:butt;stroke-linejoin:miter;stroke-miterlimit:4;stroke-dasharray:none;stroke-opacity:1"
         d="m 1057.1533,-283.50977 c 0.3145,-6.38378 -8.1172,-12.47949 -19.1992,-13.74511 -11.3437,-1.29297 -21.1465,2.96289 -21.8926,9.50879 0,0.0293 0,0.0586 0,0.0879 0,0 41.0937,4.14843 41.0937,4.14843 z" /><path
         id="path236"
         style="fill:#ffffff;fill-opacity:1;fill-rule:nonzero;stroke:none"
         d="m 1046.6943,-495.56348 c 0,2.27637 -4.2187,4.12207 -9.4228,4.12207 -5.2041,0 -9.4229,-1.8457 -9.4229,-4.12207 0,-2.27636 4.2188,-4.12207 9.4229,-4.12207 5.2041,0 9.4228,1.84571 9.4228,4.12207 z" /><path
         id="path238"
         style="fill:none;stroke:#848b91;stroke-width:3;stroke-linecap:butt;stroke-linejoin:miter;stroke-miterlimit:4;stroke-dasharray:none;stroke-opacity:1"
         d="m 1046.6943,-495.56348 c 0,2.27637 -4.2187,4.12207 -9.4228,4.12207 -5.2041,0 -9.4229,-1.8457 -9.4229,-4.12207 0,-2.27636 4.2188,-4.12207 9.4229,-4.12207 5.2041,0 9.4228,1.84571 9.4228,4.12207 z" /><path
         id="path240"
         style="fill:#ffffff;fill-opacity:1;fill-rule:nonzero;stroke:none"
         d="m 1174.7969,-827.82373 c 0,0 -19.1778,0 -19.1778,0 0,0 0,457.47607 0,457.47607 0,0 2.5489,5.24805 9.7549,5.25782 7.6709,0.0117 9.4229,-5.25782 9.4229,-5.25782 0,0 0,-457.47607 0,-457.47607 z" /><path
         id="path242"
         style="fill:none;stroke:#848b91;stroke-width:3;stroke-linecap:butt;stroke-linejoin:miter;stroke-miterlimit:4;stroke-dasharray:none;stroke-opacity:1"
         d="m 1174.7969,-827.82373 c 0,0 -19.1778,0 -19.1778,0 0,0 0,457.47607 0,457.47607 0,0 2.5489,5.24805 9.7549,5.25782 7.6709,0.0117 9.4229,-5.25782 9.4229,-5.25782 0,0 0,-457.47607 0,-457.47607 z" /><path
         id="path244"
         style="fill:#ffffff;fill-opacity:1;fill-rule:nonzero;stroke:none"
         d="m 1184.96,-803.77393 c 0.1826,-0.48437 0.3007,-0.97851 0.3007,-1.48437 0,-4.9707 -9.1406,-9 -20.4169,-9 -10.5088,0 -19.1544,3.5 -20.2842,8 0,0 -0.1992,0 -0.1992,0 0,0 0,186 0,186 0,-4.9707 11.0771,-10.06934 22.4052,-8.75781 10.1485,1.1748 15.8672,5.60742 18.1944,9.46679 0,0 0,-184.22461 0,-184.22461 z" /><path
         id="path246"
         style="fill:none;stroke:#848b91;stroke-width:3;stroke-linecap:butt;stroke-linejoin:miter;stroke-miterlimit:4;stroke-dasharray:none;stroke-opacity:1"
         d="m 1184.96,-803.77393 c 0.1826,-0.48437 0.3007,-0.97851 0.3007,-1.48437 0,-4.9707 -9.1406,-9 -20.4169,-9 -10.5088,0 -19.1544,3.5 -20.2842,8 0,0 -0.1992,0 -0.1992,0 0,0 0,186 0,186 0,-4.9707 11.0771,-10.06934 22.4052,-8.75781 10.1485,1.1748 15.8672,5.60742 18.1944,9.46679 0,0 0,-184.22461 0,-184.22461 z" /><path
         id="path248"
         style="fill:none;stroke:#848b91;stroke-width:3;stroke-linecap:butt;stroke-linejoin:miter;stroke-miterlimit:4;stroke-dasharray:none;stroke-opacity:1"
         d="m 1144.8516,-806.42627 c 0,0 39.8652,1.86523 39.8652,1.86523" /><path
         id="path250"
         style="fill:#ffffff;fill-opacity:1;fill-rule:nonzero;stroke:none"
         d="m 1185.2559,-615.45947 c 0.3144,-6.38379 -8.1172,-12.47949 -19.1993,-13.74512 -11.3437,-1.29297 -21.1464,2.96289 -21.8925,9.50879 0,0.0293 0,0.0586 0,0.0879 0,0 41.0938,4.14844 41.0938,4.14844 z" /><path
         id="path252"
         style="fill:none;stroke:#848b91;stroke-width:3;stroke-linecap:butt;stroke-linejoin:miter;stroke-miterlimit:4;stroke-dasharray:none;stroke-opacity:1"
         d="m 1185.2559,-615.45947 c 0.3144,-6.38379 -8.1172,-12.47949 -19.1993,-13.74512 -11.3437,-1.29297 -21.1464,2.96289 -21.8925,9.50879 0,0.0293 0,0.0586 0,0.0879 0,0 41.0938,4.14844 41.0938,4.14844 z" /><path
         id="path254"
         style="fill:#ffffff;fill-opacity:1;fill-rule:nonzero;stroke:none"
         d="m 1174.7969,-827.51318 c 0,2.27636 -4.2188,4.12207 -9.4229,4.12207 -5.2041,0 -9.4228,-1.84571 -9.4228,-4.12207 0,-2.27637 4.2187,-4.12207 9.4228,-4.12207 5.2041,0 9.4229,1.8457 9.4229,4.12207 z" /><path
         id="path256"
         style="fill:none;stroke:#848b91;stroke-width:3;stroke-linecap:butt;stroke-linejoin:miter;stroke-miterlimit:4;stroke-dasharray:none;stroke-opacity:1"
         d="m 1174.7969,-827.51318 c 0,2.27636 -4.2188,4.12207 -9.4229,4.12207 -5.2041,0 -9.4228,-1.84571 -9.4228,-4.12207 0,-2.27637 4.2187,-4.12207 9.4228,-4.12207 5.2041,0 9.4229,1.8457 9.4229,4.12207 z" /></g></g></svg>