<?xml version="1.0" encoding="UTF-8" standalone="no"?>
<svg
   xmlns:dc="http://purl.org/dc/elements/1.1/"
   xmlns:cc="http://creativecommons.org/ns#"
   xmlns:rdf="http://www.w3.org/1999/02/22-rdf-syntax-ns#"
   xmlns:svg="http://www.w3.org/2000/svg"
   xmlns="http://www.w3.org/2000/svg"
   id="SVGRoot"
   version="1.1"
   viewBox="0 0 1920 1080"
   height="1080px"
   width="1920px">
  <defs
     id="defs1527" />
  <metadata
     id="metadata1530">
    <rdf:RDF>
      <cc:Work
         rdf:about="">
        <dc:format>image/svg+xml</dc:format>
        <dc:type
           rdf:resource="http://purl.org/dc/dcmitype/StillImage" />
        <dc:title></dc:title>
      </cc:Work>
    </rdf:RDF>
  </metadata>
  <g
     id="layer1">
    <g
       transform="matrix(1.7031623,0,0,1.7031623,-247.66203,1063.2598)"
       id="g12">
      <path
         id="path14"
         style="fill:none;stroke:#79b1d7;stroke-width:7;stroke-linecap:butt;stroke-linejoin:miter;stroke-miterlimit:4;stroke-dasharray:none;stroke-opacity:1"
         d="m 763.37305,-365.95947 c 0,0 -110.28321,-80.20606 -110.28321,-80.20606" />
      <path
         id="path16"
         style="fill:none;stroke:#79b1d7;stroke-width:7;stroke-linecap:butt;stroke-linejoin:miter;stroke-miterlimit:4;stroke-dasharray:none;stroke-opacity:1"
         d="m 353.42969,-459.89404 c 0,0 204.79492,193.62451 204.79492,193.62451" />
      <path
         id="path18"
         style="fill:none;stroke:#79b1d7;stroke-width:7;stroke-linecap:butt;stroke-linejoin:miter;stroke-miterlimit:4;stroke-dasharray:none;stroke-opacity:1"
         d="m 557.76953,-219.83789 c 0,0 -106.62793,21.45215 -106.62793,21.45215" />
      <path
         id="path20"
         style="fill:none;stroke:#79b1d7;stroke-width:7;stroke-linecap:butt;stroke-linejoin:miter;stroke-miterlimit:4;stroke-dasharray:none;stroke-opacity:1"
         d="m 435.38672,-195.52148 c 0,0 -163.27686,101.69043 -163.27686,101.69043" />
      <path
         id="path22"
         style="fill:none;stroke:#79b1d7;stroke-width:7;stroke-linecap:butt;stroke-linejoin:miter;stroke-miterlimit:4;stroke-dasharray:none;stroke-opacity:1"
         d="m 635.02148,-214.99219 c 0,0 114.21485,-111.33496 114.21485,-111.33496" />
      <path
         id="path24"
         style="fill:none;stroke:#79b1d7;stroke-width:7;stroke-linecap:butt;stroke-linejoin:miter;stroke-miterlimit:4;stroke-dasharray:none;stroke-opacity:1"
         d="m 922.55664,-381.33203 c 0,0 -140.56445,29.69531 -140.56445,29.69531" />
      <path
         id="path26"
         style="fill:none;stroke:#79b1d7;stroke-width:7;stroke-linecap:butt;stroke-linejoin:miter;stroke-miterlimit:4;stroke-dasharray:none;stroke-opacity:1"
         d="m 678.21387,-221.02246 c 0,0 128.24218,122.47851 128.24218,122.47851" />
      <path
         id="path28"
         style="fill:none;stroke:#79b1d7;stroke-width:7;stroke-linecap:butt;stroke-linejoin:miter;stroke-miterlimit:4;stroke-dasharray:none;stroke-opacity:1"
         d="m 795.30566,-94.05859 c 0,0 370.53124,-88.57227 370.53124,-88.57227" />
      <path
         id="path30"
         style="fill:#ffffff;fill-opacity:1;fill-rule:nonzero;stroke:none"
         d="m 752.93652,-143.18359 c 0,0 0.60059,54.8457 0.60059,54.8457 0,0 0,0 0,0 9.8e-4,9.08594 18.33887,17.05273 41.70117,17.05273 23.36133,0 41.69824,-7.96679 41.7002,-17.05273 0,0 0,0 0,0 0,0 0.59961,-54.8457 0.59961,-54.8457 0,0 -84.60157,0 -84.60157,0 z" />
      <path
         id="path32"
         style="fill:none;stroke:#888e98;stroke-width:2.39999008;stroke-linecap:butt;stroke-linejoin:miter;stroke-miterlimit:4;stroke-dasharray:none;stroke-opacity:1"
         d="m 752.93652,-143.18359 c 0,0 0.60059,54.8457 0.60059,54.8457 0,0 0,0 0,0 9.8e-4,9.08594 18.33887,17.05273 41.70117,17.05273 23.36133,0 41.69824,-7.96679 41.7002,-17.05273 0,0 0,0 0,0 0,0 0.59961,-54.8457 0.59961,-54.8457 0,0 -84.60157,0 -84.60157,0 z" />
      <path
         id="path34"
         style="fill:#ffffff;fill-opacity:1;fill-rule:nonzero;stroke:none"
         d="m 837.53809,-145.00098 c 0,9.08692 -18.93848,16.45313 -42.29981,16.45313 -23.3623,0 -42.30176,-7.36621 -42.30176,-16.45313 0,-9.08691 18.93946,-16.4541 42.30176,-16.4541 23.36133,0 42.29981,7.36719 42.29981,16.4541 z" />
      <path
         id="path36"
         style="fill:none;stroke:#888e98;stroke-width:2.39999008;stroke-linecap:butt;stroke-linejoin:miter;stroke-miterlimit:4;stroke-dasharray:none;stroke-opacity:1"
         d="m 837.53809,-145.00098 c 0,9.08692 -18.93848,16.45313 -42.29981,16.45313 -23.3623,0 -42.30176,-7.36621 -42.30176,-16.45313 0,-9.08691 18.93946,-16.4541 42.30176,-16.4541 23.36133,0 42.29981,7.36719 42.29981,16.4541 z" />
      <path
         id="path38"
         style="fill:#ffffff;fill-opacity:1;fill-rule:nonzero;stroke:none"
         d="m 718.04688,-389.21875 c 0,0 0.60058,54.84473 0.60058,54.84473 0,0 0,0 0,0 9.8e-4,9.08691 18.33887,17.05371 41.70117,17.05371 23.36133,0 41.69825,-7.9668 41.7002,-17.05371 0,0 0,0 0,0 0,0 0.59961,-54.84473 0.59961,-54.84473 0,0 -84.60156,0 -84.60156,0 z" />
      <path
         id="path40"
         style="fill:none;stroke:#888e98;stroke-width:2.39999008;stroke-linecap:butt;stroke-linejoin:miter;stroke-miterlimit:4;stroke-dasharray:none;stroke-opacity:1"
         d="m 718.04688,-389.21875 c 0,0 0.60058,54.84473 0.60058,54.84473 0,0 0,0 0,0 9.8e-4,9.08691 18.33887,17.05371 41.70117,17.05371 23.36133,0 41.69825,-7.9668 41.7002,-17.05371 0,0 0,0 0,0 0,0 0.59961,-54.84473 0.59961,-54.84473 0,0 -84.60156,0 -84.60156,0 z" />
      <path
         id="path42"
         style="fill:#ffffff;fill-opacity:1;fill-rule:nonzero;stroke:none"
         d="m 802.64844,-391.03711 c 0,9.08691 -18.93848,16.45313 -42.29981,16.45313 -23.3623,0 -42.30175,-7.36622 -42.30175,-16.45313 0,-9.08691 18.93945,-16.45312 42.30175,-16.45312 23.36133,0 42.29981,7.36621 42.29981,16.45312 z" />
      <path
         id="path44"
         style="fill:none;stroke:#888e98;stroke-width:2.39999008;stroke-linecap:butt;stroke-linejoin:miter;stroke-miterlimit:4;stroke-dasharray:none;stroke-opacity:1"
         d="m 802.64844,-391.03711 c 0,9.08691 -18.93848,16.45313 -42.29981,16.45313 -23.3623,0 -42.30175,-7.36622 -42.30175,-16.45313 0,-9.08691 18.93945,-16.45312 42.30175,-16.45312 23.36133,0 42.29981,7.36621 42.29981,16.45312 z" />
      <path
         id="path46"
         style="fill:#ffffff;fill-opacity:1;fill-rule:nonzero;stroke:none"
         d="m 424.56152,-406.56885 c 0,0 0.60157,54.84571 0.60157,54.84571 0,0 0,0 0,0 0,9.08593 18.33789,17.05273 41.70117,17.05273 23.36133,0 41.69726,-7.9668 41.69922,-17.05273 0,0 0,0 0,0 0,0 0.59961,-54.84571 0.59961,-54.84571 0,0 -84.60157,0 -84.60157,0 z" />
      <path
         id="path48"
         style="fill:none;stroke:#888e98;stroke-width:2.39999008;stroke-linecap:butt;stroke-linejoin:miter;stroke-miterlimit:4;stroke-dasharray:none;stroke-opacity:1"
         d="m 424.56152,-406.56885 c 0,0 0.60157,54.84571 0.60157,54.84571 0,0 0,0 0,0 0,9.08593 18.33789,17.05273 41.70117,17.05273 23.36133,0 41.69726,-7.9668 41.69922,-17.05273 0,0 0,0 0,0 0,0 0.59961,-54.84571 0.59961,-54.84571 0,0 -84.60157,0 -84.60157,0 z" />
      <path
         id="path50"
         style="fill:#ffffff;fill-opacity:1;fill-rule:nonzero;stroke:none"
         d="m 509.16309,-408.38623 c 0,9.08691 -18.9375,16.45312 -42.29883,16.45312 -23.36328,0 -42.30274,-7.36621 -42.30274,-16.45312 0,-9.08691 18.93946,-16.4541 42.30274,-16.4541 23.36133,0 42.29883,7.36719 42.29883,16.4541 z" />
      <path
         id="path52"
         style="fill:none;stroke:#888e98;stroke-width:2.39999008;stroke-linecap:butt;stroke-linejoin:miter;stroke-miterlimit:4;stroke-dasharray:none;stroke-opacity:1"
         d="m 509.16309,-408.38623 c 0,9.08691 -18.9375,16.45312 -42.29883,16.45312 -23.36328,0 -42.30274,-7.36621 -42.30274,-16.45312 0,-9.08691 18.93946,-16.4541 42.30274,-16.4541 23.36133,0 42.29883,7.36719 42.29883,16.4541 z" />
      <path
         id="path54"
         style="fill:#ffffff;fill-opacity:1;fill-rule:nonzero;stroke:none"
         d="m 399.06299,-234.99414 c 0,0 0.60058,54.84375 0.60058,54.84375 0,0 0,0 0,0 9.8e-4,9.08789 18.33887,17.05469 41.70166,17.05469 23.36133,0 41.69727,-7.9668 41.69922,-17.05469 0,0 0,0 0,0 0,0 0.59961,-54.84375 0.59961,-54.84375 0,0 -84.60107,0 -84.60107,0 z" />
      <path
         id="path56"
         style="fill:none;stroke:#888e98;stroke-width:2.39999008;stroke-linecap:butt;stroke-linejoin:miter;stroke-miterlimit:4;stroke-dasharray:none;stroke-opacity:1"
         d="m 399.06299,-234.99414 c 0,0 0.60058,54.84375 0.60058,54.84375 0,0 0,0 0,0 9.8e-4,9.08789 18.33887,17.05469 41.70166,17.05469 23.36133,0 41.69727,-7.9668 41.69922,-17.05469 0,0 0,0 0,0 0,0 0.59961,-54.84375 0.59961,-54.84375 0,0 -84.60107,0 -84.60107,0 z" />
      <path
         id="path58"
         style="fill:#ffffff;fill-opacity:1;fill-rule:nonzero;stroke:none"
         d="m 483.66406,-236.8125 c 0,9.08594 -18.9375,16.45312 -42.29883,16.45312 -23.36279,0 -42.30224,-7.36718 -42.30224,-16.45312 0,-9.08789 18.93945,-16.4541 42.30224,-16.4541 23.36133,0 42.29883,7.36621 42.29883,16.4541 z" />
      <path
         id="path60"
         style="fill:none;stroke:#888e98;stroke-width:2.39999008;stroke-linecap:butt;stroke-linejoin:miter;stroke-miterlimit:4;stroke-dasharray:none;stroke-opacity:1"
         d="m 483.66406,-236.8125 c 0,9.08594 -18.9375,16.45312 -42.29883,16.45312 -23.36279,0 -42.30224,-7.36718 -42.30224,-16.45312 0,-9.08789 18.93945,-16.4541 42.30224,-16.4541 23.36133,0 42.29883,7.36621 42.29883,16.4541 z" />
      <path
         id="path62"
         style="fill:none;stroke:#888e98;stroke-width:2.31069994;stroke-linecap:butt;stroke-linejoin:miter;stroke-miterlimit:4;stroke-dasharray:none;stroke-opacity:1"
         d="m 956.69727,-111.18652 c 0,0 -27.95606,11.43847 -20.02051,15.68652 7.93457,4.24609 32.44043,1.4668 32.44043,1.4668" />
      <path
         id="path64"
         style="fill:#ffffff;fill-opacity:1;fill-rule:nonzero;stroke:none"
         d="m 1061.7227,-109.52246 c -3.2784,4.33301 7.4589,13.34082 14.1816,16.77246 6.5059,3.32227 12.8545,-0.97949 14.0898,-2.5918 3.5674,-4.65039 -2.9453,-13.55859 -9.4013,-17.01172 -5.5889,-2.99023 -14.2334,-3.29394 -18.8701,2.83106 z" />
      <path
         id="path66"
         style="fill:none;stroke:#888e98;stroke-width:1.64798999;stroke-linecap:butt;stroke-linejoin:miter;stroke-miterlimit:4;stroke-dasharray:none;stroke-opacity:1"
         d="m 1061.7227,-109.52246 c -3.2784,4.33301 7.4589,13.34082 14.1816,16.77246 6.5059,3.32227 12.8545,-0.97949 14.0898,-2.5918 3.5674,-4.65039 -2.9453,-13.55859 -9.4013,-17.01172 -5.5889,-2.99023 -14.2334,-3.29394 -18.8701,2.83106 z" />
      <path
         id="path68"
         style="fill:#ffffff;fill-opacity:1;fill-rule:nonzero;stroke:none"
         d="m 1081.0713,-111.8125 c -3.2959,-0.70703 -14.6768,-3.48926 -16.5391,10.12891" />
      <path
         id="path70"
         style="fill:none;stroke:#888e98;stroke-width:1.64798999;stroke-linecap:butt;stroke-linejoin:miter;stroke-miterlimit:4;stroke-dasharray:none;stroke-opacity:1"
         d="m 1081.0713,-111.8125 c -3.2959,-0.70703 -14.6768,-3.48926 -16.5391,10.12891" />
      <path
         id="path72"
         style="fill:none;stroke:#888e98;stroke-width:1.76549995;stroke-linecap:butt;stroke-linejoin:miter;stroke-miterlimit:4;stroke-dasharray:none;stroke-opacity:1"
         d="m 980.66699,-116.55469 c 0,0 73.68161,5.44824 47.26461,-9.00586 -22.3056,-12.20508 9.2403,-16.09082 27.2999,-4.72949 7.3603,4.63086 -9.502,12.24609 9.4355,18.06738 0.2314,0.0713 3.0537,-2.96679 7.334,0" />
      <path
         id="path74"
         style="fill:none;stroke:#888e98;stroke-width:1.81500006;stroke-linecap:butt;stroke-linejoin:miter;stroke-miterlimit:4;stroke-dasharray:none;stroke-opacity:1"
         d="m 958.0127,-95.08789 c 0,0 42.7998,-10.95703 42.7998,-10.95703 0,0 -14.38086,-6.16309 -14.38086,-6.16309 0,0 -42.7998,10.95606 -42.7998,10.95606 0,0 14.38086,6.16406 14.38086,6.16406 z" />
      <path
         id="path76"
         style="fill:#ffffff;fill-opacity:1;fill-rule:nonzero;stroke:none"
         d="m 966.57324,-101.93555 c 0,0 13.69531,-3.46875 13.69531,-3.46875 0,0 0,-22.55273 0,-22.55273 0,0 -13.69531,3.46875 -13.69531,3.46875 0,0 0,22.55273 0,22.55273 z" />
      <path
         id="path78"
         style="fill:none;stroke:#888e98;stroke-width:1.37030005;stroke-linecap:butt;stroke-linejoin:miter;stroke-miterlimit:4;stroke-dasharray:none;stroke-opacity:1"
         d="m 966.57324,-101.93555 c 0,0 13.69531,-3.46875 13.69531,-3.46875 0,0 0,-22.55273 0,-22.55273 0,0 -13.69531,3.46875 -13.69531,3.46875 0,0 0,22.55273 0,22.55273 z" />
      <path
         id="path80"
         style="fill:#ffffff;fill-opacity:1;fill-rule:nonzero;stroke:none"
         d="m 962.04102,-103.92969 c 0,0 3.25293,1.71192 3.25293,1.71192 0,0 0,-22.25489 0,-22.25489 0,0 -3.25293,-1.71289 -3.25293,-1.71289 0,0 0,22.25586 0,22.25586 z" />
      <path
         id="path82"
         style="fill:none;stroke:#888e98;stroke-width:1.48339999;stroke-linecap:butt;stroke-linejoin:miter;stroke-miterlimit:4;stroke-dasharray:none;stroke-opacity:1"
         d="m 962.04102,-103.92969 c 0,0 3.25293,1.71192 3.25293,1.71192 0,0 0,-22.25489 0,-22.25489 0,0 -3.25293,-1.71289 -3.25293,-1.71289 0,0 0,22.25586 0,22.25586 z" />
      <path
         id="path84"
         style="fill:#ffffff;fill-opacity:1;fill-rule:nonzero;stroke:none"
         d="m 968.96973,-60.23047 c 0,0 107.85257,-28.07422 107.85257,-28.07422 0,0 1.0273,-4.11035 1.0273,-4.11035 0,0 -144.48827,6.84863 -144.48827,6.84863 0,0 0,8.5586 0,8.5586 0,0 35.6084,16.77734 35.6084,16.77734 z" />
      <path
         id="path86"
         style="fill:none;stroke:#888e98;stroke-width:1.36129999;stroke-linecap:butt;stroke-linejoin:miter;stroke-miterlimit:4;stroke-dasharray:none;stroke-opacity:1"
         d="m 968.96973,-60.23047 c 0,0 107.85257,-28.07422 107.85257,-28.07422 0,0 1.0273,-4.11035 1.0273,-4.11035 0,0 -144.48827,6.84863 -144.48827,6.84863 0,0 0,8.5586 0,8.5586 0,0 35.6084,16.77734 35.6084,16.77734 z" />
      <path
         id="path88"
         style="fill:#ffffff;fill-opacity:1;fill-rule:nonzero;stroke:none"
         d="m 970.33984,-64.54688 c 0,0 107.51076,-28.07617 107.51076,-28.07617 0,0 -37.3203,-21.22851 -37.3203,-21.22851 0,0 -107.50979,28.07617 -107.50979,28.07617 0,0 37.31933,21.22851 37.31933,21.22851 z" />
      <path
         id="path90"
         style="fill:none;stroke:#888e98;stroke-width:1.36129999;stroke-linecap:butt;stroke-linejoin:miter;stroke-miterlimit:4;stroke-dasharray:none;stroke-opacity:1"
         d="m 970.33984,-64.54688 c 0,0 107.51076,-28.07617 107.51076,-28.07617 0,0 -37.3203,-21.22851 -37.3203,-21.22851 0,0 -107.50979,28.07617 -107.50979,28.07617 0,0 37.31933,21.22851 37.31933,21.22851 z" />
      <path
         id="path92"
         style="fill:#ffffff;fill-opacity:1;fill-rule:nonzero;stroke:none"
         d="m 1004.2402,-99.84961 c 0,0 27.0498,14.72266 27.0498,14.72266 0,0 -60.94625,15.40625 -60.94625,15.40625 0,0 -24.99316,-15.06446 -24.99316,-15.06446 0,0 58.88961,-15.06445 58.88961,-15.06445 z" />
      <path
         id="path94"
         style="fill:none;stroke:#888e98;stroke-width:2.08529997;stroke-linecap:butt;stroke-linejoin:miter;stroke-miterlimit:4;stroke-dasharray:none;stroke-opacity:1"
         d="m 1004.2402,-99.84961 c 0,0 27.0498,14.72266 27.0498,14.72266 0,0 -60.94625,15.40625 -60.94625,15.40625 0,0 -24.99316,-15.06446 -24.99316,-15.06446 0,0 58.88961,-15.06445 58.88961,-15.06445 z" />
      <path
         id="path96"
         style="fill:#ffffff;fill-opacity:1;fill-rule:nonzero;stroke:none"
         d="m 1041.2568,-109.31445 c 0,0 24.7442,14.09179 24.7442,14.09179 0,0 -22.334,6 -22.334,6 0,0 -24.666,-14.66601 -24.666,-14.66601 0,0 22.2558,-5.42578 22.2558,-5.42578 z" />
      <path
         id="path98"
         style="fill:none;stroke:#888e98;stroke-width:2.08529997;stroke-linecap:butt;stroke-linejoin:miter;stroke-miterlimit:4;stroke-dasharray:none;stroke-opacity:1"
         d="m 1041.2568,-109.31445 c 0,0 24.7442,14.09179 24.7442,14.09179 0,0 -22.334,6 -22.334,6 0,0 -24.666,-14.66601 -24.666,-14.66601 0,0 22.2558,-5.42578 22.2558,-5.42578 z" />
      <path
         id="path100"
         style="fill:none;stroke:#888e98;stroke-width:2.08529997;stroke-linecap:butt;stroke-linejoin:miter;stroke-miterlimit:4;stroke-dasharray:none;stroke-opacity:1"
         d="m 1025.8125,-88.55078 c 0,0 -59.91797,15.06445 -59.91797,15.06445" />
      <path
         id="path102"
         style="fill:none;stroke:#888e98;stroke-width:2.08529997;stroke-linecap:butt;stroke-linejoin:miter;stroke-miterlimit:4;stroke-dasharray:none;stroke-opacity:1"
         d="m 1018.6211,-92.65918 c 0,0 -59.917,15.40723 -59.917,15.40723" />
      <path
         id="path104"
         style="fill:none;stroke:#888e98;stroke-width:2.08529997;stroke-linecap:butt;stroke-linejoin:miter;stroke-miterlimit:4;stroke-dasharray:none;stroke-opacity:1"
         d="m 1010.4043,-96.42578 c 0,0 -58.54883,15.4082 -58.54883,15.4082" />
      <path
         id="path106"
         style="fill:none;stroke:#888e98;stroke-width:2.08529997;stroke-linecap:butt;stroke-linejoin:miter;stroke-miterlimit:4;stroke-dasharray:none;stroke-opacity:1"
         d="m 1023.7578,-83.41504 c 0,0 -26.70702,-14.37988 -26.70702,-14.37988" />
      <path
         id="path108"
         style="fill:none;stroke:#888e98;stroke-width:2.08529997;stroke-linecap:butt;stroke-linejoin:miter;stroke-miterlimit:4;stroke-dasharray:none;stroke-opacity:1"
         d="m 1010.7471,-85.12695 c 0,0 -20.54397,-10.95703 -20.54397,-10.95703" />
      <path
         id="path110"
         style="fill:none;stroke:#888e98;stroke-width:2.08529997;stroke-linecap:butt;stroke-linejoin:miter;stroke-miterlimit:4;stroke-dasharray:none;stroke-opacity:1"
         d="m 1001.8447,-83.41504 c 0,0 -19.5156,-10.95605 -19.5156,-10.95605" />
      <path
         id="path112"
         style="fill:none;stroke:#888e98;stroke-width:2.08529997;stroke-linecap:butt;stroke-linejoin:miter;stroke-miterlimit:4;stroke-dasharray:none;stroke-opacity:1"
         d="m 993.28516,-81.01953 c 0,0 -18.14746,-11.29688 -18.14746,-11.29688" />
      <path
         id="path114"
         style="fill:none;stroke:#888e98;stroke-width:2.08529997;stroke-linecap:butt;stroke-linejoin:miter;stroke-miterlimit:4;stroke-dasharray:none;stroke-opacity:1"
         d="m 986.4375,-79.30566 c 0,0 -17.46191,-11.29981 -17.46191,-11.29981" />
      <path
         id="path116"
         style="fill:none;stroke:#888e98;stroke-width:2.08529997;stroke-linecap:butt;stroke-linejoin:miter;stroke-miterlimit:4;stroke-dasharray:none;stroke-opacity:1"
         d="m 979.24707,-77.25195 c 0,0 -17.80469,-11.29883 -17.80469,-11.29883" />
      <path
         id="path118"
         style="fill:none;stroke:#888e98;stroke-width:2.08529997;stroke-linecap:butt;stroke-linejoin:miter;stroke-miterlimit:4;stroke-dasharray:none;stroke-opacity:1"
         d="m 977.19238,-72.45898 c 0,0 -22.93945,-14.03711 -22.93945,-14.03711" />
      <path
         id="path120"
         style="fill:none;stroke:#888e98;stroke-width:2.08529997;stroke-linecap:butt;stroke-linejoin:miter;stroke-miterlimit:4;stroke-dasharray:none;stroke-opacity:1"
         d="m 1059.334,-93.55469 c 0,0 -24.5811,-14.04883 -24.5811,-14.04883" />
      <path
         id="path122"
         style="fill:none;stroke:#888e98;stroke-width:2.08529997;stroke-linecap:butt;stroke-linejoin:miter;stroke-miterlimit:4;stroke-dasharray:none;stroke-opacity:1"
         d="m 1051.334,-91.88867 c 0,0 -24.1143,-14.00293 -24.1143,-14.00293" />
      <path
         id="path124"
         style="fill:none;stroke:#888e98;stroke-width:2.08529997;stroke-linecap:butt;stroke-linejoin:miter;stroke-miterlimit:4;stroke-dasharray:none;stroke-opacity:1"
         d="m 1045.71,-105.8916 c 0,0 -20.8858,4.79394 -20.8858,4.79394" />
      <path
         id="path126"
         style="fill:none;stroke:#888e98;stroke-width:2.08529997;stroke-linecap:butt;stroke-linejoin:miter;stroke-miterlimit:4;stroke-dasharray:none;stroke-opacity:1"
         d="m 1053.001,-102.22266 c 0,0 -21.0147,4.88184 -21.0147,4.88184" />
      <path
         id="path128"
         style="fill:none;stroke:#888e98;stroke-width:2.08529997;stroke-linecap:butt;stroke-linejoin:miter;stroke-miterlimit:4;stroke-dasharray:none;stroke-opacity:1"
         d="m 1059.334,-98.88867 c 0,0 -21.8506,4.97265 -21.8506,4.97265" />
      <path
         id="path130"
         style="fill:#ffffff;fill-opacity:1;fill-rule:nonzero;stroke:none"
         d="m 915.18848,-106.42578 c 0,0 5.47851,4.45117 5.47851,4.45117 0,0 107.50981,-111.96094 107.50981,-111.96094 0,0 -7.4141,-2.8584 -7.4141,-2.8584 0,0 -104.23047,20.48536 -104.23047,20.48536 0,0 -1.34375,89.88281 -1.34375,89.88281 z" />
      <path
         id="path132"
         style="fill:none;stroke:#888e98;stroke-width:2.25;stroke-linecap:butt;stroke-linejoin:miter;stroke-miterlimit:4;stroke-dasharray:none;stroke-opacity:1"
         d="m 915.18848,-106.42578 c 0,0 5.47851,4.45117 5.47851,4.45117 0,0 107.50981,-111.96094 107.50981,-111.96094 0,0 -7.4141,-2.8584 -7.4141,-2.8584 0,0 -104.23047,20.48536 -104.23047,20.48536 0,0 -1.34375,89.88281 -1.34375,89.88281 z" />
      <path
         id="path134"
         style="fill:#ffffff;fill-opacity:1;fill-rule:nonzero;stroke:none"
         d="m 921.35059,-101.97461 c 0,0 105.31641,-27.24805 105.31641,-27.24805 0,0 1.5098,-84.37109 1.5098,-84.37109 0,0 -105.73246,20.26758 -105.73246,20.26758 0,0 -1.09375,91.35156 -1.09375,91.35156 z" />
      <path
         id="path136"
         style="fill:none;stroke:#888e98;stroke-width:2.25;stroke-linecap:butt;stroke-linejoin:miter;stroke-miterlimit:4;stroke-dasharray:none;stroke-opacity:1"
         d="m 921.35059,-101.97461 c 0,0 105.31641,-27.24805 105.31641,-27.24805 0,0 1.5098,-84.37109 1.5098,-84.37109 0,0 -105.73246,20.26758 -105.73246,20.26758 0,0 -1.09375,91.35156 -1.09375,91.35156 z" />
      <path
         id="path138"
         style="fill:none;stroke:#888e98;stroke-width:2.25;stroke-linecap:butt;stroke-linejoin:miter;stroke-miterlimit:4;stroke-dasharray:none;stroke-opacity:1"
         d="m 926.4873,-112.93164 c 0,0 95.8691,-24.65137 95.8691,-24.65137 0,0 1.0274,-69.84765 1.0274,-69.84765 0,0 -96.14552,19.23925 -96.14552,19.23925 0,0 -0.75098,75.25977 -0.75098,75.25977 z" />
      <path
         id="path140"
         style="fill:none;stroke:#888e98;stroke-width:2.31069994;stroke-linecap:butt;stroke-linejoin:miter;stroke-miterlimit:4;stroke-dasharray:none;stroke-opacity:1"
         d="m 1132.6973,-153.18652 c 0,0 -27.9561,11.43847 -20.0205,15.68652 7.9345,4.24609 32.4404,1.4668 32.4404,1.4668" />
      <path
         id="path142"
         style="fill:#ffffff;fill-opacity:1;fill-rule:nonzero;stroke:none"
         d="m 1237.7227,-151.52246 c -3.2784,4.33301 7.4589,13.34082 14.1816,16.77246 6.5059,3.32227 12.8545,-0.97949 14.0898,-2.5918 3.5674,-4.65039 -2.9453,-13.55859 -9.4013,-17.01172 -5.5889,-2.99023 -14.2334,-3.29394 -18.8701,2.83106 z" />
      <path
         id="path144"
         style="fill:none;stroke:#888e98;stroke-width:1.64798999;stroke-linecap:butt;stroke-linejoin:miter;stroke-miterlimit:4;stroke-dasharray:none;stroke-opacity:1"
         d="m 1237.7227,-151.52246 c -3.2784,4.33301 7.4589,13.34082 14.1816,16.77246 6.5059,3.32227 12.8545,-0.97949 14.0898,-2.5918 3.5674,-4.65039 -2.9453,-13.55859 -9.4013,-17.01172 -5.5889,-2.99023 -14.2334,-3.29394 -18.8701,2.83106 z" />
      <path
         id="path146"
         style="fill:#ffffff;fill-opacity:1;fill-rule:nonzero;stroke:none"
         d="m 1257.0713,-153.8125 c -3.2959,-0.70703 -14.6768,-3.48926 -16.5391,10.12891" />
      <path
         id="path148"
         style="fill:none;stroke:#888e98;stroke-width:1.64798999;stroke-linecap:butt;stroke-linejoin:miter;stroke-miterlimit:4;stroke-dasharray:none;stroke-opacity:1"
         d="m 1257.0713,-153.8125 c -3.2959,-0.70703 -14.6768,-3.48926 -16.5391,10.12891" />
      <path
         id="path150"
         style="fill:none;stroke:#888e98;stroke-width:1.76549995;stroke-linecap:butt;stroke-linejoin:miter;stroke-miterlimit:4;stroke-dasharray:none;stroke-opacity:1"
         d="m 1156.667,-158.55469 c 0,0 73.6816,5.44824 47.2646,-9.00586 -22.3056,-12.20508 9.2403,-16.09082 27.2999,-4.72949 7.3603,4.63086 -9.502,12.24609 9.4355,18.06738 0.2314,0.0713 3.0537,-2.96679 7.334,0" />
      <path
         id="path152"
         style="fill:none;stroke:#888e98;stroke-width:1.81500006;stroke-linecap:butt;stroke-linejoin:miter;stroke-miterlimit:4;stroke-dasharray:none;stroke-opacity:1"
         d="m 1134.0127,-137.08789 c 0,0 42.7998,-10.95703 42.7998,-10.95703 0,0 -14.3809,-6.16309 -14.3809,-6.16309 0,0 -42.7998,10.95606 -42.7998,10.95606 0,0 14.3809,6.16406 14.3809,6.16406 z" />
      <path
         id="path154"
         style="fill:#ffffff;fill-opacity:1;fill-rule:nonzero;stroke:none"
         d="m 1142.5732,-143.93555 c 0,0 13.6954,-3.46875 13.6954,-3.46875 0,0 0,-22.55273 0,-22.55273 0,0 -13.6954,3.46875 -13.6954,3.46875 0,0 0,22.55273 0,22.55273 z" />
      <path
         id="path156"
         style="fill:none;stroke:#888e98;stroke-width:1.37030005;stroke-linecap:butt;stroke-linejoin:miter;stroke-miterlimit:4;stroke-dasharray:none;stroke-opacity:1"
         d="m 1142.5732,-143.93555 c 0,0 13.6954,-3.46875 13.6954,-3.46875 0,0 0,-22.55273 0,-22.55273 0,0 -13.6954,3.46875 -13.6954,3.46875 0,0 0,22.55273 0,22.55273 z" />
      <path
         id="path158"
         style="fill:#ffffff;fill-opacity:1;fill-rule:nonzero;stroke:none"
         d="m 1138.041,-145.92969 c 0,0 3.253,1.71192 3.253,1.71192 0,0 0,-22.25489 0,-22.25489 0,0 -3.253,-1.71289 -3.253,-1.71289 0,0 0,22.25586 0,22.25586 z" />
      <path
         id="path160"
         style="fill:none;stroke:#888e98;stroke-width:1.48339999;stroke-linecap:butt;stroke-linejoin:miter;stroke-miterlimit:4;stroke-dasharray:none;stroke-opacity:1"
         d="m 1138.041,-145.92969 c 0,0 3.253,1.71192 3.253,1.71192 0,0 0,-22.25489 0,-22.25489 0,0 -3.253,-1.71289 -3.253,-1.71289 0,0 0,22.25586 0,22.25586 z" />
      <path
         id="path162"
         style="fill:#ffffff;fill-opacity:1;fill-rule:nonzero;stroke:none"
         d="m 1144.9697,-102.23047 c 0,0 107.8526,-28.07422 107.8526,-28.07422 0,0 1.0273,-4.11035 1.0273,-4.11035 0,0 -144.4883,6.84863 -144.4883,6.84863 0,0 0,8.5586 0,8.5586 0,0 35.6084,16.77734 35.6084,16.77734 z" />
      <path
         id="path164"
         style="fill:none;stroke:#888e98;stroke-width:1.36129999;stroke-linecap:butt;stroke-linejoin:miter;stroke-miterlimit:4;stroke-dasharray:none;stroke-opacity:1"
         d="m 1144.9697,-102.23047 c 0,0 107.8526,-28.07422 107.8526,-28.07422 0,0 1.0273,-4.11035 1.0273,-4.11035 0,0 -144.4883,6.84863 -144.4883,6.84863 0,0 0,8.5586 0,8.5586 0,0 35.6084,16.77734 35.6084,16.77734 z" />
      <path
         id="path166"
         style="fill:#ffffff;fill-opacity:1;fill-rule:nonzero;stroke:none"
         d="m 1146.3398,-106.54688 c 0,0 107.5108,-28.07617 107.5108,-28.07617 0,0 -37.3203,-21.22851 -37.3203,-21.22851 0,0 -107.5098,28.07617 -107.5098,28.07617 0,0 37.3193,21.22851 37.3193,21.22851 z" />
      <path
         id="path168"
         style="fill:none;stroke:#888e98;stroke-width:1.36129999;stroke-linecap:butt;stroke-linejoin:miter;stroke-miterlimit:4;stroke-dasharray:none;stroke-opacity:1"
         d="m 1146.3398,-106.54688 c 0,0 107.5108,-28.07617 107.5108,-28.07617 0,0 -37.3203,-21.22851 -37.3203,-21.22851 0,0 -107.5098,28.07617 -107.5098,28.07617 0,0 37.3193,21.22851 37.3193,21.22851 z" />
      <path
         id="path170"
         style="fill:#ffffff;fill-opacity:1;fill-rule:nonzero;stroke:none"
         d="m 1180.2402,-141.84961 c 0,0 27.0498,14.72266 27.0498,14.72266 0,0 -60.9462,15.40625 -60.9462,15.40625 0,0 -24.9932,-15.06446 -24.9932,-15.06446 0,0 58.8896,-15.06445 58.8896,-15.06445 z" />
      <path
         id="path172"
         style="fill:none;stroke:#888e98;stroke-width:2.08529997;stroke-linecap:butt;stroke-linejoin:miter;stroke-miterlimit:4;stroke-dasharray:none;stroke-opacity:1"
         d="m 1180.2402,-141.84961 c 0,0 27.0498,14.72266 27.0498,14.72266 0,0 -60.9462,15.40625 -60.9462,15.40625 0,0 -24.9932,-15.06446 -24.9932,-15.06446 0,0 58.8896,-15.06445 58.8896,-15.06445 z" />
      <path
         id="path174"
         style="fill:#ffffff;fill-opacity:1;fill-rule:nonzero;stroke:none"
         d="m 1217.2568,-151.31445 c 0,0 24.7442,14.09179 24.7442,14.09179 0,0 -22.334,6 -22.334,6 0,0 -24.666,-14.66601 -24.666,-14.66601 0,0 22.2558,-5.42578 22.2558,-5.42578 z" />
      <path
         id="path176"
         style="fill:none;stroke:#888e98;stroke-width:2.08529997;stroke-linecap:butt;stroke-linejoin:miter;stroke-miterlimit:4;stroke-dasharray:none;stroke-opacity:1"
         d="m 1217.2568,-151.31445 c 0,0 24.7442,14.09179 24.7442,14.09179 0,0 -22.334,6 -22.334,6 0,0 -24.666,-14.66601 -24.666,-14.66601 0,0 22.2558,-5.42578 22.2558,-5.42578 z" />
      <path
         id="path178"
         style="fill:none;stroke:#888e98;stroke-width:2.08529997;stroke-linecap:butt;stroke-linejoin:miter;stroke-miterlimit:4;stroke-dasharray:none;stroke-opacity:1"
         d="m 1201.8125,-130.55078 c 0,0 -59.918,15.06445 -59.918,15.06445" />
      <path
         id="path180"
         style="fill:none;stroke:#888e98;stroke-width:2.08529997;stroke-linecap:butt;stroke-linejoin:miter;stroke-miterlimit:4;stroke-dasharray:none;stroke-opacity:1"
         d="m 1194.6211,-134.65918 c 0,0 -59.917,15.40723 -59.917,15.40723" />
      <path
         id="path182"
         style="fill:none;stroke:#888e98;stroke-width:2.08529997;stroke-linecap:butt;stroke-linejoin:miter;stroke-miterlimit:4;stroke-dasharray:none;stroke-opacity:1"
         d="m 1186.4043,-138.42578 c 0,0 -58.5488,15.4082 -58.5488,15.4082" />
      <path
         id="path184"
         style="fill:none;stroke:#888e98;stroke-width:2.08529997;stroke-linecap:butt;stroke-linejoin:miter;stroke-miterlimit:4;stroke-dasharray:none;stroke-opacity:1"
         d="m 1199.7578,-125.41504 c 0,0 -26.707,-14.37988 -26.707,-14.37988" />
      <path
         id="path186"
         style="fill:none;stroke:#888e98;stroke-width:2.08529997;stroke-linecap:butt;stroke-linejoin:miter;stroke-miterlimit:4;stroke-dasharray:none;stroke-opacity:1"
         d="m 1186.7471,-127.12695 c 0,0 -20.544,-10.95703 -20.544,-10.95703" />
      <path
         id="path188"
         style="fill:none;stroke:#888e98;stroke-width:2.08529997;stroke-linecap:butt;stroke-linejoin:miter;stroke-miterlimit:4;stroke-dasharray:none;stroke-opacity:1"
         d="m 1177.8447,-125.41504 c 0,0 -19.5156,-10.95605 -19.5156,-10.95605" />
      <path
         id="path190"
         style="fill:none;stroke:#888e98;stroke-width:2.08529997;stroke-linecap:butt;stroke-linejoin:miter;stroke-miterlimit:4;stroke-dasharray:none;stroke-opacity:1"
         d="m 1169.2852,-123.01953 c 0,0 -18.1475,-11.29688 -18.1475,-11.29688" />
      <path
         id="path192"
         style="fill:none;stroke:#888e98;stroke-width:2.08529997;stroke-linecap:butt;stroke-linejoin:miter;stroke-miterlimit:4;stroke-dasharray:none;stroke-opacity:1"
         d="m 1162.4375,-121.30566 c 0,0 -17.4619,-11.29981 -17.4619,-11.29981" />
      <path
         id="path194"
         style="fill:none;stroke:#888e98;stroke-width:2.08529997;stroke-linecap:butt;stroke-linejoin:miter;stroke-miterlimit:4;stroke-dasharray:none;stroke-opacity:1"
         d="m 1155.2471,-119.25195 c 0,0 -17.8047,-11.29883 -17.8047,-11.29883" />
      <path
         id="path196"
         style="fill:none;stroke:#888e98;stroke-width:2.08529997;stroke-linecap:butt;stroke-linejoin:miter;stroke-miterlimit:4;stroke-dasharray:none;stroke-opacity:1"
         d="m 1153.1924,-114.45898 c 0,0 -22.9395,-14.03711 -22.9395,-14.03711" />
      <path
         id="path198"
         style="fill:none;stroke:#888e98;stroke-width:2.08529997;stroke-linecap:butt;stroke-linejoin:miter;stroke-miterlimit:4;stroke-dasharray:none;stroke-opacity:1"
         d="m 1235.334,-135.55469 c 0,0 -24.5811,-14.04883 -24.5811,-14.04883" />
      <path
         id="path200"
         style="fill:none;stroke:#888e98;stroke-width:2.08529997;stroke-linecap:butt;stroke-linejoin:miter;stroke-miterlimit:4;stroke-dasharray:none;stroke-opacity:1"
         d="m 1227.334,-133.88867 c 0,0 -24.1143,-14.00293 -24.1143,-14.00293" />
      <path
         id="path202"
         style="fill:none;stroke:#888e98;stroke-width:2.08529997;stroke-linecap:butt;stroke-linejoin:miter;stroke-miterlimit:4;stroke-dasharray:none;stroke-opacity:1"
         d="m 1221.71,-147.8916 c 0,0 -20.8858,4.79394 -20.8858,4.79394" />
      <path
         id="path204"
         style="fill:none;stroke:#888e98;stroke-width:2.08529997;stroke-linecap:butt;stroke-linejoin:miter;stroke-miterlimit:4;stroke-dasharray:none;stroke-opacity:1"
         d="m 1229.001,-144.22266 c 0,0 -21.0147,4.88184 -21.0147,4.88184" />
      <path
         id="path206"
         style="fill:none;stroke:#888e98;stroke-width:2.08529997;stroke-linecap:butt;stroke-linejoin:miter;stroke-miterlimit:4;stroke-dasharray:none;stroke-opacity:1"
         d="m 1235.334,-140.88867 c 0,0 -21.8506,4.97265 -21.8506,4.97265" />
      <path
         id="path208"
         style="fill:#ffffff;fill-opacity:1;fill-rule:nonzero;stroke:none"
         d="m 1091.1885,-148.42578 c 0,0 5.4785,4.45117 5.4785,4.45117 0,0 107.5098,-111.96094 107.5098,-111.96094 0,0 -7.4141,-2.8584 -7.4141,-2.8584 0,0 -104.2305,20.48536 -104.2305,20.48536 0,0 -1.3437,89.88281 -1.3437,89.88281 z" />
      <path
         id="path210"
         style="fill:none;stroke:#888e98;stroke-width:2.25;stroke-linecap:butt;stroke-linejoin:miter;stroke-miterlimit:4;stroke-dasharray:none;stroke-opacity:1"
         d="m 1091.1885,-148.42578 c 0,0 5.4785,4.45117 5.4785,4.45117 0,0 107.5098,-111.96094 107.5098,-111.96094 0,0 -7.4141,-2.8584 -7.4141,-2.8584 0,0 -104.2305,20.48536 -104.2305,20.48536 0,0 -1.3437,89.88281 -1.3437,89.88281 z" />
      <path
         id="path212"
         style="fill:#ffffff;fill-opacity:1;fill-rule:nonzero;stroke:none"
         d="m 1097.3506,-143.97461 c 0,0 105.3164,-27.24805 105.3164,-27.24805 0,0 1.5098,-84.37109 1.5098,-84.37109 0,0 -105.7325,20.26758 -105.7325,20.26758 0,0 -1.0937,91.35156 -1.0937,91.35156 z" />
      <path
         id="path214"
         style="fill:none;stroke:#888e98;stroke-width:2.25;stroke-linecap:butt;stroke-linejoin:miter;stroke-miterlimit:4;stroke-dasharray:none;stroke-opacity:1"
         d="m 1097.3506,-143.97461 c 0,0 105.3164,-27.24805 105.3164,-27.24805 0,0 1.5098,-84.37109 1.5098,-84.37109 0,0 -105.7325,20.26758 -105.7325,20.26758 0,0 -1.0937,91.35156 -1.0937,91.35156 z" />
      <path
         id="path216"
         style="fill:none;stroke:#888e98;stroke-width:2.25;stroke-linecap:butt;stroke-linejoin:miter;stroke-miterlimit:4;stroke-dasharray:none;stroke-opacity:1"
         d="m 1102.4873,-154.93164 c 0,0 95.8692,-24.65137 95.8692,-24.65137 0,0 1.0273,-69.84765 1.0273,-69.84765 0,0 -96.1455,19.23925 -96.1455,19.23925 0,0 -0.751,75.25977 -0.751,75.25977 z" />
      <path
         id="path218"
         style="fill:none;stroke:#888e98;stroke-width:2.31069994;stroke-linecap:butt;stroke-linejoin:miter;stroke-miterlimit:4;stroke-dasharray:none;stroke-opacity:1"
         d="m 590.00293,-479.06934 c 0,0 -27.95605,11.43848 -20.02051,15.68653 7.93457,4.24609 32.44043,1.46679 32.44043,1.46679" />
      <path
         id="path220"
         style="fill:#ffffff;fill-opacity:1;fill-rule:nonzero;stroke:none"
         d="m 695.02832,-477.40527 c -3.27832,4.333 7.45898,13.34082 14.18164,16.77246 6.50586,3.32226 12.85449,-0.97949 14.08984,-2.5918 3.56739,-4.65039 -2.94531,-13.55859 -9.40136,-17.01172 -5.58887,-2.99023 -14.2334,-3.29394 -18.87012,2.83106 z" />
      <path
         id="path222"
         style="fill:none;stroke:#888e98;stroke-width:1.64798999;stroke-linecap:butt;stroke-linejoin:miter;stroke-miterlimit:4;stroke-dasharray:none;stroke-opacity:1"
         d="m 695.02832,-477.40527 c -3.27832,4.333 7.45898,13.34082 14.18164,16.77246 6.50586,3.32226 12.85449,-0.97949 14.08984,-2.5918 3.56739,-4.65039 -2.94531,-13.55859 -9.40136,-17.01172 -5.58887,-2.99023 -14.2334,-3.29394 -18.87012,2.83106 z" />
      <path
         id="path224"
         style="fill:#ffffff;fill-opacity:1;fill-rule:nonzero;stroke:none"
         d="m 714.37695,-479.69531 c -3.2959,-0.70703 -14.67675,-3.48926 -16.53906,10.1289" />
      <path
         id="path226"
         style="fill:none;stroke:#888e98;stroke-width:1.64798999;stroke-linecap:butt;stroke-linejoin:miter;stroke-miterlimit:4;stroke-dasharray:none;stroke-opacity:1"
         d="m 714.37695,-479.69531 c -3.2959,-0.70703 -14.67675,-3.48926 -16.53906,10.1289" />
      <path
         id="path228"
         style="fill:none;stroke:#888e98;stroke-width:1.76549995;stroke-linecap:butt;stroke-linejoin:miter;stroke-miterlimit:4;stroke-dasharray:none;stroke-opacity:1"
         d="m 613.97266,-484.4375 c 0,0 73.68164,5.44824 47.26464,-9.00586 -22.30566,-12.20508 9.24024,-16.09082 27.29981,-4.72949 7.36035,4.63086 -9.50195,12.24609 9.43555,18.06738 0.23144,0.0713 3.05371,-2.9668 7.33398,0" />
      <path
         id="path230"
         style="fill:none;stroke:#888e98;stroke-width:1.81500006;stroke-linecap:butt;stroke-linejoin:miter;stroke-miterlimit:4;stroke-dasharray:none;stroke-opacity:1"
         d="m 591.31836,-462.9707 c 0,0 42.7998,-10.95703 42.7998,-10.95703 0,0 -14.38086,-6.16309 -14.38086,-6.16309 0,0 -42.7998,10.95605 -42.7998,10.95605 0,0 14.38086,6.16407 14.38086,6.16407 z" />
      <path
         id="path232"
         style="fill:#ffffff;fill-opacity:1;fill-rule:nonzero;stroke:none"
         d="m 599.87891,-469.81836 c 0,0 13.69531,-3.46875 13.69531,-3.46875 0,0 0,-22.55273 0,-22.55273 0,0 -13.69531,3.46875 -13.69531,3.46875 0,0 0,22.55273 0,22.55273 z" />
      <path
         id="path234"
         style="fill:none;stroke:#888e98;stroke-width:1.37030005;stroke-linecap:butt;stroke-linejoin:miter;stroke-miterlimit:4;stroke-dasharray:none;stroke-opacity:1"
         d="m 599.87891,-469.81836 c 0,0 13.69531,-3.46875 13.69531,-3.46875 0,0 0,-22.55273 0,-22.55273 0,0 -13.69531,3.46875 -13.69531,3.46875 0,0 0,22.55273 0,22.55273 z" />
      <path
         id="path236"
         style="fill:#ffffff;fill-opacity:1;fill-rule:nonzero;stroke:none"
         d="m 595.34668,-471.8125 c 0,0 3.25293,1.71191 3.25293,1.71191 0,0 0,-22.25488 0,-22.25488 0,0 -3.25293,-1.71289 -3.25293,-1.71289 0,0 0,22.25586 0,22.25586 z" />
      <path
         id="path238"
         style="fill:none;stroke:#888e98;stroke-width:1.48339999;stroke-linecap:butt;stroke-linejoin:miter;stroke-miterlimit:4;stroke-dasharray:none;stroke-opacity:1"
         d="m 595.34668,-471.8125 c 0,0 3.25293,1.71191 3.25293,1.71191 0,0 0,-22.25488 0,-22.25488 0,0 -3.25293,-1.71289 -3.25293,-1.71289 0,0 0,22.25586 0,22.25586 z" />
      <path
         id="path240"
         style="fill:#ffffff;fill-opacity:1;fill-rule:nonzero;stroke:none"
         d="m 602.27539,-428.11328 c 0,0 107.85254,-28.07422 107.85254,-28.07422 0,0 1.02734,-4.11035 1.02734,-4.11035 0,0 -144.48828,6.84863 -144.48828,6.84863 0,0 0,8.55859 0,8.55859 0,0 35.6084,16.77735 35.6084,16.77735 z" />
      <path
         id="path242"
         style="fill:none;stroke:#888e98;stroke-width:1.36129999;stroke-linecap:butt;stroke-linejoin:miter;stroke-miterlimit:4;stroke-dasharray:none;stroke-opacity:1"
         d="m 602.27539,-428.11328 c 0,0 107.85254,-28.07422 107.85254,-28.07422 0,0 1.02734,-4.11035 1.02734,-4.11035 0,0 -144.48828,6.84863 -144.48828,6.84863 0,0 0,8.55859 0,8.55859 0,0 35.6084,16.77735 35.6084,16.77735 z" />
      <path
         id="path244"
         style="fill:#ffffff;fill-opacity:1;fill-rule:nonzero;stroke:none"
         d="m 603.64551,-432.42969 c 0,0 107.51074,-28.07617 107.51074,-28.07617 0,0 -37.32031,-21.22852 -37.32031,-21.22852 0,0 -107.50977,28.07618 -107.50977,28.07618 0,0 37.31934,21.22851 37.31934,21.22851 z" />
      <path
         id="path246"
         style="fill:none;stroke:#888e98;stroke-width:1.36129999;stroke-linecap:butt;stroke-linejoin:miter;stroke-miterlimit:4;stroke-dasharray:none;stroke-opacity:1"
         d="m 603.64551,-432.42969 c 0,0 107.51074,-28.07617 107.51074,-28.07617 0,0 -37.32031,-21.22852 -37.32031,-21.22852 0,0 -107.50977,28.07618 -107.50977,28.07618 0,0 37.31934,21.22851 37.31934,21.22851 z" />
      <path
         id="path248"
         style="fill:#ffffff;fill-opacity:1;fill-rule:nonzero;stroke:none"
         d="m 637.5459,-467.73242 c 0,0 27.0498,14.72265 27.0498,14.72265 0,0 -60.94629,15.40625 -60.94629,15.40625 0,0 -24.99316,-15.06445 -24.99316,-15.06445 0,0 58.88965,-15.06445 58.88965,-15.06445 z" />
      <path
         id="path250"
         style="fill:none;stroke:#888e98;stroke-width:2.08529997;stroke-linecap:butt;stroke-linejoin:miter;stroke-miterlimit:4;stroke-dasharray:none;stroke-opacity:1"
         d="m 637.5459,-467.73242 c 0,0 27.0498,14.72265 27.0498,14.72265 0,0 -60.94629,15.40625 -60.94629,15.40625 0,0 -24.99316,-15.06445 -24.99316,-15.06445 0,0 58.88965,-15.06445 58.88965,-15.06445 z" />
      <path
         id="path252"
         style="fill:#ffffff;fill-opacity:1;fill-rule:nonzero;stroke:none"
         d="m 674.5625,-477.19727 c 0,0 24.74414,14.0918 24.74414,14.0918 0,0 -22.33398,6 -22.33398,6 0,0 -24.66602,-14.66601 -24.66602,-14.66601 0,0 22.25586,-5.42579 22.25586,-5.42579 z" />
      <path
         id="path254"
         style="fill:none;stroke:#888e98;stroke-width:2.08529997;stroke-linecap:butt;stroke-linejoin:miter;stroke-miterlimit:4;stroke-dasharray:none;stroke-opacity:1"
         d="m 674.5625,-477.19727 c 0,0 24.74414,14.0918 24.74414,14.0918 0,0 -22.33398,6 -22.33398,6 0,0 -24.66602,-14.66601 -24.66602,-14.66601 0,0 22.25586,-5.42579 22.25586,-5.42579 z" />
      <path
         id="path256"
         style="fill:none;stroke:#888e98;stroke-width:2.08529997;stroke-linecap:butt;stroke-linejoin:miter;stroke-miterlimit:4;stroke-dasharray:none;stroke-opacity:1"
         d="m 659.11816,-456.43359 c 0,0 -59.91796,15.06445 -59.91796,15.06445" />
      <path
         id="path258"
         style="fill:none;stroke:#888e98;stroke-width:2.08529997;stroke-linecap:butt;stroke-linejoin:miter;stroke-miterlimit:4;stroke-dasharray:none;stroke-opacity:1"
         d="m 651.92676,-460.54199 c 0,0 -59.91699,15.40722 -59.91699,15.40722" />
      <path
         id="path260"
         style="fill:none;stroke:#888e98;stroke-width:2.08529997;stroke-linecap:butt;stroke-linejoin:miter;stroke-miterlimit:4;stroke-dasharray:none;stroke-opacity:1"
         d="m 643.70996,-464.30859 c 0,0 -58.54883,15.4082 -58.54883,15.4082" />
      <path
         id="path262"
         style="fill:none;stroke:#888e98;stroke-width:2.08529997;stroke-linecap:butt;stroke-linejoin:miter;stroke-miterlimit:4;stroke-dasharray:none;stroke-opacity:1"
         d="m 657.06348,-451.29785 c 0,0 -26.70703,-14.37988 -26.70703,-14.37988" />
      <path
         id="path264"
         style="fill:none;stroke:#888e98;stroke-width:2.08529997;stroke-linecap:butt;stroke-linejoin:miter;stroke-miterlimit:4;stroke-dasharray:none;stroke-opacity:1"
         d="m 644.05273,-453.00977 c 0,0 -20.54394,-10.95703 -20.54394,-10.95703" />
      <path
         id="path266"
         style="fill:none;stroke:#888e98;stroke-width:2.08529997;stroke-linecap:butt;stroke-linejoin:miter;stroke-miterlimit:4;stroke-dasharray:none;stroke-opacity:1"
         d="m 635.15039,-451.29785 c 0,0 -19.51562,-10.95606 -19.51562,-10.95606" />
      <path
         id="path268"
         style="fill:none;stroke:#888e98;stroke-width:2.08529997;stroke-linecap:butt;stroke-linejoin:miter;stroke-miterlimit:4;stroke-dasharray:none;stroke-opacity:1"
         d="m 626.59082,-448.90234 c 0,0 -18.14746,-11.29688 -18.14746,-11.29688" />
      <path
         id="path270"
         style="fill:none;stroke:#888e98;stroke-width:2.08529997;stroke-linecap:butt;stroke-linejoin:miter;stroke-miterlimit:4;stroke-dasharray:none;stroke-opacity:1"
         d="m 619.74316,-447.18848 c 0,0 -17.46191,-11.2998 -17.46191,-11.2998" />
      <path
         id="path272"
         style="fill:none;stroke:#888e98;stroke-width:2.08529997;stroke-linecap:butt;stroke-linejoin:miter;stroke-miterlimit:4;stroke-dasharray:none;stroke-opacity:1"
         d="m 612.55273,-445.13477 c 0,0 -17.80468,-11.29882 -17.80468,-11.29882" />
      <path
         id="path274"
         style="fill:none;stroke:#888e98;stroke-width:2.08529997;stroke-linecap:butt;stroke-linejoin:miter;stroke-miterlimit:4;stroke-dasharray:none;stroke-opacity:1"
         d="m 610.49805,-440.3418 c 0,0 -22.93946,-14.03711 -22.93946,-14.03711" />
      <path
         id="path276"
         style="fill:none;stroke:#888e98;stroke-width:2.08529997;stroke-linecap:butt;stroke-linejoin:miter;stroke-miterlimit:4;stroke-dasharray:none;stroke-opacity:1"
         d="m 692.63965,-461.4375 c 0,0 -24.58106,-14.04883 -24.58106,-14.04883" />
      <path
         id="path278"
         style="fill:none;stroke:#888e98;stroke-width:2.08529997;stroke-linecap:butt;stroke-linejoin:miter;stroke-miterlimit:4;stroke-dasharray:none;stroke-opacity:1"
         d="m 684.63965,-459.77148 c 0,0 -24.11426,-14.00293 -24.11426,-14.00293" />
      <path
         id="path280"
         style="fill:none;stroke:#888e98;stroke-width:2.08529997;stroke-linecap:butt;stroke-linejoin:miter;stroke-miterlimit:4;stroke-dasharray:none;stroke-opacity:1"
         d="m 679.01563,-473.77441 c 0,0 -20.88575,4.79394 -20.88575,4.79394" />
      <path
         id="path282"
         style="fill:none;stroke:#888e98;stroke-width:2.08529997;stroke-linecap:butt;stroke-linejoin:miter;stroke-miterlimit:4;stroke-dasharray:none;stroke-opacity:1"
         d="m 686.30664,-470.10547 c 0,0 -21.01465,4.88184 -21.01465,4.88184" />
      <path
         id="path284"
         style="fill:none;stroke:#888e98;stroke-width:2.08529997;stroke-linecap:butt;stroke-linejoin:miter;stroke-miterlimit:4;stroke-dasharray:none;stroke-opacity:1"
         d="m 692.63965,-466.77148 c 0,0 -21.85059,4.97265 -21.85059,4.97265" />
      <path
         id="path286"
         style="fill:#ffffff;fill-opacity:1;fill-rule:nonzero;stroke:none"
         d="m 548.49414,-474.30859 c 0,0 5.47852,4.45117 5.47852,4.45117 0,0 107.50976,-111.96094 107.50976,-111.96094 0,0 -7.41406,-2.8584 -7.41406,-2.8584 0,0 -104.23047,20.48535 -104.23047,20.48535 0,0 -1.34375,89.88282 -1.34375,89.88282 z" />
      <path
         id="path288"
         style="fill:none;stroke:#888e98;stroke-width:2.25;stroke-linecap:butt;stroke-linejoin:miter;stroke-miterlimit:4;stroke-dasharray:none;stroke-opacity:1"
         d="m 548.49414,-474.30859 c 0,0 5.47852,4.45117 5.47852,4.45117 0,0 107.50976,-111.96094 107.50976,-111.96094 0,0 -7.41406,-2.8584 -7.41406,-2.8584 0,0 -104.23047,20.48535 -104.23047,20.48535 0,0 -1.34375,89.88282 -1.34375,89.88282 z" />
      <path
         id="path290"
         style="fill:#ffffff;fill-opacity:1;fill-rule:nonzero;stroke:none"
         d="m 554.65625,-469.85742 c 0,0 105.31641,-27.24805 105.31641,-27.24805 0,0 1.50976,-84.37109 1.50976,-84.37109 0,0 -105.73242,20.26758 -105.73242,20.26758 0,0 -1.09375,91.35156 -1.09375,91.35156 z" />
      <path
         id="path292"
         style="fill:none;stroke:#888e98;stroke-width:2.25;stroke-linecap:butt;stroke-linejoin:miter;stroke-miterlimit:4;stroke-dasharray:none;stroke-opacity:1"
         d="m 554.65625,-469.85742 c 0,0 105.31641,-27.24805 105.31641,-27.24805 0,0 1.50976,-84.37109 1.50976,-84.37109 0,0 -105.73242,20.26758 -105.73242,20.26758 0,0 -1.09375,91.35156 -1.09375,91.35156 z" />
      <path
         id="path294"
         style="fill:none;stroke:#888e98;stroke-width:2.25;stroke-linecap:butt;stroke-linejoin:miter;stroke-miterlimit:4;stroke-dasharray:none;stroke-opacity:1"
         d="m 559.79297,-480.81445 c 0,0 95.86914,-24.65137 95.86914,-24.65137 0,0 1.02734,-69.84766 1.02734,-69.84766 0,0 -96.1455,19.23926 -96.1455,19.23926 0,0 -0.75098,75.25977 -0.75098,75.25977 z" />
      <path
         id="path296"
         style="fill:none;stroke:#888e98;stroke-width:2.31069994;stroke-linecap:butt;stroke-linejoin:miter;stroke-miterlimit:4;stroke-dasharray:none;stroke-opacity:1"
         d="m 285.3501,-80.95508 c 0,0 27.11328,13.3125 18.90722,17.00977 -8.20507,3.69726 -32.46484,-0.74024 -32.46484,-0.74024" />
      <path
         id="path298"
         style="fill:none;stroke:#888e98;stroke-width:1.81500006;stroke-linecap:butt;stroke-linejoin:miter;stroke-miterlimit:4;stroke-dasharray:none;stroke-opacity:1"
         d="m 273.84814,-66.85156 c 0,0 -42.7998,-10.95703 -42.7998,-10.95703 0,0 14.38086,-6.16309 14.38086,-6.16309 0,0 42.7998,10.95605 42.7998,10.95605 0,0 -14.38086,6.16407 -14.38086,6.16407 z" />
      <path
         id="path300"
         style="fill:#ffffff;fill-opacity:1;fill-rule:nonzero;stroke:none"
         d="m 265.2876,-73.69922 c 0,0 -13.69531,-3.46875 -13.69531,-3.46875 0,0 0,-22.55273 0,-22.55273 0,0 13.69531,3.46875 13.69531,3.46875 0,0 0,22.55273 0,22.55273 z" />
      <path
         id="path302"
         style="fill:none;stroke:#888e98;stroke-width:1.37030005;stroke-linecap:butt;stroke-linejoin:miter;stroke-miterlimit:4;stroke-dasharray:none;stroke-opacity:1"
         d="m 265.2876,-73.69922 c 0,0 -13.69531,-3.46875 -13.69531,-3.46875 0,0 0,-22.55273 0,-22.55273 0,0 13.69531,3.46875 13.69531,3.46875 0,0 0,22.55273 0,22.55273 z" />
      <path
         id="path304"
         style="fill:#ffffff;fill-opacity:1;fill-rule:nonzero;stroke:none"
         d="m 268.92432,-75.69336 c 0,0 -2.73926,1.71191 -2.73926,1.71191 0,0 0,-22.25488 0,-22.25488 0,0 2.73926,-1.71289 2.73926,-1.71289 0,0 0,22.25586 0,22.25586 z" />
      <path
         id="path306"
         style="fill:none;stroke:#888e98;stroke-width:1.36129999;stroke-linecap:butt;stroke-linejoin:miter;stroke-miterlimit:4;stroke-dasharray:none;stroke-opacity:1"
         d="m 268.92432,-75.69336 c 0,0 -2.73926,1.71191 -2.73926,1.71191 0,0 0,-22.25488 0,-22.25488 0,0 2.73926,-1.71289 2.73926,-1.71289 0,0 0,22.25586 0,22.25586 z" />
      <path
         id="path308"
         style="fill:#ffffff;fill-opacity:1;fill-rule:nonzero;stroke:none"
         d="m 262.89111,-31.99414 c 0,0 -107.85254,-28.07422 -107.85254,-28.07422 0,0 -1.02734,-4.11035 -1.02734,-4.11035 0,0 144.48828,6.84863 144.48828,6.84863 0,0 0,8.5586 0,8.5586 0,0 -35.6084,16.77734 -35.6084,16.77734 z" />
      <path
         id="path310"
         style="fill:none;stroke:#888e98;stroke-width:1.36129999;stroke-linecap:butt;stroke-linejoin:miter;stroke-miterlimit:4;stroke-dasharray:none;stroke-opacity:1"
         d="m 262.89111,-31.99414 c 0,0 -107.85254,-28.07422 -107.85254,-28.07422 0,0 -1.02734,-4.11035 -1.02734,-4.11035 0,0 144.48828,6.84863 144.48828,6.84863 0,0 0,8.5586 0,8.5586 0,0 -35.6084,16.77734 -35.6084,16.77734 z" />
      <path
         id="path312"
         style="fill:#ffffff;fill-opacity:1;fill-rule:nonzero;stroke:none"
         d="m 261.521,-36.31055 c 0,0 -107.51075,-28.07617 -107.51075,-28.07617 0,0 37.32032,-21.22851 37.32032,-21.22851 0,0 107.50976,28.07617 107.50976,28.07617 0,0 -37.31933,21.22851 -37.31933,21.22851 z" />
      <path
         id="path314"
         style="fill:none;stroke:#888e98;stroke-width:1.36129999;stroke-linecap:butt;stroke-linejoin:miter;stroke-miterlimit:4;stroke-dasharray:none;stroke-opacity:1"
         d="m 261.521,-36.31055 c 0,0 -107.51075,-28.07617 -107.51075,-28.07617 0,0 37.32032,-21.22851 37.32032,-21.22851 0,0 107.50976,28.07617 107.50976,28.07617 0,0 -37.31933,21.22851 -37.31933,21.22851 z" />
      <path
         id="path316"
         style="fill:#ffffff;fill-opacity:1;fill-rule:nonzero;stroke:none"
         d="m 189.62061,-80.61328 c 0,0 -27.04981,14.72265 -27.04981,14.72265 0,0 60.94629,15.40625 60.94629,15.40625 0,0 24.99316,-15.06445 24.99316,-15.06445 0,0 -58.88964,-15.06445 -58.88964,-15.06445 z" />
      <path
         id="path318"
         style="fill:none;stroke:#888e98;stroke-width:2.08529997;stroke-linecap:butt;stroke-linejoin:miter;stroke-miterlimit:4;stroke-dasharray:none;stroke-opacity:1"
         d="m 189.62061,-80.61328 c 0,0 -27.04981,14.72265 -27.04981,14.72265 0,0 60.94629,15.40625 60.94629,15.40625 0,0 24.99316,-15.06445 24.99316,-15.06445 0,0 -58.88964,-15.06445 -58.88964,-15.06445 z" />
      <path
         id="path320"
         style="fill:#ffffff;fill-opacity:1;fill-rule:nonzero;stroke:none"
         d="m 264.604,-60.41211 c 0,0 -23.48828,14.61719 -23.48828,14.61719 0,0 21.56934,4.79297 21.56934,4.79297 0,0 23.62598,-14.38086 23.62598,-14.38086 0,0 -21.70704,-5.0293 -21.70704,-5.0293 z" />
      <path
         id="path322"
         style="fill:none;stroke:#888e98;stroke-width:2.08529997;stroke-linecap:butt;stroke-linejoin:miter;stroke-miterlimit:4;stroke-dasharray:none;stroke-opacity:1"
         d="m 264.604,-60.41211 c 0,0 -23.48828,14.61719 -23.48828,14.61719 0,0 21.56934,4.79297 21.56934,4.79297 0,0 23.62598,-14.38086 23.62598,-14.38086 0,0 -21.70704,-5.0293 -21.70704,-5.0293 z" />
      <path
         id="path324"
         style="fill:none;stroke:#888e98;stroke-width:2.08529997;stroke-linecap:butt;stroke-linejoin:miter;stroke-miterlimit:4;stroke-dasharray:none;stroke-opacity:1"
         d="m 168.04834,-69.31445 c 0,0 59.91797,15.06445 59.91797,15.06445" />
      <path
         id="path326"
         style="fill:none;stroke:#888e98;stroke-width:2.08529997;stroke-linecap:butt;stroke-linejoin:miter;stroke-miterlimit:4;stroke-dasharray:none;stroke-opacity:1"
         d="m 175.23975,-73.42285 c 0,0 59.91699,15.40722 59.91699,15.40722" />
      <path
         id="path328"
         style="fill:none;stroke:#888e98;stroke-width:2.08529997;stroke-linecap:butt;stroke-linejoin:miter;stroke-miterlimit:4;stroke-dasharray:none;stroke-opacity:1"
         d="m 183.45654,-77.18945 c 0,0 58.54883,15.4082 58.54883,15.4082" />
      <path
         id="path330"
         style="fill:none;stroke:#888e98;stroke-width:2.08529997;stroke-linecap:butt;stroke-linejoin:miter;stroke-miterlimit:4;stroke-dasharray:none;stroke-opacity:1"
         d="m 170.10303,-64.17871 c 0,0 26.70703,-14.37988 26.70703,-14.37988" />
      <path
         id="path332"
         style="fill:none;stroke:#888e98;stroke-width:2.08529997;stroke-linecap:butt;stroke-linejoin:miter;stroke-miterlimit:4;stroke-dasharray:none;stroke-opacity:1"
         d="m 183.11377,-65.89063 c 0,0 20.54394,-10.95703 20.54394,-10.95703" />
      <path
         id="path334"
         style="fill:none;stroke:#888e98;stroke-width:2.08529997;stroke-linecap:butt;stroke-linejoin:miter;stroke-miterlimit:4;stroke-dasharray:none;stroke-opacity:1"
         d="m 192.01611,-64.17871 c 0,0 19.51563,-10.95606 19.51563,-10.95606" />
      <path
         id="path336"
         style="fill:none;stroke:#888e98;stroke-width:2.08529997;stroke-linecap:butt;stroke-linejoin:miter;stroke-miterlimit:4;stroke-dasharray:none;stroke-opacity:1"
         d="m 200.57568,-61.7832 c 0,0 18.14746,-11.29688 18.14746,-11.29688" />
      <path
         id="path338"
         style="fill:none;stroke:#888e98;stroke-width:2.08529997;stroke-linecap:butt;stroke-linejoin:miter;stroke-miterlimit:4;stroke-dasharray:none;stroke-opacity:1"
         d="m 207.42334,-60.06934 c 0,0 17.46191,-11.2998 17.46191,-11.2998" />
      <path
         id="path340"
         style="fill:none;stroke:#888e98;stroke-width:2.08529997;stroke-linecap:butt;stroke-linejoin:miter;stroke-miterlimit:4;stroke-dasharray:none;stroke-opacity:1"
         d="m 214.61377,-58.01563 c 0,0 17.80469,-11.29882 17.80469,-11.29882" />
      <path
         id="path342"
         style="fill:none;stroke:#888e98;stroke-width:2.08529997;stroke-linecap:butt;stroke-linejoin:miter;stroke-miterlimit:4;stroke-dasharray:none;stroke-opacity:1"
         d="m 216.66846,-53.22266 c 0,0 22.93945,-14.03711 22.93945,-14.03711" />
      <path
         id="path344"
         style="fill:none;stroke:#888e98;stroke-width:2.08529997;stroke-linecap:butt;stroke-linejoin:miter;stroke-miterlimit:4;stroke-dasharray:none;stroke-opacity:1"
         d="m 248.51025,-45.00586 c 0,0 22.59766,-13.69434 22.59766,-13.69434" />
      <path
         id="path346"
         style="fill:none;stroke:#888e98;stroke-width:2.08529997;stroke-linecap:butt;stroke-linejoin:miter;stroke-miterlimit:4;stroke-dasharray:none;stroke-opacity:1"
         d="m 256.38623,-43.29297 c 0,0 22.25488,-13.69531 22.25488,-13.69531" />
      <path
         id="path348"
         style="fill:none;stroke:#888e98;stroke-width:2.08529997;stroke-linecap:butt;stroke-linejoin:miter;stroke-miterlimit:4;stroke-dasharray:none;stroke-opacity:1"
         d="m 260.15088,-56.98828 c 0,0 20.88574,4.79297 20.88574,4.79297" />
      <path
         id="path350"
         style="fill:none;stroke:#888e98;stroke-width:2.08529997;stroke-linecap:butt;stroke-linejoin:miter;stroke-miterlimit:4;stroke-dasharray:none;stroke-opacity:1"
         d="m 254.67334,-53.56445 c 0,0 20.20117,4.79297 20.20117,4.79297" />
      <path
         id="path352"
         style="fill:none;stroke:#888e98;stroke-width:2.08529997;stroke-linecap:butt;stroke-linejoin:miter;stroke-miterlimit:4;stroke-dasharray:none;stroke-opacity:1"
         d="m 248.85303,-50.14063 c 0,0 19.85742,4.79297 19.85742,4.79297" />
      <path
         id="path354"
         style="fill:#ffffff;fill-opacity:1;fill-rule:nonzero;stroke:none"
         d="m 329.99854,-47.40234 c 3.5957,4.87109 -8.86915,14.49218 -16.60743,18.08007 -7.49023,3.47461 -14.57422,-1.45019 -15.92968,-3.26171 -3.91504,-5.23047 3.74609,-14.86231 11.18554,-18.4834 6.43848,-3.13477 16.2666,-3.22168 21.35157,3.66504 z" />
      <path
         id="path356"
         style="fill:none;stroke:#888e98;stroke-width:2.17821002;stroke-linecap:butt;stroke-linejoin:miter;stroke-miterlimit:4;stroke-dasharray:none;stroke-opacity:1"
         d="m 329.99854,-47.40234 c 3.5957,4.87109 -8.86915,14.49218 -16.60743,18.08007 -7.49023,3.47461 -14.57422,-1.45019 -15.92968,-3.26171 -3.91504,-5.23047 3.74609,-14.86231 11.18554,-18.4834 6.43848,-3.13477 16.2666,-3.22168 21.35157,3.66504 z" />
      <path
         id="path358"
         style="fill:#ffffff;fill-opacity:1;fill-rule:nonzero;stroke:none"
         d="m 308.08545,-50.4834 c 3.7666,-0.68457 16.77734,-3.4248 18.49023,11.6416" />
      <path
         id="path360"
         style="fill:none;stroke:#888e98;stroke-width:2.12789989;stroke-linecap:butt;stroke-linejoin:miter;stroke-miterlimit:4;stroke-dasharray:none;stroke-opacity:1"
         d="m 308.08545,-50.4834 c 3.7666,-0.68457 16.77734,-3.4248 18.49023,11.6416" />
      <path
         id="path362"
         style="fill:none;stroke:#888e98;stroke-width:2.12789989;stroke-linecap:butt;stroke-linejoin:miter;stroke-miterlimit:4;stroke-dasharray:none;stroke-opacity:1"
         d="m 286.85791,-78.55859 c 0,0 29.10352,20.54296 40.40234,3.08105 7.70606,-11.91113 39.37403,-3.08105 23.96582,16.0918 -6.25293,7.78125 -25.33691,8.55957 -25.33691,8.55957 0,0 -2.7373,-3.08203 -7.53125,0.68554" />
      <path
         id="path364"
         style="fill:#ffffff;fill-opacity:1;fill-rule:nonzero;stroke:none"
         d="m 317.67334,-77.18945 c 0,0 -5.47852,4.45117 -5.47852,4.45117 0,0 -107.50976,-111.96094 -107.50976,-111.96094 0,0 7.41406,-2.85742 7.41406,-2.85742 0,0 104.23047,20.48437 104.23047,20.48437 0,0 1.34375,89.88282 1.34375,89.88282 z" />
      <path
         id="path366"
         style="fill:none;stroke:#888e98;stroke-width:2.25;stroke-linecap:butt;stroke-linejoin:miter;stroke-miterlimit:4;stroke-dasharray:none;stroke-opacity:1"
         d="m 317.67334,-77.18945 c 0,0 -5.47852,4.45117 -5.47852,4.45117 0,0 -107.50976,-111.96094 -107.50976,-111.96094 0,0 7.41406,-2.85742 7.41406,-2.85742 0,0 104.23047,20.48437 104.23047,20.48437 0,0 1.34375,89.88282 1.34375,89.88282 z" />
      <path
         id="path368"
         style="fill:#ffffff;fill-opacity:1;fill-rule:nonzero;stroke:none"
         d="m 311.51123,-72.73828 c 0,0 -106.1416,-28.41797 -106.1416,-28.41797 0,0 -0.68457,-83.2002 -0.68457,-83.2002 0,0 105.73242,20.26661 105.73242,20.26661 0,0 1.09375,91.35156 1.09375,91.35156 z" />
      <path
         id="path370"
         style="fill:none;stroke:#888e98;stroke-width:2.25;stroke-linecap:butt;stroke-linejoin:miter;stroke-miterlimit:4;stroke-dasharray:none;stroke-opacity:1"
         d="m 311.51123,-72.73828 c 0,0 -106.1416,-28.41797 -106.1416,-28.41797 0,0 -0.68457,-83.2002 -0.68457,-83.2002 0,0 105.73242,20.26661 105.73242,20.26661 0,0 1.09375,91.35156 1.09375,91.35156 z" />
      <path
         id="path372"
         style="fill:none;stroke:#888e98;stroke-width:2.25;stroke-linecap:butt;stroke-linejoin:miter;stroke-miterlimit:4;stroke-dasharray:none;stroke-opacity:1"
         d="m 306.37451,-83.69434 c 0,0 -95.86914,-24.65136 -95.86914,-24.65136 0,0 -1.02734,-69.84766 -1.02734,-69.84766 0,0 96.14551,19.23926 96.14551,19.23926 0,0 0.75097,75.25976 0.75097,75.25976 z" />
      <path
         id="path374"
         style="fill:#ffffff;fill-opacity:1;fill-rule:nonzero;stroke:none"
         d="m 882.06543,-399.28613 c -1.17383,8.17383 4.52344,9.25097 4.52344,9.25097 0,0 65.67285,20.34473 65.67285,20.34473 5.51562,1.54004 10.25293,0.29199 13.94336,-1.29395 0,0 60.91892,-27.3081 60.91892,-27.3081 3.6904,-1.59131 2.9532,-3.31885 3.7295,-8.72803" />
      <path
         id="path376"
         style="fill:none;stroke:#9096a1;stroke-width:1.81190002;stroke-linecap:butt;stroke-linejoin:miter;stroke-miterlimit:4;stroke-dasharray:none;stroke-opacity:1"
         d="m 882.06543,-399.28613 c -1.17383,8.17383 4.52344,9.25097 4.52344,9.25097 0,0 65.67285,20.34473 65.67285,20.34473 5.51562,1.54004 10.25293,0.29199 13.94336,-1.29395 0,0 60.91892,-27.3081 60.91892,-27.3081 3.6904,-1.59131 2.9532,-3.31885 3.7295,-8.72803" />
      <path
         id="path378"
         style="fill:#ffffff;fill-opacity:1;fill-rule:nonzero;stroke:none"
         d="m 997.43848,-413.1167 c 0,0 -60.71485,26.19336 -60.71485,26.19336 0,0 -39.18066,-11.36914 -39.18066,-11.36914 0,0 60.72461,-26.19043 60.72461,-26.19043 0,0 39.1709,11.36621 39.1709,11.36621 z m 1.17773,15.90137 c 2.55179,0.73681 3.18169,1.96338 1.42189,2.72412 0,0 -10.16798,4.38476 -10.16798,4.38476 -1.77149,0.76709 -5.28125,0.78516 -7.83399,0.0449 0,0 -12.06738,-3.5 -12.06738,-3.5 -2.55762,-0.74268 -3.18848,-1.96387 -1.41895,-2.73145 0,0 10.16309,-4.38476 10.16309,-4.38476 1.77246,-0.76416 5.27832,-0.78125 7.83691,-0.0386 0,0 12.06641,3.50098 12.06641,3.50098 z m -51.28223,-31.29785 c 0,0 -63.44628,27.36767 -63.44628,27.36767 -3.68262,1.59229 -2.36133,4.13477 2.96386,5.67627 0,0 61.86621,18.75342 61.86621,18.75342 5.32911,1.54297 12.62403,1.50293 16.3125,-0.0889 0,0 63.44243,-27.37158 63.44243,-27.37158 3.6884,-1.58789 2.3642,-4.13135 -2.9561,-5.67578 0,0 -61.875,-18.74854 -61.875,-18.74854 -5.3125,-1.54394 -12.61719,-1.50195 -16.30762,0.0874 z" />
      <path
         id="path380"
         style="fill:none;stroke:#9096a1;stroke-width:1.81190002;stroke-linecap:butt;stroke-linejoin:miter;stroke-miterlimit:4;stroke-dasharray:none;stroke-opacity:1"
         d="m 997.43848,-413.1167 c 0,0 -60.71485,26.19336 -60.71485,26.19336 0,0 -39.18066,-11.36914 -39.18066,-11.36914 0,0 60.72461,-26.19043 60.72461,-26.19043 0,0 39.1709,11.36621 39.1709,11.36621 z m 1.17773,15.90137 c 2.55179,0.73681 3.18169,1.96338 1.42189,2.72412 0,0 -10.16798,4.38476 -10.16798,4.38476 -1.77149,0.76709 -5.28125,0.78516 -7.83399,0.0449 0,0 -12.06738,-3.5 -12.06738,-3.5 -2.55762,-0.74268 -3.18848,-1.96387 -1.41895,-2.73145 0,0 10.16309,-4.38476 10.16309,-4.38476 1.77246,-0.76416 5.27832,-0.78125 7.83691,-0.0386 0,0 12.06641,3.50098 12.06641,3.50098 z m -51.28223,-31.29785 c 0,0 -63.44628,27.36767 -63.44628,27.36767 -3.68262,1.59229 -2.36133,4.13477 2.96386,5.67627 0,0 61.86621,18.75342 61.86621,18.75342 5.32911,1.54297 12.62403,1.50293 16.3125,-0.0889 0,0 63.44243,-27.37158 63.44243,-27.37158 3.6884,-1.58789 2.3642,-4.13135 -2.9561,-5.67578 0,0 -61.875,-18.74854 -61.875,-18.74854 -5.3125,-1.54394 -12.61719,-1.50195 -16.30762,0.0874 z" />
      <path
         id="path382"
         style="fill:none;stroke:#9096a1;stroke-width:1.81190002;stroke-linecap:butt;stroke-linejoin:miter;stroke-miterlimit:4;stroke-dasharray:none;stroke-opacity:1"
         d="m 928.65723,-389.26074 c 0,0 60.31347,-26.0249 60.31347,-26.0249" />
      <path
         id="path384"
         style="fill:none;stroke:#9096a1;stroke-width:1.81190002;stroke-linecap:butt;stroke-linejoin:miter;stroke-miterlimit:4;stroke-dasharray:none;stroke-opacity:1"
         d="m 920.58496,-391.60449 c 0,0 60.52442,-26.10742 60.52442,-26.10742" />
      <path
         id="path386"
         style="fill:none;stroke:#9096a1;stroke-width:1.81190002;stroke-linecap:butt;stroke-linejoin:miter;stroke-miterlimit:4;stroke-dasharray:none;stroke-opacity:1"
         d="m 912.89551,-393.68848 c 0,0 60.7207,-26.1958 60.7207,-26.1958" />
      <path
         id="path388"
         style="fill:none;stroke:#9096a1;stroke-width:1.81190002;stroke-linecap:butt;stroke-linejoin:miter;stroke-miterlimit:4;stroke-dasharray:none;stroke-opacity:1"
         d="m 904.83301,-396.02832 c 0,0 60.91797,-26.28369 60.91797,-26.28369" />
      <path
         id="path390"
         style="fill:none;stroke:#9096a1;stroke-width:1.81190002;stroke-linecap:butt;stroke-linejoin:miter;stroke-miterlimit:4;stroke-dasharray:none;stroke-opacity:1"
         d="m 941.71875,-389.07764 c 0,0 -39.46777,-11.45166 -39.46777,-11.45166" />
      <path
         id="path392"
         style="fill:none;stroke:#9096a1;stroke-width:1.81190002;stroke-linecap:butt;stroke-linejoin:miter;stroke-miterlimit:4;stroke-dasharray:none;stroke-opacity:1"
         d="m 947.34863,-391.50732 c 0,0 -39.46875,-11.44678 -39.46875,-11.44678" />
      <path
         id="path394"
         style="fill:none;stroke:#9096a1;stroke-width:1.81190002;stroke-linecap:butt;stroke-linejoin:miter;stroke-miterlimit:4;stroke-dasharray:none;stroke-opacity:1"
         d="m 924.75977,-410.23779 c 0,0 31.40332,9.10498 31.40332,9.10498" />
      <path
         id="path396"
         style="fill:none;stroke:#9096a1;stroke-width:1.81190002;stroke-linecap:butt;stroke-linejoin:miter;stroke-miterlimit:4;stroke-dasharray:none;stroke-opacity:1"
         d="m 930.3877,-412.66699 c 0,0 30.82226,8.94238 30.82226,8.94238" />
      <path
         id="path398"
         style="fill:none;stroke:#9096a1;stroke-width:1.81190002;stroke-linecap:butt;stroke-linejoin:miter;stroke-miterlimit:4;stroke-dasharray:none;stroke-opacity:1"
         d="m 913.50488,-405.38623 c 0,0 31.40039,9.11182 31.40039,9.11182" />
      <path
         id="path400"
         style="fill:none;stroke:#9096a1;stroke-width:1.81190002;stroke-linecap:butt;stroke-linejoin:miter;stroke-miterlimit:4;stroke-dasharray:none;stroke-opacity:1"
         d="m 919.13574,-407.80859 c 0,0 30.8291,8.94043 30.8291,8.94043" />
      <path
         id="path402"
         style="fill:none;stroke:#9096a1;stroke-width:1.81190002;stroke-linecap:butt;stroke-linejoin:miter;stroke-miterlimit:4;stroke-dasharray:none;stroke-opacity:1"
         d="m 936.0166,-415.09424 c 0,0 31.11524,9.02002 31.11524,9.02002" />
      <path
         id="path404"
         style="fill:none;stroke:#9096a1;stroke-width:1.81190002;stroke-linecap:butt;stroke-linejoin:miter;stroke-miterlimit:4;stroke-dasharray:none;stroke-opacity:1"
         d="m 941.6416,-417.52344 c 0,0 30.83106,8.94287 30.83106,8.94287" />
      <path
         id="path406"
         style="fill:none;stroke:#9096a1;stroke-width:1.81190002;stroke-linecap:butt;stroke-linejoin:miter;stroke-miterlimit:4;stroke-dasharray:none;stroke-opacity:1"
         d="m 986.73828,-408.50049 c 0,0 -39.46973,-11.45264 -39.46973,-11.45264" />
      <path
         id="path408"
         style="fill:none;stroke:#9096a1;stroke-width:1.81190002;stroke-linecap:butt;stroke-linejoin:miter;stroke-miterlimit:4;stroke-dasharray:none;stroke-opacity:1"
         d="m 992.3623,-410.93311 c 0,0 -39.458,-11.44043 -39.458,-11.44043" />
      <path
         id="path410"
         style="fill:#ffffff;fill-opacity:1;fill-rule:nonzero;stroke:none"
         d="m 954.8125,-436.83984 c 0,0 -1.74707,6.58593 -1.74707,6.58593 0,0 -71.46191,30.23047 -71.46191,30.23047 -3.40332,-0.229 -6.06543,-1.46338 -6.74805,-6.01855 0,0 -12.50977,-70.31494 -12.50977,-70.31494 -0.68652,-4.55616 0.125,-9.96143 4.01856,-11.26026 0,0 62.99023,-24.34326 62.99023,-24.34326 2.25977,-0.89844 9.23926,-1.62549 12.72168,-0.80225" />
      <path
         id="path412"
         style="fill:none;stroke:#9096a1;stroke-width:1.89830005;stroke-linecap:butt;stroke-linejoin:miter;stroke-miterlimit:4;stroke-dasharray:none;stroke-opacity:1"
         d="m 954.8125,-436.83984 c 0,0 -1.74707,6.58593 -1.74707,6.58593 0,0 -71.46191,30.23047 -71.46191,30.23047 -3.40332,-0.229 -6.06543,-1.46338 -6.74805,-6.01855 0,0 -12.50977,-70.31494 -12.50977,-70.31494 -0.68652,-4.55616 0.125,-9.96143 4.01856,-11.26026 0,0 62.99023,-24.34326 62.99023,-24.34326 2.25977,-0.89844 9.23926,-1.62549 12.72168,-0.80225" />
      <path
         id="path414"
         style="fill:#ffffff;fill-opacity:1;fill-rule:nonzero;stroke:none"
         d="m 951.86035,-439.47314 c 0.59082,3.86523 0.22656,5.36962 -2.23437,6.48291 0,0 -64.83399,27.20507 -64.83399,27.20507 -2.60742,1.58203 -4.47656,1.27295 -5.06445,-2.59277 0,0 -11.29492,-65.98486 -11.29492,-65.98486 -0.59082,-3.86524 1.05273,-8.28321 3.65429,-9.8667 0,0 64.85645,-23.89795 64.85645,-23.89795 2.60449,-1.58447 3.78711,-0.0166 4.58789,5.24414 0,0 10.3291,63.41016 10.3291,63.41016 z m -13.43457,-72.64161 c 0,0 -69.7373,25.97998 -69.7373,25.97998 -2.52637,1.53418 -4.45703,5.61963 -3.77149,10.1377 0,0 12.50684,69.85449 12.50684,69.85449 0.68262,4.52051 3.28906,6.94238 5.82129,5.40528 0,0 68.84082,-29.44581 68.84082,-29.44581 2.52636,-1.53564 4.03125,-3.90283 3.34277,-8.42089 0,0 -11,-68.85498 -11,-68.85498 -1.23437,-4.99268 -2.29492,-5.80274 -6.00293,-4.65577 z" />
      <path
         id="path416"
         style="fill:none;stroke:#9096a1;stroke-width:1.89830005;stroke-linecap:butt;stroke-linejoin:miter;stroke-miterlimit:4;stroke-dasharray:none;stroke-opacity:1"
         d="m 951.86035,-439.47314 c 0.59082,3.86523 0.22656,5.36962 -2.23437,6.48291 0,0 -64.83399,27.20507 -64.83399,27.20507 -2.60742,1.58203 -4.47656,1.27295 -5.06445,-2.59277 0,0 -11.29492,-65.98486 -11.29492,-65.98486 -0.59082,-3.86524 1.05273,-8.28321 3.65429,-9.8667 0,0 64.85645,-23.89795 64.85645,-23.89795 2.60449,-1.58447 3.78711,-0.0166 4.58789,5.24414 0,0 10.3291,63.41016 10.3291,63.41016 z m -13.43457,-72.64161 c 0,0 -69.7373,25.97998 -69.7373,25.97998 -2.52637,1.53418 -4.45703,5.61963 -3.77149,10.1377 0,0 12.50684,69.85449 12.50684,69.85449 0.68262,4.52051 3.28906,6.94238 5.82129,5.40528 0,0 68.84082,-29.44581 68.84082,-29.44581 2.52636,-1.53564 4.03125,-3.90283 3.34277,-8.42089 0,0 -11,-68.85498 -11,-68.85498 -1.23437,-4.99268 -2.29492,-5.80274 -6.00293,-4.65577 z" />
      <path
         id="path418"
         style="fill:#ffffff;fill-opacity:1;fill-rule:nonzero;stroke:none"
         d="m 242.58691,-485.41504 c 0.77637,5.40918 0.0391,7.13672 3.7295,8.72803 0,0 60.91894,27.3081 60.91894,27.3081 3.69043,1.58594 8.42774,2.83399 13.94336,1.29395 0,0 65.67285,-20.34473 65.67285,-20.34473 0,0 5.69727,-1.07715 4.52344,-9.25097" />
      <path
         id="path420"
         style="fill:none;stroke:#9096a1;stroke-width:1.81190002;stroke-linecap:butt;stroke-linejoin:miter;stroke-miterlimit:4;stroke-dasharray:none;stroke-opacity:1"
         d="m 242.58691,-485.41504 c 0.77637,5.40918 0.0391,7.13672 3.7295,8.72803 0,0 60.91894,27.3081 60.91894,27.3081 3.69043,1.58594 8.42774,2.83399 13.94336,1.29395 0,0 65.67285,-20.34473 65.67285,-20.34473 0,0 5.69727,-1.07715 4.52344,-9.25097" />
      <path
         id="path422"
         style="fill:#ffffff;fill-opacity:1;fill-rule:nonzero;stroke:none"
         d="m 315.17285,-502.87744 c 0,0 60.72461,26.19043 60.72461,26.19043 0,0 -39.18066,11.36914 -39.18066,11.36914 0,0 -60.71485,-26.19336 -60.71485,-26.19336 0,0 39.1709,-11.36621 39.1709,-11.36621 z m -28.28222,23.7666 c 2.55859,-0.74268 6.06445,-0.72559 7.83691,0.0386 0,0 10.16309,4.38477 10.16309,4.38477 1.76953,0.76758 1.13867,1.98877 -1.41895,2.73145 0,0 -12.06738,3.5 -12.06738,3.5 -2.55274,0.74023 -6.0625,0.72216 -7.83399,-0.0449 0,0 -10.16797,-4.38476 -10.16797,-4.38476 -1.75976,-0.76074 -1.12988,-1.98731 1.42188,-2.72412 0,0 12.06641,-3.50098 12.06641,-3.50098 z m 22.9082,-27.88428 c 0,0 -61.875,18.74854 -61.875,18.74854 -5.32031,1.54443 -6.64453,4.08789 -2.95606,5.67578 0,0 63.44239,27.37158 63.44239,27.37158 3.68847,1.5918 10.98339,1.63184 16.3125,0.0889 0,0 61.86621,-18.75342 61.86621,-18.75342 5.32519,-1.5415 6.64648,-4.08398 2.96386,-5.67627 0,0 -63.44628,-27.36767 -63.44628,-27.36767 -3.69043,-1.58936 -10.99512,-1.63135 -16.30762,-0.0874 z" />
      <path
         id="path424"
         style="fill:none;stroke:#9096a1;stroke-width:1.81190002;stroke-linecap:butt;stroke-linejoin:miter;stroke-miterlimit:4;stroke-dasharray:none;stroke-opacity:1"
         d="m 315.17285,-502.87744 c 0,0 60.72461,26.19043 60.72461,26.19043 0,0 -39.18066,11.36914 -39.18066,11.36914 0,0 -60.71485,-26.19336 -60.71485,-26.19336 0,0 39.1709,-11.36621 39.1709,-11.36621 z m -28.28222,23.7666 c 2.55859,-0.74268 6.06445,-0.72559 7.83691,0.0386 0,0 10.16309,4.38477 10.16309,4.38477 1.76953,0.76758 1.13867,1.98877 -1.41895,2.73145 0,0 -12.06738,3.5 -12.06738,3.5 -2.55274,0.74023 -6.0625,0.72216 -7.83399,-0.0449 0,0 -10.16797,-4.38476 -10.16797,-4.38476 -1.75976,-0.76074 -1.12988,-1.98731 1.42188,-2.72412 0,0 12.06641,-3.50098 12.06641,-3.50098 z m 22.9082,-27.88428 c 0,0 -61.875,18.74854 -61.875,18.74854 -5.32031,1.54443 -6.64453,4.08789 -2.95606,5.67578 0,0 63.44239,27.37158 63.44239,27.37158 3.68847,1.5918 10.98339,1.63184 16.3125,0.0889 0,0 61.86621,-18.75342 61.86621,-18.75342 5.32519,-1.5415 6.64648,-4.08398 2.96386,-5.67627 0,0 -63.44628,-27.36767 -63.44628,-27.36767 -3.69043,-1.58936 -10.99512,-1.63135 -16.30762,-0.0874 z" />
      <path
         id="path426"
         style="fill:none;stroke:#9096a1;stroke-width:1.81190002;stroke-linecap:butt;stroke-linejoin:miter;stroke-miterlimit:4;stroke-dasharray:none;stroke-opacity:1"
         d="m 344.7832,-467.65527 c 0,0 -60.31347,-26.02491 -60.31347,-26.02491" />
      <path
         id="path428"
         style="fill:none;stroke:#9096a1;stroke-width:1.81190002;stroke-linecap:butt;stroke-linejoin:miter;stroke-miterlimit:4;stroke-dasharray:none;stroke-opacity:1"
         d="m 352.85547,-469.99902 c 0,0 -60.52442,-26.10743 -60.52442,-26.10743" />
      <path
         id="path430"
         style="fill:none;stroke:#9096a1;stroke-width:1.81190002;stroke-linecap:butt;stroke-linejoin:miter;stroke-miterlimit:4;stroke-dasharray:none;stroke-opacity:1"
         d="m 360.54492,-472.08301 c 0,0 -60.7207,-26.1958 -60.7207,-26.1958" />
      <path
         id="path432"
         style="fill:none;stroke:#9096a1;stroke-width:1.81190002;stroke-linecap:butt;stroke-linejoin:miter;stroke-miterlimit:4;stroke-dasharray:none;stroke-opacity:1"
         d="m 368.60742,-474.42285 c 0,0 -60.91797,-26.28369 -60.91797,-26.28369" />
      <path
         id="path434"
         style="fill:none;stroke:#9096a1;stroke-width:1.81190002;stroke-linecap:butt;stroke-linejoin:miter;stroke-miterlimit:4;stroke-dasharray:none;stroke-opacity:1"
         d="m 331.72168,-467.47217 c 0,0 39.46777,-11.45166 39.46777,-11.45166" />
      <path
         id="path436"
         style="fill:none;stroke:#9096a1;stroke-width:1.81190002;stroke-linecap:butt;stroke-linejoin:miter;stroke-miterlimit:4;stroke-dasharray:none;stroke-opacity:1"
         d="m 326.0918,-469.90186 c 0,0 39.46875,-11.44677 39.46875,-11.44677" />
      <path
         id="path438"
         style="fill:none;stroke:#9096a1;stroke-width:1.81190002;stroke-linecap:butt;stroke-linejoin:miter;stroke-miterlimit:4;stroke-dasharray:none;stroke-opacity:1"
         d="m 348.68066,-488.63232 c 0,0 -31.40332,9.10498 -31.40332,9.10498" />
      <path
         id="path440"
         style="fill:none;stroke:#9096a1;stroke-width:1.81190002;stroke-linecap:butt;stroke-linejoin:miter;stroke-miterlimit:4;stroke-dasharray:none;stroke-opacity:1"
         d="m 343.05273,-491.06152 c 0,0 -30.82226,8.94238 -30.82226,8.94238" />
      <path
         id="path442"
         style="fill:none;stroke:#9096a1;stroke-width:1.81190002;stroke-linecap:butt;stroke-linejoin:miter;stroke-miterlimit:4;stroke-dasharray:none;stroke-opacity:1"
         d="m 359.93555,-483.78076 c 0,0 -31.40039,9.11181 -31.40039,9.11181" />
      <path
         id="path444"
         style="fill:none;stroke:#9096a1;stroke-width:1.81190002;stroke-linecap:butt;stroke-linejoin:miter;stroke-miterlimit:4;stroke-dasharray:none;stroke-opacity:1"
         d="m 354.30469,-486.20313 c 0,0 -30.8291,8.94043 -30.8291,8.94043" />
      <path
         id="path446"
         style="fill:none;stroke:#9096a1;stroke-width:1.81190002;stroke-linecap:butt;stroke-linejoin:miter;stroke-miterlimit:4;stroke-dasharray:none;stroke-opacity:1"
         d="m 337.42383,-493.48877 c 0,0 -31.11524,9.02002 -31.11524,9.02002" />
      <path
         id="path448"
         style="fill:none;stroke:#9096a1;stroke-width:1.81190002;stroke-linecap:butt;stroke-linejoin:miter;stroke-miterlimit:4;stroke-dasharray:none;stroke-opacity:1"
         d="m 331.79883,-495.91797 c 0,0 -30.83106,8.94287 -30.83106,8.94287" />
      <path
         id="path450"
         style="fill:none;stroke:#9096a1;stroke-width:1.81190002;stroke-linecap:butt;stroke-linejoin:miter;stroke-miterlimit:4;stroke-dasharray:none;stroke-opacity:1"
         d="m 286.70215,-486.89502 c 0,0 39.46973,-11.45264 39.46973,-11.45264" />
      <path
         id="path452"
         style="fill:none;stroke:#9096a1;stroke-width:1.81190002;stroke-linecap:butt;stroke-linejoin:miter;stroke-miterlimit:4;stroke-dasharray:none;stroke-opacity:1"
         d="m 281.07813,-489.32764 c 0,0 39.458,-11.44043 39.458,-11.44043" />
      <path
         id="path454"
         style="fill:#ffffff;fill-opacity:1;fill-rule:nonzero;stroke:none"
         d="m 318.62793,-515.23438 c 0,0 1.74707,6.58594 1.74707,6.58594 0,0 71.46191,30.23047 71.46191,30.23047 3.40332,-0.229 6.06543,-1.46338 6.74805,-6.01855 0,0 12.50977,-70.31494 12.50977,-70.31494 0.68652,-4.55616 -0.125,-9.96143 -4.01856,-11.26026 0,0 -62.99023,-24.34326 -62.99023,-24.34326 -2.25977,-0.89844 -9.23926,-1.62549 -12.72168,-0.80225" />
      <path
         id="path456"
         style="fill:none;stroke:#9096a1;stroke-width:1.89830005;stroke-linecap:butt;stroke-linejoin:miter;stroke-miterlimit:4;stroke-dasharray:none;stroke-opacity:1"
         d="m 318.62793,-515.23438 c 0,0 1.74707,6.58594 1.74707,6.58594 0,0 71.46191,30.23047 71.46191,30.23047 3.40332,-0.229 6.06543,-1.46338 6.74805,-6.01855 0,0 12.50977,-70.31494 12.50977,-70.31494 0.68652,-4.55616 -0.125,-9.96143 -4.01856,-11.26026 0,0 -62.99023,-24.34326 -62.99023,-24.34326 -2.25977,-0.89844 -9.23926,-1.62549 -12.72168,-0.80225" />
      <path
         id="path458"
         style="fill:#ffffff;fill-opacity:1;fill-rule:nonzero;stroke:none"
         d="m 331.90918,-581.27783 c 0.80078,-5.26074 1.9834,-6.82862 4.58789,-5.24414 0,0 64.85645,23.89795 64.85645,23.89795 2.60156,1.58349 4.24511,6.00146 3.65429,9.8667 0,0 -11.29492,65.98486 -11.29492,65.98486 -0.58789,3.86572 -2.45703,4.1748 -5.06445,2.59277 0,0 -64.83399,-27.20508 -64.83399,-27.20508 -2.46093,-1.11328 -2.82519,-2.61767 -2.23437,-6.48291 0,0 10.3291,-63.41015 10.3291,-63.41015 z m -2.89746,-4.57569 c 0,0 -11,68.85498 -11,68.85498 -0.68848,4.51807 0.81641,6.88526 3.34277,8.4209 0,0 68.84082,29.4458 68.84082,29.4458 2.53223,1.53711 5.13867,-0.88476 5.82129,-5.40527 0,0 12.50684,-69.85449 12.50684,-69.85449 0.68554,-4.51807 -1.24512,-8.60352 -3.77149,-10.1377 0,0 -69.7373,-25.97998 -69.7373,-25.97998 -3.70801,-1.14697 -4.76856,-0.33691 -6.00293,4.65576 z" />
      <path
         id="path460"
         style="fill:none;stroke:#9096a1;stroke-width:1.89830005;stroke-linecap:butt;stroke-linejoin:miter;stroke-miterlimit:4;stroke-dasharray:none;stroke-opacity:1"
         d="m 331.90918,-581.27783 c 0.80078,-5.26074 1.9834,-6.82862 4.58789,-5.24414 0,0 64.85645,23.89795 64.85645,23.89795 2.60156,1.58349 4.24511,6.00146 3.65429,9.8667 0,0 -11.29492,65.98486 -11.29492,65.98486 -0.58789,3.86572 -2.45703,4.1748 -5.06445,2.59277 0,0 -64.83399,-27.20508 -64.83399,-27.20508 -2.46093,-1.11328 -2.82519,-2.61767 -2.23437,-6.48291 0,0 10.3291,-63.41015 10.3291,-63.41015 z m -2.89746,-4.57569 c 0,0 -11,68.85498 -11,68.85498 -0.68848,4.51807 0.81641,6.88526 3.34277,8.4209 0,0 68.84082,29.4458 68.84082,29.4458 2.53223,1.53711 5.13867,-0.88476 5.82129,-5.40527 0,0 12.50684,-69.85449 12.50684,-69.85449 0.68554,-4.51807 -1.24512,-8.60352 -3.77149,-10.1377 0,0 -69.7373,-25.97998 -69.7373,-25.97998 -3.70801,-1.14697 -4.76856,-0.33691 -6.00293,4.65576 z" />
      <path
         id="path462"
         style="fill:none;stroke:#9096a1;stroke-width:1.94400001;stroke-linecap:butt;stroke-linejoin:miter;stroke-miterlimit:4;stroke-dasharray:none;stroke-opacity:1"
         d="m 653.77539,-298.13672 c 0,0 0,77.85645 0,77.85645 0,0 -61.45801,31.58105 -61.45801,31.58105 0,0 -33.59375,-13.47266 -33.59375,-13.47266 0,0 0,-78.33007 0,-78.33007" />
      <path
         id="path464"
         style="fill:#ffffff;fill-opacity:1;fill-rule:nonzero;stroke:none"
         d="m 700.17773,-278.94141 c 0,0 0,77.85547 0,77.85547 0,0 -61.458,31.58203 -61.458,31.58203 0,0 -33.59375,-13.47461 -33.59375,-13.47461 0,0 0,-78.32812 0,-78.32812" />
      <path
         id="path466"
         style="fill:none;stroke:#9096a1;stroke-width:1.94400001;stroke-linecap:butt;stroke-linejoin:miter;stroke-miterlimit:4;stroke-dasharray:none;stroke-opacity:1"
         d="m 700.17773,-278.94141 c 0,0 0,77.85547 0,77.85547 0,0 -61.458,31.58203 -61.458,31.58203 0,0 -33.59375,-13.47461 -33.59375,-13.47461 0,0 0,-78.32812 0,-78.32812" />
      <path
         id="path468"
         style="fill:none;stroke:#9096a1;stroke-width:1.94400001;stroke-linecap:butt;stroke-linejoin:miter;stroke-miterlimit:4;stroke-dasharray:none;stroke-opacity:1"
         d="m 592.31738,-267.08203 c 0,0 61.45801,-31.58203 61.45801,-31.58203 0,0 -33.59473,-13.47266 -33.59473,-13.47266 0,0 -61.45703,31.58106 -61.45703,31.58106 0,0 33.59375,13.47363 33.59375,13.47363 z" />
      <path
         id="path470"
         style="fill:none;stroke:#9096a1;stroke-width:2.06779003;stroke-linecap:butt;stroke-linejoin:miter;stroke-miterlimit:4;stroke-dasharray:none;stroke-opacity:1"
         d="m 592.39258,-267.48535 c 0,0 0,78.69629 0,78.69629" />
      <path
         id="path472"
         style="fill:#ffffff;fill-opacity:1;fill-rule:nonzero;stroke:none"
         d="m 638.71973,-247.8877 c 0,0 61.458,-31.58105 61.458,-31.58105 0,0 -33.59472,-13.47266 -33.59472,-13.47266 0,0 -61.45703,31.58008 -61.45703,31.58008 0,0 33.59375,13.47363 33.59375,13.47363 z" />
      <path
         id="path474"
         style="fill:none;stroke:#9096a1;stroke-width:1.94400001;stroke-linecap:butt;stroke-linejoin:miter;stroke-miterlimit:4;stroke-dasharray:none;stroke-opacity:1"
         d="m 638.71973,-247.8877 c 0,0 61.458,-31.58105 61.458,-31.58105 0,0 -33.59472,-13.47266 -33.59472,-13.47266 0,0 -61.45703,31.58008 -61.45703,31.58008 0,0 33.59375,13.47363 33.59375,13.47363 z" />
      <path
         id="path476"
         style="fill:none;stroke:#9096a1;stroke-width:2.06779003;stroke-linecap:butt;stroke-linejoin:miter;stroke-miterlimit:4;stroke-dasharray:none;stroke-opacity:1"
         d="m 638.79492,-248.29102 c 0,0 0,78.69532 0,78.69532" />
      <path
         id="path478"
         style="fill:none;stroke:#ffffff;stroke-width:1.01038003;stroke-linecap:butt;stroke-linejoin:miter;stroke-miterlimit:4;stroke-dasharray:none;stroke-opacity:1"
         d="m 1283.2822,-2.16602 c 0,0 -1150.10105,0 -1150.10105,0 0,0 0,-605.84472 0,-605.84472 0,0 1150.10105,0 1150.10105,0 0,0 0,605.84472 0,605.84472 z" />
    </g>
  </g>
</svg>
