<svg xmlns="http://www.w3.org/2000/svg" viewBox="0 0 1183.75 858.44"><defs><style>.cls-1,.cls-11,.cls-15,.cls-17,.cls-19,.cls-4,.cls-8{fill:none;}.cls-1{stroke:#80b4d9;stroke-width:10px;}.cls-10,.cls-12,.cls-13,.cls-14,.cls-16,.cls-18,.cls-2,.cls-20,.cls-3,.cls-5,.cls-6,.cls-7,.cls-9{fill:#fff;}.cls-10,.cls-11,.cls-12,.cls-13,.cls-14,.cls-15,.cls-16,.cls-17,.cls-18,.cls-19,.cls-2,.cls-20,.cls-3,.cls-4,.cls-5,.cls-6,.cls-7,.cls-8,.cls-9{stroke:#9ea2ac;}.cls-13,.cls-2,.cls-6,.cls-9{stroke-linejoin:round;}.cls-2,.cls-7{stroke-width:6.31px;}.cls-10,.cls-11,.cls-12,.cls-14,.cls-15,.cls-16,.cls-17,.cls-3,.cls-4,.cls-5,.cls-7,.cls-8{stroke-linejoin:bevel;}.cls-3,.cls-4{stroke-width:4.99px;}.cls-16,.cls-17,.cls-5{stroke-width:4.72px;}.cls-6{stroke-width:6.98px;}.cls-8{stroke-width:4.51px;}.cls-14,.cls-9{stroke-width:4.36px;}.cls-10,.cls-11{stroke-width:3.45px;}.cls-12{stroke-width:3.26px;}.cls-13{stroke-width:4.82px;}.cls-15{stroke-width:3.12px;}.cls-16{stroke-linecap:round;}.cls-18,.cls-19{stroke-width:4.22px;}.cls-20{stroke-width:4.42px;}</style></defs><title>Element 2</title><g id="Ebene_2" data-name="Ebene 2"><g id="Ebene_20" data-name="Ebene 20"><line class="cls-1" x1="404.89" y1="693.17" x2="814.89" y2="633.17"/><line class="cls-1" x1="842.89" y1="627.17" x2="948.89" y2="269.17"/><line class="cls-1" x1="888.89" y1="249.17" x2="404.89" y2="641.17"/></g><g id="Ebene_21" data-name="Ebene 21"><path class="cls-2" d="M919.58,355.29l-15.29,61.36c-1.06,4.28,1.22,8.41,5.12,9.22l1.13.24c3.89.81,7.91-2,9-6.28l18.35-73.65Z"/><path class="cls-3" d="M1085.48,662,918.3,734.12,810.42,702.81l167.2-72.11Z"/><line class="cls-4" x1="896.09" y1="727.68" x2="1062.16" y2="656.02"/><line class="cls-4" x1="873.86" y1="721.23" x2="1040.52" y2="649.34"/><line class="cls-4" x1="852.69" y1="715.49" x2="1019.88" y2="643.36"/><line class="cls-4" x1="830.49" y1="709.05" x2="998.23" y2="636.68"/><line class="cls-4" x1="932.05" y1="728.19" x2="823.38" y2="696.66"/><line class="cls-4" x1="947.55" y1="721.5" x2="838.88" y2="689.98"/><line class="cls-4" x1="885.36" y1="669.92" x2="971.83" y2="694.99"/><line class="cls-4" x1="900.85" y1="663.23" x2="985.72" y2="687.86"/><line class="cls-4" x1="854.37" y1="683.28" x2="940.83" y2="708.37"/><line class="cls-4" x1="869.87" y1="676.61" x2="954.76" y2="701.23"/><line class="cls-4" x1="916.35" y1="656.55" x2="1002.03" y2="681.39"/><line class="cls-4" x1="931.84" y1="649.86" x2="1016.74" y2="674.48"/><line class="cls-4" x1="1056.01" y1="674.7" x2="947.33" y2="643.17"/><line class="cls-4" x1="1071.5" y1="668.01" x2="962.85" y2="636.51"/><path class="cls-5" d="M754.22,567.24l18.59,106.52M740.6,565.56l18.68,105,13.53,2.77,188-81.1L942.63,493.8,931.22,498l-15.63-89.13L751,471.35M916,408.46c-3.8-3.8-11.27-2.65-16.89-.42L741.55,468.45"/><path class="cls-5" d="M740.28,566.46l13.09,1.26,12.68-5.07-16.48-90.82s-7.18-6.76-11.4-.84c-.25.34,16.05,89.13,16.05,89.13Z"/><path class="cls-6" d="M727.23,412l4.52,69.76c.31,4.87,4.11,8.44,8.48,8l1.27-.13c4.37-.45,7.66-4.76,7.34-9.63l-5.42-83.72Z"/><polygon class="cls-7" points="926.15 566.03 796.88 620.53 771.12 474.79 901.65 424.52 926.15 566.03"/><path class="cls-8" d="M758.89,692.17l183-78,211,62L972.46,755.28,757.89,693.17v-20l-42-11s-25-7,36-24"/><line class="cls-8" x1="940.89" y1="612.17" x2="940.89" y2="601.17"/><path class="cls-8" d="M710.89,657.17s-1,26,1,34,6,10,6,10l256.57,77.11,177.81-77.77-.93-24.06"/><path class="cls-9" d="M1021.34,8.48,1010.77,50.9c-.73,3,.85,5.81,3.54,6.37l.78.16a5.53,5.53,0,0,0,6.21-4.34L1034,2.18Z"/><path class="cls-10" d="M1136,220.49l-115.56,49.86-74.58-21.64,115.58-49.85Z"/><line class="cls-11" x1="1005.1" y1="265.9" x2="1119.9" y2="216.36"/><line class="cls-11" x1="989.74" y1="261.44" x2="1104.94" y2="211.75"/><line class="cls-11" x1="975.1" y1="257.47" x2="1090.68" y2="207.61"/><line class="cls-11" x1="959.75" y1="253.02" x2="1075.71" y2="202.99"/><line class="cls-11" x1="1029.96" y1="266.25" x2="954.84" y2="244.45"/><line class="cls-11" x1="1040.68" y1="261.62" x2="965.55" y2="239.84"/><line class="cls-11" x1="997.68" y1="225.97" x2="1057.46" y2="243.3"/><line class="cls-11" x1="1008.4" y1="221.35" x2="1067.06" y2="238.37"/><line class="cls-11" x1="976.26" y1="235.21" x2="1036.03" y2="252.55"/><line class="cls-11" x1="986.98" y1="230.6" x2="1045.66" y2="247.61"/><line class="cls-11" x1="1019.11" y1="216.73" x2="1078.33" y2="233.9"/><line class="cls-11" x1="1029.82" y1="212.11" x2="1088.5" y2="229.13"/><line class="cls-11" x1="1115.65" y1="229.28" x2="1040.53" y2="207.48"/><line class="cls-11" x1="1126.36" y1="224.65" x2="1051.25" y2="202.87"/><path class="cls-12" d="M907,155l12.85,73.63m-22.26-74.79,12.91,72.59,9.35,1.91,129.95-56.07-12.56-68-7.88,2.92-10.81-61.61L904.77,88.71m114.11-43.48c-2.63-2.62-7.8-1.83-11.69-.29L898.27,86.7"/><path class="cls-12" d="M897.39,154.45l9.06.88,8.76-3.51L903.82,89s-5-4.67-7.88-.59c-.17.24,11.09,61.62,11.09,61.62Z"/><path class="cls-13" d="M888.37,47.67l3.13,48.22c.22,3.36,2.84,5.84,5.86,5.52l.88-.09c3-.31,5.3-3.29,5.08-6.65l-3.75-57.88Z"/><polygon class="cls-14" points="1025.88 154.16 936.53 191.83 918.71 91.08 1008.95 56.33 1025.88 154.16"/><path class="cls-15" d="M910.26,241.35l126.5-53.92,145.86,42.86L1057.9,285,909.57,242V228.22l-29-7.61s-17.28-4.84,24.89-16.59"/><line class="cls-15" x1="1036.07" y1="186.05" x2="1036.07" y2="178.45"/><path class="cls-15" d="M877.08,217.16s-.69,18,.69,23.5,4.15,6.91,4.15,6.91l177.36,53.31,122.91-53.76-.64-16.63"/><path class="cls-2" d="M234.94,433.29l15.29,61.36c1.06,4.28-1.22,8.41-5.12,9.22l-1.13.24c-3.89.81-7.91-2-9-6.28l-18.35-73.65Z"/><path class="cls-3" d="M176.9,708.7l167.21,72.11L236.22,812.12,69,740Z"/><line class="cls-4" x1="258.43" y1="805.68" x2="92.36" y2="734.02"/><line class="cls-4" x1="280.66" y1="799.23" x2="114.01" y2="727.34"/><line class="cls-4" x1="301.83" y1="793.49" x2="134.64" y2="721.36"/><line class="cls-4" x1="324.03" y1="787.05" x2="156.29" y2="714.68"/><line class="cls-4" x1="222.47" y1="806.19" x2="331.14" y2="774.66"/><line class="cls-4" x1="206.97" y1="799.5" x2="315.64" y2="767.98"/><line class="cls-4" x1="269.16" y1="747.92" x2="182.7" y2="772.99"/><line class="cls-4" x1="253.67" y1="741.23" x2="168.8" y2="765.86"/><line class="cls-4" x1="300.15" y1="761.28" x2="213.69" y2="786.37"/><line class="cls-4" x1="284.65" y1="754.61" x2="199.76" y2="779.23"/><line class="cls-4" x1="238.17" y1="734.55" x2="152.49" y2="759.39"/><line class="cls-4" x1="222.68" y1="727.86" x2="137.79" y2="752.48"/><line class="cls-4" x1="98.51" y1="752.7" x2="207.19" y2="721.17"/><line class="cls-4" x1="83.02" y1="746.01" x2="191.67" y2="714.51"/><path class="cls-16" d="M381.71,751.76,400.3,645.24M238.93,486.89,223.3,576l-11.41-4.22-18.16,98.43,188,81.1,13.53-2.77,18.68-105,.32.9L401,637.93l16.47-90.82L255.4,486c-5.61-2.23-13.09-3.38-16.89.42"/><polyline class="cls-17" points="414.24 644.46 401.15 645.72 388.47 640.65 404.95 549.83 237.88 486.84"/><path class="cls-6" d="M427.29,490l-4.52,69.76c-.31,4.87-4.11,8.44-8.48,8L413,567.6c-4.37-.45-7.66-4.76-7.34-9.63l5.42-83.72Z"/><polygon class="cls-7" points="228.37 644.03 357.63 698.53 383.4 552.79 252.87 502.52 228.37 644.03"/><path class="cls-8" d="M395.64,770.17l-183-78-211,62,180.42,79.11,214.58-62.11v-20l42-11s25-7-36-24"/><line class="cls-8" x1="213.64" y1="690.17" x2="213.64" y2="679.17"/><path class="cls-8" d="M443.64,735.17s1,26-1,34-6,10-6,10L180.06,856.28,2.25,778.51l.93-24.06"/><path class="cls-18" d="M24.78,261.16c1.55,12.64-.25,16.63,8.27,20.5l140.61,66.47c8.52,3.87,19.5,7,32.41,3.67L360,307.5s13.32-2.24,11-21.34"/><path class="cls-18" d="M182.34,214.06l-145,40.76c-12.46,3.34-15.67,9.21-7.15,13.08l146.48,66.73c8.51,3.88,25.5,4.31,38,1l145-40.77c12.48-3.34,15.67-9.2,7.17-13.08L220.31,215C211.79,211.15,194.78,210.71,182.34,214.06Zm-54.67,63.86c6-1.61,14.16-1.4,18.25.46l23.47,10.69c4.08,1.87,2.56,4.69-3.44,6.3L137.68,303c-6,1.61-14.15,1.4-18.24-.47L96,291.79c-4.06-1.85-2.54-4.68,3.44-6.28Zm67-54,140.2,63.85-91.79,24.64L102.89,248.53Z"/><line class="cls-19" x1="261.97" y1="307.33" x2="122.72" y2="243.88"/><line class="cls-19" x1="280.88" y1="302.25" x2="141.14" y2="238.6"/><line class="cls-19" x1="298.89" y1="297.75" x2="158.7" y2="233.89"/><line class="cls-19" x1="317.78" y1="292.68" x2="177.13" y2="228.6"/><line class="cls-19" x1="231.54" y1="307.14" x2="324" y2="282.32"/><line class="cls-19" x1="218.54" y1="301.21" x2="311.01" y2="276.41"/><line class="cls-19" x1="272.03" y1="258.65" x2="198.46" y2="278.38"/><line class="cls-19" x1="259.04" y1="252.73" x2="186.83" y2="272.11"/><line class="cls-19" x1="298.02" y1="270.48" x2="224.46" y2="290.23"/><line class="cls-19" x1="285.02" y1="264.57" x2="212.79" y2="283.95"/><line class="cls-19" x1="246.04" y1="246.81" x2="173.15" y2="266.36"/><line class="cls-19" x1="233.06" y1="240.89" x2="160.83" y2="260.27"/><line class="cls-19" x1="127.6" y1="259.79" x2="220.06" y2="234.96"/><line class="cls-19" x1="114.61" y1="253.85" x2="207.05" y2="229.06"/><path class="cls-20" d="M203.29,195.28l3.76,15.42,165,73.77c7.94-.38,14.2-3.12,16-13.7l32.35-158.89c1.82-10.57.18-23.2-8.83-26.41L266,25.81c-5.22-2.2-21.44-4.22-29.59-2.46"/><path class="cls-20" d="M230.7,35.59,201.93,191.14c-1.81,10.49,1.58,16.08,7.39,19.77l159,71.82c5.83,3.7,12-1.82,13.81-12.32L414.42,112.6c1.8-10.49-2.5-20.1-8.31-23.79L244.9,25C236.32,22.18,233.81,24,230.7,35.59Zm6.54,10.79c2.11-12.21,4.94-15.81,10.93-12L398.1,93.09c6,3.81,9.61,14.18,8,23.15L376.83,265.1c-1.55,9-5.92,9.61-11.92,5.8L215.19,204.49c-5.68-2.71-6.46-6.23-4.9-15.2Z"/></g></g></svg>