<?xml version="1.0" encoding="utf-8"?>
<!-- Generator: Adobe Illustrator 19.2.1, SVG Export Plug-In . SVG Version: 6.00 Build 0)  -->
<svg version="1.1" id="Ebene_1" xmlns="http://www.w3.org/2000/svg" xmlns:xlink="http://www.w3.org/1999/xlink" x="0px" y="0px"
	 viewBox="0 0 4259.1 1919.6" style="enable-background:new 0 0 4259.1 1919.6;" xml:space="preserve">
<style type="text/css">
	.st0{fill:none;stroke:#5F99B8;stroke-width:38;}
	.st1{fill:none;stroke:#5F99B8;stroke-width:38;stroke-dasharray:50.1844,25.0922;}
	.st2{fill:none;stroke:#5F99B8;stroke-width:38;stroke-dasharray:50.9415,25.4707;}
	.st3{fill:none;stroke:#5F99B8;stroke-width:38;stroke-dasharray:50.073,25.0365;}
	.st4{fill:none;stroke:#5F99B8;stroke-width:38;stroke-dasharray:50.912,25.456;}
	.st5{fill:none;stroke:#5F99B8;stroke-width:38;stroke-dasharray:50.854,25.427;}
	.st6{fill:none;stroke:#5F99B8;stroke-width:38;stroke-dasharray:50.6036,25.3018;}
	.st7{fill:none;}
	.st8{fill:none;stroke:#5F99B8;stroke-width:38;stroke-dasharray:49.7099,24.8549;}
	.st9{fill:none;stroke:#5F99B8;stroke-width:38;stroke-dasharray:49.5516,24.7758;}
	.st10{fill:none;stroke:#000000;stroke-width:26;}
	.st11{fill:#FFFFFF;stroke:#000000;stroke-width:26;stroke-miterlimit:10;}
	.st12{fill:none;stroke:#000000;stroke-width:4.7181;}
	.st13{fill:#FFFFFF;stroke:#000000;stroke-width:4.7;stroke-miterlimit:10;}
	.st14{fill:#FFFFFF;stroke:#000000;stroke-width:4.7181;}
	.st15{fill:#FFFFFF;stroke:#000000;stroke-width:4.4675;}
	.st16{fill:none;stroke:#000000;stroke-width:4.4675;}
	.st17{fill:none;stroke:#000000;stroke-width:4.3186;}
	.st18{fill:#FFFFFF;stroke:#000000;stroke-width:4.3186;}
	.st19{fill:#FFFFFF;stroke:#000000;stroke-width:4.5752;}
	.st20{stroke:#000000;stroke-width:4.5752;}
	.st21{fill:none;stroke:#000000;stroke-width:4.5752;}
	.st22{fill:#FFFFFF;stroke:#000000;stroke-width:4.4867;}
	.st23{stroke:#000000;stroke-width:4.4867;}
	.st24{fill:none;stroke:#000000;stroke-width:4.4867;}
	.st25{fill:#FFFFFF;stroke:#000000;stroke-width:4.774;}
	.st26{stroke:#000000;stroke-width:4.774;}
	.st27{fill:none;stroke:#000000;stroke-width:4.774;}
</style>
<g>
	<g>
		<path class="st0" d="M700.6,1266.7c-7.7-3.6-15.2-7.3-22.4-11.1"/>
		<path class="st1" d="M656.2,1243.5c-95.3-55.7-145.3-124.2-142.4-127.9c8.3-10.5,607-471.1,962.7,496.3"/>
		<path class="st0" d="M1480.8,1623.6c2.8,7.8,5.6,15.6,8.4,23.6c6.2-4.6,12.5-10.1,18.9-16.4"/>
		<path class="st2" d="M1525.3,1612.1c188.5-221.2,473.8-1080,1086.9-1198.2"/>
		<path class="st0" d="M2624.8,411.6c8.2-1.4,16.4-2.7,24.7-3.9"/>
	</g>
</g>
<g>
	<g>
		<path class="st0" d="M3813.3,1143.4c-7,4.9-13.7,9.7-20.3,14.6"/>
		<path class="st3" d="M3773.1,1173.3c-216.6,171.3-224.5,351.5-853.7,476.2c-191.8,38-519-526-1169.8-737.9
			c-680.4-221.5-1334.4,127.8-1337.7,114c-3.4-14.3,897.9-313.4,1849.3-286.4c1078.6,30.6,1591.4,469.7,1600,448.4
			c9.3-23.1-697.9-465.6-1384-212.4c-381,140.6-1120.8,884.6-956,653.4c327.5-459.6,160.9-952.2,90.3-1073"/>
		<path class="st0" d="M1604.8,544.9c-7.8-11.8-13.9-17.8-17.2-17.2"/>
	</g>
</g>
<g>
	<g>
		<path class="st0" d="M519.9,1043.6c-1.8-5-1-13.4,2.2-24.6"/>
		<path class="st4" d="M530.9,995.1c83.2-194.4,586.3-831.9,1014.7-532.1"/>
		<path class="st0" d="M1555.9,470.4c6.6,4.9,13.2,10,19.8,15.3c3.3-7.7,6.7-15.3,10.2-22.8"/>
		<path class="st5" d="M1597.2,440.1C1839-22.3,2589.4-58.7,2738.4,276.4"/>
		<path class="st0" d="M2743.3,288.1c3,7.7,5.7,15.6,8.1,23.6c7.3-4.3,14.5-8.5,21.6-12.6"/>
		<path class="st6" d="M2795.1,286.8c805.4-438.7,938.3,606.7,942.4,821.3"/>
		<path class="st0" d="M3737.6,1120.8c-0.1,14.5-1,23.2-2.4,24.7"/>
	</g>
</g>
<g>
	<path class="st7" d="M1521.7,1709.4"/>
</g>
<g>
	<path class="st7" d="M1107.8,1061.6"/>
</g>
<g>
	<g>
		<path class="st0" d="M2919.4,1649.5c-8.4-0.7-16.7-1.5-24.9-2.3"/>
		<path class="st8" d="M2869.8,1644.8c-497.5-48.3-783.5-135-1312.9,51.9"/>
		<path class="st0" d="M1545.2,1700.9c-7.8,2.8-15.6,5.6-23.5,8.5"/>
	</g>
</g>
<g>
	<path class="st7" d="M3645.2,1151.6"/>
</g>
<g>
	<g>
		<path class="st0" d="M1633.2,439.2c3.4-7,7.7-14.1,12.9-21.4"/>
		<path class="st9" d="M1661.8,398.6c91.9-101.2,334.3-207.4,503.4-163.4c261.2,68,586.3,983.8,652.1,1176.6"/>
		<path class="st0" d="M2821.3,1423.5c5.2,15.3,7.9,23.7,7.9,23.7"/>
	</g>
</g>
<path class="st10" d="M649.6,1281.7c0,0,121.9,61.2,84.7,77.6c-37.2,16.4-146.6-4.6-146.6-4.6"/>
<path class="st10" d="M656.3,1292.6c0,0,130.7,93.9,182.4,15.5c35.3-53.5,178-12.4,107.6,73.6c-28.6,34.9-114.8,37.7-114.8,37.7"/>
<g>
	<polygon class="st11" points="708,1389 225,1256.9 55.6,1351.4 55.6,1352.3 60.1,1370.9 546.2,1502 707.7,1427.6 	"/>
	<path class="st11" d="M849.9,1435.1c-22.7-31.3-67.1-31.3-96.3-17.4c-33.7,16.1-68.7,59.3-51.3,83c6.1,8.2,37.9,30.8,71.8,15.4
		C809.3,1500.2,866,1457.2,849.9,1435.1z"/>
	<path class="st11" d="M289.1,1187.3l208.3,57.7l-0.3,28.9l-27.8-7.4l-65.2,27.3L597,1345l65.2-27.3l-87-23.1l0.2-27.9l191.9,53.2
		h3.1l24.9-19.9l-4.9-412l-473.6-96.7l-33.6,12.6v1.6L289.1,1187.3z"/>
</g>
<path class="st10" d="M2730.8,501.9c0,0-115.6,47.3-82.8,64.9c32.8,17.6,134.1,6.1,134.1,6.1"/>
<path class="st10" d="M2829.9,479.7c0,0,304.7,22.5,195.4-37.2c-92.2-50.5,38.2-66.5,112.9-19.6c30.4,19.1-39.3,50.6,39,74.7
	c1,0.3,12.6-12.3,30.3,0"/>
<path class="st11" d="M3243.1,497c-23.1-12.4-58.9-13.6-78,11.7c-8.4,11.1,5.5,29.6,23.8,45.5l-111.5-63.4l-444.5,116.1l1.4,36.3
	l147.2,69.4l445.9-116.1l3.8-15.3c24.1,7.4,46-7.8,50.6-13.8C3296.7,548.1,3269.8,511.3,3243.1,497z"/>
<g>
	<path class="st11" d="M3337.9,1634.4l-295.3-89.5c-18.1-5.3-41-6.7-59-4.3l8.5-3.6l1-3.8c8.5-7.4,13-18.2,10.3-36.1l-52.5-328.7
		c-3.2-12.7-3-16.2-11.2-25.3s-49.9-0.5-60.7,3.8l-300.8,116.3c-18.6,6.2-22.5,32-19.2,53.8l59.7,335.6c3.3,21.7,16,27.6,32.2,28.7
		l4.2-1.8c0.3-0.1,0.7-0.2,1-0.3c-4,3.1-5.1,6.6-3.4,10.1c-3,35,22.1,39.7,22.1,39.7l313.5,97.1c26.3,7.4,48.9,1.4,66.6-6.2
		l290.8-130.3c23.8-10,15.6-41.5,15.6-41.5C3358.7,1643.1,3350.7,1638.1,3337.9,1634.4z"/>
	<path class="st11" d="M4211.7,1254.9l-3.7-2.3c-1.7-1.7-3.9-3.4-6.5-4.9l-445.6-272.5c-21.3-12.8-66.2-16.6-101.1-8.8
		c-3,0.5-5.9,1.1-8.7,1.8l-199.9,46.4c-42.6,9.9-55.3,26.4-46.7,38.8c0.1,5,3.7,10,11.1,14.4l445,286.8c21.8,13.1,83.1,17.9,117,9
		l216.8-59.7c23.2-6.1,35.1-16.5,33.3-26.6C4226.4,1269.7,4223.1,1261.7,4211.7,1254.9z"/>
	<path class="st11" d="M1795.3,1528.8l-196.1-45.5c-2.8-0.7-5.6-1.2-8.6-1.7c-34.3-7.7-78.3-4-99.2,8.6l-437,267.2
		c-2.6,1.6-4.7,3.2-6.4,4.8l-3.7,2.2c-11.1,6.7-14.4,14.6-10.6,22c-1.8,9.9,9.9,20,32.7,26.1l212.6,58.6
		c33.2,8.8,93.3,4.1,114.7-8.8l436.3-281.2c7.3-4.4,10.8-9.3,10.9-14.1C1849.5,1554.7,1837,1538.5,1795.3,1528.8z"/>
	<path class="st11" d="M1907.2,289.3c-2.9-10-16-18.5-37.8-22.7L1654.1,236c-38.4-7.3-74.7,1.9-99,20.5l-370.7,283.9
		c-6.4,4.9-10.2,9.9-11.8,14.8c-5.9,12.9,1.4,30.7,2.4,31.6c1.2,1.4,2.6,2.8,4.3,4.2c6.1,6.2,17.1,11.4,32.5,14.3L1443,649
		c37.6,7.1,86.9-1.5,110.2-19.4l338.1-295.4c5.1-3.9,8.6-8,10.4-12C1910.8,311.9,1913.1,299.4,1907.2,289.3z"/>
</g>
<path class="st12" d="M649.6,1281.7c0,0,121.9,61.2,84.7,77.6c-37.2,16.4-146.6-4.6-146.6-4.6"/>
<polygon class="st13" points="597,1345 404.1,1293.8 469.3,1266.5 662.2,1317.7 "/>
<polygon class="st14" points="558.6,1313.7 496.9,1297.5 497.8,1195.6 559.5,1211.8 "/>
<polygon class="st14" points="575.1,1304.8 562.7,1312.5 563.6,1211.9 576,1204.3 "/>
<polygon class="st14" points="546.2,1502 60.1,1370.9 55.6,1352.3 708,1389 707.7,1427.6 "/>
<polygon class="st14" points="540.1,1482.4 55.6,1351.4 225,1256.9 709.6,1388 "/>
<polygon class="st14" points="217.1,1279.5 94.3,1344.9 369,1416.9 482.5,1349.9 "/>
<polygon class="st14" points="555,1373.7 448.3,1438.8 545.6,1461.3 652.9,1397.3 "/>
<line class="st12" x1="119.2" y1="1329.7" x2="389.3" y2="1400.1"/>
<line class="st12" x1="151.9" y1="1311.4" x2="421.9" y2="1383.3"/>
<line class="st12" x1="189.1" y1="1294.7" x2="453" y2="1366.6"/>
<line class="st12" x1="128.3" y1="1352.9" x2="249.5" y2="1289"/>
<line class="st12" x1="187.1" y1="1345.7" x2="280.4" y2="1297"/>
<line class="st12" x1="227.3" y1="1353.8" x2="315.9" y2="1305.1"/>
<line class="st12" x1="265.9" y1="1365" x2="348.3" y2="1314.6"/>
<line class="st12" x1="296.7" y1="1373" x2="376" y2="1322.6"/>
<line class="st12" x1="329.1" y1="1382.5" x2="410" y2="1332.2"/>
<line class="st12" x1="338.2" y1="1404.3" x2="442.4" y2="1341.8"/>
<line class="st12" x1="481.7" y1="1442.6" x2="584.3" y2="1381.7"/>
<line class="st12" x1="517.2" y1="1450.7" x2="618.3" y2="1389.7"/>
<line class="st12" x1="534.8" y1="1389" x2="628.9" y2="1411.5"/>
<line class="st12" x1="509.9" y1="1404.2" x2="601" y2="1426.7"/>
<line class="st12" x1="483.5" y1="1419.5" x2="573" y2="1441.9"/>
<path class="st14" d="M849.9,1435.1c16,22.1-40.6,65.1-75.7,81c-34,15.4-65.8-7.1-71.8-15.4c-17.5-23.8,17.5-67,51.3-83
	C782.8,1403.7,827.2,1403.7,849.9,1435.1z"/>
<path class="st14" d="M751,1420.3c17-2.9,75.9-14.8,83.1,53.3"/>
<path class="st12" d="M656.3,1292.6c0,0,130.7,93.9,182.4,15.5c35.3-53.5,178-12.4,107.6,73.6c-28.6,34.9-114.8,37.7-114.8,37.7
	s-12.2-14-34,2.8"/>
<polygon class="st14" points="795.4,1300 770.5,1319.9 283.4,804 317,791.4 790.5,888 "/>
<polygon class="st14" points="767.4,1319.9 289.1,1187.3 283.4,805.5 763.7,901.3 "/>
<polygon class="st12" points="744.6,1270.2 312.6,1155 304.8,833.6 741.9,924.3 "/>
<path class="st15" d="M2653.2,1684.8c-5.6,39,21.6,44.2,21.6,44.2l313.5,97.1c26.3,7.4,48.9,1.4,66.6-6.2l290.8-130.3
	c17.6-7.6,14.1-15.8,17.8-41.7"/>
<path class="st15" d="M2964.7,1545.3l-302.8,130.6c-17.6,7.6-11.3,19.7,14.1,27.1l295.3,89.5c25.4,7.4,60.3,7.2,77.9-0.4
	l302.8-130.7c17.6-7.6,11.3-19.7-14.1-27.1l-295.3-89.5C3017.2,1537.5,2982.3,1537.7,2964.7,1545.3z M3209.5,1694.7
	c12.2,3.5,15.2,9.4,6.8,13l-48.5,20.9c-8.5,3.7-25.2,3.7-37.4,0.2l-57.6-16.7c-12.2-3.5-15.2-9.4-6.8-13l48.5-20.9
	c8.5-3.7,25.2-3.7,37.4-0.2L3209.5,1694.7z M3203.9,1618.8l-289.8,125l-187-54.3l289.9-125L3203.9,1618.8z"/>
<line class="st16" x1="2875.6" y1="1732.7" x2="3163.5" y2="1608.4"/>
<line class="st16" x1="2837" y1="1721.5" x2="3125.9" y2="1596.9"/>
<line class="st16" x1="2800.3" y1="1711.5" x2="3090.2" y2="1586.5"/>
<line class="st16" x1="2761.8" y1="1700.4" x2="3052.6" y2="1574.9"/>
<line class="st16" x1="2937.9" y1="1733.5" x2="2749.5" y2="1678.9"/>
<line class="st16" x1="2964.8" y1="1721.9" x2="2776.4" y2="1667.3"/>
<line class="st16" x1="2857" y1="1632.5" x2="3006.9" y2="1676"/>
<line class="st16" x1="2883.8" y1="1620.9" x2="3030.9" y2="1663.6"/>
<line class="st16" x1="2803.2" y1="1655.7" x2="2953.1" y2="1699.2"/>
<line class="st16" x1="2830.1" y1="1644.1" x2="2977.3" y2="1686.8"/>
<line class="st16" x1="2910.7" y1="1609.4" x2="3059.2" y2="1652.4"/>
<line class="st16" x1="2937.5" y1="1597.8" x2="3084.7" y2="1640.4"/>
<line class="st16" x1="3152.8" y1="1640.8" x2="2964.4" y2="1586.2"/>
<line class="st16" x1="3179.6" y1="1629.2" x2="2991.3" y2="1574.6"/>
<path class="st15" d="M3000.4,1505.6l-8.3,31.4L2651,1681.3c-16.2-1.1-29-7-32.2-28.7l-59.7-335.6c-3.3-21.7,0.6-47.6,19.2-53.8
	L2879,1147c10.8-4.3,44.1-7.8,60.7-3.8"/>
<path class="st15" d="M2922.2,1146.2l-332.9,124c-12.1,7.3-21.3,26.8-18,48.4L2631,1652c3.3,21.6,15.7,33.1,27.8,25.8l328.6-140.6
	c12.1-7.3,19.2-18.6,16-40.2l-52.5-328.7C2944.9,1144.6,2939.9,1140.8,2922.2,1146.2z M2986.3,1493c2.8,18.4,1.1,25.6-10.7,30.9
	l-309.4,129.9c-12.4,7.6-21.4,6.1-24.2-12.4l-53.9-315c-2.8-18.5,5-39.5,17.4-47.1l309.6-114.1c12.4-7.6,18.1-0.1,21.9,25
	L2986.3,1493z"/>
<path class="st17" d="M2730.8,501.9c0,0-115.6,47.3-82.8,64.9c32.8,17.6,134.1,6.1,134.1,6.1"/>
<path class="st18" d="M3165.1,508.7c-13.6,17.9,30.8,55.2,58.6,69.4c26.9,13.7,53.2-4.1,58.3-10.7c14.7-19.2-12.2-56.1-38.9-70.3
	C3220,484.7,3184.2,483.4,3165.1,508.7z"/>
<path class="st18" d="M3245.1,499.3c-13.6-2.9-60.7-14.4-68.4,41.9"/>
<path class="st17" d="M2829.9,479.7c0,0,304.7,22.5,195.4-37.2c-92.2-50.5,38.2-66.5,112.9-19.6c30.4,19.1-39.3,50.6,39,74.7
	c1,0.3,12.6-12.3,30.3,0"/>
<polygon class="st18" points="2781.5,712.6 3227.5,596.5 3231.7,579.5 2634.3,607.8 2634.3,643.2 "/>
<polygon class="st18" points="2787.2,694.7 3231.7,578.6 3077.4,490.8 2632.9,606.9 "/>
<polygon class="st18" points="2927.4,548.7 3039.2,609.6 2787.2,673.3 2683.9,611 "/>
<polygon class="st18" points="3080.4,509.6 3182.8,567.9 3090.4,592.7 2988.4,532 "/>
<line class="st17" x1="3016.6" y1="595.5" x2="2768.8" y2="657.7"/>
<line class="st17" x1="2986.8" y1="578.5" x2="2739.1" y2="642.2"/>
<line class="st17" x1="2952.9" y1="562.9" x2="2710.8" y2="626.6"/>
<line class="st17" x1="3008.1" y1="616.7" x2="2897.7" y2="557.2"/>
<line class="st17" x1="2954.3" y1="609.6" x2="2869.3" y2="564.3"/>
<line class="st17" x1="2917.5" y1="616.7" x2="2836.8" y2="571.4"/>
<line class="st17" x1="2882.1" y1="626.6" x2="2807" y2="579.9"/>
<line class="st17" x1="2853.8" y1="633.7" x2="2781.6" y2="587"/>
<line class="st17" x1="2824" y1="642.2" x2="2750.4" y2="595.5"/>
<line class="st17" x1="2815.5" y1="662" x2="2720.7" y2="604"/>
<line class="st17" x1="3155.2" y1="574.8" x2="3053.5" y2="516.7"/>
<line class="st17" x1="3122.1" y1="581.7" x2="3022.4" y2="523.8"/>
<line class="st17" x1="3098.9" y1="523.8" x2="3012.5" y2="543.6"/>
<line class="st17" x1="3129" y1="538.9" x2="3042.1" y2="559.1"/>
<line class="st17" x1="3155.2" y1="552.7" x2="3064.8" y2="573.3"/>
<path class="st19" d="M3972.4,1363.6c-33.9,9-95.1,4.1-117-9l-445-286.8c-21.6-13-10.7-30.4,24.5-38.8l227.5-46
	c35.2-8.4,81.3-4.7,102.9,8.4l445.6,272.4c21.8,13.1,12,31-21.9,40L3972.4,1363.6z"/>
<path class="st19" d="M3968.3,1355.4c-35.7,9.5-89.3,4.4-112.4-9.4l-448.5-285.6c-20.6-12.3-12.5-33.8,38.8-45.7l199.9-46.4
	c37.1-8.9,89.9-4,112.8,9.8l452.9,276.9c23.1,13.9,12.9,32.8-22.9,42.2L3968.3,1355.4z"/>
<path class="st19" d="M3970.1,1343c-33.9,9-84.9,4.2-106.7-8.9l-440.6-280.9c-21.6-13-10.7-30.4,24.5-38.8l205.6-47.5
	c35.2-8.4,81.3-4.7,102.9,8.4l445.6,272.4c21.8,13.1,12,31-21.9,40L3970.1,1343z"/>
<path class="st19" d="M3600.6,992.8c0.9,0.5,0.4,1.3-1,1.6l-54.1,12.9c-1.5,0.3-3.4,0.2-4.3-0.3l0,0c-0.9-0.5-0.4-1.3,1-1.6
	l54.1-12.9C3597.8,992.1,3599.7,992.3,3600.6,992.8L3600.6,992.8z"/>
<path class="st19" d="M3531,1010.1c2.2,1.3,1.1,3.1-2.5,4c-3.6,0.9-8.4,0.5-10.7-0.9c-2.2-1.3-1.1-3.1,2.5-4
	C3524,1008.4,3528.8,1008.8,3531,1010.1z"/>
<path class="st19" d="M3617,987.6c0.9,0.5,0.1,1.3-1.7,1.8c-1.8,0.4-4,0.3-4.9-0.2c-0.9-0.5-0.1-1.3,1.7-1.8
	C3613.9,987,3616.1,987.1,3617,987.6z"/>
<polygon class="st19" points="4167,1235.1 3855.1,1317.6 3438.8,1053.3 3750.8,980.3 "/>
<ellipse transform="matrix(3.303709e-03 -1 1 3.303709e-03 2736.7524 5333.1499)" class="st19" cx="4043.8" cy="1293.7" rx="13.6" ry="37.1"/>
<ellipse transform="matrix(3.325703e-03 -1 1 3.325703e-03 2736.4988 5332.9346)" class="st19" cx="4043.6" cy="1293.7" rx="11.8" ry="33.2"/>
<g>
	<path class="st19" d="M4095.1,1317.4l-30.2,7.7c-0.3,0.1-0.6,0.2-0.9,0.3l27.6-7c3.1-0.8,5.7,0.3,5.8,2.5c0.1,2.2-2.3,4.6-5.4,5.3
		l-30.1,7.6c-0.2,0-0.3,0.1-0.5,0.1c1,0.4,2.3,0.5,3.7,0.2l30.2-7.7c3.1-0.8,5.6-3.5,5.6-6
		C4100.8,1317.9,4098.3,1316.6,4095.1,1317.4z"/>
	<path class="st20" d="M4092,1326.2c3.1-0.8,5.5-3.2,5.4-5.3c-0.1-2.2-2.7-3.3-5.8-2.5l-27.6,7c-2.7,1-4.7,3.4-4.7,5.7
		c0,1.4,0.8,2.4,2.1,2.9c0.2,0,0.3,0,0.5-0.1L4092,1326.2z"/>
</g>
<path class="st21" d="M4100.9,1320.4c0.1,2.5-2.4,5.2-5.6,6l-30.2,7.7c-3.1,0.8-5.7-0.6-5.8-3.1l0,0c-0.1-2.5,2.4-5.2,5.6-6
	l30.2-7.7C4098.3,1316.6,4100.8,1317.9,4100.9,1320.4L4100.9,1320.4z"/>
<path class="st22" d="M1279.1,1871c33.2,8.8,93.3,4.1,114.7-8.8l436.3-281.2c21.2-12.8,10.5-29.8-24.1-38l-223.1-45.1
	c-34.5-8.2-79.7-4.6-100.9,8.2l-437,267.2c-21.4,12.8-11.8,30.4,21.4,39.2L1279.1,1871z"/>
<path class="st22" d="M1283.2,1863c35,9.3,87.6,4.3,110.2-9.2l439.9-280.1c20.2-12.1,12.3-33.1-38-44.8l-196.1-45.6
	c-36.4-8.7-88.2-3.9-110.7,9.6l-444.1,271.5c-22.7,13.6-12.6,32.1,22.4,41.4L1283.2,1863z"/>
<path class="st22" d="M1281.3,1850.8c33.2,8.8,83.3,4.1,104.7-8.7l432.1-275.5c21.2-12.8,10.5-29.8-24.1-38l-201.6-46.6
	c-34.5-8.2-79.7-4.6-100.9,8.2l-437,267.2c-21.4,12.8-11.8,30.4,21.4,39.2L1281.3,1850.8z"/>
<g>
	<path class="st22" d="M1158.8,1825.6l29.7,7.6c0.3,0.1,0.6,0.2,0.9,0.3l-27-6.8c-3.1-0.8-5.6,0.3-5.7,2.4s2.3,4.5,5.3,5.2l29.5,7.4
		c0.2,0,0.3,0.1,0.5,0.1c-1,0.4-2.2,0.5-3.6,0.2l-29.7-7.6c-3.1-0.8-5.5-3.4-5.5-5.8C1153.2,1826.2,1155.7,1824.8,1158.8,1825.6z"/>
	<path class="st23" d="M1161.9,1834.3c-3.1-0.8-5.4-3.1-5.3-5.2c0.1-2.1,2.7-3.2,5.7-2.4l27,6.8c2.6,1,4.6,3.3,4.6,5.5
		c0,1.3-0.8,2.3-2,2.8c-0.2,0-0.3,0-0.5-0.1L1161.9,1834.3z"/>
</g>
<path class="st24" d="M1153.1,1828.6c-0.1,2.4,2.4,5.1,5.5,5.8l29.7,7.6c3.1,0.8,5.6-0.6,5.7-3l0,0c0.1-2.4-2.4-5.1-5.5-5.8
	l-29.7-7.6C1155.7,1824.8,1153.2,1826.2,1153.1,1828.6L1153.1,1828.6z"/>
<path class="st22" d="M1775.8,1533.9l-90.9-20.6c-4.1,2.5-9.5,4.8-15.6,6.3c-15.1,3.8-29,1.8-31-4.4c-1.1-3.4,1.6-7.4,6.8-10.9
	l-56.5-12.8c-34-8.1-78.4-4.5-99.3,8.1l-423.5,256.2c-21.1,12.6-11.6,26.5,21.1,35.2l184.8,49.6c32.7,8.7,90.1,6.5,111.2-6.1
	l416.5-266.4C1826.7,1550.2,1818.9,1541.6,1775.8,1533.9z"/>
<path class="st22" d="M1667.5,1508.9c0.2,1.6-2.7,3.1-6.6,3.4c-3.9,0.3-7.2-0.7-7.4-2.2c-0.2-1.6,2.7-3.1,6.6-3.4
	C1664,1506.4,1667.3,1507.3,1667.5,1508.9z"/>
<path class="st25" d="M1443,649c37.6,7.1,86.9-1.5,110.2-19.4l338.1-295.4c23.3-17.8,11.7-38.1-25.9-45.2l-210.2-29.5
	c-37.6-7.1-72.4,1.6-95.6,19.4l-373.8,281.2c-23.2,17.8-11.6,38.1,26,45.2L1443,649z"/>
<path class="st25" d="M1440.3,646.8c38.4,7.3,89.3-1.8,113.5-20.4l340.5-297.2c24.3-18.6,22.9-49.3-15.6-56.6l-225.4-20.9
	c-38.4-7.3-74.7,1.9-99,20.5l-374.5,274.7c-17.1,11.4-6,38.9-4.7,40c5.8,7.1,17.4,12.9,34.3,16.1L1440.3,646.8z"/>
<path class="st25" d="M1818.3,390.7c0.2,2.1,1.7,2.5,3.5,1l34.7-30.5c1.7-1.5,3-4.4,2.8-6.5l0,0c-0.2-2.1-1.7-2.5-3.5-1l-34.8,30.5
	C1819.3,385.7,1818.1,388.6,1818.3,390.7L1818.3,390.7z"/>
<path class="st25" d="M1763.2,438.5c0.2,2.1,1.7,2.5,3.5,1l34.7-30.5c1.7-1.5,3-4.4,2.8-6.5l0,0c-0.2-2.1-1.7-2.5-3.5-1L1766,432
	C1764.3,433.5,1763.1,436.5,1763.2,438.5L1763.2,438.5z"/>
<path class="st25" d="M1219.2,598.1c0.8,3.6,3.8,6.2,6.7,5.9s4.6-3.5,3.8-7.1c-0.8-3.6-3.8-6.2-6.7-5.9
	C1220.1,591.4,1218.4,594.5,1219.2,598.1z"/>
<g>
	<path class="st25" d="M1222.5,591.1c-1,1.3-1.5,3.3-1,5.5c0.8,3.6,3.8,6.2,6.7,5.9c0.1,0,0.2-0.1,0.3-0.1c-0.7,0.9-1.7,1.5-2.8,1.6
		c-2.9,0.3-5.9-2.3-6.7-5.9C1218.2,594.7,1219.8,591.6,1222.5,591.1z"/>
	<path class="st26" d="M1221.5,596.6c-0.5-2.2,0-4.2,1-5.5c0.1,0,0.2-0.1,0.3-0.1c2.9-0.3,5.9,2.3,6.7,5.9c0.5,2.2,0,4.2-1,5.5
		c-0.1,0-0.2,0.1-0.3,0.1C1225.3,602.8,1222.3,600.2,1221.5,596.6z"/>
</g>
<path class="st25" d="M1355.3,622.3c0.2,2.1-1.2,3.6-3,3.2l-37-6.9c-1.8-0.3-3.5-2.3-3.7-4.5l0,0c-0.2-2.1,1.2-3.6,3-3.2l37,6.9
	C1353.5,618.2,1355.1,620.2,1355.3,622.3L1355.3,622.3z"/>
<path class="st25" d="M1441.2,631.1c38.4,7.3,89.3-1.9,113.5-20.4l340.5-297.2c24.3-18.6,12.8-39.6-25.7-46.8l-215.3-30.6
	c-38.4-7.3-74.7,1.9-99,20.5l-370.8,283.8c-24.3,18.6-12.7,39.6,25.7,46.9L1441.2,631.1z"/>
<path class="st25" d="M1441.6,628.4c37.6,7.1,86.9-1.5,110.2-19.4l338.1-295.4c34.1-26.1-0.1-40.3-25.9-45.2l-210.2-29.7
	c-37.6-7.1-72.4,1.6-95.6,19.4l-368.4,282.2c-23.3,17.8-11.7,38.1,25.9,45.2L1441.6,628.4z"/>
<path class="st25" d="M1647.5,251.1c-2.4,1.8-1.2,3.9,2.5,4.6c3.8,0.7,8.8-0.2,11.1-2c2.4-1.8,1.2-3.9-2.5-4.6
	C1654.9,248.4,1649.9,249.3,1647.5,251.1z"/>
<path class="st25" d="M1791.1,275.9c-1.4,1.1-0.3,2.4,2.5,2.9c2.8,0.5,6.3,0.1,7.7-1s0.3-2.4-2.5-2.9
	C1796,274.4,1792.5,274.8,1791.1,275.9z"/>
<polygon class="st25" points="1206.7,539.1 1544.1,603.1 1872.9,314.9 1565.7,264.1 "/>
<path class="st25" d="M1308.8,578.4c-4.6,3.5-2.8,7.5,4.1,8.8l66.7,12.7c6.9,1.3,16.1-0.5,20.8-4l2.6-2c4.6-3.5,2.8-7.5-4.1-8.8
	l-66.7-12.8c-6.9-1.3-16.1,0.5-20.8,4L1308.8,578.4z"/>
<path class="st25" d="M1243.2,560l7,1.3l1.3-1l9.4,3.7l-13.5-0.6l1.6-1.2l-7-1.3c-2.7-0.5-6.3,0.1-8,1.4c-1.7,1.3-0.9,2.8,1.8,3.3
	l12.5,2.4l-1.3,1l-12.5-2.4c-3.8-0.7-4.9-2.8-2.6-4.6C1234.4,560.2,1239.4,559.3,1243.2,560z"/>
<polygon class="st25" points="1481.1,616.8 1451.2,611.1 1463.2,601.9 1493,607.6 "/>
<polyline class="st27" points="1449.6,609.8 1461.6,600.7 1491.5,606.3 "/>
<path class="st25" d="M1686.4,260.3c-1.2,1.1-0.5,2.2,1.4,2.5l72.3,11.1c1.9,0.3,4.5-0.4,5.7-1.5l0,0c1.2-1.1,0.6-2.2-1.4-2.5
	l-71.5-10.7C1691,258.9,1687.6,259.2,1686.4,260.3L1686.4,260.3z"/>
<path class="st11" d="M3026.4,73.8L2995.7,62l-438.5,86.8l-5.6,371.7l22.7,18.4h2.8l175.8-44.3v28.9l-76.1,19.5l59.5,25.5l177-45.3
	l-59.5-25.5l-25.5,6.5v-28.5l191.8-48.3L3026.4,73.8z"/>
<polygon class="st13" points="2736.2,568.4 2913.2,523.1 2853.7,497.6 2676.8,542.9 "/>
<polygon class="st18" points="2769.7,539.6 2828.3,525.8 2828.3,432.5 2769.7,446.4 "/>
<polygon class="st18" points="2752.9,531.9 2766.3,538.9 2766.3,446.9 2752.9,439.8 "/>
<polygon class="st18" points="2551.6,520.5 2574.3,538.9 3026.4,73.8 2995.7,62 2557.2,148.8 "/>
<polygon class="st18" points="2577.1,538.9 3020.1,427.3 3026.4,75.2 2581.6,161.1 "/>
<polygon class="st17" points="2598.3,493.6 3002.3,392.7 3006.5,100.7 2601.4,182.4 "/>
</svg>
