<svg id="Ebene_1" data-name="Ebene 1" xmlns="http://www.w3.org/2000/svg" xmlns:xlink="http://www.w3.org/1999/xlink" viewBox="0 0 1801.38 1055.09"><defs><style>.cls-1,.cls-10,.cls-11,.cls-12,.cls-13,.cls-14,.cls-15,.cls-16,.cls-17,.cls-18,.cls-19,.cls-20,.cls-21,.cls-22,.cls-23,.cls-24,.cls-25,.cls-26,.cls-27,.cls-28,.cls-30,.cls-6,.cls-64,.cls-66,.cls-67,.cls-7,.cls-75,.cls-8,.cls-88,.cls-9{fill:none;}.cls-2{clip-path:url(#clip-path);}.cls-3,.cls-31,.cls-68{isolation:isolate;}.cls-4{clip-path:url(#clip-path-2);}.cls-5{fill:#fff;}.cls-6,.cls-7{stroke:#9199a3;}.cls-6{stroke-width:2.85px;}.cls-7{stroke-width:2.99px;}.cls-10,.cls-8,.cls-9{stroke:#878e94;}.cls-8{stroke-width:3.08px;}.cls-9{stroke-width:2.9px;}.cls-10{stroke-width:3.01px;}.cls-11,.cls-12,.cls-13,.cls-14,.cls-15,.cls-16,.cls-17,.cls-18,.cls-19,.cls-20,.cls-21,.cls-22,.cls-23,.cls-24,.cls-25,.cls-26,.cls-27{stroke:#8a919a;}.cls-11{stroke-width:3.64px;}.cls-12{stroke-width:2.59px;}.cls-13{stroke-width:2.78px;}.cls-14{stroke-width:2.86px;}.cls-15{stroke-width:2.16px;}.cls-16{stroke-width:2.34px;}.cls-17{stroke-width:2.14px;}.cls-18{stroke-width:3.28px;}.cls-19{stroke-width:3.54px;}.cls-20{stroke-width:6.65px;}.cls-21{stroke-width:5.22px;}.cls-22{stroke-width:3.94px;}.cls-23{stroke-width:3.92px;}.cls-24{stroke-width:6px;}.cls-25{stroke-width:6.26px;}.cls-26{stroke-width:6.12px;}.cls-27{stroke-width:6.47px;}.cls-28,.cls-64,.cls-66{stroke:#231f20;}.cls-28{stroke-width:1.4px;}.cls-29{fill:#73add1;}.cls-30,.cls-75,.cls-88{stroke:#73add1;}.cls-30{stroke-width:6.58px;}.cls-31{opacity:0.55;}.cls-32{clip-path:url(#clip-path-12);}.cls-33{clip-path:url(#clip-path-13);}.cls-34,.cls-40{font-size:15.94px;}.cls-34,.cls-42,.cls-65,.cls-89{fill:#231f20;}.cls-34,.cls-40,.cls-42{font-family:LucidaSans-Demi, LucidaSans Demi;}.cls-35{letter-spacing:-0.04em;}.cls-36{letter-spacing:0em;}.cls-37{letter-spacing:0em;}.cls-38{letter-spacing:0em;}.cls-39{letter-spacing:0.02em;}.cls-40,.cls-41{fill:#929497;}.cls-42{font-size:15.94px;}.cls-43{letter-spacing:-0.01em;}.cls-44{letter-spacing:-0.01em;}.cls-45{letter-spacing:-0.01em;}.cls-46{letter-spacing:0em;}.cls-47{letter-spacing:0em;}.cls-48{letter-spacing:0em;}.cls-49{letter-spacing:0.01em;}.cls-50{letter-spacing:-0.01em;}.cls-51{letter-spacing:-0.01em;}.cls-52{letter-spacing:0.01em;}.cls-53{letter-spacing:0em;}.cls-54{letter-spacing:0em;}.cls-55{letter-spacing:-0.01em;}.cls-56{letter-spacing:0em;}.cls-57{letter-spacing:-0.01em;}.cls-58{letter-spacing:0em;}.cls-59{letter-spacing:0em;}.cls-60{letter-spacing:0.01em;}.cls-61{letter-spacing:-0.02em;}.cls-62{letter-spacing:-0.01em;}.cls-63{letter-spacing:-0.01em;}.cls-64{stroke-width:1.17px;}.cls-66{stroke-width:0.63px;}.cls-67{stroke:#fff;stroke-width:0.91px;}.cls-68{opacity:0.68;}.cls-69{clip-path:url(#clip-path-19);}.cls-70{clip-path:url(#clip-path-20);}.cls-71{clip-path:url(#clip-path-23);}.cls-72{clip-path:url(#clip-path-24);}.cls-73{clip-path:url(#clip-path-27);}.cls-74{clip-path:url(#clip-path-28);}.cls-75{stroke-width:14.89px;}.cls-76{clip-path:url(#clip-path-31);}.cls-77{clip-path:url(#clip-path-32);}.cls-78{clip-path:url(#clip-path-35);}.cls-79{clip-path:url(#clip-path-36);}.cls-80{clip-path:url(#clip-path-39);}.cls-81{clip-path:url(#clip-path-40);}.cls-82{clip-path:url(#clip-path-43);}.cls-83{clip-path:url(#clip-path-44);}.cls-84{clip-path:url(#clip-path-47);}.cls-85{clip-path:url(#clip-path-48);}.cls-86{clip-path:url(#clip-path-51);}.cls-87{clip-path:url(#clip-path-52);}.cls-88{stroke-width:16.83px;}.cls-89{font-size:73.37px;font-family:LucidaGrande-Bold, Lucida Grande;font-weight:700;}</style><clipPath id="clip-path" transform="translate(-51.9 -24.91)"><rect class="cls-1" x="51.83" y="24.91" width="1801.64" height="1055.09"/></clipPath><clipPath id="clip-path-2" transform="translate(-51.9 -24.91)"><rect class="cls-1" x="51.83" y="24.91" width="1802.49" height="1055.09"/></clipPath><clipPath id="clip-path-12" transform="translate(-51.9 -24.91)"><rect class="cls-1" x="482.36" y="578.29" width="188.29" height="20.67"/></clipPath><clipPath id="clip-path-13" transform="translate(-51.9 -24.91)"><rect class="cls-1" x="483.26" y="579.19" width="187.37" height="19.29"/></clipPath><clipPath id="clip-path-19" transform="translate(-51.9 -24.91)"><rect class="cls-1" x="926.67" y="326.86" width="32.15" height="31"/></clipPath><clipPath id="clip-path-20" transform="translate(-51.9 -24.91)"><rect class="cls-1" x="927.33" y="326.99" width="30.71" height="30.72"/></clipPath><clipPath id="clip-path-23" transform="translate(-51.9 -24.91)"><rect class="cls-1" x="894.53" y="278.64" width="96.44" height="35.59"/></clipPath><clipPath id="clip-path-24" transform="translate(-51.9 -24.91)"><rect class="cls-1" x="894.92" y="278.81" width="95.54" height="35.31"/></clipPath><clipPath id="clip-path-27" transform="translate(-51.9 -24.91)"><rect class="cls-1" x="865.82" y="237.3" width="153.84" height="48.22"/></clipPath><clipPath id="clip-path-28" transform="translate(-51.9 -24.91)"><rect class="cls-1" x="865.97" y="237.91" width="153.44" height="47.25"/></clipPath><clipPath id="clip-path-31" transform="translate(-51.9 -24.91)"><rect class="cls-1" x="1242.4" y="333.74" width="32.15" height="31"/></clipPath><clipPath id="clip-path-32" transform="translate(-51.9 -24.91)"><rect class="cls-1" x="1243.19" y="333.98" width="30.69" height="30.72"/></clipPath><clipPath id="clip-path-35" transform="translate(-51.9 -24.91)"><rect class="cls-1" x="1210.25" y="285.52" width="96.44" height="35.59"/></clipPath><clipPath id="clip-path-36" transform="translate(-51.9 -24.91)"><rect class="cls-1" x="1210.77" y="285.79" width="95.53" height="35.31"/></clipPath><clipPath id="clip-path-39" transform="translate(-51.9 -24.91)"><rect class="cls-1" x="1181.55" y="244.19" width="153.84" height="48.22"/></clipPath><clipPath id="clip-path-40" transform="translate(-51.9 -24.91)"><rect class="cls-1" x="1181.81" y="244.89" width="153.44" height="47.25"/></clipPath><clipPath id="clip-path-43" transform="translate(-51.9 -24.91)"><rect class="cls-1" x="1624.71" y="113.31" width="32.15" height="32.15"/></clipPath><clipPath id="clip-path-44" transform="translate(-51.9 -24.91)"><rect class="cls-1" x="1625.34" y="114" width="30.7" height="30.72"/></clipPath><clipPath id="clip-path-47" transform="translate(-51.9 -24.91)"><rect class="cls-1" x="1592.56" y="65.09" width="96.44" height="36.74"/></clipPath><clipPath id="clip-path-48" transform="translate(-51.9 -24.91)"><rect class="cls-1" x="1592.92" y="65.81" width="95.54" height="35.31"/></clipPath><clipPath id="clip-path-51" transform="translate(-51.9 -24.91)"><rect class="cls-1" x="1563.86" y="24.91" width="153.84" height="48.22"/></clipPath><clipPath id="clip-path-52" transform="translate(-51.9 -24.91)"><rect class="cls-1" x="1563.98" y="24.91" width="153.43" height="47.25"/></clipPath></defs><title>join-free-qaul-net</title><g class="cls-2"><g class="cls-3"><g class="cls-4"><g class="cls-2"><g class="cls-4"><path class="cls-5" d="M1208.37,533.77c-2.12,14.78,8.18,16.73,8.18,16.73l118.67,36.78c10,2.78,18.52.52,25.19-2.34l110.08-49.37c6.67-2.88,5.33-6,6.74-15.78" transform="translate(-51.9 -24.91)"/><path class="cls-6" d="M1208.37,533.77c-2.12,14.78,8.18,16.73,8.18,16.73l118.67,36.78c10,2.78,18.52.52,25.19-2.34l110.08-49.37c6.67-2.88,5.33-6,6.74-15.78" transform="translate(-51.9 -24.91)"/><path class="cls-5" d="M1326.31,480.93l-114.64,49.48c-6.66,2.88-4.27,7.47,5.35,10.26l111.79,33.9c9.63,2.79,22.81,2.72,29.48-.16l114.64-49.48c6.66-2.87,4.27-7.47-5.34-10.26l-111.81-33.9c-9.6-2.79-22.8-2.71-29.47.16M1419,537.51c4.61,1.34,5.75,3.55,2.57,4.93l-18.38,7.93c-3.2,1.38-9.54,1.42-14.15.08l-21.81-6.33c-4.62-1.34-5.76-3.55-2.56-4.94l18.36-7.92c3.2-1.39,9.54-1.42,14.16-.07Zm-2.13-28.74-109.71,47.35-70.8-20.55,109.73-47.35Z" transform="translate(-51.9 -24.91)"/><path class="cls-6" d="M1326.31,480.93l-114.64,49.48c-6.66,2.88-4.27,7.47,5.35,10.26l111.79,33.9c9.63,2.79,22.81,2.72,29.48-.16l114.64-49.48c6.66-2.87,4.27-7.47-5.35-10.26l-111.8-33.9C1346.18,478,1333,478.06,1326.31,480.93ZM1419,537.51c4.61,1.34,5.75,3.55,2.57,4.93l-18.38,7.93c-3.2,1.38-9.54,1.42-14.15.08l-21.81-6.33c-4.62-1.34-5.76-3.55-2.56-4.94l18.36-7.92c3.2-1.39,9.54-1.42,14.16-.07Zm-2.13-28.74-109.71,47.35-70.8-20.55,109.73-47.35Z" transform="translate(-51.9 -24.91)"/><line class="cls-6" x1="1240.66" y1="526.99" x2="1349.65" y2="479.94"/><line class="cls-6" x1="1226.08" y1="522.75" x2="1335.44" y2="475.55"/><line class="cls-6" x1="1212.19" y1="518.98" x2="1321.9" y2="471.62"/><line class="cls-6" x1="1197.62" y1="514.75" x2="1307.69" y2="467.24"/><line class="cls-6" x1="1264.27" y1="527.32" x2="1192.95" y2="506.61"/><line class="cls-6" x1="1274.44" y1="522.93" x2="1203.12" y2="502.23"/><line class="cls-6" x1="1233.62" y1="489.06" x2="1290.37" y2="505.52"/><line class="cls-6" x1="1243.79" y1="484.67" x2="1299.49" y2="500.84"/><line class="cls-6" x1="1213.29" y1="497.83" x2="1270.02" y2="514.31"/><line class="cls-6" x1="1223.46" y1="493.45" x2="1279.17" y2="509.62"/><line class="cls-6" x1="1253.96" y1="480.28" x2="1310.19" y2="496.59"/><line class="cls-6" x1="1264.13" y1="475.89" x2="1319.84" y2="492.06"/><line class="cls-6" x1="1345.61" y1="492.2" x2="1274.3" y2="471.5"/><line class="cls-6" x1="1355.78" y1="487.81" x2="1284.48" y2="467.12"/><path class="cls-5" d="M1339.83,465.88l-3.16,11.91-129.13,54.65c-6.15-.42-11-2.65-12.19-10.88l-22.61-127.12c-1.24-8.24.23-18,7.26-20.36l113.82-44c4.09-1.62,16.7-2.94,23-1.45" transform="translate(-51.9 -24.91)"/><path class="cls-7" d="M1339.83,465.88l-3.16,11.91-129.13,54.65c-6.15-.42-11-2.65-12.19-10.88l-22.61-127.12c-1.24-8.24.23-18,7.26-20.36l113.82-44c4.09-1.62,16.7-2.94,23-1.45" transform="translate(-51.9 -24.91)"/><path class="cls-5" d="M1310.22,329.79l-126,47c-4.56,2.77-8,10.16-6.81,18.33L1200,521.38c1.23,8.17,5.94,12.55,10.51,9.77l124.4-53.24c4.56-2.77,7.28-7.05,6-15.22l-19.88-124.48c-2.23-9-4.14-10.49-10.84-8.42m24.27,131.33c1.07,7,.41,9.71-4,11.72L1213.3,522c-4.71,2.86-8.09,2.3-9.15-4.69L1183.74,398c-1.07-7,1.9-15,6.6-17.84l117.2-43.2c4.7-2.86,6.84,0,8.29,9.48Z" transform="translate(-51.9 -24.91)"/><path class="cls-7" d="M1310.22,329.79l-126,47c-4.56,2.77-8,10.16-6.81,18.33L1200,521.38c1.23,8.17,5.94,12.55,10.52,9.77l124.39-53.24c4.56-2.77,7.28-7.05,6-15.22l-19.88-124.48C1318.83,329.18,1316.91,327.72,1310.22,329.79Zm24.27,131.33c1.07,7,.41,9.71-4,11.72L1213.3,522c-4.71,2.86-8.09,2.3-9.15-4.69L1183.74,398c-1.07-7,1.9-15,6.6-17.84l117.2-43.2c4.7-2.86,6.84,0,8.29,9.48Z" transform="translate(-51.9 -24.91)"/><path class="cls-5" d="M761.44,461.39c-6.31,5.1,0,3.94,3.19,4.74l107,27.19a15.55,15.55,0,0,0,10.66-1.68l173.31-110.72c2.69-1.73,2.3-3.77-.89-4.57L947.22,350.8a15.64,15.64,0,0,0-10.67,1.67Z" transform="translate(-51.9 -24.91)"/><path class="cls-8" d="M761.44,461.39c-6.31,5.1,0,3.94,3.19,4.74l107,27.19a15.55,15.55,0,0,0,10.66-1.68l173.31-110.72c2.69-1.73,2.3-3.77-.89-4.57L947.22,350.8a15.64,15.64,0,0,0-10.67,1.67Z" transform="translate(-51.9 -24.91)"/><polygon class="cls-8" points="749.2 422.87 843.74 446.52 979.53 356.91 888.73 334.31 749.2 422.87"/><path class="cls-9" d="M863.64,476.51c-3.4,2.17-2.89,4.74,1.12,5.75a19.69,19.69,0,0,0,13.43-2.11c3.4-2.18,2.9-4.75-1.12-5.75A19.64,19.64,0,0,0,863.64,476.51Zm-74.53-18.65c-3.4,2.17-2.9,4.75,1.12,5.75a19.63,19.63,0,0,0,13.43-2.11c3.4-2.17,2.9-4.75-1.12-5.75A19.63,19.63,0,0,0,789.11,457.86Zm37.27,9.33c-3.4,2.17-2.9,4.74,1.12,5.75a19.66,19.66,0,0,0,13.43-2.12c3.39-2.17,2.89-4.74-1.12-5.75A19.64,19.64,0,0,0,826.38,467.19Z" transform="translate(-51.9 -24.91)"/><path class="cls-5" d="M765.2,491.24l99.85,28.82c8.92,2.16,7.74,3.74,18.55-2.84L1052,405.76c2.73-1.81,5.88-5.86,6.22-9l.52-12.82c0-4.28,0-6.77-2.43-7.09L881,493.91a18,18,0,0,1-10.5,1.35L763.73,464.93c-2.3-.6-5.12,0-5.47,3.06l1.69,15.2c-.9,4.48,2.95,7.45,5.25,8.05" transform="translate(-51.9 -24.91)"/><path class="cls-10" d="M765.2,491.24l99.85,28.82c8.92,2.16,7.74,3.74,18.55-2.84L1052,405.76c2.73-1.81,5.88-5.86,6.22-9l.52-12.82c0-4.28,0-6.77-2.43-7.09L881,493.91a18,18,0,0,1-10.5,1.35L763.73,464.93c-2.3-.6-5.12,0-5.47,3.06l1.69,15.2C759.05,487.67,762.9,490.64,765.2,491.24Z" transform="translate(-51.9 -24.91)"/><path class="cls-11" d="M1609.29,296.1s-50.52,20.68-36.18,28.36,58.62,2.65,58.62,2.65" transform="translate(-51.9 -24.91)"/><path class="cls-5" d="M1799.07,299.11c-5.93,7.83,13.47,24.12,25.62,30.32,11.76,6,23.23-1.77,25.46-4.68,6.45-8.41-5.32-24.52-17-30.76-10.1-5.41-25.72-5.95-34.09,5.12" transform="translate(-51.9 -24.91)"/><path class="cls-12" d="M1799.07,299.11c-5.93,7.83,13.47,24.12,25.62,30.32,11.76,6,23.23-1.77,25.46-4.68,6.45-8.41-5.32-24.52-17-30.76C1823.06,288.58,1807.44,288,1799.07,299.11Z" transform="translate(-51.9 -24.91)"/><path class="cls-5" d="M1834,295c-6-1.28-26.52-6.31-29.89,18.31" transform="translate(-51.9 -24.91)"/><path class="cls-12" d="M1834,295c-6-1.28-26.52-6.31-29.89,18.31" transform="translate(-51.9 -24.91)"/><path class="cls-13" d="M1652.6,286.4s133.14,9.85,85.41-16.29c-40.31-22.06,16.69-29.09,49.33-8.55,13.3,8.38-17.17,22.14,17.05,32.67.41.13,5.51-5.37,13.25,0" transform="translate(-51.9 -24.91)"/><polygon class="cls-14" points="1559.77 300.3 1637.11 280.49 1611.12 269.34 1533.78 289.15 1559.77 300.3"/><polygon class="cls-5" points="1575.24 287.92 1599.98 281.64 1599.98 240.87 1575.24 247.14 1575.24 287.92"/><polygon class="cls-15" points="1575.24 287.92 1599.98 281.64 1599.98 240.87 1575.24 247.14 1575.24 287.92"/><polygon class="cls-5" points="1567.05 284.31 1572.92 287.41 1572.92 247.17 1567.05 244.08 1567.05 284.31"/><polygon class="cls-16" points="1567.05 284.31 1572.92 287.41 1572.92 247.17 1567.05 244.08 1567.05 284.31"/><polygon class="cls-5" points="1579.57 363.31 1774.45 312.56 1776.31 305.13 1515.22 317.51 1515.22 332.98 1579.57 363.31"/><polygon class="cls-17" points="1579.57 363.31 1774.45 312.56 1776.31 305.13 1515.22 317.51 1515.22 332.98 1579.57 363.31"/><polygon class="cls-5" points="1582.04 355.51 1776.31 304.75 1708.87 266.37 1514.61 317.13 1582.04 355.51"/><polygon class="cls-17" points="1582.04 355.51 1776.31 304.75 1708.87 266.37 1514.61 317.13 1582.04 355.51"/><polygon class="cls-5" points="1643.3 291.69 1692.18 318.3 1582.05 346.16 1536.89 318.92 1643.3 291.69"/><polygon class="cls-18" points="1643.3 291.69 1692.18 318.3 1582.05 346.16 1536.89 318.92 1643.3 291.69"/><polygon class="cls-5" points="1710.19 274.58 1754.9 300.05 1714.54 310.9 1669.97 284.38 1710.19 274.58"/><polygon class="cls-18" points="1710.19 274.58 1754.9 300.05 1714.54 310.9 1669.97 284.38 1710.19 274.58"/><line class="cls-18" x1="1682.28" y1="312.11" x2="1574.01" y2="339.35"/><line class="cls-18" x1="1669.28" y1="304.69" x2="1561.02" y2="332.54"/><line class="cls-18" x1="1654.44" y1="297.88" x2="1548.64" y2="325.73"/><line class="cls-18" x1="1678.57" y1="321.4" x2="1630.31" y2="295.4"/><line class="cls-18" x1="1655.06" y1="318.3" x2="1617.94" y2="298.49"/><line class="cls-18" x1="1638.97" y1="321.4" x2="1603.71" y2="301.59"/><line class="cls-18" x1="1623.5" y1="325.73" x2="1590.71" y2="305.31"/><line class="cls-18" x1="1611.13" y1="328.83" x2="1579.58" y2="308.4"/><line class="cls-18" x1="1598.14" y1="332.54" x2="1565.96" y2="312.11"/><line class="cls-18" x1="1594.42" y1="341.21" x2="1552.97" y2="315.83"/><line class="cls-18" x1="1742.85" y1="303.07" x2="1698.43" y2="277.67"/><line class="cls-18" x1="1728.39" y1="306.08" x2="1684.82" y2="280.76"/><line class="cls-18" x1="1718.23" y1="280.76" x2="1680.49" y2="289.43"/><line class="cls-18" x1="1731.41" y1="287.4" x2="1693.43" y2="296.22"/><line class="cls-18" x1="1742.85" y1="293.42" x2="1703.37" y2="302.41"/><polygon class="cls-5" points="1482.39 279.8 1492.29 287.85 1686.55 85.44 1673.15 80.27 1484.82 117.3 1482.39 279.8"/><polygon class="cls-19" points="1482.39 279.8 1492.29 287.85 1686.55 85.44 1673.15 80.27 1484.82 117.3 1482.39 279.8"/><polygon class="cls-5" points="1493.52 287.85 1683.82 238.58 1686.55 86.05 1495.5 122.69 1493.52 287.85"/><polygon class="cls-19" points="1493.52 287.85 1683.82 238.58 1686.55 86.05 1495.5 122.69 1493.52 287.85"/><polygon class="cls-19" points="1502.8 268.04 1676.04 223.47 1677.89 97.19 1504.16 131.98 1502.8 268.04"/></g></g><g class="cls-2"><g class="cls-4"><path class="cls-20" d="M495.79,777.24s89.5,44,62.41,56.18S451,831,451,831" transform="translate(-51.9 -24.91)"/><polygon class="cls-21" points="405.92 798.91 264.64 762.72 312.11 742.37 453.4 778.55 405.92 798.91"/><polygon class="cls-5" points="377.67 776.3 332.45 764.84 332.45 690.36 377.67 701.81 377.67 776.3"/><polygon class="cls-22" points="377.67 776.3 332.45 764.84 332.45 690.36 377.67 701.81 377.67 776.3"/><polygon class="cls-5" points="389.67 769.71 380.63 775.36 380.63 701.86 389.67 696.21 389.67 769.71"/><polygon class="cls-23" points="389.67 769.71 380.63 775.36 380.63 701.86 389.67 696.21 389.67 769.71"/><polygon class="cls-5" points="369.75 914.03 13.73 821.32 10.34 807.74 487.3 830.36 487.3 858.63 369.75 914.03"/><polygon class="cls-23" points="369.75 914.03 13.73 821.31 10.34 807.74 487.3 830.36 487.3 858.63 369.75 914.03"/><polygon class="cls-5" points="365.23 899.78 10.33 807.05 133.53 736.94 488.42 829.67 365.23 899.78"/><polygon class="cls-23" points="365.23 899.78 10.33 807.05 133.53 736.94 488.42 829.67 365.23 899.78"/><polygon class="cls-5" points="127.89 753.46 38.59 802.09 239.78 852.97 322.28 803.21 127.89 753.46"/><polygon class="cls-24" points="127.89 753.46 38.59 802.09 239.78 852.97 322.28 803.21 127.89 753.46"/><polygon class="cls-5" points="375.41 820.18 297.87 868.46 369.07 884.29 447.06 836.79 375.41 820.18"/><polygon class="cls-24" points="375.41 820.18 297.87 868.46 369.07 884.29 447.06 836.79 375.41 820.18"/><line class="cls-24" x1="56.67" y1="790.78" x2="254.46" y2="840.53"/><line class="cls-24" x1="80.41" y1="777.21" x2="278.2" y2="828.09"/><line class="cls-24" x1="107.54" y1="764.77" x2="300.81" y2="815.66"/><line class="cls-24" x1="63.46" y1="807.74" x2="151.62" y2="760.25"/><line class="cls-24" x1="106.4" y1="802.09" x2="174.22" y2="765.9"/><line class="cls-24" x1="135.79" y1="807.74" x2="200.21" y2="771.55"/><line class="cls-24" x1="164.05" y1="815.65" x2="223.95" y2="778.34"/><line class="cls-24" x1="186.65" y1="821.31" x2="244.29" y2="783.99"/><line class="cls-24" x1="210.39" y1="828.09" x2="269.16" y2="790.78"/><line class="cls-24" x1="217.17" y1="843.92" x2="292.89" y2="797.56"/><line class="cls-24" x1="322.28" y1="871.06" x2="396.88" y2="825.83"/><line class="cls-24" x1="348.28" y1="876.72" x2="421.75" y2="831.49"/><line class="cls-24" x1="360.71" y1="831.49" x2="429.65" y2="847.32"/><line class="cls-24" x1="342.63" y1="842.79" x2="409.31" y2="858.63"/><line class="cls-24" x1="323.41" y1="854.1" x2="388.96" y2="869.93"/><path class="cls-5" d="M643.18,888.06c11.87,16.08-29.28,47.86-54.82,59.71C563.63,959.25,540.24,943,535.77,937c-12.93-17.28,12.37-49.09,36.92-61,21.26-10.35,53.7-10.64,70.49,12.11" transform="translate(-51.9 -24.91)"/><path class="cls-25" d="M643.18,888.06c11.87,16.08-29.28,47.86-54.82,59.71C563.63,959.25,540.24,943,535.77,937c-12.93-17.28,12.37-49.09,36.92-61C594,865.6,626.39,865.31,643.18,888.06Z" transform="translate(-51.9 -24.91)"/><path class="cls-5" d="M570.84,877.88c12.43-2.26,55.38-11.31,61,38.45" transform="translate(-51.9 -24.91)"/><path class="cls-26" d="M570.84,877.88c12.43-2.26,55.38-11.31,61,38.45" transform="translate(-51.9 -24.91)"/><path class="cls-26" d="M500.77,785.16S596.84,853,634.14,795.33c25.43-39.34,130-10.17,79.11,53.15-20.64,25.7-83.64,28.27-83.64,28.27s-9-10.18-24.86,2.26" transform="translate(-51.9 -24.91)"/><polygon class="cls-5" points="550.59 764.77 532.5 779.47 177.61 409.7 202.09 400.26 546.15 467.91 550.59 764.77"/><polygon class="cls-27" points="550.59 764.77 532.5 779.47 177.61 409.7 202.09 400.26 546.15 467.91 550.59 764.77"/><polygon class="cls-5" points="530.25 779.47 179.87 685.61 177.61 410.83 526.64 477.76 530.25 779.47"/><polygon class="cls-27" points="530.25 779.47 179.87 685.61 177.61 410.83 526.64 477.76 530.25 779.47"/><polygon class="cls-27" points="513.29 743.28 196.83 661.87 193.44 431.18 510.81 494.72 513.29 743.28"/></g></g><g class="cls-4"><rect class="cls-5" x="418.04" y="489.68" width="244.03" height="279.63"/><rect class="cls-28" x="418.04" y="489.68" width="244.03" height="279.63"/></g><g class="cls-2"><g class="cls-4"><path class="cls-29" d="M512.31,473.57a15.14,15.14,0,1,1-21.4,0,15.16,15.16,0,0,1,21.4,0" transform="translate(-51.9 -24.91)"/><path class="cls-30" d="M512.31,473.57a15.14,15.14,0,1,1-21.4,0A15.16,15.16,0,0,1,512.31,473.57Z" transform="translate(-51.9 -24.91)"/><path class="cls-29" d="M501.6,424.9a62.17,62.17,0,0,0-44.24,18.34A9.63,9.63,0,0,0,471,456.87a43.29,43.29,0,0,1,61.26,0,9.63,9.63,0,0,0,13.62-13.63A62.15,62.15,0,0,0,501.6,424.9" transform="translate(-51.9 -24.91)"/><path class="cls-30" d="M501.6,424.9a62.17,62.17,0,0,0-44.24,18.34A9.63,9.63,0,0,0,471,456.87a43.29,43.29,0,0,1,61.26,0,9.63,9.63,0,0,0,13.62-13.63A62.15,62.15,0,0,0,501.6,424.9Z" transform="translate(-51.9 -24.91)"/><path class="cls-29" d="M428.83,409.31a9.63,9.63,0,0,0,13.62,13.62,83.74,83.74,0,0,1,118.32,0,9.63,9.63,0,0,0,13.62-13.63,103,103,0,0,0-145.56,0" transform="translate(-51.9 -24.91)"/><path class="cls-30" d="M428.83,409.31a9.63,9.63,0,0,0,13.62,13.62,83.74,83.74,0,0,1,118.32,0,9.63,9.63,0,0,0,13.62-13.63A103,103,0,0,0,428.83,409.31Z" transform="translate(-51.9 -24.91)"/><path class="cls-29" d="M394.07,376.68a9.63,9.63,0,0,0,13.62,13.63,132.93,132.93,0,0,1,187.84,0,9.63,9.63,0,0,0,13.62-13.63c-59.29-59.33-155.78-59.33-215.08,0" transform="translate(-51.9 -24.91)"/><path class="cls-30" d="M394.07,376.68a9.63,9.63,0,0,0,13.62,13.63,132.93,132.93,0,0,1,187.84,0,9.63,9.63,0,0,0,13.62-13.63C549.86,317.35,453.37,317.35,394.07,376.68Z" transform="translate(-51.9 -24.91)"/></g></g><g class="cls-2"><g class="cls-4"><g class="cls-31"><g class="cls-32"><g class="cls-33"><rect class="cls-29" x="431.36" y="554.28" width="187.37" height="19.29"/></g></g></g></g></g><g class="cls-4"><text class="cls-34" transform="translate(433.34 518.2)"><tspan class="cls-35">T</tspan><tspan class="cls-36" x="7.21" y="0">u</tspan><tspan class="cls-37" x="15.99" y="0">r</tspan><tspan x="21.27" y="0">n </tspan><tspan class="cls-38" x="33.5" y="0">A</tspan><tspan x="43.22" y="0">i</tspan><tspan class="cls-37" x="46.95" y="0">r</tspan><tspan x="52.23" y="0">po</tspan><tspan class="cls-39" x="70.05" y="0">r</tspan><tspan x="75.63" y="0">t on</tspan></text><text class="cls-40" transform="translate(433.34 537.33)"><tspan class="cls-35">T</tspan><tspan class="cls-36" x="7.21" y="0">u</tspan><tspan class="cls-37" x="15.99" y="0">r</tspan><tspan x="21.27" y="0">n </tspan><tspan class="cls-38" x="33.5" y="0">A</tspan><tspan x="43.22" y="0">i</tspan><tspan class="cls-37" x="46.95" y="0">r</tspan><tspan x="52.23" y="0">po</tspan><tspan class="cls-39" x="70.05" y="0">r</tspan><tspan x="75.63" y="0">t o</tspan></text><path class="cls-41" d="M584.18,562.24v-6.65h-3.26v6.65h-1.38v-6.65h-1.07v-1.07h1.07v-.24a3.65,3.65,0,0,1,.86-2.63,2.64,2.64,0,0,1,1.94-.72,2.42,2.42,0,0,1,1.1.28l-.28,1a1.84,1.84,0,0,0-.83-.21c-1.1,0-1.41.94-1.41,2.15v.32h3.26v-.36a3.61,3.61,0,0,1,.89-2.7,2.67,2.67,0,0,1,1.86-.72,3,3,0,0,1,1.2.23l-.18,1.08a2.26,2.26,0,0,0-.91-.17c-1.17,0-1.48,1-1.48,2.23v.41h1.85v1.07h-1.85v6.65Z" transform="translate(-51.9 -24.91)"/><text class="cls-42" transform="translate(433.34 569.49)">f<tspan class="cls-43" x="4.66" y="0">r</tspan><tspan x="9.73" y="0">ee qau</tspan><tspan class="cls-44" x="54.52" y="0">l</tspan><tspan x="58.13" y="0">.net</tspan></text><text class="cls-42" transform="translate(433.34 592.08)">neighbor</text><text class="cls-42" transform="translate(433.34 614.67)"><tspan class="cls-45">m</tspan><tspan x="13.09" y="0">y</tspan><tspan class="cls-46" x="20.6" y="0">W</tspan><tspan class="cls-47" x="34.01" y="0">lan</tspan></text><text class="cls-42" transform="translate(433.34 637.26)">f<tspan class="cls-43" x="4.66" y="0">r</tspan><tspan x="9.73" y="0">ede</tspan><tspan class="cls-48" x="34.69" y="0">r</tspan><tspan x="39.95" y="0">ike</tspan></text><text class="cls-42" transform="translate(433.34 659.85)">HeimNetz</text><text class="cls-42" transform="translate(433.34 682.45)"><tspan class="cls-49">K</tspan><tspan class="cls-50" x="8.8" y="0">r</tspan><tspan x="13.85" y="0">euzbe</tspan><tspan class="cls-51" x="54.51" y="0">r</tspan><tspan class="cls-47" x="59.61" y="0">g</tspan></text><text class="cls-42" transform="translate(433.34 711.14)">Join other ne<tspan class="cls-52" x="86.9" y="0">t</tspan><tspan class="cls-50" x="92.32" y="0">w</tspan><tspan x="103.9" y="0">o</tspan><tspan class="cls-53" x="112.65" y="0">r</tspan><tspan x="117.93" y="0">k</tspan></text><text class="cls-42" transform="translate(433.34 730.27)"><tspan class="cls-54">C</tspan><tspan class="cls-55" x="9.21" y="0">r</tspan><tspan class="cls-47" x="14.27" y="0">e</tspan><tspan class="cls-56" x="22.26" y="0">a</tspan><tspan class="cls-57" x="29.88" y="0">t</tspan><tspan x="35.06" y="0">e Ne</tspan><tspan class="cls-52" x="64.9" y="0">t</tspan><tspan class="cls-44" x="70.32" y="0">w</tspan><tspan class="cls-58" x="81.9" y="0">o</tspan><tspan class="cls-59" x="90.65" y="0">r</tspan><tspan class="cls-60" x="95.91" y="0">k</tspan><tspan x="103.61" y="0">...</tspan></text><text class="cls-42" transform="translate(433.34 749.41)">Open Ne<tspan class="cls-52" x="58.75" y="0">t</tspan><tspan class="cls-44" x="64.17" y="0">w</tspan><tspan class="cls-58" x="75.74" y="0">o</tspan><tspan class="cls-53" x="84.5" y="0">r</tspan><tspan class="cls-47" x="89.77" y="0">k </tspan><tspan class="cls-61" x="100.63" y="0">P</tspan><tspan class="cls-50" x="108.87" y="0">r</tspan><tspan x="113.93" y="0">e</tspan><tspan class="cls-62" x="121.91" y="0">f</tspan><tspan x="126.38" y="0">e</tspan><tspan class="cls-43" x="134.37" y="0">r</tspan><tspan class="cls-47" x="139.44" y="0">en</tspan><tspan class="cls-63" x="156.27" y="0">c</tspan><tspan x="163.32" y="0">es</tspan></text></g><g class="cls-2"><g class="cls-4"><line class="cls-64" x1="434.73" y1="547.42" x2="618.27" y2="547.42"/><line class="cls-64" x1="434.72" y1="690.01" x2="621.75" y2="690.01"/><path class="cls-65" d="M668.89,606.17c-.62-4-3.27-7.09-6.44-7.09s-5.83,3-6.45,7.09h-1.08v11.37H670V606.17Zm-5.69,8.37h-1.68v-5.28h1.68Zm-.75-14.14c2.46,0,4.53,2.46,5.09,5.77H657.35c.56-3.31,2.63-5.77,5.1-5.77" transform="translate(-51.9 -24.91)"/><path class="cls-65" d="M668.89,628.89c-.62-4-3.27-7.1-6.44-7.1s-5.83,3.06-6.45,7.1h-1.08v11.37H670V628.89Zm-5.69,8.37h-1.68V632h1.68Zm-.75-14.14c2.46,0,4.53,2.47,5.09,5.77H657.35c.56-3.3,2.63-5.77,5.1-5.77" transform="translate(-51.9 -24.91)"/><path class="cls-65" d="M668.89,651.61c-.62-4-3.27-7.09-6.44-7.09s-5.83,3.05-6.45,7.09h-1.08V663H670V651.61ZM663.2,660h-1.68V654.7h1.68Zm-.75-14.14c2.46,0,4.53,2.47,5.09,5.77H657.35c.56-3.3,2.63-5.77,5.1-5.77" transform="translate(-51.9 -24.91)"/><path class="cls-65" d="M668.89,674.33c-.62-4-3.27-7.09-6.44-7.09s-5.83,3-6.45,7.09h-1.08V685.7H670V674.33Zm-5.69,8.37h-1.68v-5.28h1.68Zm-.75-14.13c2.46,0,4.53,2.46,5.09,5.76H657.35c.56-3.3,2.63-5.76,5.1-5.76" transform="translate(-51.9 -24.91)"/><path class="cls-65" d="M668.89,697.05c-.62-4-3.27-7.09-6.44-7.09s-5.83,3-6.45,7.09h-1.08v11.37H670V697.05Zm-5.69,8.37h-1.68v-5.28h1.68Zm-.75-14.13c2.46,0,4.53,2.46,5.09,5.76H657.35c.56-3.3,2.63-5.76,5.1-5.76" transform="translate(-51.9 -24.91)"/><path class="cls-5" d="M614.76,592.18l.08,48.45,9.32-13.54c1.32,3.51,7.46,19.75,7.46,19.75l8.75-3.31L633,624.07l15.73,3.6-34-38.76Z" transform="translate(-51.9 -24.91)"/><path class="cls-66" d="M614.76,592.18l.08,48.45,9.32-13.54c1.32,3.51,7.46,19.75,7.46,19.75l8.75-3.31L633,624.07l15.73,3.6-34-38.76Z" transform="translate(-51.9 -24.91)"/><path class="cls-65" d="M617.21,595.44l24.71,28.15-12.8-2.92s7.32,19.39,8.1,21.43l-4.17,1.58c-.78-2-8.25-21.84-8.25-21.84l-7.52,10.92c0-6-.06-32.25-.07-37.32" transform="translate(-51.9 -24.91)"/><rect class="cls-67" x="0.46" y="290.45" width="684.56" height="657.72"/></g></g><g class="cls-2"><g class="cls-4"><g class="cls-68"><g class="cls-69"><g class="cls-70"><path class="cls-29" d="M953.55,331.49a15.36,15.36,0,1,1-21.72,0,15.37,15.37,0,0,1,21.72,0" transform="translate(-51.9 -24.91)"/></g></g></g></g></g><g class="cls-2"><g class="cls-4"><g class="cls-68"><g class="cls-71"><g class="cls-72"><path class="cls-29" d="M942.68,278.81a63.1,63.1,0,0,0-44.9,18.61,9.78,9.78,0,1,0,13.83,13.83,43.93,43.93,0,0,1,62.16,0,9.78,9.78,0,0,0,13.83-13.84,63.13,63.13,0,0,0-44.92-18.61" transform="translate(-51.9 -24.91)"/></g></g></g></g></g><g class="cls-2"><g class="cls-4"><g class="cls-68"><g class="cls-73"><g class="cls-74"><path class="cls-29" d="M868.83,268.46a9.78,9.78,0,0,0,13.83,13.83,85,85,0,0,1,120.06,0,9.78,9.78,0,0,0,13.82-13.83,104.54,104.54,0,0,0-147.71,0" transform="translate(-51.9 -24.91)"/></g></g></g><path class="cls-75" d="M973.86,342.57A30.54,30.54,0,1,1,943.32,312,30.54,30.54,0,0,1,973.86,342.57Z" transform="translate(-51.9 -24.91)"/></g></g><g class="cls-2"><g class="cls-4"><g class="cls-68"><g class="cls-76"><g class="cls-77"><path class="cls-29" d="M1269.39,338.48a15.35,15.35,0,1,1-21.71,0,15.34,15.34,0,0,1,21.71,0" transform="translate(-51.9 -24.91)"/></g></g></g></g></g><g class="cls-2"><g class="cls-4"><g class="cls-68"><g class="cls-78"><g class="cls-79"><path class="cls-29" d="M1258.52,285.79a63.11,63.11,0,0,0-44.89,18.62,9.78,9.78,0,1,0,13.83,13.83,43.94,43.94,0,0,1,62.16,0,9.78,9.78,0,1,0,13.82-13.83,63.12,63.12,0,0,0-44.92-18.62" transform="translate(-51.9 -24.91)"/></g></g></g></g></g><g class="cls-2"><g class="cls-4"><g class="cls-68"><g class="cls-80"><g class="cls-81"><path class="cls-29" d="M1184.68,275.45a9.78,9.78,0,0,0,13.82,13.83,85,85,0,0,1,120.07,0,9.77,9.77,0,1,0,13.82-13.82,104.53,104.53,0,0,0-147.71,0" transform="translate(-51.9 -24.91)"/></g></g></g><path class="cls-75" d="M1289.71,349.55A30.54,30.54,0,1,1,1259.17,319,30.55,30.55,0,0,1,1289.71,349.55Z" transform="translate(-51.9 -24.91)"/></g></g><g class="cls-2"><g class="cls-4"><g class="cls-68"><g class="cls-82"><g class="cls-83"><path class="cls-29" d="M1651.55,118.5a15.36,15.36,0,1,1-21.72,0,15.36,15.36,0,0,1,21.72,0" transform="translate(-51.9 -24.91)"/></g></g></g></g></g><g class="cls-2"><g class="cls-4"><g class="cls-68"><g class="cls-84"><g class="cls-85"><path class="cls-29" d="M1640.68,65.81a63.12,63.12,0,0,0-44.89,18.61,9.78,9.78,0,1,0,13.82,13.84,43.91,43.91,0,0,1,62.16,0,9.78,9.78,0,1,0,13.83-13.84,63.17,63.17,0,0,0-44.92-18.61" transform="translate(-51.9 -24.91)"/></g></g></g></g></g><g class="cls-2"><g class="cls-4"><g class="cls-68"><g class="cls-86"><g class="cls-87"><path class="cls-29" d="M1566.84,55.46a9.78,9.78,0,0,0,13.82,13.84,85,85,0,0,1,120.06,0,9.78,9.78,0,1,0,13.82-13.83,104.53,104.53,0,0,0-147.7,0" transform="translate(-51.9 -24.91)"/></g></g></g><path class="cls-75" d="M1671.86,129.57A30.54,30.54,0,1,1,1641.32,99,30.55,30.55,0,0,1,1671.86,129.57Z" transform="translate(-51.9 -24.91)"/><path class="cls-75" d="M614.63,423.32s53.61-98.9,160.54-132.69c99.46-31.42,155.3,26.19,155.3,26.19" transform="translate(-51.9 -24.91)"/><path class="cls-88" d="M1262,316.82s33.32-141,162.28-197.28c96-41.91,193.7-10.48,193.7-10.48" transform="translate(-51.9 -24.91)"/><path class="cls-75" d="M944.92,312.69s56.62-96.49,170.53-95.38c93.85.91,136.11,103,136.11,103" transform="translate(-51.9 -24.91)"/><polygon class="cls-29" points="524.54 476.27 556.02 442.01 587.5 407.74 561.13 395.75 534.76 383.75 529.64 430.01 524.54 476.27"/><text class="cls-89" transform="translate(37.43 1022.81)">Join free qaul.net</text></g></g></g></g></g></svg>