<?xml version="1.0" encoding="UTF-8" standalone="no"?>
<!DOCTYPE svg PUBLIC "-//W3C//DTD SVG 1.1//EN"
 "http://www.w3.org/Graphics/SVG/1.1/DTD/svg11.dtd">
<!-- Generated by graphviz version 2.43.0 (0)
 -->
<!-- Title: G Pages: 1 -->
<svg width="394pt" height="180pt"
 viewBox="0.00 0.00 393.50 180.00" xmlns="http://www.w3.org/2000/svg" xmlns:xlink="http://www.w3.org/1999/xlink">
<g id="graph0" class="graph" transform="scale(1 1) rotate(0) translate(36 144)">
<title>G</title>
<!-- broker -->
<g id="node1" class="node">
<title>broker</title>
<polygon fill="none" stroke="black" points="247.18,-95.56 178,-108 108.82,-95.56 108.88,-75.44 247.12,-75.44 247.18,-95.56"/>
<text text-anchor="middle" x="178" y="-86.3" font-family="Times-Roman" font-size="14.00">RPC broker</text>
</g>
<!-- app -->
<g id="node2" class="node">
<title>app</title>
<polygon fill="none" stroke="black" points="118,-36 0,-36 0,0 118,0 118,-36"/>
<text text-anchor="middle" x="59" y="-14.3" font-family="Times-Roman" font-size="14.00">Your application</text>
</g>
<!-- broker&#45;&gt;app -->
<g id="edge1" class="edge">
<title>broker&#45;&gt;app</title>
<path fill="none" stroke="black" d="M113.45,-65.43C113.45,-65.43 113.45,-36.13 113.45,-36.13"/>
<polygon fill="black" stroke="black" points="109.96,-65.43 113.45,-75.43 116.96,-65.43 109.96,-65.43"/>
</g>
<!-- core -->
<g id="node3" class="node">
<title>core</title>
<polygon fill="none" stroke="black" points="220,-36 136,-36 136,0 220,0 220,-36"/>
<text text-anchor="middle" x="178" y="-14.3" font-family="Times-Roman" font-size="14.00">irdest&#45;core</text>
</g>
<!-- broker&#45;&gt;core -->
<g id="edge3" class="edge">
<title>broker&#45;&gt;core</title>
<path fill="none" stroke="black" d="M178,-65.43C178,-65.43 178,-36.13 178,-36.13"/>
<polygon fill="black" stroke="black" points="174.5,-65.43 178,-75.43 181.5,-65.43 174.5,-65.43"/>
</g>
<!-- chat -->
<g id="node4" class="node">
<title>chat</title>
<polygon fill="none" stroke="black" points="321.5,-36 238.5,-36 238.5,0 321.5,0 321.5,-36"/>
<text text-anchor="middle" x="280" y="-14.3" font-family="Times-Roman" font-size="14.00">irdest&#45;chat</text>
</g>
<!-- broker&#45;&gt;chat -->
<g id="edge2" class="edge">
<title>broker&#45;&gt;chat</title>
<path fill="none" stroke="black" d="M242.8,-65.43C242.8,-65.43 242.8,-36.13 242.8,-36.13"/>
<polygon fill="black" stroke="black" points="239.3,-65.43 242.8,-75.43 246.3,-65.43 239.3,-65.43"/>
</g>
</g>
</svg>
