<?xml version="1.0" encoding="UTF-8" standalone="no"?>
<!DOCTYPE svg PUBLIC "-//W3C//DTD SVG 1.1//EN"
 "http://www.w3.org/Graphics/SVG/1.1/DTD/svg11.dtd">
<!-- Generated by graphviz version 2.43.0 (0)
 -->
<!-- Title: G Pages: 1 -->
<svg width="648pt" height="388pt"
 viewBox="0.00 0.00 648.00 388.00" xmlns="http://www.w3.org/2000/svg" xmlns:xlink="http://www.w3.org/1999/xlink">
<g id="graph0" class="graph" transform="scale(1 1) rotate(0) translate(36 352)">
<title>G</title>
<!-- app -->
<g id="node1" class="node">
<title>app</title>
<polygon fill="none" stroke="black" points="144,-316 0,-316 0,-266 144,-266 144,-316"/>
<text text-anchor="middle" x="72" y="-287.3" font-family="Times-Roman" font-size="14.00">Your service</text>
</g>
<!-- a1 -->
<g id="node4" class="node">
<title>a1</title>
</g>
<!-- app&#45;&gt;a1 -->
<g id="edge1" class="edge">
<title>app&#45;&gt;a1</title>
<path fill="none" stroke="black" stroke-dasharray="5,2" d="M72,-265.89C72,-249.37 72,-230.24 72,-229.06"/>
</g>
<!-- broker -->
<g id="node2" class="node">
<title>broker</title>
<polygon fill="none" stroke="black" points="360,-316 216,-316 216,-266 360,-266 360,-316"/>
<text text-anchor="middle" x="288" y="-287.3" font-family="Times-Roman" font-size="14.00">RPC Broker</text>
</g>
<!-- b1 -->
<g id="node11" class="node">
<title>b1</title>
</g>
<!-- broker&#45;&gt;b1 -->
<g id="edge8" class="edge">
<title>broker&#45;&gt;b1</title>
<path fill="none" stroke="black" stroke-dasharray="5,2" d="M288,-265.89C288,-249.37 288,-230.24 288,-229.06"/>
</g>
<!-- core -->
<g id="node3" class="node">
<title>core</title>
<polygon fill="none" stroke="black" points="576,-316 432,-316 432,-266 576,-266 576,-316"/>
<text text-anchor="middle" x="504" y="-287.3" font-family="Times-Roman" font-size="14.00">irdest&#45;core</text>
</g>
<!-- c1 -->
<g id="node18" class="node">
<title>c1</title>
</g>
<!-- core&#45;&gt;c1 -->
<g id="edge15" class="edge">
<title>core&#45;&gt;c1</title>
<path fill="none" stroke="black" stroke-dasharray="5,2" d="M504,-265.89C504,-249.37 504,-230.24 504,-229.06"/>
</g>
<!-- a2 -->
<g id="node5" class="node">
<title>a2</title>
</g>
<!-- a1&#45;&gt;a2 -->
<g id="edge2" class="edge">
<title>a1&#45;&gt;a2</title>
<path fill="none" stroke="black" stroke-dasharray="5,2" d="M72,-227.89C72,-225.79 72,-193.14 72,-191.1"/>
</g>
<!-- a3 -->
<g id="node6" class="node">
<title>a3</title>
</g>
<!-- a2&#45;&gt;a3 -->
<g id="edge3" class="edge">
<title>a2&#45;&gt;a3</title>
<path fill="none" stroke="black" stroke-dasharray="5,2" d="M72,-189.89C72,-187.79 72,-155.14 72,-153.1"/>
</g>
<!-- a4 -->
<g id="node7" class="node">
<title>a4</title>
</g>
<!-- a3&#45;&gt;a4 -->
<g id="edge4" class="edge">
<title>a3&#45;&gt;a4</title>
<path fill="none" stroke="black" stroke-dasharray="5,2" d="M72,-151.89C72,-149.79 72,-117.14 72,-115.1"/>
</g>
<!-- b3 -->
<g id="node13" class="node">
<title>b3</title>
</g>
<!-- a3&#45;&gt;b3 -->
<g id="edge24" class="edge">
<title>a3&#45;&gt;b3</title>
<path fill="none" stroke="black" d="M72.62,-152.5C83.53,-152.5 235.28,-152.5 277.29,-152.5"/>
<polygon fill="black" stroke="black" points="277.42,-156 287.42,-152.5 277.42,-149 277.42,-156"/>
<text text-anchor="middle" x="180" y="-159.3" font-family="Times-Roman" font-size="14.00">Service::register()</text>
</g>
<!-- a5 -->
<g id="node8" class="node">
<title>a5</title>
</g>
<!-- a4&#45;&gt;a5 -->
<g id="edge5" class="edge">
<title>a4&#45;&gt;a5</title>
<path fill="none" stroke="black" stroke-dasharray="5,2" d="M72,-113.89C72,-111.79 72,-79.14 72,-77.1"/>
</g>
<!-- b4 -->
<g id="node14" class="node">
<title>b4</title>
</g>
<!-- a4&#45;&gt;b4 -->
<g id="edge25" class="edge">
<title>a4&#45;&gt;b4</title>
<path fill="none" stroke="black" d="M82.86,-114.5C125.12,-114.5 276.84,-114.5 287.42,-114.5"/>
<polygon fill="black" stroke="black" points="82.62,-111 72.62,-114.5 82.62,-118 82.62,-111"/>
<text text-anchor="middle" x="180" y="-121.3" font-family="Times-Roman" font-size="14.00">Result</text>
</g>
<!-- a6 -->
<g id="node9" class="node">
<title>a6</title>
</g>
<!-- a5&#45;&gt;a6 -->
<g id="edge6" class="edge">
<title>a5&#45;&gt;a6</title>
<path fill="none" stroke="black" stroke-dasharray="5,2" d="M72,-75.89C72,-73.79 72,-41.14 72,-39.1"/>
</g>
<!-- b5 -->
<g id="node15" class="node">
<title>b5</title>
</g>
<!-- a5&#45;&gt;b5 -->
<g id="edge26" class="edge">
<title>a5&#45;&gt;b5</title>
<path fill="none" stroke="black" d="M72.62,-76.5C84.89,-76.5 275.52,-76.5 287.42,-76.5"/>
<text text-anchor="middle" x="180" y="-83.3" font-family="Times-Roman" font-size="14.00">IrdestSdk::connect()</text>
</g>
<!-- a7 -->
<g id="node10" class="node">
<title>a7</title>
</g>
<!-- a6&#45;&gt;a7 -->
<g id="edge7" class="edge">
<title>a6&#45;&gt;a7</title>
<path fill="none" stroke="black" stroke-dasharray="5,2" d="M72,-37.89C72,-35.79 72,-3.14 72,-1.1"/>
</g>
<!-- b6 -->
<g id="node16" class="node">
<title>b6</title>
</g>
<!-- a6&#45;&gt;b6 -->
<g id="edge29" class="edge">
<title>a6&#45;&gt;b6</title>
<path fill="none" stroke="black" d="M82.89,-38.5C150.98,-38.5 219.07,-38.5 287.16,-38.5"/>
<polygon fill="black" stroke="black" points="82.84,-35 72.84,-38.5 82.84,-42 82.84,-35"/>
</g>
<!-- b2 -->
<g id="node12" class="node">
<title>b2</title>
</g>
<!-- b1&#45;&gt;b2 -->
<g id="edge9" class="edge">
<title>b1&#45;&gt;b2</title>
<path fill="none" stroke="black" stroke-width="3" d="M288,-227.89C288,-225.79 288,-193.14 288,-191.1"/>
</g>
<!-- b1&#45;&gt;c1 -->
<g id="edge22" class="edge">
<title>b1&#45;&gt;c1</title>
<path fill="none" stroke="black" d="M298.86,-228.5C341.12,-228.5 492.84,-228.5 503.42,-228.5"/>
<polygon fill="black" stroke="black" points="298.62,-225 288.62,-228.5 298.62,-232 298.62,-225"/>
<text text-anchor="middle" x="396" y="-235.3" font-family="Times-Roman" font-size="14.00">Service::register()</text>
</g>
<!-- b2&#45;&gt;b3 -->
<g id="edge10" class="edge">
<title>b2&#45;&gt;b3</title>
<path fill="none" stroke="black" stroke-dasharray="5,2" d="M288,-189.89C288,-187.79 288,-155.14 288,-153.1"/>
</g>
<!-- c2 -->
<g id="node19" class="node">
<title>c2</title>
</g>
<!-- b2&#45;&gt;c2 -->
<g id="edge23" class="edge">
<title>b2&#45;&gt;c2</title>
<path fill="none" stroke="black" d="M288.62,-190.5C299.53,-190.5 451.28,-190.5 493.29,-190.5"/>
<polygon fill="black" stroke="black" points="493.42,-194 503.42,-190.5 493.42,-187 493.42,-194"/>
<text text-anchor="middle" x="396" y="-197.3" font-family="Times-Roman" font-size="14.00">Result</text>
</g>
<!-- b3&#45;&gt;b4 -->
<g id="edge11" class="edge">
<title>b3&#45;&gt;b4</title>
<path fill="none" stroke="black" stroke-width="3" d="M288,-151.89C288,-149.79 288,-117.14 288,-115.1"/>
</g>
<!-- b4&#45;&gt;b5 -->
<g id="edge12" class="edge">
<title>b4&#45;&gt;b5</title>
<path fill="none" stroke="black" stroke-dasharray="5,2" d="M288,-113.89C288,-111.79 288,-79.14 288,-77.1"/>
</g>
<!-- b5&#45;&gt;b6 -->
<g id="edge13" class="edge">
<title>b5&#45;&gt;b6</title>
<path fill="none" stroke="black" stroke-dasharray="5,2" d="M288,-75.89C288,-73.79 288,-41.14 288,-39.1"/>
</g>
<!-- c5 -->
<g id="node22" class="node">
<title>c5</title>
</g>
<!-- b5&#45;&gt;c5 -->
<g id="edge27" class="edge">
<title>b5&#45;&gt;c5</title>
<path fill="none" stroke="black" d="M288.84,-76.5C356.93,-76.5 425.02,-76.5 493.11,-76.5"/>
<polygon fill="black" stroke="black" points="493.16,-80 503.16,-76.5 493.16,-73 493.16,-80"/>
</g>
<!-- b7 -->
<g id="node17" class="node">
<title>b7</title>
</g>
<!-- b6&#45;&gt;b7 -->
<g id="edge14" class="edge">
<title>b6&#45;&gt;b7</title>
<path fill="none" stroke="black" stroke-dasharray="5,2" d="M288,-37.89C288,-35.79 288,-3.14 288,-1.1"/>
</g>
<!-- c6 -->
<g id="node23" class="node">
<title>c6</title>
</g>
<!-- b6&#45;&gt;c6 -->
<g id="edge28" class="edge">
<title>b6&#45;&gt;c6</title>
<path fill="none" stroke="black" d="M288.62,-38.5C300.89,-38.5 491.52,-38.5 503.42,-38.5"/>
<text text-anchor="middle" x="396" y="-45.3" font-family="Times-Roman" font-size="14.00">Result</text>
</g>
<!-- c1&#45;&gt;c2 -->
<g id="edge16" class="edge">
<title>c1&#45;&gt;c2</title>
<path fill="none" stroke="black" stroke-dasharray="5,2" d="M504,-227.89C504,-225.79 504,-193.14 504,-191.1"/>
</g>
<!-- c3 -->
<g id="node20" class="node">
<title>c3</title>
</g>
<!-- c2&#45;&gt;c3 -->
<g id="edge17" class="edge">
<title>c2&#45;&gt;c3</title>
<path fill="none" stroke="black" stroke-dasharray="5,2" d="M504,-189.89C504,-187.79 504,-155.14 504,-153.1"/>
</g>
<!-- c4 -->
<g id="node21" class="node">
<title>c4</title>
</g>
<!-- c3&#45;&gt;c4 -->
<g id="edge18" class="edge">
<title>c3&#45;&gt;c4</title>
<path fill="none" stroke="black" stroke-dasharray="5,2" d="M504,-151.89C504,-149.79 504,-117.14 504,-115.1"/>
</g>
<!-- c4&#45;&gt;c5 -->
<g id="edge19" class="edge">
<title>c4&#45;&gt;c5</title>
<path fill="none" stroke="black" stroke-dasharray="5,2" d="M504,-113.89C504,-111.79 504,-79.14 504,-77.1"/>
</g>
<!-- c5&#45;&gt;c6 -->
<g id="edge20" class="edge">
<title>c5&#45;&gt;c6</title>
<path fill="none" stroke="black" stroke-width="3" d="M504,-75.89C504,-73.79 504,-41.14 504,-39.1"/>
</g>
<!-- c7 -->
<g id="node24" class="node">
<title>c7</title>
</g>
<!-- c6&#45;&gt;c7 -->
<g id="edge21" class="edge">
<title>c6&#45;&gt;c7</title>
<path fill="none" stroke="black" stroke-dasharray="5,2" d="M504,-37.89C504,-35.79 504,-3.14 504,-1.1"/>
</g>
</g>
</svg>
