<?xml version="1.0" encoding="UTF-8" standalone="no"?>
<svg
   xmlns:dc="http://purl.org/dc/elements/1.1/"
   xmlns:cc="http://creativecommons.org/ns#"
   xmlns:rdf="http://www.w3.org/1999/02/22-rdf-syntax-ns#"
   xmlns:svg="http://www.w3.org/2000/svg"
   xmlns="http://www.w3.org/2000/svg"
   xmlns:sodipodi="http://sodipodi.sourceforge.net/DTD/sodipodi-0.dtd"
   xmlns:inkscape="http://www.inkscape.org/namespaces/inkscape"
   version="1.2"
   width="412.31445"
   height="102.01256"
   viewBox="0 0 412.31445 102.01256"
   preserveAspectRatio="none"
   id="svg44"
   sodipodi:docname="feifunk.svg"
   inkscape:version="0.92.4 (f8dce91, 2019-08-02)">
  <metadata
     id="metadata50">
    <rdf:RDF>
      <cc:Work
         rdf:about="">
        <dc:format>image/svg+xml</dc:format>
        <dc:type
           rdf:resource="http://purl.org/dc/dcmitype/StillImage" />
        <dc:title></dc:title>
      </cc:Work>
    </rdf:RDF>
  </metadata>
  <defs
     id="defs48" />
  <sodipodi:namedview
     pagecolor="#ffffff"
     bordercolor="#666666"
     borderopacity="1"
     objecttolerance="10"
     gridtolerance="10"
     guidetolerance="10"
     inkscape:pageopacity="0"
     inkscape:pageshadow="2"
     inkscape:window-width="2560"
     inkscape:window-height="1367"
     id="namedview46"
     showgrid="false"
     inkscape:zoom="3.111651"
     inkscape:cx="140.11169"
     inkscape:cy="30.710603"
     inkscape:window-x="0"
     inkscape:window-y="36"
     inkscape:window-maximized="1"
     inkscape:current-layer="svg44" />
  <!-- Designed by Monic Meisel and hand-coded as SVG by Alina Friedrichsen -->
  <g
     id="g16"
     transform="translate(-16.718233,-11.198041)">
    <circle
       cx="36"
       cy="54"
       r="22"
       transform="matrix(1.477616,0,0,1.5065066,-3.122124,-2.4350016)"
       stroke-miterlimit="4"
       id="circle6"
       style="fill:none;stroke:#de2c68;stroke-width:1.14544892;stroke-miterlimit:4;stroke-dasharray:none;stroke-opacity:1" />
    <circle
       cx="74"
       cy="44"
       r="22"
       transform="matrix(1.5950476,0,0,1.6223254,-10.072136,-9.1778182)"
       stroke-miterlimit="4"
       id="circle8"
       style="fill:none;stroke:#de2c68;stroke-width:1.06239557;stroke-miterlimit:4;stroke-dasharray:none;stroke-opacity:1" />
    <circle
       cx="74"
       cy="44"
       r="29"
       transform="matrix(1.5831269,0,0,1.5986441,-9.3397104,-8.1360194)"
       stroke-miterlimit="4"
       id="circle10"
       style="fill:none;stroke:#de2c68;stroke-width:5.81192684;stroke-miterlimit:4;stroke-dasharray:none;stroke-opacity:1" />
    <polygon
       points="22,52 30,52 26,56 31,56 37,50 31,44 26,44 30,48 22,48 "
       transform="matrix(1.4493674,0,0,1.3737988,-2.70016,2.5042672)"
       id="polygon12"
       style="fill:#ffcc33;fill-opacity:1" />
    <polygon
       points="75,47 81,41 73,41 64,50 73,59 81,59 75,53 88,53 88,47 "
       transform="matrix(1.5159598,0,0,1.568926,-5.2784314,-7.233634)"
       id="polygon14"
       style="fill:#ffcc33;fill-opacity:1" />
  </g>
  <g
     transform="matrix(1.9289989,0,0,1.5379384,136.99428,-165.84062)"
     id="g42">
    <path
       d="m 10.718125,171.9993 h 4.662913 v -24.09172 h 1.45716 v -3.69147 h -1.45716 v -1.70002 c 0,-0.68001 0.09714,-1.36002 0.825724,-1.40859 h 0.631436 v -3.69147 h -2.622889 c -2.865745,0 -3.497184,1.45716 -3.497184,3.30289 v 3.49719 H 9.2609644 v 3.69147 h 1.4571606 v 24.09172"
       id="path18"
       inkscape:connector-curvature="0"
       style="fill:#000000;fill-opacity:1" />
    <path
       d="m 18.148124,171.9993 h 4.662913 v -22.44027 c 0,-0.77715 0.04857,-1.70002 1.214301,-1.70002 0.971439,0 1.020012,0.92287 1.020012,1.70002 v 9.18011 h 4.662913 v -9.56869 c 0,-2.91431 0.09714,-5.29435 -3.594329,-5.29435 -1.262871,0 -2.525745,0.63144 -3.205753,1.94288 h -0.09714 v -1.60287 h -4.662913 v 27.78319"
       id="path20"
       inkscape:connector-curvature="0"
       style="fill:#000000;fill-opacity:1" />
    <path
       d="m 38.516493,161.0706 v 6.50865 c 0,1.26287 -0.437149,1.36001 -1.117157,1.36001 -0.680007,0 -1.117156,-0.0971 -1.117156,-1.36001 v -8.84011 h 6.897226 v -10.20012 c 0,-2.86575 -2.234316,-4.66292 -5.78007,-4.66292 -3.545753,0 -5.780069,1.79717 -5.780069,4.66292 v 19.13737 c 0,2.86574 2.234316,4.66291 5.780069,4.66291 3.545754,0 5.78007,-1.79717 5.78007,-4.66291 v -6.60579 h -4.662913 m 0,-5.58579 H 36.28218 v -6.84865 c 0,-1.26287 0.437149,-1.36002 1.117156,-1.36002 0.680008,0 1.117157,0.0971 1.117157,1.36002 v 6.84865"
       id="path22"
       inkscape:connector-curvature="0"
       style="fill:#000000;fill-opacity:1" />
    <path
       d="m 50.044758,171.9993 v -27.78319 h -4.662913 v 27.78319 h 4.662913 m 0,-34.58327 h -4.662913 v 4.95434 h 4.662913 v -4.95434"
       id="path24"
       inkscape:connector-curvature="0"
       style="fill:#000000;fill-opacity:1" />
    <path
       d="m 53.0289,171.9993 h 4.662913 v -24.09172 h 1.457161 v -3.69147 h -1.457161 v -1.70002 c 0,-0.68001 0.09714,-1.36002 0.825725,-1.40859 h 0.631436 v -3.69147 h -2.622889 c -2.865746,0 -3.497185,1.45716 -3.497185,3.30289 v 3.49719 h -1.45716 v 3.69147 h 1.45716 v 24.09172"
       id="path26"
       inkscape:connector-curvature="0"
       style="fill:#000000;fill-opacity:1" />
    <path
       d="m 72.019036,144.21611 h -4.662913 v 22.44027 c 0,0.77715 -0.04857,1.70002 -1.214301,1.70002 -0.971439,0 -1.020012,-0.92287 -1.020012,-1.70002 v -22.44027 h -4.662913 v 22.82884 c 0,2.91432 -0.09714,5.29435 3.594329,5.29435 1.262871,0 2.525745,-0.63144 3.205753,-1.94288 h 0.09714 v 1.60288 h 4.662913 v -27.78319"
       id="path28"
       inkscape:connector-curvature="0"
       style="fill:#000000;fill-opacity:1" />
    <path
       d="m 73.930043,171.9993 h 4.662913 v -22.44027 c 0,-0.77715 0.04857,-1.70002 1.2143,-1.70002 0.971439,0 1.020012,0.92287 1.020012,1.70002 v 22.44027 h 4.662913 v -23.12028 c 0,-2.91432 -0.04858,-5.00292 -3.594328,-5.00292 -1.262871,0 -2.525746,0.63144 -3.205753,1.94288 h -0.09714 v -1.60287 h -4.662913 v 27.78319"
       id="path30"
       inkscape:connector-curvature="0"
       style="fill:#000000;fill-opacity:1" />
    <path
       d="m 92.161246,171.9993 v -14.62018 h 0.194288 l 2.574316,14.62018 h 4.760057 l -2.817176,-15.25161 2.67146,-12.53158 h -4.662913 l -2.525744,12.77444 h -0.194288 v -19.57452 h -4.662913 v 34.58327 h 4.662913"
       id="path32"
       inkscape:connector-curvature="0"
       style="fill:#000000;fill-opacity:1" />
    <path
       d="m 106.36096,171.9993 v -5.3915 h -4.8572 v 5.3915 h 4.8572"
       id="path34"
       inkscape:connector-curvature="0"
       style="fill:#000000;fill-opacity:1" />
    <path
       d="m 108.93605,171.9993 h 4.66291 v -22.44027 c 0,-0.77715 0.0486,-1.70002 1.2143,-1.70002 0.97144,0 1.02001,0.92287 1.02001,1.70002 v 22.44027 h 4.66292 v -23.12028 c 0,-2.91432 -0.0486,-5.00292 -3.59433,-5.00292 -1.26287,0 -2.52575,0.63144 -3.20576,1.94288 h -0.0971 v -1.60287 h -4.66291 v 27.78319"
       id="path36"
       inkscape:connector-curvature="0"
       style="fill:#000000;fill-opacity:1" />
    <path
       d="m 129.30441,161.0706 v 6.50865 c 0,1.26287 -0.43715,1.36001 -1.11716,1.36001 -0.68,0 -1.11715,-0.0971 -1.11715,-1.36001 v -8.84011 h 6.89722 v -10.20012 c 0,-2.86575 -2.23431,-4.66292 -5.78007,-4.66292 -3.54575,0 -5.78006,1.79717 -5.78006,4.66292 v 19.13737 c 0,2.86574 2.23431,4.66291 5.78006,4.66291 3.54576,0 5.78007,-1.79717 5.78007,-4.66291 v -6.60579 h -4.66291 m 0,-5.58579 h -2.23431 v -6.84865 c 0,-1.26287 0.43715,-1.36002 1.11715,-1.36002 0.68001,0 1.11716,0.0971 1.11716,1.36002 v 6.84865"
       id="path38"
       inkscape:connector-curvature="0"
       style="fill:#000000;fill-opacity:1" />
    <path
       d="m 141.22125,139.21319 h -4.66291 v 5.00292 h -1.36002 v 3.69147 h 1.36002 v 20.40025 c 0,1.06858 0.63144,3.69147 3.49718,3.69147 h 2.67146 v -3.69147 h -0.48572 c -0.48572,0 -1.02001,-0.14572 -1.02001,-2.23432 v -18.16593 h 1.50573 v -3.69147 h -1.50573 v -5.00292"
       id="path40"
       inkscape:connector-curvature="0"
       style="fill:#000000;fill-opacity:1" />
  </g>
</svg>
