<?xml version="1.0" encoding="UTF-8" standalone="no"?>
<!-- Generator: Adobe Illustrator 19.2.1, SVG Export Plug-In . SVG Version: 6.00 Build 0)  -->

<svg
   xmlns:dc="http://purl.org/dc/elements/1.1/"
   xmlns:cc="http://creativecommons.org/ns#"
   xmlns:rdf="http://www.w3.org/1999/02/22-rdf-syntax-ns#"
   xmlns:svg="http://www.w3.org/2000/svg"
   xmlns="http://www.w3.org/2000/svg"
   xmlns:sodipodi="http://sodipodi.sourceforge.net/DTD/sodipodi-0.dtd"
   xmlns:inkscape="http://www.inkscape.org/namespaces/inkscape"
   version="1.1"
   id="Layer_11"
   x="0px"
   y="0px"
   viewBox="0 0 175.60001 175.7"
   xml:space="preserve"
   sodipodi:docname="GSoC-icon.svg"
   width="175.60001"
   height="175.7"
   inkscape:version="0.92.4 (f8dce91, 2019-08-02)"><metadata
   id="metadata15"><rdf:RDF><cc:Work
       rdf:about=""><dc:format>image/svg+xml</dc:format><dc:type
         rdf:resource="http://purl.org/dc/dcmitype/StillImage" /><dc:title></dc:title></cc:Work></rdf:RDF></metadata><defs
   id="defs13" /><sodipodi:namedview
   pagecolor="#ffffff"
   bordercolor="#666666"
   borderopacity="1"
   objecttolerance="10"
   gridtolerance="10"
   guidetolerance="10"
   inkscape:pageopacity="0"
   inkscape:pageshadow="2"
   inkscape:window-width="1536"
   inkscape:window-height="1129"
   id="namedview11"
   showgrid="false"
   fit-margin-top="0"
   fit-margin-left="0"
   fit-margin-right="0"
   fit-margin-bottom="0"
   inkscape:zoom="1.2291667"
   inkscape:cx="87.8"
   inkscape:cy="87.7"
   inkscape:window-x="0"
   inkscape:window-y="36"
   inkscape:window-maximized="0"
   inkscape:current-layer="Layer_11" />
<style
   type="text/css"
   id="style2">
	.st0{fill:#FBBC05;}
</style>
<g
   id="g8"
   transform="translate(-8.2,-8)">
	<path
   class="st0"
   d="M 158.1,33.7 H 121.7 L 96,8 70.3,33.7 H 33.9 V 70.1 L 8.2,95.9 33.9,121.6 V 158 H 70.3 L 96,183.7 121.7,158 h 36.4 V 121.6 L 183.8,95.9 158.1,70.2 Z m 0.6,62.2 c 0,34.6 -28.1,62.7 -62.7,62.7 -34.6,0 -62.7,-28.1 -62.7,-62.7 0,-34.6 28.1,-62.7 62.7,-62.7 34.6,0 62.7,28.1 62.7,62.7 z"
   id="path4"
   inkscape:connector-curvature="0"
   style="fill:#fbbc05" />
	<path
   class="st0"
   d="m 96,41.2 c -30.2,0 -54.7,24.5 -54.7,54.7 0,30.2 24.5,54.7 54.7,54.7 30.2,0 54.7,-24.5 54.7,-54.7 C 150.7,65.7 126.2,41.2 96,41.2 Z M 79.9,75.6 v 9 l -14.5,11.3 14.5,11.3 v 9 l -1,-0.7 L 57.4,98.7 56,97.6 v -3.4 l 1.4,-1.1 21.5,-16.7 z m 25.8,-5.2 -11.9,52.6 -0.1,0.4 h -7.4 l 0.4,-2 11.9,-52.5 0.1,-0.4 h 7.4 z m 30.3,27.2 -1.4,1.1 -21.6,16.7 -1,0.7 v -9 L 126.5,95.8 112,84.5 v -9 0 l 1,0.7 21.5,16.8 1.4,1.1 v 3.5 z"
   id="path6"
   inkscape:connector-curvature="0"
   style="fill:#fbbc05" />
</g>
</svg>