<?xml version="1.0" encoding="UTF-8" standalone="no"?>
<svg
   id="svg8"
   version="1.1"
   viewBox="0 0 84.931252 84.931252"
   height="321"
   width="321"
   xmlns="http://www.w3.org/2000/svg"
   xmlns:svg="http://www.w3.org/2000/svg"
   xmlns:rdf="http://www.w3.org/1999/02/22-rdf-syntax-ns#"
   xmlns:cc="http://creativecommons.org/ns#"
   xmlns:dc="http://purl.org/dc/elements/1.1/">
  <defs
     id="defs2" />
  <metadata
     id="metadata5">
    <rdf:RDF>
      <cc:Work
         rdf:about="">
        <dc:format>image/svg+xml</dc:format>
        <dc:type
           rdf:resource="http://purl.org/dc/dcmitype/StillImage" />
      </cc:Work>
    </rdf:RDF>
  </metadata>
  <g
     id="layer2"
     transform="translate(-53.025592,-74.829872)">
    <g
       id="g1244"
       transform="matrix(3.1339963,0,0,3.1339963,-156.80697,-140.34055)">
      <path
         style="fill:#78b3d0;fill-opacity:1;stroke:none;stroke-width:0.0844236px;stroke-linecap:butt;stroke-linejoin:miter;stroke-opacity:1"
         d="m 71.581086,82.19622 -0.1199,-1.325927 2.239292,-1.128083 -1.650012,-6.064725 2.655431,-0.361629 3.930148,1.948858 1.362663,-3.318139 1.03966,1.101051 -0.376979,8.087795 1.031327,0.423546 1.654853,-2.075557 -0.709113,-4.084017 5.39375,-1.444141 -0.407834,1.569799 -3.823526,3.577613 0.139553,1.181146 4.679907,1.834103 0.0248,0.84366 -6.579888,-0.323817 -0.876929,1.607093 -0.899914,0.370318 -0.201643,5.694089 -0.935443,0.135011 -2.192212,-4.381809 -1.787847,0.949525 -3.147106,2.649691 -0.56102,-0.595389 1.54608,-4.811792 3.344194,1.502388 1.753455,-1.177458 -0.129304,-1.708378 z"
         id="path3977" />
      <path
         id="path3767"
         style="display:inline;fill:#a2d3ea;fill-opacity:1;stroke:none;stroke-width:0.0844236px;stroke-linecap:butt;stroke-linejoin:miter;stroke-opacity:1"
         d="m 77.054938,86.519996 1.619145,3.613958 -0.408726,0.625598 -6.856296,0.899237 0.312937,-1.420469 4.631378,-4.48144 -4.41117,-2.482535 0.189202,-0.767145 6.204968,0.02645 2.325012,-1.39823 0.188683,-7.1717 1.165977,-0.21361 1.33152,5.733299 4.874326,-4.344253 0.276763,0.727342 -0.332084,5.662638 -4.575669,-1.593933 -1.455107,0.78038 -0.443082,0.843383 -1.189141,0.324633 -0.292414,-0.158657 -2.233633,1.146102 0.129304,1.708378 z m 3.124181,4.863618 0.109254,-6.768448 1.610479,-0.884217 0.73928,-0.922174 5.874052,0.604218 0.858462,7.89352 -6.59546,-0.670811 -1.676411,2.691222 -0.86467,-1.437688 z" />
      <path
         style="display:inline;fill:#4386a9;fill-opacity:1;stroke-width:0.0846667"
         d="m 80.357455,95.561592 c -0.09665,-0.104775 -0.357345,-0.7239 -0.579318,-1.375833 -0.534797,-1.570686 -0.850109,-2.324596 -1.070216,-2.55889 -0.169939,-0.180891 -0.246748,-0.192715 -1.245845,-0.191772 -0.890731,8.46e-4 -1.244625,0.04349 -2.165409,0.260973 -4.40443,1.040296 -5.056871,1.144913 -5.320877,0.853189 -0.303011,-0.334824 -0.227565,-0.627586 1.334689,-5.179166 0.403077,-1.174352 0.726522,-2.468555 0.726522,-2.907039 0,-0.351178 -0.374429,-0.673184 -1.670595,-1.436697 -1.097646,-0.646574 -1.292738,-0.838497 -1.292738,-1.271743 0,-0.49217 0.35173,-0.705044 2.116666,-1.28105 0.88028,-0.287288 1.283648,-0.462061 1.425504,-0.61765 0.217868,-0.238961 0.221464,-0.194553 -0.107981,-1.333488 -0.614597,-2.12474 -0.708027,-2.560533 -0.978199,-4.562713 -0.129763,-0.961639 -0.149443,-1.3375 -0.08296,-1.5844 0.09677,-0.359387 0.352019,-0.583886 0.663852,-0.583886 0.112862,0 0.99021,0.385229 1.949661,0.856064 1.907995,0.936319 3.765704,1.768602 3.947633,1.768602 0.310842,0 0.543841,-0.405972 0.996145,-1.735666 0.892607,-2.624103 1.319502,-3.722587 1.505327,-3.8735 0.407265,-0.330749 1.079901,-0.08046 1.255026,0.46699 0.04818,0.150614 0.163181,0.711993 0.255558,1.24751 0.286497,1.660855 0.828076,3.894541 0.986791,4.069918 0.08134,0.08988 0.239123,0.163415 0.350633,0.163415 0.11151,0 0.743781,-0.213071 1.405044,-0.47349 1.47121,-0.579392 3.221179,-1.130226 3.599698,-1.133069 0.154403,-0.0012 0.350421,0.03519 0.435595,0.08077 0.327335,0.175184 0.348374,0.480996 0.288331,4.190875 l -0.05762,3.55985 0.203812,0.223418 c 0.138678,0.152018 0.474389,0.310432 1.050479,0.495695 1.384525,0.445246 1.651,0.63041 1.651,1.147218 0,0.378217 -0.455844,0.715507 -1.523468,1.127248 -0.528879,0.203968 -1.050158,0.459412 -1.158398,0.567651 -0.237189,0.23719 -0.262073,0.727736 -0.06875,1.355209 0.159161,0.516581 0.891508,4.98424 0.901901,5.50202 0.0052,0.26045 -0.04232,0.435317 -0.151334,0.556603 -0.142655,0.158711 -0.219732,0.171363 -0.751623,0.123382 -0.325966,-0.02941 -1.087966,-0.148597 -1.693333,-0.26487 -0.605367,-0.116273 -1.816489,-0.313516 -2.691383,-0.438318 l -1.590717,-0.226914 -0.194335,0.206526 c -0.175239,0.186232 -0.735684,1.551706 -1.361469,3.317098 -0.127746,0.360382 -0.307518,0.750906 -0.399493,0.867834 -0.112017,0.142406 -0.278652,0.214793 -0.44771,0.215869 -0.161711,0.001 -0.32564,-0.06319 -0.446105,-0.193779 z m 1.250061,-3.640666 c 0.501726,-1.300434 0.669923,-1.80722 1.090772,-3.286544 0.23094,-0.811776 0.476861,-1.635685 0.546491,-1.83091 0.189937,-0.532534 0.06766,-0.835362 -0.622865,-1.542517 -0.842297,-0.862591 -1.195097,-0.944853 -1.680623,-0.391871 l -0.241534,0.275094 -0.05976,2.452903 c -0.05926,2.432617 0.03266,4.535972 0.212966,4.872873 0.044,0.08221 0.171135,0.149472 0.282528,0.149472 0.175457,0 0.238562,-0.09338 0.472025,-0.6985 z M 74.179034,90.91691 c 1.451395,-0.349728 1.996975,-0.442911 2.850343,-0.486833 1.033443,-0.05319 1.058027,-0.05905 1.182977,-0.282169 0.148719,-0.265563 0.142884,-0.286319 -0.531001,-1.888815 -0.485087,-1.153537 -0.778717,-1.527694 -1.141892,-1.455059 -0.12765,0.02553 -0.707148,0.360733 -1.287775,0.744896 -0.767138,0.507565 -1.282717,0.931491 -1.886307,1.550987 -0.742003,0.761555 -1.497712,1.727535 -1.497712,1.914442 0,0.114493 0.257558,0.335067 0.391248,0.335067 0.06883,0 0.932887,-0.194632 1.920119,-0.432516 z m 13.302708,-0.211543 c 0.355486,-0.136412 0.140533,-0.449187 -1.365374,-1.986728 -0.824616,-0.841937 -1.57012,-1.568697 -1.656678,-1.615022 -0.337067,-0.180392 -0.511355,0.08494 -0.849754,1.293643 -0.360536,1.287767 -0.366719,1.347244 -0.164102,1.57856 0.183713,0.209736 0.558492,0.299105 2.2225,0.52998 0.721783,0.100145 1.328208,0.197579 1.347611,0.21652 0.05241,0.05117 0.312991,0.04169 0.465797,-0.01695 z m -7.792008,-0.758455 c 0.02797,-0.07288 0.07626,-1.121198 0.107306,-2.329588 l 0.05645,-2.197072 -0.198566,-0.211365 c -0.23061,-0.245473 -0.759617,-0.411002 -1.084513,-0.339351 -0.342507,0.07554 -0.945358,0.688626 -0.945695,0.961756 -1.69e-4,0.124557 0.185841,0.645567 0.413322,1.157801 0.22748,0.512233 0.594362,1.369483 0.815293,1.905 0.220931,0.535516 0.439652,1.021291 0.486046,1.0795 0.116219,0.145814 0.289215,0.132639 0.350352,-0.02668 z m 9.083786,-0.171994 c 0.0682,-0.177731 -0.189012,-1.969535 -0.436367,-3.039825 -0.107621,-0.465667 -0.22233,-1.010072 -0.254911,-1.209789 -0.04161,-0.255089 -0.123043,-0.404928 -0.273701,-0.503644 -0.208995,-0.136938 -0.238741,-0.12821 -1.166234,0.342204 -1.792373,0.90907 -1.793238,0.914756 -0.36014,2.369449 0.570442,0.579038 1.269596,1.305693 1.553676,1.614788 0.522188,0.56817 0.829718,0.708152 0.937677,0.426817 z M 72.998116,88.362072 c 0.469478,-0.47643 1.101212,-1.001586 1.603911,-1.333319 0.808625,-0.533615 0.828735,-0.554711 0.804334,-0.843812 -0.02414,-0.286054 -0.05639,-0.312008 -0.914027,-0.735663 -0.909192,-0.449124 -1.264184,-0.533893 -1.42489,-0.340255 -0.05003,0.06028 -0.167666,0.453971 -0.26142,0.874871 -0.09375,0.4209 -0.340279,1.252476 -0.547834,1.847944 -0.559965,1.606522 -0.419703,1.707034 0.739926,0.530234 z m 12.269636,-3.172146 c 0.386167,-0.221192 1.08906,-0.592667 1.561982,-0.8255 0.472924,-0.232833 0.88013,-0.470958 0.904906,-0.529167 0.0936,-0.219898 -0.04972,-0.359833 -0.368537,-0.359833 -0.290948,0 -3.012897,-0.26345 -4.044612,-0.391466 C 82.72794,83.01031 82.451,83.17965 82.451,83.616238 c 0,0.273351 0.08809,0.395899 0.820182,1.141048 0.651086,0.662696 0.869071,0.834807 1.057314,0.834807 0.130423,0 0.553089,-0.180975 0.939256,-0.402167 z m -8.12942,-0.211224 c 0.56552,-0.469454 0.740669,-0.718838 0.740669,-1.054593 0,-0.356814 -0.114128,-0.58245 -0.361774,-0.715249 -0.109684,-0.05882 -0.843767,-0.13126 -1.754893,-0.173181 -0.861483,-0.03964 -1.862385,-0.100863 -2.224226,-0.13606 -0.708582,-0.06892 -0.908441,-0.01631 -0.908441,0.239164 0,0.218787 1.256264,1.060189 2.613056,1.750134 1.197252,0.608818 1.266419,0.612095 1.895609,0.08978 z m 3.499992,-0.986132 c 0.143911,-0.08776 0.420136,-0.310314 0.613833,-0.494574 0.310876,-0.295728 0.352177,-0.379506 0.352177,-0.714368 0,-0.416751 -0.183269,-0.661337 -0.619345,-0.826562 -0.559148,-0.211856 -1.516712,0.04944 -2.07112,0.565151 -0.272886,0.25384 -0.291774,0.303527 -0.251433,0.661438 0.05018,0.445227 0.302627,0.765039 0.693566,0.878657 0.450011,0.130786 1.002777,0.100723 1.282322,-0.06974 z m 7.711245,-1.497376 c 0.0827,-0.215508 -0.122288,-0.33348 -1.241902,-0.714728 -0.582083,-0.198209 -1.192108,-0.427461 -1.355611,-0.509448 -0.575421,-0.288539 -2.329508,-0.928258 -2.545251,-0.928258 -0.304794,0 -0.547646,0.296788 -0.713347,0.871776 -0.130155,0.451646 -0.13058,0.507338 -0.0053,0.6985 0.07486,0.114248 0.182852,0.209994 0.239986,0.21277 0.05713,0.0028 0.294382,0.0405 0.527216,0.08382 0.4022,0.07484 1.317043,0.190078 2.624666,0.330605 0.325967,0.03503 1.003437,0.06928 1.50549,0.07611 0.760866,0.01035 0.921356,-0.0098 0.964078,-0.121149 z M 77.883331,82.116429 c 0.204406,-0.204406 0.1822,-0.307767 -0.235536,-1.096336 -0.34974,-0.66021 -0.426832,-0.758855 -0.663323,-0.848769 -0.331186,-0.125916 -2.97179,0.431443 -4.507124,0.95133 -0.732284,0.247962 -0.785549,0.281417 -0.762,0.478592 0.01838,0.153912 0.09426,0.230294 0.276933,0.278787 0.349074,0.09267 3.032135,0.321518 4.10872,0.350454 0.48895,0.01314 1.050925,0.03193 1.248833,0.04175 0.266331,0.01322 0.40496,-0.02727 0.533497,-0.155808 z m 1.841025,-0.98263 c 0.291603,-0.184037 0.338685,-0.37711 0.440659,-1.807039 0.05147,-0.721784 0.127122,-1.674284 0.168109,-2.116667 0.127351,-1.374521 0.196366,-3.336149 0.134731,-3.829462 -0.04535,-0.362978 -0.09598,-0.481112 -0.220097,-0.513569 -0.08866,-0.02318 -0.195607,0.0015 -0.237663,0.05494 -0.04206,0.0534 -0.402956,1.087693 -0.802003,2.298426 -1.399577,4.24641 -1.389028,4.182554 -0.865526,5.238999 0.436573,0.88102 0.784959,1.051047 1.38179,0.674374 z m 1.879494,-0.155456 c 0.0577,-0.06953 0.215104,-0.345754 0.349776,-0.613833 0.134673,-0.26808 0.339776,-0.616877 0.455784,-0.775104 0.144046,-0.19647 0.210792,-0.397811 0.210507,-0.635 -8.89e-4,-0.745943 -0.738494,-4.464423 -0.921957,-4.647887 -0.142179,-0.142179 -0.347489,0.0073 -0.350267,0.255084 -0.0015,0.129519 -0.05842,0.94034 -0.126606,1.801823 -0.336772,4.255197 -0.341406,4.37938 -0.170439,4.568295 0.184808,0.204212 0.406881,0.222928 0.553202,0.04662 z m 6.250516,-0.106417 c 0.164864,-0.141369 0.174024,-0.254985 0.199649,-2.4765 0.01477,-1.280583 -0.0039,-2.375958 -0.04141,-2.434166 -0.117523,-0.182196 -0.378142,-0.116038 -0.562433,0.142774 -0.09736,0.136734 -0.443716,0.442583 -0.769673,0.679664 -0.325957,0.237081 -1.030309,0.858633 -1.565225,1.381226 -1.254992,1.226079 -1.277645,1.423537 -0.208941,1.82128 0.256116,0.09532 0.694266,0.276448 0.973666,0.402508 0.55174,0.248935 1.55019,0.614956 1.705121,0.625079 0.05305,0.0035 0.174209,-0.06037 0.269246,-0.141865 z M 75.419687,79.502218 c 1.230706,-0.248284 1.277106,-0.405416 0.426837,-1.445458 -1.115613,-1.364609 -2.264019,-2.922489 -2.555089,-3.466128 -0.319357,-0.596473 -0.387529,-0.652659 -0.598386,-0.49318 -0.131496,0.09945 -0.127522,0.181368 0.05654,1.165308 0.10889,0.582083 0.378375,1.667933 0.598856,2.413 0.22048,0.745066 0.421025,1.430866 0.445654,1.524 0.133341,0.504223 0.389355,0.551857 1.625585,0.302458 z m 8.8658,-1.647385 c 0.225049,-0.250759 0.816438,-0.784979 1.314197,-1.187154 1.069338,-0.863994 1.779125,-1.625017 1.744019,-1.869914 -0.04092,-0.28545 -0.395284,-0.243844 -1.510834,0.177387 -0.579444,0.218797 -1.354163,0.503253 -1.721597,0.632124 -0.367433,0.12887 -0.746975,0.313224 -0.843425,0.409675 -0.173634,0.173633 -0.17399,0.184748 -0.03612,1.125736 0.13785,0.940843 0.243049,1.168073 0.540774,1.168073 0.05709,0 0.287936,-0.205167 0.512986,-0.455927 z m -6.775443,-0.05207 c 0.05651,-0.162984 0.206225,-0.647071 0.332709,-1.07575 0.219881,-0.745219 0.223669,-0.789033 0.08635,-0.998612 -0.07899,-0.120558 -0.246405,-0.257293 -0.372028,-0.303856 -0.125623,-0.04656 -0.887305,-0.394555 -1.692626,-0.773315 l -1.464221,-0.688656 -0.18162,0.18162 -0.181619,0.18162 0.312111,0.447308 c 0.171662,0.246019 0.616468,0.828307 0.988458,1.293974 0.371991,0.465667 0.892523,1.124836 1.156739,1.46482 0.400986,0.515976 0.516147,0.613941 0.696702,0.592666 0.161143,-0.01899 0.24251,-0.10106 0.319047,-0.321819 z"
         id="path1246" />
    </g>
  </g>
</svg>
