<?xml version="1.0" encoding="UTF-8" standalone="no"?>
<svg
   xmlns:dc="http://purl.org/dc/elements/1.1/"
   xmlns:cc="http://creativecommons.org/ns#"
   xmlns:rdf="http://www.w3.org/1999/02/22-rdf-syntax-ns#"
   xmlns:svg="http://www.w3.org/2000/svg"
   xmlns="http://www.w3.org/2000/svg"
   xmlns:sodipodi="http://sodipodi.sourceforge.net/DTD/sodipodi-0.dtd"
   xmlns:inkscape="http://www.inkscape.org/namespaces/inkscape"
   version="1.1"
   id="Capa_1"
   x="0px"
   y="0px"
   viewBox="0 0 480 480"
   style="enable-background:new 0 0 480 480;"
   xml:space="preserve"
   sodipodi:docname="network.svg"
   inkscape:version="1.0.1 (c497b03c, 2020-09-10)"><metadata
   id="metadata2992"><rdf:RDF><cc:Work
       rdf:about=""><dc:format>image/svg+xml</dc:format><dc:type
         rdf:resource="http://purl.org/dc/dcmitype/StillImage" /></cc:Work></rdf:RDF></metadata><defs
   id="defs2990" /><sodipodi:namedview
   pagecolor="#ffffff"
   bordercolor="#666666"
   borderopacity="1"
   objecttolerance="10"
   gridtolerance="10"
   guidetolerance="10"
   inkscape:pageopacity="0"
   inkscape:pageshadow="2"
   inkscape:window-width="689"
   inkscape:window-height="480"
   id="namedview2988"
   showgrid="false"
   inkscape:zoom="1.1854167"
   inkscape:cx="240"
   inkscape:cy="240"
   inkscape:window-x="55"
   inkscape:window-y="23"
   inkscape:window-maximized="0"
   inkscape:current-layer="Capa_1" />
<g
   id="g2829"
   style="fill:#ffffff">
	<g
   id="g2827"
   style="fill:#ffffff">
		<path
   d="M 277.648,97.336 C 288.888,87.088 296,72.376 296,56 296,25.128 270.88,0 240,0 c -30.88,0 -56,25.128 -56,56 0,16.376 7.112,31.088 18.352,41.336 C 169.16,103.736 144,132.968 144,168 v 32 c 0,4.424 3.584,8 8,8 h 176 c 4.416,0 8,-3.576 8,-8 v -32 c 0,-35.032 -25.16,-64.264 -58.352,-70.664 z M 200,56 c 0,-22.056 17.944,-40 40,-40 22.056,0 40,17.944 40,40 0,22.056 -17.944,40 -40,40 -22.056,0 -40,-17.944 -40,-40 z M 320,192 H 160 v -24 c 0,-30.872 25.12,-56 56,-56 h 48 c 30.88,0 56,25.128 56,56 z"
   id="path2825"
   style="fill:#ffffff" />
	</g>
</g>
<g
   id="g2835"
   style="fill:#ffffff">
	<g
   id="g2833"
   style="fill:#ffffff">
		<path
   d="M 133.648,369.336 C 144.888,359.088 152,344.376 152,328 c 0,-30.872 -25.12,-56 -56,-56 -30.88,0 -56,25.128 -56,56 0,16.376 7.112,31.088 18.352,41.336 C 25.16,375.736 0,404.968 0,440 v 32 c 0,4.424 3.584,8 8,8 h 176 c 4.416,0 8,-3.576 8,-8 v -32 c 0,-35.032 -25.16,-64.264 -58.352,-70.664 z M 56,328 c 0,-22.056 17.944,-40 40,-40 22.056,0 40,17.944 40,40 0,22.056 -17.944,40 -40,40 -22.056,0 -40,-17.944 -40,-40 z M 176,464 H 16 v -24 c 0,-30.872 25.12,-56 56,-56 h 48 c 30.88,0 56,25.128 56,56 z"
   id="path2831"
   style="fill:#ffffff" />
	</g>
</g>
<g
   id="g2841"
   style="fill:#ffffff">
	<g
   id="g2839"
   style="fill:#ffffff">
		<path
   d="M 421.648,369.336 C 432.888,359.088 440,344.376 440,328 c 0,-30.872 -25.12,-56 -56,-56 -30.88,0 -56,25.128 -56,56 0,16.376 7.112,31.088 18.352,41.336 C 313.16,375.736 288,404.968 288,440 v 32 c 0,4.424 3.584,8 8,8 h 176 c 4.416,0 8,-3.576 8,-8 v -32 c 0,-35.032 -25.16,-64.264 -58.352,-70.664 z M 344,328 c 0,-22.056 17.944,-40 40,-40 22.056,0 40,17.944 40,40 0,22.056 -17.944,40 -40,40 -22.056,0 -40,-17.944 -40,-40 z M 464,464 H 304 v -24 c 0,-30.872 25.12,-56 56,-56 h 48 c 30.88,0 56,25.128 56,56 z"
   id="path2837"
   style="fill:#ffffff" />
	</g>
</g>
<g
   id="g2847"
   style="fill:#ffffff">
	<g
   id="g2845"
   style="fill:#ffffff">
		<path
   d="m 48.152,255.744 -15.984,0.624 c 0.216,5.512 0.656,11.096 1.312,16.584 l 15.888,-1.904 c -0.608,-5.064 -1.016,-10.216 -1.216,-15.304 z"
   id="path2843"
   style="fill:#ffffff" />
	</g>
</g>
<g
   id="g2853"
   style="fill:#ffffff">
	<g
   id="g2851"
   style="fill:#ffffff">
		<path
   d="m 33.472,223.176 c -0.648,5.456 -1.096,11.032 -1.304,16.576 l 15.984,0.624 c 0.2,-5.12 0.608,-10.264 1.208,-15.312 z"
   id="path2849"
   style="fill:#ffffff" />
	</g>
</g>
<g
   id="g2859"
   style="fill:#ffffff">
	<g
   id="g2857"
   style="fill:#ffffff">
		<path
   d="m 113.912,82.544 c -4.376,3.336 -8.688,6.904 -12.824,10.616 l 10.696,11.904 c 3.808,-3.424 7.784,-6.72 11.824,-9.792 z"
   id="path2855"
   style="fill:#ffffff" />
	</g>
</g>
<g
   id="g2865"
   style="fill:#ffffff">
	<g
   id="g2863"
   style="fill:#ffffff">
		<path
   d="m 51.736,159.44 c -2.352,5 -4.528,10.152 -6.48,15.344 l 14.976,5.624 c 1.8,-4.784 3.808,-9.536 5.976,-14.136 z"
   id="path2861"
   style="fill:#ffffff" />
	</g>
</g>
<g
   id="g2871"
   style="fill:#ffffff">
	<g
   id="g2869"
   style="fill:#ffffff">
		<path
   d="m 40.024,190.584 c -1.52,5.288 -2.84,10.736 -3.936,16.16 l 15.688,3.16 c 1.008,-5 2.224,-10.024 3.632,-14.912 z"
   id="path2867"
   style="fill:#ffffff" />
	</g>
</g>
<g
   id="g2877"
   style="fill:#ffffff">
	<g
   id="g2875"
   style="fill:#ffffff">
		<path
   d="m 89.176,104.776 c -3.832,4.032 -7.512,8.232 -10.968,12.496 l 12.44,10.064 c 3.184,-3.936 6.592,-7.824 10.128,-11.544 z"
   id="path2873"
   style="fill:#ffffff" />
	</g>
</g>
<g
   id="g2883"
   style="fill:#ffffff">
	<g
   id="g2881"
   style="fill:#ffffff">
		<path
   d="m 141.864,64.568 c -4.84,2.584 -9.664,5.424 -14.352,8.44 l 8.672,13.456 c 4.32,-2.792 8.768,-5.408 13.216,-7.784 z"
   id="path2879"
   style="fill:#ffffff" />
	</g>
</g>
<g
   id="g2889"
   style="fill:#ffffff">
	<g
   id="g2887"
   style="fill:#ffffff">
		<path
   d="m 68.272,130.6 c -3.128,4.568 -6.104,9.304 -8.848,14.096 l 13.88,7.952 c 2.528,-4.416 5.28,-8.792 8.168,-13 z"
   id="path2885"
   style="fill:#ffffff" />
	</g>
</g>
<g
   id="g2895"
   style="fill:#ffffff">
	<g
   id="g2893"
   style="fill:#ffffff">
		<path
   d="m 202.096,436.256 -3.16,15.688 c 5.384,1.088 10.92,1.96 16.448,2.608 l 1.856,-15.888 c -5.08,-0.6 -10.184,-1.408 -15.144,-2.408 z"
   id="path2891"
   style="fill:#ffffff" />
	</g>
</g>
<g
   id="g2901"
   style="fill:#ffffff">
	<g
   id="g2899"
   style="fill:#ffffff">
		<path
   d="m 278.408,436.16 c -4.968,1.008 -10.064,1.832 -15.168,2.456 l 1.928,15.888 c 5.52,-0.672 11.04,-1.568 16.416,-2.656 z"
   id="path2897"
   style="fill:#ffffff" />
	</g>
</g>
<g
   id="g2907"
   style="fill:#ffffff">
	<g
   id="g2905"
   style="fill:#ffffff">
		<path
   d="m 247.944,439.84 c -5.112,0.2 -10.28,0.224 -15.36,0.024 l -0.632,15.984 c 2.664,0.112 5.352,0.16 8.072,0.16 2.864,-0.016 5.72,-0.072 8.56,-0.184 z"
   id="path2903"
   style="fill:#ffffff" />
	</g>
</g>
<g
   id="g2913"
   style="fill:#ffffff">
	<g
   id="g2911"
   style="fill:#ffffff">
		<path
   d="m 378.944,93.224 -10.688,11.904 c 3.808,3.424 7.504,7.024 11,10.704 l 11.616,-11 c -3.792,-4 -7.8,-7.904 -11.928,-11.608 z"
   id="path2909"
   style="fill:#ffffff" />
	</g>
</g>
<g
   id="g2919"
   style="fill:#ffffff">
	<g
   id="g2917"
   style="fill:#ffffff">
		<path
   d="m 401.824,117.32 -12.44,10.064 c 3.192,3.944 6.28,8.096 9.176,12.32 l 13.192,-9.048 c -3.136,-4.568 -6.472,-9.056 -9.928,-13.336 z"
   id="path2915"
   style="fill:#ffffff" />
	</g>
</g>
<g
   id="g2925"
   style="fill:#ffffff">
	<g
   id="g2923"
   style="fill:#ffffff">
		<path
   d="m 447.832,239.776 -15.984,0.624 c 0.104,2.52 0.152,5.064 0.152,7.6 0,2.6 -0.048,5.184 -0.152,7.768 l 15.984,0.624 c 0.112,-2.784 0.168,-5.584 0.168,-8.408 0,-2.744 -0.056,-5.488 -0.168,-8.208 z"
   id="path2921"
   style="fill:#ffffff" />
	</g>
</g>
<g
   id="g2931"
   style="fill:#ffffff">
	<g
   id="g2929"
   style="fill:#ffffff">
		<path
   d="m 420.608,144.736 -13.888,7.96 c 2.536,4.424 4.92,9.008 7.096,13.616 l 14.472,-6.832 c -2.352,-4.992 -4.936,-9.952 -7.68,-14.744 z"
   id="path2927"
   style="fill:#ffffff" />
	</g>
</g>
<g
   id="g2937"
   style="fill:#ffffff">
	<g
   id="g2935"
   style="fill:#ffffff">
		<path
   d="m 434.76,174.816 -14.976,5.632 c 1.792,4.768 3.408,9.672 4.816,14.568 l 15.384,-4.408 c -1.52,-5.312 -3.28,-10.624 -5.224,-15.792 z"
   id="path2933"
   style="fill:#ffffff" />
	</g>
</g>
<g
   id="g2943"
   style="fill:#ffffff">
	<g
   id="g2941"
   style="fill:#ffffff">
		<path
   d="m 443.904,206.776 -15.68,3.152 c 1.008,5.008 1.824,10.112 2.416,15.168 l 15.888,-1.888 c -0.648,-5.472 -1.528,-11 -2.624,-16.432 z"
   id="path2939"
   style="fill:#ffffff" />
	</g>
</g>
<g
   id="g2949"
   style="fill:#ffffff">
	<g
   id="g2947"
   style="fill:#ffffff">
		<path
   d="m 352.536,73.04 -8.664,13.456 c 4.272,2.752 8.496,5.72 12.568,8.832 L 366.152,82.6 c -4.408,-3.368 -8.984,-6.576 -13.616,-9.56 z"
   id="path2945"
   style="fill:#ffffff" />
	</g>
</g>
<g
   id="g2955"
   style="fill:#ffffff">
	<g
   id="g2953"
   style="fill:#ffffff">
		<path
   d="m 323.232,57.328 -6.408,14.656 c 4.664,2.04 9.304,4.296 13.808,6.712 L 338.2,64.6 c -4.872,-2.624 -9.912,-5.072 -14.968,-7.272 z"
   id="path2951"
   style="fill:#ffffff" />
	</g>
</g>
<g
   id="g2957"
   style="fill:#ffffff">
</g>
<g
   id="g2959"
   style="fill:#ffffff">
</g>
<g
   id="g2961"
   style="fill:#ffffff">
</g>
<g
   id="g2963"
   style="fill:#ffffff">
</g>
<g
   id="g2965"
   style="fill:#ffffff">
</g>
<g
   id="g2967"
   style="fill:#ffffff">
</g>
<g
   id="g2969"
   style="fill:#ffffff">
</g>
<g
   id="g2971"
   style="fill:#ffffff">
</g>
<g
   id="g2973"
   style="fill:#ffffff">
</g>
<g
   id="g2975"
   style="fill:#ffffff">
</g>
<g
   id="g2977"
   style="fill:#ffffff">
</g>
<g
   id="g2979"
   style="fill:#ffffff">
</g>
<g
   id="g2981"
   style="fill:#ffffff">
</g>
<g
   id="g2983"
   style="fill:#ffffff">
</g>
<g
   id="g2985"
   style="fill:#ffffff">
</g>
</svg>
