<?xml version="1.0" encoding="UTF-8" standalone="no"?>
<!DOCTYPE svg PUBLIC "-//W3C//DTD SVG 1.1//EN"
 "http://www.w3.org/Graphics/SVG/1.1/DTD/svg11.dtd">
<!-- Generated by graphviz version 2.43.0 (0)
 -->
<!-- Title: %3 Pages: 1 -->
<svg width="801pt" height="332pt"
 viewBox="0.00 0.00 800.55 332.00" xmlns="http://www.w3.org/2000/svg" xmlns:xlink="http://www.w3.org/1999/xlink">
<g id="graph0" class="graph" transform="scale(1 1) rotate(0) translate(4 328)">
<title>%3</title>
<polygon fill="white" stroke="transparent" points="-4,4 -4,-328 796.55,-328 796.55,4 -4,4"/>
<!-- R.A.T.M.A.N. -->
<g id="node1" class="node">
<title>R.A.T.M.A.N.</title>
<ellipse fill="none" stroke="black" cx="246.75" cy="-162" rx="61.99" ry="18"/>
<text text-anchor="middle" x="246.75" y="-158.3" font-family="Times-Roman" font-size="14.00">R.A.T.M.A.N.</text>
</g>
<!-- identity -->
<g id="node2" class="node">
<title>identity</title>
<ellipse fill="none" stroke="black" cx="178.75" cy="-18" rx="40.89" ry="18"/>
<text text-anchor="middle" x="178.75" y="-14.3" font-family="Times-Roman" font-size="14.00">identity</text>
</g>
<!-- R.A.T.M.A.N.&#45;&gt;identity -->
<g id="edge1" class="edge">
<title>R.A.T.M.A.N.&#45;&gt;identity</title>
<path fill="none" stroke="black" d="M188.19,-156.21C125.13,-149.69 30.83,-135.54 8.75,-108 -28.16,-61.96 67.41,-37.02 129.79,-26.03"/>
<polygon fill="black" stroke="black" points="130.59,-29.44 139.87,-24.32 129.42,-22.54 130.59,-29.44"/>
</g>
<!-- netmod -->
<g id="node3" class="node">
<title>netmod</title>
<ellipse fill="none" stroke="black" cx="59.75" cy="-90" rx="42.49" ry="18"/>
<text text-anchor="middle" x="59.75" y="-86.3" font-family="Times-Roman" font-size="14.00">netmod</text>
</g>
<!-- R.A.T.M.A.N.&#45;&gt;netmod -->
<g id="edge2" class="edge">
<title>R.A.T.M.A.N.&#45;&gt;netmod</title>
<path fill="none" stroke="black" d="M210.26,-147.34C178.66,-135.51 133.02,-118.43 100.3,-106.18"/>
<polygon fill="black" stroke="black" points="101.18,-102.77 90.59,-102.54 98.73,-109.33 101.18,-102.77"/>
</g>
<!-- diagnostics -->
<g id="node4" class="node">
<title>diagnostics</title>
<ellipse fill="none" stroke="black" cx="178.75" cy="-90" rx="58.49" ry="18"/>
<text text-anchor="middle" x="178.75" y="-86.3" font-family="Times-Roman" font-size="14.00">diagnostics</text>
</g>
<!-- R.A.T.M.A.N.&#45;&gt;diagnostics -->
<g id="edge3" class="edge">
<title>R.A.T.M.A.N.&#45;&gt;diagnostics</title>
<path fill="none" stroke="black" d="M230.64,-144.41C222.09,-135.61 211.42,-124.63 201.99,-114.92"/>
<polygon fill="black" stroke="black" points="204.23,-112.2 194.75,-107.47 199.21,-117.08 204.23,-112.2"/>
</g>
<!-- routing&#45;core -->
<g id="node5" class="node">
<title>routing&#45;core</title>
<ellipse fill="none" stroke="black" cx="314.75" cy="-90" rx="59.59" ry="18"/>
<text text-anchor="middle" x="314.75" y="-86.3" font-family="Times-Roman" font-size="14.00">routing&#45;core</text>
</g>
<!-- R.A.T.M.A.N.&#45;&gt;routing&#45;core -->
<g id="edge4" class="edge">
<title>R.A.T.M.A.N.&#45;&gt;routing&#45;core</title>
<path fill="none" stroke="black" d="M262.87,-144.41C271.42,-135.61 282.09,-124.63 291.52,-114.92"/>
<polygon fill="black" stroke="black" points="294.3,-117.08 298.76,-107.47 289.28,-112.2 294.3,-117.08"/>
</g>
<!-- persistence -->
<g id="node6" class="node">
<title>persistence</title>
<ellipse fill="none" stroke="black" cx="450.75" cy="-90" rx="57.69" ry="18"/>
<text text-anchor="middle" x="450.75" y="-86.3" font-family="Times-Roman" font-size="14.00">persistence</text>
</g>
<!-- R.A.T.M.A.N.&#45;&gt;persistence -->
<g id="edge5" class="edge">
<title>R.A.T.M.A.N.&#45;&gt;persistence</title>
<path fill="none" stroke="black" d="M285.13,-147.83C318.67,-136.32 367.51,-119.56 403.47,-107.23"/>
<polygon fill="black" stroke="black" points="404.92,-110.43 413.25,-103.87 402.65,-103.81 404.92,-110.43"/>
</g>
<!-- netmod&#45;&gt;identity -->
<g id="edge6" class="edge">
<title>netmod&#45;&gt;identity</title>
<path fill="none" stroke="black" d="M83.55,-75C101.55,-64.42 126.46,-49.76 146.29,-38.1"/>
<polygon fill="black" stroke="black" points="148.16,-41.06 155,-32.97 144.61,-35.03 148.16,-41.06"/>
</g>
<!-- diagnostics&#45;&gt;identity -->
<g id="edge7" class="edge">
<title>diagnostics&#45;&gt;identity</title>
<path fill="none" stroke="black" d="M178.75,-71.7C178.75,-63.98 178.75,-54.71 178.75,-46.11"/>
<polygon fill="black" stroke="black" points="182.25,-46.1 178.75,-36.1 175.25,-46.1 182.25,-46.1"/>
</g>
<!-- routing&#45;core&#45;&gt;identity -->
<g id="edge8" class="edge">
<title>routing&#45;core&#45;&gt;identity</title>
<path fill="none" stroke="black" d="M285.91,-74.15C264.76,-63.27 235.95,-48.44 213.52,-36.9"/>
<polygon fill="black" stroke="black" points="214.84,-33.64 204.35,-32.17 211.63,-39.86 214.84,-33.64"/>
</g>
<!-- libqaul -->
<g id="node7" class="node">
<title>libqaul</title>
<ellipse fill="none" stroke="black" cx="572.75" cy="-234" rx="38.19" ry="18"/>
<text text-anchor="middle" x="572.75" y="-230.3" font-family="Times-Roman" font-size="14.00">libqaul</text>
</g>
<!-- libqaul&#45;&gt;R.A.T.M.A.N. -->
<g id="edge9" class="edge">
<title>libqaul&#45;&gt;R.A.T.M.A.N.</title>
<path fill="none" stroke="black" d="M538.48,-225.64C483.05,-213.74 373.08,-190.13 305.13,-175.53"/>
<polygon fill="black" stroke="black" points="305.52,-172.04 295.01,-173.36 304.05,-178.88 305.52,-172.04"/>
</g>
<!-- libqaul&#45;&gt;identity -->
<g id="edge12" class="edge">
<title>libqaul&#45;&gt;identity</title>
<path fill="none" stroke="black" d="M567.23,-216.07C553.85,-175.22 520.64,-74.42 517.75,-72 475,-36.11 313.13,-24.36 229.48,-20.64"/>
<polygon fill="black" stroke="black" points="229.58,-17.15 219.44,-20.22 229.28,-24.14 229.58,-17.15"/>
</g>
<!-- platform -->
<g id="node8" class="node">
<title>platform</title>
<ellipse fill="none" stroke="black" cx="609.75" cy="-162" rx="44.69" ry="18"/>
<text text-anchor="middle" x="609.75" y="-158.3" font-family="Times-Roman" font-size="14.00">platform</text>
</g>
<!-- libqaul&#45;&gt;platform -->
<g id="edge10" class="edge">
<title>libqaul&#45;&gt;platform</title>
<path fill="none" stroke="black" d="M581.52,-216.41C585.84,-208.25 591.14,-198.22 595.98,-189.07"/>
<polygon fill="black" stroke="black" points="599.21,-190.43 600.79,-179.96 593.02,-187.16 599.21,-190.43"/>
</g>
<!-- qaul&#45;service -->
<g id="node9" class="node">
<title>qaul&#45;service</title>
<ellipse fill="none" stroke="black" cx="732.75" cy="-162" rx="59.59" ry="18"/>
<text text-anchor="middle" x="732.75" y="-158.3" font-family="Times-Roman" font-size="14.00">qaul&#45;service</text>
</g>
<!-- libqaul&#45;&gt;qaul&#45;service -->
<g id="edge11" class="edge">
<title>libqaul&#45;&gt;qaul&#45;service</title>
<path fill="none" stroke="black" d="M599.9,-221.13C624.81,-210.23 662.1,-193.91 690.84,-181.34"/>
<polygon fill="black" stroke="black" points="692.47,-184.45 700.22,-177.23 689.66,-178.03 692.47,-184.45"/>
</g>
<!-- qaul&#45;http -->
<g id="node10" class="node">
<title>qaul&#45;http</title>
<ellipse fill="none" stroke="black" cx="572.75" cy="-306" rx="46.29" ry="18"/>
<text text-anchor="middle" x="572.75" y="-302.3" font-family="Times-Roman" font-size="14.00">qaul&#45;http</text>
</g>
<!-- qaul&#45;http&#45;&gt;libqaul -->
<g id="edge13" class="edge">
<title>qaul&#45;http&#45;&gt;libqaul</title>
<path fill="none" stroke="black" d="M572.75,-287.7C572.75,-279.98 572.75,-270.71 572.75,-262.11"/>
<polygon fill="black" stroke="black" points="576.25,-262.1 572.75,-252.1 569.25,-262.1 576.25,-262.1"/>
</g>
</g>
</svg>
