<?xml version="1.0" encoding="UTF-8" standalone="no"?>
<!DOCTYPE svg PUBLIC "-//W3C//DTD SVG 1.1//EN"
 "http://www.w3.org/Graphics/SVG/1.1/DTD/svg11.dtd">
<!-- Generated by graphviz version 2.43.0 (0)
 -->
<!-- Title: %3 Pages: 1 -->
<svg width="435pt" height="260pt"
 viewBox="0.00 0.00 434.84 260.00" xmlns="http://www.w3.org/2000/svg" xmlns:xlink="http://www.w3.org/1999/xlink">
<g id="graph0" class="graph" transform="scale(1 1) rotate(0) translate(4 256)">
<title>%3</title>
<polygon fill="white" stroke="transparent" points="-4,4 -4,-256 430.84,-256 430.84,4 -4,4"/>
<!-- Ratman -->
<g id="node1" class="node">
<title>Ratman</title>
<ellipse fill="none" stroke="black" cx="97.95" cy="-162" rx="42.49" ry="18"/>
<text text-anchor="middle" x="97.95" y="-158.3" font-family="Times-Roman" font-size="14.00">Ratman</text>
</g>
<!-- identity -->
<g id="node2" class="node">
<title>identity</title>
<ellipse fill="none" stroke="black" cx="40.95" cy="-18" rx="40.89" ry="18"/>
<text text-anchor="middle" x="40.95" y="-14.3" font-family="Times-Roman" font-size="14.00">identity</text>
</g>
<!-- Ratman&#45;&gt;identity -->
<g id="edge1" class="edge">
<title>Ratman&#45;&gt;identity</title>
<path fill="none" stroke="black" d="M69.39,-148.51C53.16,-139.73 34.26,-126.28 24.95,-108 14.91,-88.32 20.74,-63.39 28.03,-44.92"/>
<polygon fill="black" stroke="black" points="31.28,-46.23 32.02,-35.66 24.85,-43.46 31.28,-46.23"/>
</g>
<!-- netmod -->
<g id="node3" class="node">
<title>netmod</title>
<ellipse fill="none" stroke="black" cx="75.95" cy="-90" rx="42.49" ry="18"/>
<text text-anchor="middle" x="75.95" y="-86.3" font-family="Times-Roman" font-size="14.00">netmod</text>
</g>
<!-- Ratman&#45;&gt;netmod -->
<g id="edge2" class="edge">
<title>Ratman&#45;&gt;netmod</title>
<path fill="none" stroke="black" d="M92.62,-144.05C90.17,-136.26 87.2,-126.82 84.46,-118.08"/>
<polygon fill="black" stroke="black" points="87.71,-116.77 81.38,-108.28 81.04,-118.86 87.71,-116.77"/>
</g>
<!-- Alexandria -->
<g id="node4" class="node">
<title>Alexandria</title>
<ellipse fill="none" stroke="black" cx="189.95" cy="-90" rx="53.89" ry="18"/>
<text text-anchor="middle" x="189.95" y="-86.3" font-family="Times-Roman" font-size="14.00">Alexandria</text>
</g>
<!-- Ratman&#45;&gt;Alexandria -->
<g id="edge3" class="edge">
<title>Ratman&#45;&gt;Alexandria</title>
<path fill="none" stroke="black" d="M117.91,-145.81C130.63,-136.13 147.32,-123.43 161.43,-112.7"/>
<polygon fill="black" stroke="black" points="163.55,-115.48 169.39,-106.64 159.31,-109.91 163.55,-115.48"/>
</g>
<!-- netmod&#45;&gt;identity -->
<g id="edge4" class="edge">
<title>netmod&#45;&gt;identity</title>
<path fill="none" stroke="black" d="M67.47,-72.05C63.39,-63.89 58.4,-53.91 53.86,-44.82"/>
<polygon fill="black" stroke="black" points="56.94,-43.17 49.34,-35.79 50.68,-46.3 56.94,-43.17"/>
</g>
<!-- irdest&#45;core -->
<g id="node5" class="node">
<title>irdest&#45;core</title>
<ellipse fill="none" stroke="black" cx="218.95" cy="-234" rx="54.69" ry="18"/>
<text text-anchor="middle" x="218.95" y="-230.3" font-family="Times-Roman" font-size="14.00">irdest&#45;core</text>
</g>
<!-- irdest&#45;core&#45;&gt;Ratman -->
<g id="edge7" class="edge">
<title>irdest&#45;core&#45;&gt;Ratman</title>
<path fill="none" stroke="black" d="M192.99,-217.98C174.88,-207.51 150.57,-193.45 131.07,-182.16"/>
<polygon fill="black" stroke="black" points="132.62,-179.02 122.21,-177.04 129.12,-185.08 132.62,-179.02"/>
</g>
<!-- irdest&#45;core&#45;&gt;Alexandria -->
<g id="edge6" class="edge">
<title>irdest&#45;core&#45;&gt;Alexandria</title>
<path fill="none" stroke="black" d="M210.64,-215.74C206.13,-205.57 200.88,-192.32 197.95,-180 193.13,-159.75 191.17,-136.28 190.39,-118.53"/>
<polygon fill="black" stroke="black" points="193.88,-118.17 190.04,-108.3 186.88,-118.41 193.88,-118.17"/>
</g>
<!-- irdest&#45;types -->
<g id="node6" class="node">
<title>irdest&#45;types</title>
<ellipse fill="none" stroke="black" cx="264.95" cy="-162" rx="58.49" ry="18"/>
<text text-anchor="middle" x="264.95" y="-158.3" font-family="Times-Roman" font-size="14.00">irdest&#45;types</text>
</g>
<!-- irdest&#45;core&#45;&gt;irdest&#45;types -->
<g id="edge5" class="edge">
<title>irdest&#45;core&#45;&gt;irdest&#45;types</title>
<path fill="none" stroke="black" d="M230.08,-216.05C235.56,-207.71 242.28,-197.49 248.35,-188.25"/>
<polygon fill="black" stroke="black" points="251.35,-190.07 253.91,-179.79 245.5,-186.22 251.35,-190.07"/>
</g>
<!-- irpc&#45;sdk -->
<g id="node7" class="node">
<title>irpc&#45;sdk</title>
<ellipse fill="none" stroke="black" cx="383.95" cy="-162" rx="42.79" ry="18"/>
<text text-anchor="middle" x="383.95" y="-158.3" font-family="Times-Roman" font-size="14.00">irpc&#45;sdk</text>
</g>
<!-- irdest&#45;core&#45;&gt;irpc&#45;sdk -->
<g id="edge8" class="edge">
<title>irdest&#45;core&#45;&gt;irpc&#45;sdk</title>
<path fill="none" stroke="black" d="M251.15,-219.34C278.2,-207.86 316.91,-191.44 345.56,-179.28"/>
<polygon fill="black" stroke="black" points="347.02,-182.47 354.86,-175.34 344.29,-176.02 347.02,-182.47"/>
</g>
<!-- irdest&#45;sdk -->
<g id="node8" class="node">
<title>irdest&#45;sdk</title>
<ellipse fill="none" stroke="black" cx="362.95" cy="-234" rx="51.19" ry="18"/>
<text text-anchor="middle" x="362.95" y="-230.3" font-family="Times-Roman" font-size="14.00">irdest&#45;sdk</text>
</g>
<!-- irdest&#45;sdk&#45;&gt;irdest&#45;types -->
<g id="edge9" class="edge">
<title>irdest&#45;sdk&#45;&gt;irdest&#45;types</title>
<path fill="none" stroke="black" d="M341.2,-217.46C327.72,-207.84 310.2,-195.32 295.35,-184.72"/>
<polygon fill="black" stroke="black" points="297.15,-181.7 286.97,-178.73 293.08,-187.39 297.15,-181.7"/>
</g>
<!-- irdest&#45;sdk&#45;&gt;irpc&#45;sdk -->
<g id="edge10" class="edge">
<title>irdest&#45;sdk&#45;&gt;irpc&#45;sdk</title>
<path fill="none" stroke="black" d="M368.03,-216.05C370.37,-208.26 373.2,-198.82 375.82,-190.08"/>
<polygon fill="black" stroke="black" points="379.24,-190.86 378.76,-180.28 372.54,-188.85 379.24,-190.86"/>
</g>
</g>
</svg>
