<?xml version="1.0" encoding="UTF-8" standalone="no"?>
<!-- Created with Inkscape (http://www.inkscape.org/) -->

<svg
   width="210mm"
   height="297mm"
   viewBox="0 0 210 297"
   version="1.1"
   id="svg5"
   sodipodi:docname="PC.svg"
   inkscape:version="1.2.1 (9c6d41e410, 2022-07-14)"
   xmlns:inkscape="http://www.inkscape.org/namespaces/inkscape"
   xmlns:sodipodi="http://sodipodi.sourceforge.net/DTD/sodipodi-0.dtd"
   xmlns="http://www.w3.org/2000/svg"
   xmlns:svg="http://www.w3.org/2000/svg">
  <sodipodi:namedview
     id="namedview7"
     pagecolor="#675f55"
     bordercolor="#ffffff"
     borderopacity="1"
     inkscape:showpageshadow="0"
     inkscape:pageopacity="1"
     inkscape:pagecheckerboard="1"
     inkscape:deskcolor="#505050"
     inkscape:document-units="mm"
     showgrid="false"
     inkscape:zoom="0.5"
     inkscape:cx="273"
     inkscape:cy="392"
     inkscape:window-width="1858"
     inkscape:window-height="1057"
     inkscape:window-x="1974"
     inkscape:window-y="-8"
     inkscape:window-maximized="1"
     inkscape:current-layer="layer1" />
  <defs
     id="defs2" />
  <g
     inkscape:label="Layer 1"
     inkscape:groupmode="layer"
     id="layer1">
    <g
       id="g291">
      <path
         style="fill:#191919;fill-opacity:1;stroke:#565656;stroke-width:1.065;stroke-dasharray:none;stroke-opacity:1"
         d="m 67.392245,98.887115 -3.132555,0.08466 -0.338654,0.507981 h 3.132555 z"
         id="path6189"
         sodipodi:nodetypes="ccccc" />
      <path
         style="fill:#4d4d4d;stroke-width:1.065;stroke-dasharray:none;fill-opacity:0"
         d="m 73.488025,110.74002 c 0.338656,-1.12885 0.227555,-2.51053 1.015966,-3.38654 4.502409,-5.00268 10.920341,-9.018646 17.271378,-11.175603 4.782275,-1.624169 10.864511,-2.246191 15.916761,-1.354617 6.11609,1.07931 10.52222,6.21908 9.82098,12.53022 -0.18151,1.63357 -0.25089,3.52325 -1.35462,4.74116 -5.04268,5.56434 -11.2643,7.28092 -17.948685,9.82098 -6.760908,2.56915 -9.102214,1.64097 -12.191563,9.14367 -0.851503,2.06794 0.182822,7.7561 1.693272,9.48233 5.444694,6.2225 19.333186,6.94323 24.721776,7.4504 12.71229,1.19645 25.5114,1.14206 38.26796,1.69327 9.74169,0.42094 15.01344,0.67731 23.70582,0.67731"
         id="path1059" />
      <path
         id="path2883"
         style="fill:#838383;fill-opacity:1;stroke:#838383;stroke-width:1.065;stroke-dasharray:none;stroke-opacity:1"
         d="m 69.08536,96.431755 -0.694702,1.504903 c -0.03611,0.12037 -0.0924,0.233052 -0.1757,0.324011 l -5.17e-4,5.17e-4 -8.186996,18.579374 52.639275,0.90242 -1.16474,-21.311225 z"
         sodipodi:nodetypes="cccccccc" />
      <path
         id="path2981"
         style="fill:#077096;fill-opacity:1;stroke:#838383;stroke-width:1.065;stroke-dasharray:none;stroke-opacity:1;stroke-linejoin:round"
         d="M 68.951449,69.659942 68.831717,96.347433 111.50198,96.516589 111.38225,69.54021 Z"
         sodipodi:nodetypes="ccccc" />
      <path
         style="fill:#565656;fill-opacity:1;stroke:#565656;stroke-width:1.065;stroke-dasharray:none;stroke-opacity:1;stroke-linejoin:round"
         d="m 64.090364,110.5707 46.988316,0.29758 -0.50799,-12.827801 -41.273512,-0.211658 z"
         id="path4707"
         sodipodi:nodetypes="ccccc" />
      <path
         style="fill:#565656;fill-opacity:1;stroke:#565656;stroke-width:1.08653"
         d="m 59.549644,118.17493 c 1.772707,0.88382 1.664772,0.64425 1.664772,0.64425 l 50.865134,-0.0265 c 0,0 0.506,-0.18913 0.63262,-0.77831 0.12663,-0.58922 -53.040058,-0.55313 -53.040058,-0.55313 z"
         id="path292"
         sodipodi:nodetypes="cccscc" />
      <path
         style="opacity:1;fill:#454545;fill-opacity:1;stroke:#454545;stroke-width:0.777398;stroke-opacity:1"
         d="m 63.393159,100.31701 0.03502,0.40897 2.59424,0.17486 0.277444,-0.58387 z"
         id="path1407"
         sodipodi:nodetypes="ccccc" />
      <path
         style="opacity:1;fill:#0c1844;fill-opacity:0.17098446;stroke:none;stroke-width:1.065;stroke-linejoin:round;stroke-opacity:0.331606"
         d="M 111.75598,96.516533 76.281927,116.92047 59.3492,117.00513 68.492872,96.601197 Z"
         id="path4787" />
    </g>
    <g
       id="g281">
      <path
         style="fill:#1e2324;fill-opacity:1;stroke-width:1.07;stroke-linejoin:round"
         d="m 116.00678,216.41641 -11.60485,0.0598 -8.975169,9.5786 h 39.445019 l 3.57401,-9.78299 z"
         id="path1115"
         sodipodi:nodetypes="cccccc" />
      <path
         style="fill:#323a3b;fill-opacity:1;stroke-width:1.07;stroke-linejoin:round"
         d="m 114.77986,207.63094 -0.15483,12.77282 2.63205,1.20049 4.18031,-1.33388 0.0547,-12.70138 z"
         id="path1113"
         sodipodi:nodetypes="cccccc" />
      <rect
         style="fill:#323a3b;stroke-width:1.07;stroke-linejoin:round;fill-opacity:1"
         id="rect403"
         width="65.190994"
         height="49.612888"
         x="84.832954"
         y="158.15166"
         rx="0"
         ry="0" />
      <path
         style="fill:#434e53;stroke-width:1.07;stroke-linejoin:round;fill-opacity:1"
         d="m 84.650841,158.2863 2.634115,-1.07759 h 64.176594 l -1.67625,0.95786 z"
         id="path452" />
      <path
         style="fill:#1e2324;stroke-width:1.07;stroke-linejoin:round;fill-opacity:1"
         d="m 149.76413,158.06074 1.63392,-0.86656 0.0635,48.6259 -1.47186,1.96863 z"
         id="path454"
         sodipodi:nodetypes="ccccc" />
      <path
         style="fill:#4a5657;fill-opacity:1;stroke-width:1.07;stroke-linejoin:round"
         d="m 90.575836,227.61564 -8.441137,8.97994 h 50.646821 l 4.48997,-9.03981 z"
         id="path1919"
         sodipodi:nodetypes="ccccc" />
      <path
         style="fill:#1e2324;fill-opacity:1;stroke-width:1.07;stroke-linejoin:round"
         d="m 132.81606,236.40201 v 0.61381 l 4.40251,-8.30627 0.0507,-1.15282 z"
         id="path1921"
         sodipodi:nodetypes="ccccc" />
      <path
         style="fill:#1e2324;fill-opacity:1;stroke-width:1.07;stroke-linejoin:round"
         d="m 82.142786,236.58886 50.684734,-0.16112 0.0165,0.55867 -50.712134,0.008 z"
         id="path2463"
         sodipodi:nodetypes="ccccc" />
      <rect
         style="fill:#323a3b;fill-opacity:1;stroke-width:1.07;stroke-linejoin:round"
         id="rect2793"
         width="30.308365"
         height="81.570656"
         x="151.916"
         y="157.15448" />
      <path
         style="fill:#1e2324;fill-opacity:1;stroke-width:1.07;stroke-linejoin:round"
         d="m 181.90104,157.29479 7.67292,-7.80521 v 80.9625 l -7.35047,8.29303 z"
         id="path2795"
         sodipodi:nodetypes="ccccc" />
      <path
         style="fill:#434e53;fill-opacity:1;stroke-width:1.07;stroke-linejoin:round"
         d="m 151.86923,157.20125 8.09158,-7.67063 h 29.56001 l -7.67063,8.04481 z"
         id="path3067"
         sodipodi:nodetypes="ccccc" />
      <path
         style="fill:#323a3b;fill-opacity:1;stroke-width:1.07;stroke-linejoin:round"
         d="m 147.90208,228.07083 c -2.24896,-1.05833 -5.62239,0 -5.62239,0 0,0 -2.84428,4.49792 -2.71198,6.74688 0.13229,2.24895 1.65364,3.175 1.65364,3.175 0,0 1.30948,0.62081 1.83555,0.67799 0.76068,0.0827 4.41271,-1.04675 4.71289,-2.21589 0.31419,-1.22369 1.91823,-7.2595 1.05833,-7.78867 -0.80657,-0.49635 -0.92604,-0.59531 -0.92604,-0.59531 z"
         id="path3447"
         sodipodi:nodetypes="ccscsssc" />
      <rect
         style="fill:#077096;fill-opacity:1;stroke-width:1.07;stroke-linejoin:round"
         id="rect3525"
         width="63.63229"
         height="46.963543"
         x="85.460419"
         y="159.01459" />
      <path
         style="fill:#1e2324;fill-opacity:1;stroke-width:1.07;stroke-linejoin:round"
         d="m 117.27656,221.58855 4.22566,-1.33155 v -12.48325 h -3.85675 z"
         id="path4350" />
      <path
         style="fill:#323a3b;fill-opacity:1;stroke-width:1.07;stroke-linejoin:round"
         d="m 90.923975,227.92077 -7.295341,7.85772 47.912106,-0.0969 4.05177,-7.52699 z"
         id="path4982"
         sodipodi:nodetypes="ccccc" />
      <ellipse
         style="fill:#4a5657;fill-opacity:1;stroke-width:1.07;stroke-linejoin:round"
         id="path8131"
         cx="165.7222"
         cy="217.81361"
         rx="2.2158854"
         ry="2.3151042" />
      <rect
         style="fill:#4a5657;fill-opacity:1;stroke-width:1.07;stroke-linejoin:round"
         id="rect8185"
         width="26.388903"
         height="5.5191154"
         x="153.30312"
         y="187.58707" />
      <path
         style="fill:#0f1425;fill-opacity:0.0888889;stroke-width:1.07;stroke-linejoin:round"
         d="m 157.58006,157.29479 -13.64645,1.05833 -44.635289,49.2125 -13.930758,0.26459 -0.568604,-49.47709 6.823229,-1.32291 z"
         id="path9037" />
      <path
         style="fill:#0f1425;fill-opacity:0.15544042;stroke-width:1.07;stroke-linejoin:round"
         d="m 119.45611,227.59336 -18.42823,9.26089 H 82.131926 l 8.699621,-9.26089 z"
         id="path9039" />
      <path
         style="fill:#0f1425;fill-opacity:0.15544;stroke-width:1.07;stroke-linejoin:round"
         d="m 151.72891,204.86209 23.38608,-47.14635 14.21874,-8.04481 h -29.56001 l -7.85772,7.48355 z"
         id="path9126"
         sodipodi:nodetypes="cccccc" />
    </g>
  </g>
</svg>
