<?xml version="1.0" encoding="UTF-8" standalone="no"?>
<!-- Created with Inkscape (http://www.inkscape.org/) -->

<svg
   width="210mm"
   height="297mm"
   viewBox="0 0 210 297"
   version="1.1"
   id="svg5"
   inkscape:version="1.2.1 (9c6d41e410, 2022-07-14)"
   sodipodi:docname="telephone poles.svg"
   xmlns:inkscape="http://www.inkscape.org/namespaces/inkscape"
   xmlns:sodipodi="http://sodipodi.sourceforge.net/DTD/sodipodi-0.dtd"
   xmlns="http://www.w3.org/2000/svg"
   xmlns:svg="http://www.w3.org/2000/svg">
  <sodipodi:namedview
     id="namedview7"
     pagecolor="#4a4343"
     bordercolor="#ffffff"
     borderopacity="1"
     inkscape:showpageshadow="0"
     inkscape:pageopacity="1"
     inkscape:pagecheckerboard="1"
     inkscape:deskcolor="#505050"
     inkscape:document-units="mm"
     showgrid="false"
     inkscape:zoom="0.55244701"
     inkscape:cx="371.98138"
     inkscape:cy="515.88658"
     inkscape:window-width="1858"
     inkscape:window-height="1057"
     inkscape:window-x="1974"
     inkscape:window-y="-8"
     inkscape:window-maximized="1"
     inkscape:current-layer="layer1" />
  <defs
     id="defs2">
    <clipPath
       clipPathUnits="userSpaceOnUse"
       id="clipPath5716">
      <path
         id="path5718"
         style="fill:#ff0000;fill-opacity:1;fill-rule:nonzero;stroke:none;stroke-width:0.264583"
         d="m 38.316524,116.59598 v 31.1304 h 69.324966 v -31.1304 z m 21.128427,12.70672 c 0.0071,-1.9e-4 0.01405,-8e-5 0.02119,0 0.207899,0.002 0.454266,0.12467 0.683681,0.41548 0.238143,0.30187 0.541927,0.53498 0.858861,0.74828 0.101108,0.0627 0.207293,0.11633 0.315227,0.16639 0.07518,0.0237 0.15326,0.0378 0.22996,0.0558 0.09126,0.0188 0.182094,0.0393 0.272333,0.0625 0.04363,0.0101 0.08543,0.0262 0.127643,0.0408 -0.0061,-0.0372 0.01974,-0.0683 0.06201,-0.0713 0.02363,-0.002 0.05236,0.006 0.08372,0.0253 0.0056,0.004 0.01095,0.007 0.01654,0.0109 -0.0087,-0.0485 0.02482,-0.0922 0.08785,-0.0946 0.02334,-7.9e-4 0.05036,0.004 0.08113,0.016 0.101092,0.0401 0.197871,0.0911 0.293521,0.14263 0.02696,0.0145 0.05266,0.0311 0.07906,0.0465 0.02952,-0.0481 0.07576,-0.0896 0.131257,-0.10335 0.01984,-0.005 0.04022,-0.006 0.06046,-0.009 0.05933,-0.002 0.110194,0.025 0.160713,0.0517 0.03247,0.0192 0.06513,0.0393 0.09767,0.0584 0.03851,0.0237 0.07471,0.0509 0.109553,0.0796 0.02172,0.0198 0.04617,0.0347 0.06976,0.0522 0.07513,0.0596 0.105582,0.15132 0.136943,0.23822 0.01707,0.0504 0.02967,0.10196 0.04444,0.15297 0.01238,-1.6e-4 0.02463,1.1e-4 0.03617,0.001 0.08552,0.009 0.170609,0.0225 0.254249,0.0429 0.08836,0.0205 0.175964,0.043 0.262514,0.0703 0.06882,0.0198 0.137216,0.0422 0.203605,0.0693 0.06303,0.0257 0.125317,0.0526 0.187587,0.0801 0.06399,0.0251 0.127016,0.0528 0.189135,0.0822 0.05584,0.0269 0.111728,0.054 0.1695,0.0765 0.08031,0.0353 0.159136,0.0731 0.236677,0.11421 0.06615,0.034 0.132498,0.0671 0.196887,0.10438 0.08288,0.041 0.163375,0.0871 0.241845,0.13591 0.0917,0.0579 0.18432,0.1141 0.282671,0.1602 0.08819,0.0431 0.179379,0.0795 0.267165,0.12351 0.264928,0.13275 0.13198,0.39862 -0.133839,0.26768 -0.08715,-0.043 -0.177184,-0.0801 -0.264583,-0.12247 -0.06965,-0.0328 -0.136692,-0.0702 -0.202573,-0.10956 0.03566,0.13551 -0.112427,0.23376 -0.286803,0.0951 -0.01426,-0.0114 -0.02862,-0.0228 -0.04289,-0.0341 -0.09229,-0.0718 -0.191646,-0.13439 -0.298172,-0.18293 0.02969,0.0563 0.02135,0.11343 -0.015,0.15038 0.01916,0.0109 0.03907,0.0206 0.05788,0.032 v 5.3e-4 c 0.207296,0.12596 0.145325,0.32312 -0.02273,0.30593 0.243486,0.20037 0.432639,0.45677 0.577742,0.74982 0.01543,0.0439 0.02777,0.0885 0.03772,0.13281 5.29e-4,1e-5 0.0011,-4e-5 0.0016,0 v 5.3e-4 c 0.581594,0.0298 0.85529,0.33142 0.842844,0.62425 0.28398,-0.004 0.568198,-0.008 0.852143,-0.007 v -5.3e-4 c 0.192175,2.6e-4 0.384067,0.002 0.576194,0.007 0.276307,0.006 0.54529,0.0483 0.813387,0.11007 1.155023,0.26602 0.848567,1.49505 -0.288872,1.16169 -0.179943,-0.0527 -0.366535,-0.0607 -0.552939,-0.0744 -0.748615,-0.0185 -1.497748,0.004 -2.246373,0.015 -0.591892,0.0153 -1.183773,0.0345 -1.774569,0.0749 -0.858544,0.0588 -1.147437,-0.55075 -0.790649,-0.92191 -0.575461,-0.24098 -1.315175,-0.5463 -0.903822,-1.30431 -0.273526,-0.25949 -0.627856,-0.43842 -0.918805,-0.67231 -0.538776,-0.37086 -1.088057,-0.72403 -1.656231,-1.04852 -0.396454,-0.21653 -0.791975,-0.43615 -1.210778,-0.60771 -0.908307,-0.37207 -0.740154,-1.19139 -0.03307,-1.20613 0.146746,-0.003 0.316479,0.029 0.504878,0.10646 0.147037,0.0605 0.290804,0.12678 0.433568,0.19585 -0.209849,-0.48592 0.02689,-0.87298 0.393255,-0.88315 z" />
    </clipPath>
    <clipPath
       clipPathUnits="userSpaceOnUse"
       id="clipPath5726">
      <path
         id="path5728"
         style="fill:#ff0000;fill-opacity:1;fill-rule:nonzero;stroke:none;stroke-width:0.264583"
         d="m 61.06604,123.42037 v 7.08071 c 0.08949,0.0523 0.18415,0.0949 0.278537,0.13797 0.06877,0.0201 0.139586,0.0333 0.209288,0.0496 0.09126,0.0188 0.182092,0.0393 0.272336,0.0625 0.04363,0.0101 0.08543,0.0262 0.12764,0.0408 -0.0061,-0.0372 0.01974,-0.0683 0.06201,-0.0713 0.02363,-0.002 0.05236,0.006 0.08372,0.0253 0.0056,0.004 0.01095,0.007 0.01654,0.0109 -0.0087,-0.0485 0.02484,-0.0922 0.08785,-0.0946 0.02334,-7.9e-4 0.05036,0.004 0.08113,0.016 0.101097,0.0401 0.197871,0.0911 0.293521,0.14263 0.02696,0.0145 0.05266,0.0311 0.07906,0.0465 0.02952,-0.0481 0.07576,-0.0896 0.13126,-0.10335 0.01984,-0.005 0.04022,-0.006 0.06046,-0.009 0.05933,-0.002 0.110193,0.025 0.16071,0.0517 0.03247,0.0192 0.06513,0.0393 0.09767,0.0584 0.03851,0.0237 0.07471,0.0509 0.109553,0.0796 0.02172,0.0198 0.04617,0.0347 0.06976,0.0522 0.07513,0.0596 0.105585,0.15132 0.136944,0.23822 0.01707,0.0504 0.02967,0.10196 0.04444,0.15297 0.01238,-1.6e-4 0.02463,1.1e-4 0.03617,0.001 0.08552,0.009 0.170609,0.0225 0.254249,0.0429 0.08836,0.0205 0.175966,0.043 0.262514,0.0703 0.06882,0.0198 0.137216,0.0422 0.203608,0.0693 0.06303,0.0257 0.125314,0.0526 0.187584,0.0801 0.06399,0.0251 0.127016,0.0528 0.189137,0.0822 0.05584,0.0269 0.111729,0.054 0.169498,0.0765 0.08031,0.0353 0.159139,0.0731 0.236677,0.11421 0.06615,0.034 0.132498,0.0671 0.196887,0.10438 0.08288,0.041 0.163375,0.0871 0.241845,0.13591 0.0917,0.0579 0.184322,0.1141 0.282671,0.1602 0.08819,0.0431 0.179379,0.0795 0.267168,0.12351 0.264925,0.13275 0.131979,0.39862 -0.133842,0.26768 -0.08715,-0.043 -0.177184,-0.0801 -0.264583,-0.12247 -0.06965,-0.0328 -0.136689,-0.0702 -0.202571,-0.10956 0.03566,0.13551 -0.112426,0.23376 -0.286805,0.0951 -0.01426,-0.0114 -0.02862,-0.0228 -0.04289,-0.0341 -0.09229,-0.0718 -0.191651,-0.13439 -0.298175,-0.18293 0.02969,0.0563 0.02135,0.11343 -0.01498,0.15038 0.01916,0.0109 0.03907,0.0206 0.05788,0.032 v 5.3e-4 c 0.211669,0.12861 0.142539,0.3318 -0.03359,0.30489 0.246721,0.20112 0.442169,0.45513 0.588595,0.75086 0.01542,0.0439 0.02777,0.0885 0.03772,0.13281 5.29e-4,1e-5 0.0011,-4e-5 0.0016,0 v 5.3e-4 c 0.583999,0.0299 0.857203,0.3339 0.842328,0.62786 0.284234,-0.004 0.56846,-0.0117 0.852659,-0.0114 v -5.3e-4 c 0.192175,2.6e-4 0.384056,0.002 0.576194,0.007 0.276302,0.006 0.54529,0.0483 0.813387,0.11007 1.155026,0.26602 0.848572,1.49505 -0.288872,1.16168 -0.179948,-0.0527 -0.36654,-0.0607 -0.552939,-0.0744 -0.748618,-0.0185 -1.497753,0.005 -2.246373,0.0155 -0.591889,0.0153 -1.183778,0.0344 -1.774569,0.0749 -0.858544,0.0588 -1.147429,-0.55128 -0.790649,-0.92242 -0.572016,-0.23954 -1.291302,-0.54844 -0.89607,-1.29655 -0.258333,-0.24788 -0.590835,-0.42183 -0.873847,-0.63822 V 321.6232 H 79.504816 V 123.4203 Z" />
    </clipPath>
    <clipPath
       clipPathUnits="userSpaceOnUse"
       id="clipPath6215">
      <path
         id="path6217"
         style="fill:#ff0000;fill-opacity:1;fill-rule:nonzero;stroke:none;stroke-width:0.176006"
         d="m 45.545477,46.769932 v 77.173178 c 0.146256,-0.0213 0.293004,-0.0397 0.439849,-0.0566 0.109139,-0.0166 0.218105,-0.0242 0.327775,-0.0259 0.109677,-0.002 0.219477,0.002 0.329311,0.007 0.244041,0.009 0.488424,0.0239 0.732319,0.037 0.09122,-0.0639 0.210013,-0.10168 0.350035,-0.10141 0.146433,2.7e-4 0.315293,0.0428 0.498957,0.13915 0.266651,0.0152 0.532701,0.0347 0.798331,0.0645 0.0371,0.005 0.07413,0.0135 0.111304,0.0189 0.07914,-0.0504 0.165939,-0.0763 0.25255,-0.0763 0.142809,0 0.285953,0.0689 0.396864,0.20597 0.103472,0.0299 0.20525,0.0637 0.304748,0.10614 0.06,0.0256 0.117734,0.0559 0.176554,0.0841 0.370937,0.22146 0.659114,0.48557 0.578021,0.96382 0.148316,0.0704 0.296887,0.1391 0.445222,0.20912 H 130.3052 V 46.769932 Z" />
    </clipPath>
    <clipPath
       clipPathUnits="userSpaceOnUse"
       id="clipPath6225">
      <path
         id="path6227"
         style="fill:#ff0000;fill-opacity:1;fill-rule:nonzero;stroke:none;stroke-width:0.176006"
         d="m 49.068112,57.938763 v 66.564877 c 0.224052,0.0932 0.446284,0.19112 0.667835,0.29087 0.0051,8e-4 0.0103,0.002 0.01537,0.004 0.03054,0.0114 0.07331,0.0363 0.110538,0.0527 0.220632,0.10041 0.44005,0.2039 0.659393,0.30738 0.25532,-0.002 0.510908,-0.003 0.766087,-0.0102 0.508114,-0.0155 1.01607,-0.0433 1.52374,-0.0692 0.0092,-4e-4 0.01788,-4e-4 0.02688,-8e-4 0.477619,-0.009 0.560984,0.40023 0.225679,0.54638 0.454116,0.0163 0.909105,0.0293 1.363303,0.0425 0.592402,0.0169 0.574744,0.61527 -0.01765,0.59826 -0.04169,-8.1e-4 -0.08344,-0.002 -0.12512,-0.004 -0.0237,0.136 -0.172046,0.26127 -0.443689,0.25943 -0.07373,-4e-4 -0.147349,-0.002 -0.221076,-0.002 -0.0039,0.0169 -0.01203,0.0328 -0.0169,0.0495 1.371219,0.59611 2.765033,1.13957 4.196613,1.56444 0.708348,0.21022 0.976972,0.26852 1.673424,0.43945 0.228512,0.0484 0.456124,0.10069 0.685489,0.14466 0.860449,0.165 0.46781,0.052 1.427017,0.26021 0.571332,0.12402 1.201394,0.2881 1.759398,0.46462 0.291475,0.0922 0.578312,0.19909 0.867421,0.29873 1.174097,0.47637 2.330906,1.00576 3.455852,1.59431 0.964368,0.49272 1.663229,1.33471 2.336653,2.16978 0.175611,0.21838 0.354669,0.43501 0.525053,0.65801 H 156.67392 V 57.938763 Z m 0.02763,71.498757 c -0.0063,8e-4 -0.01772,0.002 -0.02763,0.003 v 0.0283 c 0.01993,-8e-4 0.04082,-0.006 0.05911,-0.011 0.0202,-0.006 0.0408,-0.0124 0.06141,-0.0181 -0.03105,-8e-4 -0.06182,-0.002 -0.09288,-0.002 z m 3.004487,0.53536 c -0.344882,0.83229 -1.476023,1.3106 -3.032121,0.62499 v 3.56126 h 10.108103 c -0.771267,-0.70343 -1.572986,-1.37155 -2.433376,-1.95908 -0.58741,-0.40114 -0.868132,-0.54939 -1.476911,-0.90172 -1.004838,-0.56254 -2.073704,-0.98232 -3.165691,-1.32545 z" />
    </clipPath>
    <clipPath
       clipPathUnits="userSpaceOnUse"
       id="clipPath6235">
      <path
         id="path6237"
         style="fill:#ff0000;fill-opacity:1;fill-rule:nonzero;stroke:none;stroke-width:0.176006"
         d="m 59.484028,69.287621 v 59.286699 c 0.224649,0.0477 0.448456,0.0991 0.673978,0.1423 0.860444,0.165 0.467805,0.052 1.427013,0.26021 0.571332,0.12402 1.201393,0.2881 1.759401,0.46462 0.291471,0.0922 0.578308,0.19909 0.867417,0.29873 1.174098,0.47637 2.330907,1.00576 3.455853,1.59431 0.964368,0.49272 1.663228,1.33471 2.336652,2.16978 0.306493,0.38113 0.626466,0.75373 0.885072,1.17215 0.237504,0.38426 0.27654,0.49546 0.46979,0.9025 0.254648,0.65067 0.540939,1.31976 0.619473,2.02433 0.01981,0.17707 0.01859,0.35584 0.02763,0.5338 -0.0406,0.6866 -0.206519,1.38505 -0.68242,1.90484 -0.170608,0.18634 -0.358792,0.37027 -0.584931,0.47798 -0.321557,0.15335 -0.683587,0.19285 -1.025546,0.2893 -0.303447,-0.0415 -0.611609,-0.0567 -0.910406,-0.125 -0.361496,-0.0826 -0.991495,-0.37786 -1.321085,-0.533 -0.720068,-0.33898 -1.425441,-0.70877 -2.128625,-1.08253 -1.176287,-0.63954 -2.306845,-1.37022 -3.329963,-2.24682 -0.540109,-0.46278 -1.403517,-1.29858 -1.9206,-1.79163 -0.204507,-0.19766 -0.410723,-0.39322 -0.618707,-0.58726 v 7.22472 h 20.371261 c -0.05053,-0.0319 -0.101184,-0.0632 -0.151224,-0.0959 -0.744153,-0.48744 -1.480213,-0.99558 -2.104831,-1.63441 -2.342945,-2.39622 -0.04205,-0.10115 2.548516,-2.22873 0.0028,-0.003 0.005,-0.009 0.0077,-0.007 0.06325,0.0504 0.12238,0.1058 0.18346,0.15879 0.08873,0.0741 0.175387,0.1512 0.266368,0.22249 0.303148,0.23765 0.62957,0.44482 0.951854,0.65487 0.479062,0.31037 0.986382,0.57364 1.511454,0.79636 0.335435,0.14698 0.69567,0.20082 1.055487,0.24842 0.266015,0.0468 0.531939,0.0385 0.799102,0.0149 0.307781,-0.0472 0.615963,-0.0931 0.925753,-0.125 0.709236,-0.0663 1.30898,0.13365 1.942862,0.42452 0.236376,0.11408 0.470324,0.23278 0.702378,0.35534 0.671278,0.35452 1.107598,0.78274 1.347952,1.21539 H 185.82608 V 69.287621 Z m 8.956658,68.725219 c -0.0112,0.0569 -0.01057,0.11055 0.0084,0.15801 0.02779,0.0531 0.04656,0.10413 0.01384,-0.0574 -0.0068,-0.0336 -0.01435,-0.0673 -0.02225,-0.10062 z" />
    </clipPath>
    <clipPath
       clipPathUnits="userSpaceOnUse"
       id="clipPath6247">
      <path
         id="path6249"
         style="fill:#ff0000;fill-opacity:1;fill-rule:nonzero;stroke:none;stroke-width:0.176006"
         d="m 45.545189,46.770489 v 77.173181 c 0.146256,-0.0213 0.293004,-0.0405 0.439849,-0.0574 0.109141,-0.0166 0.218872,-0.0242 0.328544,-0.0259 0.109676,-0.002 0.219476,0.002 0.329312,0.007 0.244039,0.009 0.487653,0.0239 0.731547,0.0369 0.09122,-0.0639 0.210015,-0.10168 0.350038,-0.10141 0.05842,1.1e-4 0.122948,0.0125 0.188068,0.0267 -0.0862,-0.7351 -0.170492,-1.36611 0.129729,-1.34825 0.149774,0.009 0.395206,0.17964 0.783746,0.57861 0.277164,0.28461 0.509047,0.60621 0.739224,0.92923 0.0788,0.0335 0.153535,0.0871 0.217238,0.16588 0.103473,0.0299 0.206016,0.0637 0.305515,0.10613 0.06,0.0256 0.116967,0.0559 0.175786,0.0841 0.372004,0.22209 0.661478,0.4869 0.578023,0.96775 0.0853,0.0643 0.167413,0.13235 0.24564,0.20519 H 130.30491 V 46.770489 Z" />
    </clipPath>
    <clipPath
       clipPathUnits="userSpaceOnUse"
       id="clipPath6282">
      <path
         id="path6284"
         style="fill:#ff0000;fill-opacity:1;fill-rule:nonzero;stroke:none;stroke-width:0.117083"
         d="m 49.067824,57.938532 v 65.393518 c 0.347711,0.41727 0.636377,0.88289 0.977956,1.30579 0.13884,0.17188 0.289036,0.33395 0.436779,0.49763 0.0077,0.008 0.01606,0.015 0.0238,0.0228 0.260374,-0.002 0.520447,-0.003 0.780676,-0.0102 0.508111,-0.0155 1.016068,-0.0433 1.523737,-0.0692 0.0092,-4e-4 0.01866,-3.7e-4 0.02763,-8.1e-4 0.477619,-0.009 0.560985,0.40022 0.225682,0.54637 0.454115,0.0163 0.908338,0.0301 1.362536,0.0432 0.592397,0.0169 0.574736,0.61527 -0.01765,0.59826 -0.04169,-8.1e-4 -0.08344,-0.002 -0.125122,-0.004 -0.02368,0.136 -0.171277,0.26048 -0.442922,0.25864 -0.07373,-4e-4 -0.14735,-0.002 -0.221076,-0.002 -0.02744,0.12179 -0.08374,0.24021 -0.153524,0.34119 -0.01469,0.0213 -0.192206,0.0448 -0.324707,0.0613 0.02704,0.0181 0.05432,0.0366 0.0806,0.0558 0.148009,0.10796 0.288123,0.22574 0.43985,0.32861 0.168432,0.1151 0.339944,0.22656 0.50433,0.34748 0.214577,0.15543 0.432964,0.3059 0.644038,0.46618 0.207714,0.14973 0.417694,0.29551 0.637131,0.42767 0.161002,-8e-4 0.3218,8.1e-4 0.482068,0.0157 1.050829,0.0965 2.183292,0.39208 3.234776,0.8459 0.08257,-0.0658 0.184651,-0.10596 0.301676,-0.10456 0.125507,8e-4 0.265489,0.0529 0.406843,0.15251 0.322251,-0.52917 0.691945,-0.92682 1.286538,-1.21145 0.723425,-0.34631 0.999174,-0.25232 1.71411,-0.20912 0.877285,0.20636 1.771876,0.40729 2.58076,0.8231 0.376898,0.25135 0.489952,0.29667 0.806773,0.63128 0.41075,0.43378 0.680923,0.98048 0.888911,1.53928 0.147027,0.41971 0.287097,0.84613 0.393795,1.27985 0.03435,0.0254 0.03105,0.0231 0.09365,0.0668 0.14988,0.10475 0.141158,0.23847 0.05604,0.28538 0.01097,0.005 0.02213,0.01 0.03301,0.0149 0.05817,0.0283 0.02751,0.0137 0.09135,0.0456 0.02004,0.01 0.03356,0.0224 0.04913,0.0338 0.05752,0.0114 0.11553,0.0212 0.171948,0.0369 0.03081,0.008 0.06018,0.0214 0.09058,0.0314 0.281806,0.0916 0.185739,0.37961 -0.09442,0.283 -0.02111,-0.007 -0.04145,-0.0152 -0.06294,-0.0212 -0.09029,-0.0253 -0.184198,-0.0373 -0.27481,-0.0613 -0.0047,-8e-4 -0.0091,-0.003 -0.01384,-0.004 0.02967,0.2122 0.0481,0.42633 0.0522,0.64228 0.002,0.16832 0.0024,0.33469 -0.0039,0.49999 H 156.67426 V 57.938532 Z m 0,70.706318 v 5.51405 h 2.427234 c -0.03872,-0.65099 0.08285,-1.3231 0.336987,-1.97638 0.09125,-0.23455 0.218458,-0.45118 0.350038,-0.66587 -0.566779,-0.3441 -1.113571,-0.71914 -1.512223,-1.27435 -0.300828,-0.40244 -0.564071,-0.85393 -0.977188,-1.14699 -0.208355,-0.14984 -0.417945,-0.29852 -0.624848,-0.45046 z" />
    </clipPath>
    <clipPath
       clipPathUnits="userSpaceOnUse"
       id="clipPath6328">
      <path
         id="path6330"
         style="fill:#ff0000;fill-opacity:1;fill-rule:nonzero;stroke:none;stroke-width:0.0518114"
         d="m 59.484509,69.287394 v 60.016246 c 0.120864,0.005 0.253704,0.0569 0.388418,0.15173 0.32217,-0.5289 0.692154,-0.92614 1.286542,-1.21067 0.723417,-0.34631 0.999171,-0.25232 1.71411,-0.20912 0.87727,0.20636 1.771872,0.40729 2.580756,0.8231 0.376898,0.25135 0.489948,0.29667 0.806777,0.63128 0.410746,0.43378 0.680926,0.98048 0.888907,1.53928 0.297272,0.84861 0.568455,1.72407 0.585701,2.6336 0.0028,0.23582 0.0028,0.46835 -0.01537,0.6981 0.260563,0.009 0.515632,0.0477 0.769164,0.10613 0.426542,0.0982 0.648754,0.32747 0.707751,0.56053 1.396754,0.064 2.793056,0.14272 4.188934,0.22012 1.054524,0.0496 2.108678,0.10467 3.147265,0.30974 0.517645,0.1022 0.768764,0.17859 1.269654,0.31368 0.769334,0.22589 1.542248,0.44423 2.292901,0.72954 1.060962,1.26397 1.633366,1.57112 1.626599,2.23424 0.430798,0.26607 0.879514,0.50115 1.345649,0.69889 0.335426,0.14698 0.696435,0.20083 1.056253,0.24842 0.266015,0.0468 0.531173,0.0385 0.798331,0.0149 0.307781,-0.0472 0.615968,-0.0923 0.925753,-0.12421 0.709233,-0.0663 1.308992,0.13286 1.942862,0.42373 0.236381,0.11408 0.470328,0.23278 0.702378,0.35534 0.671278,0.35451 1.107598,0.78352 1.347952,1.21618 H 185.82653 V 69.287394 Z m 1.723322,67.564856 c -0.08345,0.3327 -0.167902,0.66544 -0.253319,0.99763 0.446734,1.23933 0.753843,2.525 1.028619,3.81754 h 12.60749 c -0.0067,-0.005 -0.01328,-0.009 -0.01996,-0.0142 -0.569477,-0.39944 -1.004241,-0.82459 -1.320315,-1.25312 -0.04551,-0.003 -0.09118,-0.005 -0.136639,-0.008 -1.882194,-0.10436 -3.764585,-0.20877 -5.64819,-0.28301 -2.506542,-0.0987 -3.749902,-1.44897 -3.731434,-2.74288 -0.133168,3.5e-4 -0.269677,-0.005 -0.411445,-0.0181 -0.15359,-0.0259 -0.307837,-0.0465 -0.460578,-0.077 -0.557214,-0.1118 -1.101034,-0.28758 -1.654232,-0.41902 z" />
    </clipPath>
  </defs>
  <g
     inkscape:label="Layer 1"
     inkscape:groupmode="layer"
     id="layer1">
    <g
       id="g831">
      <path
         style="fill:#2d2d2d;fill-opacity:1;stroke-width:1.07;stroke-linejoin:round"
         d="m 128.87862,61.832392 -1.20905,2.597246 44.25141,17.865897 2.4181,-3.6991 z"
         id="path236" />
      <path
         style="fill:#2d2d2d;fill-opacity:1;stroke-width:1.07;stroke-linejoin:round"
         d="m 142.98426,68.207449 4.1914,-1.888906 4.67501,0.787045 3.54656,2.361133 V 196.60418 H 149.3028 V 80.847155 75.094085 l -0.27326,-1.06251 -0.36272,-0.55093 -1.53147,-1.65279 z"
         id="path3516" />
      <path
         style="fill:#212121;fill-opacity:1;stroke-width:1.07;stroke-linejoin:round"
         d="m 174.17787,78.596435 -1.53146,0.59028 -1.04785,1.25927 -0.0806,1.14121 0.60452,0.94446 h 0.64483 l 1.00755,-0.55093 1.08815,-1.14122 0.16121,-1.57409 z"
         id="path3572" />
      <path
         style="fill:none;fill-opacity:1;stroke:#000000;stroke-width:1.60849;stroke-linejoin:round;stroke-opacity:1"
         d="m 129.77656,46.853154 -3.25673,20.725051 -9.93558,21.129902 -23.284902,20.425123 -33.861651,15.50019 -13.878823,0.35147"
         id="path4215"
         clip-path="url(#clipPath6215)"
         transform="matrix(0.67319808,0,0,0.65733568,43.519358,32.318239)" />
      <path
         style="fill:none;fill-opacity:1;stroke:#000000;stroke-width:1.60849;stroke-linejoin:round;stroke-opacity:1"
         d="m 156.14526,58.019267 -3.35121,22.017741 -12.21895,19.634393 -14.54495,13.923819 -21.66599,12.72674 -25.455413,7.30087 -22.715812,-3.03456 -6.777996,-5.7835"
         id="path4271"
         clip-path="url(#clipPath6225)"
         transform="matrix(0.67319808,0,0,0.65733568,43.519358,32.318239)" />
      <path
         style="fill:none;fill-opacity:1;stroke:#000000;stroke-width:1.60849;stroke-linejoin:round;stroke-opacity:1"
         d="m 185.32333,69.468925 -6.22814,17.240936 -13.37942,17.271259 -17.73641,13.85598 -18.42824,13.58422 -22.19969,8.88453 -21.992742,0.82578 -17.827871,-4.73165 -7.722851,-5.8733"
         id="path4273"
         clip-path="url(#clipPath6235)"
         transform="matrix(0.67319808,0,0,0.65733568,43.519358,32.318239)" />
      <path
         style="fill:#2d2d2d;fill-opacity:1;stroke-width:1.60849;stroke-linejoin:round"
         d="m 40.112607,116.59578 -1.79599,3.95118 65.733123,27.17926 3.59197,-5.62742 z"
         id="path236-7"
         clip-path="url(#clipPath5716)"
         transform="matrix(0.67319808,0,0,0.65733568,43.519358,32.318239)" />
      <path
         style="fill:#2d2d2d;fill-opacity:1;stroke-width:1.60849;stroke-linejoin:round"
         d="m 61.065787,126.29411 6.22609,-2.87358 6.94448,1.19733 5.26823,3.59197 v 193.41331 h -9.05295 V 145.5228 136.7707 l -0.40592,-1.61638 -0.53879,-0.83813 -2.27492,-2.51438 z"
         id="path3516-1"
         clip-path="url(#clipPath5726)"
         transform="matrix(0.67319808,0,0,0.65733568,43.519358,32.318239)" />
      <path
         style="fill:#212121;fill-opacity:1;stroke-width:1.07;stroke-linejoin:round"
         d="m 115.82234,125.72485 -1.53146,0.59028 -1.04785,1.25927 -0.0806,1.14121 0.60452,0.94445 h 0.64483 l 1.00755,-0.55093 1.08815,-1.14121 0.16121,-1.57409 z"
         id="path3572-7" />
      <path
         style="fill:none;fill-opacity:1;stroke:#000000;stroke-width:1.60849;stroke-linejoin:round;stroke-opacity:1"
         d="m 129.77656,46.853154 -3.25673,20.725051 -9.93558,21.129902 -23.284902,20.425123 -33.861651,15.50019 -13.878823,0.35147"
         id="path4215-2"
         clip-path="url(#clipPath6247)"
         transform="matrix(0.67319808,0,0,0.65733568,-14.692916,79.091245)" />
      <path
         style="fill:none;fill-opacity:1;stroke:#000000;stroke-width:1.60849;stroke-linejoin:round;stroke-opacity:1"
         d="m 156.14526,58.019267 -3.35121,22.017741 -12.21895,19.634393 -14.54495,13.923819 -21.66599,12.72674 -25.455413,7.30087 -22.715812,-3.03456 -6.777996,-5.7835"
         id="path4271-7"
         clip-path="url(#clipPath6282)"
         transform="matrix(0.67319808,0,0,0.65733568,-14.692916,79.091245)" />
      <path
         style="fill:none;fill-opacity:1;stroke:#000000;stroke-width:1.60849;stroke-linejoin:round;stroke-opacity:1"
         d="m 185.32333,69.468925 -6.22814,17.240936 -13.37942,17.271259 -17.73641,13.85598 -18.42824,13.58422 -22.19969,8.88453 -21.992742,0.82578 -17.827871,-4.73165 -7.722851,-5.8733"
         id="path4273-4"
         clip-path="url(#clipPath6328)"
         transform="matrix(0.67319808,0,0,0.65733568,-14.692916,79.091245)" />
      <path
         style="fill:#00061d;fill-opacity:0.19555555;stroke:none;stroke-width:1.07;stroke-linejoin:round;stroke-opacity:1"
         d="m 90.463083,120.30701 6.476767,2.28592 v 7.19641 l -2.497576,-2.7939 -1.269955,-0.63498 -1.39695,-0.25399 -0.804304,-0.0847 v -3.68286 l -0.25399,-1.18529 z"
         id="path6824" />
      <path
         style="fill:#00061d;fill-opacity:0.195556;stroke:none;stroke-width:1.07;stroke-linejoin:round;stroke-opacity:1"
         d="m 148.85982,73.276364 6.47677,2.28592 v 7.19641 l -2.49758,-2.7939 -1.26996,-0.63498 -1.39695,-0.25399 -0.8043,-0.0847 v -3.68286 l -0.25399,-1.18529 z"
         id="path6824-8" />
    </g>
  </g>
</svg>
