<?xml version="1.0" encoding="UTF-8" standalone="no"?>
<!-- Created with Inkscape (http://www.inkscape.org/) -->

<svg
   width="210mm"
   height="297mm"
   viewBox="0 0 210 297"
   version="1.1"
   id="svg10584"
   xml:space="preserve"
   inkscape:version="1.2.1 (9c6d41e410, 2022-07-14)"
   sodipodi:docname="tobi2.svg"
   xmlns:inkscape="http://www.inkscape.org/namespaces/inkscape"
   xmlns:sodipodi="http://sodipodi.sourceforge.net/DTD/sodipodi-0.dtd"
   xmlns="http://www.w3.org/2000/svg"
   xmlns:svg="http://www.w3.org/2000/svg"><sodipodi:namedview
     id="namedview10586"
     pagecolor="#316861"
     bordercolor="#ffffff"
     borderopacity="1"
     inkscape:showpageshadow="0"
     inkscape:pageopacity="1"
     inkscape:pagecheckerboard="1"
     inkscape:deskcolor="#505050"
     inkscape:document-units="mm"
     showgrid="false"
     inkscape:zoom="0.55244701"
     inkscape:cx="572.00056"
     inkscape:cy="599.15249"
     inkscape:window-width="1858"
     inkscape:window-height="1057"
     inkscape:window-x="1974"
     inkscape:window-y="-8"
     inkscape:window-maximized="1"
     inkscape:current-layer="g17536" /><defs
     id="defs10581" /><g
     inkscape:label="Layer 1"
     inkscape:groupmode="layer"
     id="layer1"><g
       id="g17536"><path
         style="fill:#957d60;fill-opacity:1;stroke-width:0.351368"
         d="m 122.74015,16.034621 c 0,0 -4.53411,-4.534113 -12.27528,-4.534113 -7.74118,0 -11.832933,-0.552941 -19.574104,4.534113 -7.741169,5.087057 -8.847054,15.924696 -8.847054,15.924696 0,0 0.995294,4.6447 -4.534113,6.745874 -6.645073,2.525128 -14.26587,1.105883 -14.26587,1.105883 l 6.745876,13.049405 c 0,0 21.454101,10.61646 29.637622,9.952932 8.183523,-0.663529 15.261163,-1.769412 22.781163,-5.971761 7.52,-4.202348 11.27999,-12.938815 11.27999,-12.938815 0,0 2.9299,-10.342068 -1.43765,-16.256456 -5.30824,-7.188232 -9.51058,-11.611758 -9.51058,-11.611758 z"
         id="path10885"
         sodipodi:nodetypes="csscsccsscsc" /><path
         style="fill:#957d60;fill-opacity:1;stroke-width:0.268999"
         d="M 140.2372,78.028598 123.80335,136.25553 65.360319,141.89624 109.3854,56.893957 Z"
         id="path13794"
         sodipodi:nodetypes="ccccc" /><path
         style="fill:#957d60;fill-opacity:1;stroke-width:0.257632"
         d="m 118.40474,25.82058 4.86512,-11.514142 7.45986,-3.567761 c 0,0 5.18948,-1.6217099 9.73027,3.081249 4.54078,4.702959 5.0273,18.487496 0.6487,22.541771 -4.37862,4.054274 -12.81152,6.32467 -12.81152,6.32467 0,0 -2.10343,-3.433417 -2.42779,-4.568613 -0.32434,-1.135197 -7.46464,-12.297174 -7.46464,-12.297174 z"
         id="path12030"
         sodipodi:nodetypes="cccsscsc" /><path
         style="fill:#957d60;fill-opacity:1;stroke-width:0.226561"
         d="m 86.756524,25.454283 -2.999648,-7.82446 1.367842,-6.660273 c 0,0 0.845925,-1.5837094 1.953703,-2.070782 1.107778,-0.4870712 5.039936,-0.5635679 5.039936,-0.5635679 0,0 2.182144,-0.298489 3.407735,0.4845712 1.2256,0.7830588 3.47234,7.3963017 3.47234,7.3963017 l -0.307846,5.312919 z"
         id="path12032" /><path
         style="fill:#957d60;fill-opacity:1;stroke-width:0.540815"
         d="m 102.93495,58.950392 -0.83062,9.627144 20.48859,-2.511426 c 0,0 -3.87622,-6.697145 -4.15308,-10.464293 -0.27688,-3.767141 -15.50489,3.348575 -15.50489,3.348575 z"
         id="path12097" /><path
         style="fill:#c0a789;fill-opacity:1;stroke-width:0.268999"
         d="m 104.69928,65.85783 -22.083892,11.010401 -16.283612,45.019399 4.789297,16.28361 48.611377,-14.36789 7.66287,-8.8602 -7.90234,-6.70502 -13.17057,5.98662 -27.298995,1.91572 -1.676254,11.25485 19.636121,-33.046153 z"
         id="path12825"
         sodipodi:nodetypes="cccccccccccc" /><path
         style="fill:#957d60;fill-opacity:1;stroke-width:0.268999"
         d="m 105.60402,63.697661 26.5806,-6.944481 10.53646,1.436788 15.80467,85.010032 9.35014,9.94175 -1.97838,3.91963 -3.7007,0.85763 -8.06359,-2.20873 c 0,0 -3.00182,0.8977 -3.98873,-0.90681 C 149.63062,153.8639 130.2689,82.375924 130.2689,82.375924 Z"
         id="path13585"
         sodipodi:nodetypes="ccccccccscc" /><path
         style="fill:#957d60;fill-opacity:1;stroke-width:0.268999"
         d="m 66.037629,140.88027 -41.937976,23.39123 -0.0581,12.91993 41.318769,58.85076 -1.693272,23.0285 13.546179,-34.88141 -21.335232,-43.68643 44.336746,-22.61181 z"
         id="path13809"
         sodipodi:nodetypes="ccccccccc" /><path
         style="fill:#957d60;fill-opacity:1;stroke-width:0.268999"
         d="m 123.60889,135.12315 26.0764,54.52337 -23.70582,67.05359 -2.37058,21.67389 -9.48232,-26.75371 8.12771,-57.90992 -39.485227,-41.12451 -18.086044,-12.72155 z"
         id="path13811"
         sodipodi:nodetypes="ccccccccc" /><path
         style="fill:#745235;fill-opacity:1;stroke-width:0.268999"
         d="m 114.29589,134.78449 22.52053,-28.78563 12.02223,43.5171 -14.56214,24.72178 -2.03193,3.21722 -18.45667,-1.01597 -11.34493,-33.18814 1.35462,-8.29704 3.55587,-3.72519 z"
         id="path13829" /><path
         style="fill:#694f37;fill-opacity:1;stroke-width:0.268999"
         d="m 106.80134,132.06489 4.66957,-5.98662 7.90234,-2.39465 7.90234,-8.74047 -5.26823,-4.07091 12.57191,-12.931098 2.27492,8.620738 -22.62944,28.85552 z"
         id="path15775" /><path
         style="fill:#8e5e34;fill-opacity:1;stroke-width:0.3066"
         d="m 113.42615,28.161951 -6.72937,-2.954405 c 0,0 -9.365969,-0.795378 -9.834259,-0.198845 -0.468302,0.596533 -4.233516,2.02756 -4.795473,3.817161 -0.561958,1.789599 -0.749278,8.523264 -0.37464,9.517485 0.37464,0.994225 3.191893,4.46194 4.690453,5.157896 1.498544,0.695956 12.197659,1.988445 13.789879,0.695956 1.59221,-1.29249 3.55907,-3.27094 4.02736,-4.662852 0.4683,-1.391912 0.046,-7.42693 -0.0882,-8.47416 -0.19203,-1.498401 -0.68582,-2.898236 -0.68582,-2.898236 z"
         id="path17359"
         sodipodi:nodetypes="ccsssssssc" /><path
         style="fill:#8e5e34;fill-opacity:1;stroke-width:0.268999"
         d="m 95.905689,32.567226 -3.053178,-1.676254 -6.291969,-0.369471 -2.448499,0.249739 -0.419063,-2.873579 -2.274916,-0.119735 -1.676255,4.250503 0.299331,5.208362 0.957861,-0.95786 0.838126,-1.55652 0.299331,-1.13746 1.855853,0.179599 1.793496,0.0829 6.214051,3.01209 3.666367,1.095643 z"
         id="path17361"
         sodipodi:nodetypes="cccccccccccccccc" /><path
         style="fill:#ca8282;fill-opacity:1;stroke-width:0.268999"
         d="m 70.043481,133.74115 -2.155182,-7.30369 -21.551841,7.42342 -11.374583,18.19933 -1.197325,13.6495 20.593981,7.66287 17.480936,6.94448 0.957861,12.69165 1.197324,-14.0087 -13.529766,-9.81806 -10.895654,-5.62743 -4.789298,-6.46555 5.627427,-10.05752 5.747157,-5.98663 10.057526,0.3592 z"
         id="path17363"
         sodipodi:nodetypes="cccccccccccccccc" /><path
         style="fill:#4b0600;fill-opacity:0.0488889;stroke-width:0.268999"
         d="m 108.9891,61.287455 -6.21551,1.379717 -6.269235,31.921458 -12.452178,20.59398 22.030773,-0.71839 13.6495,-6.46555 2.39465,2.39465 12.21271,-11.973248 -3.13712,-21.822423 -12.7292,-18.487787 z"
         id="path26674"
         sodipodi:nodetypes="ccccccccccc" /><path
         style="fill:#4b0600;fill-opacity:0.0488889;stroke-width:0.268999"
         d="m 71.240805,137.93178 41.666895,38.91305 1.67625,8.97993 7.90234,8.38127 20.23479,15.80468 7.18394,-20.47425 -11.25485,-23.34782 -6.58528,11.61404 -18.4388,-1.55652 -11.13511,-33.04615 1.43678,-8.26154 3.95117,-4.07091 3.95118,-5.02876 z"
         id="path34456" /><path
         style="fill:#4b0600;fill-opacity:0.0488889;stroke-width:0.268999"
         d="m 101.53311,25.143814 3.83144,10.416723 -2.03545,8.860202 -11.135115,17.121738 4.310366,0.95786 5.866889,0.119732 16.88228,-3.951171 c 0,0 5.74715,-3.352506 6.46555,-3.951168 0.7184,-0.598665 6.22609,-6.585286 6.34582,-7.423412 0.11973,-0.838129 1.91572,-3.711707 1.91572,-4.310369 0,-0.598663 0.11973,-2.394649 0.11973,-2.394649 L 122.84549,16.283613 c 0,0 -3.11304,-2.634114 -5.02876,-3.352509 -1.91572,-0.718394 -5.62743,-1.556521 -5.62743,-1.556521 l -8.26154,0.119732 z"
         id="path35206" /></g></g></svg>
