<?xml version="1.0" encoding="UTF-8" standalone="no"?>
<!-- Created with Inkscape (http://www.inkscape.org/) -->

<svg
   width="210mm"
   height="297mm"
   viewBox="0 0 210 297"
   version="1.1"
   id="svg5"
   xml:space="preserve"
   inkscape:version="1.2.1 (9c6d41e410, 2022-07-14)"
   sodipodi:docname="tobi.svg"
   xmlns:inkscape="http://www.inkscape.org/namespaces/inkscape"
   xmlns:sodipodi="http://sodipodi.sourceforge.net/DTD/sodipodi-0.dtd"
   xmlns="http://www.w3.org/2000/svg"
   xmlns:svg="http://www.w3.org/2000/svg"><sodipodi:namedview
     id="namedview7"
     pagecolor="#355c59"
     bordercolor="#ffffff"
     borderopacity="1"
     inkscape:showpageshadow="0"
     inkscape:pageopacity="1"
     inkscape:pagecheckerboard="1"
     inkscape:deskcolor="#505050"
     inkscape:document-units="mm"
     showgrid="false"
     inkscape:zoom="0.78127805"
     inkscape:cx="536.30074"
     inkscape:cy="291.82952"
     inkscape:window-width="1858"
     inkscape:window-height="1057"
     inkscape:window-x="1974"
     inkscape:window-y="-8"
     inkscape:window-maximized="1"
     inkscape:current-layer="layer1" /><defs
     id="defs2"><inkscape:path-effect
       effect="bspline"
       id="path-effect2595"
       is_visible="true"
       lpeversion="1"
       weight="33.333333"
       steps="2"
       helper_size="0"
       apply_no_weight="true"
       apply_with_weight="true"
       only_selected="false" /><inkscape:path-effect
       effect="bspline"
       id="path-effect285"
       is_visible="true"
       lpeversion="1"
       weight="33.333333"
       steps="2"
       helper_size="0"
       apply_no_weight="true"
       apply_with_weight="true"
       only_selected="false" /></defs><g
     inkscape:label="Layer 1"
     inkscape:groupmode="layer"
     id="layer1"><g
       id="g9309"
       transform="translate(-28.735788,4.7892979)"><path
         style="fill:#edb0c1;fill-opacity:1;stroke:none;stroke-width:0.273031;stroke-opacity:1"
         d="m 141.2662,80.005683 c 9.04464,-16.31081 40.08083,-11.7455 52.99944,-11.7455 5.64067,0 18.44948,0.20339 16.76339,-9.02494 -1.14226,-6.25183 -16.44437,-13.129183 -23.36716,-13.129183 -14.39029,0 -5.02266,14.787163 -5.5878,13.955353 -1.67247,-2.46167 -6.81712,-14.629533 -0.50798,-15.899788 15.96461,-3.214246 52.31527,13.540938 27.76967,31.378548 -7.92205,5.75706 -44.29061,2.38758 -58.92588,15.47985"
         id="path3518"
         sodipodi:nodetypes="cssssssc" /><path
         style="fill:#d19d9d;fill-opacity:1;stroke:none;stroke-width:0.268999"
         d="m 111.16011,70.338657 c -0.97788,0.179543 -2.5344,0.618559 -4.03117,1.656289 -1.49676,1.037729 -2.93353,2.674043 -3.93132,4.58987 -0.99779,1.915827 -1.55653,4.110877 -2.03547,6.066526 -0.47893,1.955649 -0.87803,3.671779 -1.855764,4.809121 -0.977733,1.137341 -2.534221,1.696082 -3.472113,2.015374 -0.937891,0.319292 -1.257168,0.399109 -0.718312,1.077756 0.538855,0.678647 1.935704,1.955767 3.492245,2.654091 1.556544,0.698324 3.272674,0.818055 5.288184,0.857954 2.01551,0.0399 4.3303,-1e-5 6.54534,-0.239498 2.21504,-0.239488 4.33027,-0.678499 6.12617,-1.676263 1.7959,-0.997764 3.27256,-2.55425 4.33018,-4.050863 1.05762,-1.496613 1.69618,-2.933373 2.15517,-4.350183 0.45898,-1.41681 0.73835,-2.813659 0.59872,-4.489879 -0.13963,-1.676219 -0.69837,-3.631808 -2.55414,-5.168485 -1.85577,-1.536676 -5.00866,-2.654157 -6.7847,-3.252847 -1.77605,-0.598689 -2.17514,-0.678506 -3.15302,-0.498963 z"
         id="path283"
         inkscape:path-effect="#path-effect285"
         inkscape:original-d="m 111.73858,70.079233 c -1.55626,0.43928 -3.11278,0.8783 -4.66957,1.31705 -1.43655,1.63664 -2.87332,3.27295 -4.31037,4.90903 -0.5585,2.19541 -1.11724,4.39046 -1.67626,6.58529 -0.39885,1.71646 -0.79795,3.43259 -1.197323,5.14849 -1.55629,0.55903 -3.112778,1.11777 -4.669565,1.67626 -0.319029,0.0801 -0.63831,0.1599 -0.95786,0.23946 1.397172,1.27744 2.794021,2.55456 4.190634,3.83144 1.716464,0.12 3.432594,0.23973 5.148494,0.3592 2.31515,-0.0396 4.62993,-0.0796 6.94449,-0.11973 2.11558,-0.43877 4.23081,-0.87778 6.34582,-1.31706 1.477,-1.55629 2.95366,-3.11278 4.4301,-4.66957 0.63885,-1.43655 1.27741,-2.87331 1.91572,-4.31037 0.27965,-1.39664 0.55902,-2.79349 0.83813,-4.19063 -0.5585,-1.95541 -1.11724,-3.911 -1.67626,-5.86689 -3.15275,-1.11726 -6.30564,-2.23474 -9.45886,-3.35251 -0.39885,-0.0796 -0.79795,-0.15938 -1.19732,-0.23946 z" /><path
         style="fill:#e5e5e5;fill-opacity:1;stroke:none;stroke-width:0.268999"
         d="M 45.765637,129.11865 158.19893,21.087864 164.43,20.381503 l -7.1047,46.97208 67.47734,31.43299 -0.23241,5.418467 z"
         id="path2650"
         sodipodi:nodetypes="ccccccc" /><path
         style="fill:#d75700;fill-opacity:1;stroke:none;stroke-width:0.268999;stroke-opacity:1"
         d="m 158.1566,21.045533 -1.73561,1.735604 3.09023,1.142959 -10.11731,47.961947 58.67189,28.954957 -1.54874,6.06629 18.06874,-2.70091 0.22866,-5.418367 -67.44698,-31.44131 7.18122,-47.063143 z"
         id="path6281"
         sodipodi:nodetypes="ccccccccccc" /><path
         style="fill:#d75700;fill-opacity:1;stroke:none;stroke-width:0.268999;stroke-opacity:1"
         d="m 61.851725,113.58287 -1.058296,6.56143 9.059008,5.67246 -24.425454,3.47122 z"
         id="path8073"
         sodipodi:nodetypes="ccccc" /></g><path
       style="fill:#003f73;fill-opacity:0.045;stroke-width:0.268999"
       d="M 130.10143,64.878469 66.131476,94.340555 16.653055,134.12773 129.40535,25.818152 l 6.46436,-0.747447 z"
       id="path1415"
       sodipodi:nodetypes="cccccc" /><path
       style="fill:#d3dff8;fill-opacity:0.405;stroke-width:0.268999"
       d="m 156.94848,85.974239 -50.05691,6.707935 -47.58922,21.194956 5.549988,13.11831 130.551312,-17.77936 0.67731,-5.92646 z"
       id="path9524"
       sodipodi:nodetypes="ccccccc" /><path
       style="fill:#003969;fill-opacity:0.175;stroke-width:0.268999"
       d="m 145.29532,79.921409 c 4.29068,-0.03965 8.5811,-0.07956 12.87124,-0.119732"
       id="path9786" /><path
       style="fill:#bad6ed;fill-opacity:0.24500002;stroke-width:0.268999"
       d="m 145.17559,79.801677 15.56522,-0.478931 11.73378,-0.658529 12.21271,-3.472241 3.53211,-3.831436 -0.6735,1.571487 -1.09256,1.795986 -1.28712,1.586455 -1.43679,1.451756 -1.60142,1.391891 -1.75109,1.339506 -1.19732,0.658529 -1.49666,0.561245 -1.66129,0.486413 -1.77334,0.417308 -1.89434,0.370404 -2.56108,0.391567 -2.63515,0.34924 -3.32634,0.409651 -2.55929,0.284364 -5.07831,0.597104 z"
       id="path9788" /></g></svg>
