<?xml version="1.0" encoding="UTF-8" standalone="no"?>
<!-- Created with Inkscape (http://www.inkscape.org/) -->

<svg
   width="210mm"
   height="297mm"
   viewBox="0 0 210 297"
   version="1.1"
   id="svg5"
   inkscape:version="1.2.1 (9c6d41e410, 2022-07-14)"
   sodipodi:docname="ratman_instance.svg"
   xmlns:inkscape="http://www.inkscape.org/namespaces/inkscape"
   xmlns:sodipodi="http://sodipodi.sourceforge.net/DTD/sodipodi-0.dtd"
   xmlns:xlink="http://www.w3.org/1999/xlink"
   xmlns="http://www.w3.org/2000/svg"
   xmlns:svg="http://www.w3.org/2000/svg">
  <sodipodi:namedview
     id="namedview7"
     pagecolor="#3e4c4c"
     bordercolor="#ffffff"
     borderopacity="1"
     inkscape:showpageshadow="0"
     inkscape:pageopacity="1"
     inkscape:pagecheckerboard="1"
     inkscape:deskcolor="#505050"
     inkscape:document-units="mm"
     showgrid="false"
     inkscape:zoom="1.104894"
     inkscape:cx="484.66187"
     inkscape:cy="196.39893"
     inkscape:window-width="1858"
     inkscape:window-height="1057"
     inkscape:window-x="1974"
     inkscape:window-y="-8"
     inkscape:window-maximized="1"
     inkscape:current-layer="layer1" />
  <defs
     id="defs2">
    <linearGradient
       inkscape:collect="always"
       id="linearGradient5952">
      <stop
         style="stop-color:#4196b2;stop-opacity:1;"
         offset="0"
         id="stop5948" />
      <stop
         style="stop-color:#4196b2;stop-opacity:0;"
         offset="1"
         id="stop5950" />
    </linearGradient>
    <linearGradient
       inkscape:collect="always"
       id="linearGradient5944">
      <stop
         style="stop-color:#e230e2;stop-opacity:1;"
         offset="0"
         id="stop5940" />
      <stop
         style="stop-color:#2d2d2d;stop-opacity:0;"
         offset="1"
         id="stop5942" />
    </linearGradient>
    <clipPath
       clipPathUnits="userSpaceOnUse"
       id="clipPath3608">
      <path
         id="path3610"
         style="fill:#ff0000;fill-opacity:1;fill-rule:nonzero;stroke:none;stroke-width:0.264583"
         d="m 120.22005,43.531195 v 1.832446 c 0.005,-1.46e-4 0.01,-5.3e-4 0.015,-5.3e-4 0.19234,7.94e-4 0.42968,0.119878 0.67024,0.401527 0.16919,0.198085 0.3129,0.416761 0.46147,0.630452 0.17576,0.25831 0.30379,0.54279 0.40359,0.837676 0.0494,0.175567 0.088,0.35392 0.12816,0.531751 h 11.71453 v -4.233333 z" />
    </clipPath>
    <clipPath
       clipPathUnits="userSpaceOnUse"
       id="clipPath3618">
      <path
         id="path3620"
         style="fill:#ff0000;fill-opacity:1;fill-rule:nonzero;stroke:none;stroke-width:0.264583"
         d="m 119.98027,43.665037 v 1.784903 c 0.0694,-0.05609 0.1561,-0.08716 0.25477,-0.08682 0.19234,7.94e-4 0.42968,0.119877 0.67024,0.401526 0.16919,0.198086 0.3129,0.416762 0.46147,0.630452 0.17576,0.25831 0.30379,0.54279 0.40359,0.837676 0.0642,0.228397 0.10965,0.461256 0.16485,0.691947 0.0735,0.272034 0.0983,0.55328 0.12248,0.833024 0.0256,0.266719 0.0308,0.53439 0.0237,0.802019 -0.007,0.367183 -0.0877,0.726376 -0.16226,1.084172 -0.0439,0.231942 -0.0855,0.46359 -0.14366,0.692465 -0.0134,0.04796 -0.0298,0.09455 -0.0481,0.140041 h 12.49691 v -7.811407 z" />
    </clipPath>
    <clipPath
       clipPathUnits="userSpaceOnUse"
       id="clipPath3630">
      <path
         id="path3632"
         style="fill:#ff0000;fill-opacity:1;fill-rule:nonzero;stroke:none;stroke-width:0.264583"
         d="m 107.41877,42.318863 v 7.468796 c 0.13161,0.0095 0.26252,0.02847 0.39274,0.05271 0.16587,0.03259 0.33112,0.06891 0.49609,0.105937 0.20451,0.0416 0.40021,0.118049 0.60565,0.15503 0.21403,0.03142 0.43126,0.02703 0.64699,0.02687 0.2157,-0.0019 0.431,-0.0067 0.64647,0.0052 0.20576,0.0057 0.40686,0.04957 0.60513,0.101286 0.1834,0.03394 0.35374,0.07541 0.5209,0.1695 0.0435,0.0245 0.0828,0.05548 0.12196,0.08681 V 42.31889 Z m 0,8.119401 v 0.634588 c 0.12764,-0.237893 0.13206,-0.391033 0.0543,-0.619083 -0.0191,-0.0062 -0.0369,-0.01125 -0.0543,-0.01551 z m 4.03593,2.145607 c -0.18043,0.164039 -0.39306,0.291566 -0.61909,0.391708 -0.0327,0.01447 -0.0664,0.02756 -0.0997,0.04031 0.0163,0.0104 0.0321,0.0213 0.0475,0.03307 0.11525,0.08846 0.20194,0.209135 0.30282,0.313677 0.0397,0.161007 0.1358,0.320297 0.14935,0.48214 h 0.21911 z" />
    </clipPath>
    <clipPath
       clipPathUnits="userSpaceOnUse"
       id="clipPath3640">
      <path
         id="path3642"
         style="fill:#ff0000;fill-opacity:1;fill-rule:nonzero;stroke:none;stroke-width:0.264583"
         d="m 99.466797,46.910315 v 13.70769 h 28.442713 v -13.70769 z m 14.060123,2.383833 c 0.4122,-0.0064 0.70298,0.250163 0.74466,0.606681 0.23373,0.0028 0.3232,0.126736 0.0692,0.537435 -0.15664,0.253513 -0.38065,0.440889 -0.632,0.594281 -0.0791,0.04705 -0.16236,0.08319 -0.24805,0.113686 -0.0827,0.04847 -0.17093,0.08723 -0.27026,0.110072 -0.0617,0.0099 -0.35763,0.06685 -0.40153,0.01654 -0.0136,-0.01556 -0.0283,-0.031 -0.0424,-0.04651 -0.17597,0.03952 -0.38186,0.05205 -0.61702,0.02739 -0.12563,-0.01318 -0.24982,-0.03599 -0.37517,-0.05168 -0.0279,-0.0021 -0.0562,-0.0057 -0.0842,-0.0083 -0.0115,1.4e-5 -0.0231,-5.29e-4 -0.0346,-5.29e-4 -0.004,-1.8e-5 -0.0126,-0.0019 -0.015,-0.0026 0.0167,2.65e-4 0.0329,0.0016 0.0496,0.0031 0.0115,-1.3e-5 0.0229,-2.01e-4 0.0341,-0.0026 0.062,-0.01201 0.12278,-0.03147 0.18397,-0.04703 0.52078,-0.132392 0.46758,-0.289224 0.21447,-0.456819 -0.0536,0.05101 -0.14172,0.08213 -0.25477,0.08113 -0.11089,0.20171 -0.42072,0.214045 -0.56379,-0.152445 -0.002,-0.0043 -0.0326,-0.05181 -0.0135,-0.03049 0.10739,0.117758 0.1576,0.10872 0.18242,0.04341 -0.0129,-0.01069 -0.009,-0.0075 -0.0382,-0.03566 -0.0741,-0.07144 -0.0944,-0.118335 -0.0822,-0.150379 -0.0496,0.0047 -0.0589,0.05045 0.009,0.178284 0.04,0.07585 -0.0104,-0.01222 -0.0124,-0.01497 -0.0821,-0.139724 -0.10136,-0.264769 -0.0801,-0.361736 -0.42959,-0.225279 -0.69368,-0.450853 -0.0408,-0.651124 0.0856,-0.02627 0.16944,-0.0588 0.25683,-0.07855 0.0514,-0.01159 0.10356,-0.01667 0.15606,-0.01757 0.11551,-0.0019 0.23282,0.01574 0.34624,0.02479 0.12438,0.0159 0.24747,0.03762 0.37207,0.05116 v 5.29e-4 c 0.11086,0.01204 0.21308,0.031 0.30747,0.0553 0.0198,-0.0073 0.0401,-0.01521 0.0589,-0.02222 0.29818,-0.215421 0.58049,-0.308885 0.82114,-0.312642 z m -0.53123,0.292489 c -0.005,5e-6 -0.0105,2.01e-4 -0.016,5.29e-4 -0.0374,0.0011 -0.0759,0.0054 -0.10749,0.0093 -0.005,0.0076 -0.006,0.0093 -0.0119,0.01913 -0.015,0.0241 -0.0266,0.04501 -0.0393,0.06718 0.2575,0.09579 0.43859,0.238639 0.54674,0.399974 0.0355,-0.0084 0.0701,-0.01625 0.10645,-0.02532 -0.12761,-0.155977 -0.27757,-0.302278 -0.39997,-0.453718 -0.0102,-0.01262 -0.0413,-0.01707 -0.0785,-0.01707 z m -5.17591,2.518193 c 0.22441,7.93e-4 0.48462,0.05791 0.76997,0.189653 0.29012,0.133948 0.5841,0.258702 0.87282,0.395841 0.0571,0.03331 0.11945,0.05902 0.17105,0.100253 0.31885,0.254677 0.64703,0.625168 0.34933,1.143082 -0.37081,0.645104 -0.80273,0.55054 -1.25367,0.379304 -0.06,-0.02278 -0.1131,-0.06133 -0.1695,-0.09198 0.16533,0.06631 -0.30417,-0.166822 -0.22117,-0.140043 0.0966,0.03116 0.17982,0.111421 0.28112,0.117821 0.0239,0.0016 0.0475,0.0013 0.0713,0 -0.30928,-0.145878 -0.6267,-0.273709 -0.93173,-0.428397 -1.21468,-0.615993 -0.91199,-1.669148 0.0605,-1.665531 z m 0.57825,1.224216 c -0.19208,0.468712 0.0447,0.664819 0.30386,0.869196 0.12535,-0.0091 0.24928,-0.05124 0.37414,-0.0708 0.94681,-0.148243 0.002,-0.472014 -0.678,-0.798399 z m 0.32195,0.883666 c 0.008,0.006 0.0152,0.01159 0.0227,0.01757 -10e-4,-0.0019 -0.007,-0.0085 -0.009,-0.01138 -0.005,-0.0021 -0.009,-0.004 -0.0139,-0.0062 z" />
    </clipPath>
    <clipPath
       clipPathUnits="userSpaceOnUse"
       id="clipPath5012">
      <path
         id="path5014"
         style="fill:#ff0000;fill-opacity:1;fill-rule:nonzero;stroke:none;stroke-width:0.264583"
         d="m 103.23918,27.992091 v 32.25746 h 38.54906 v -20.67574 c -0.22907,-0.102573 -0.41156,-0.397251 -0.38809,-0.876432 0.003,-0.05538 0.005,-0.11049 0.008,-0.165881 0.0145,-0.205261 0.038,-0.409011 0.0791,-0.610814 0.0176,-0.173096 0.0361,-0.346099 0.0568,-0.518832 0.036,-0.234953 0.0919,-0.465529 0.15141,-0.695566 0.002,-0.0085 0.0254,-0.08562 0.0274,-0.105936 0.0107,-0.102016 -0.002,-0.20565 -0.006,-0.307475 -0.0299,-0.367306 -0.0654,-0.73397 -0.12661,-1.097606 -0.0653,-0.376819 -0.11843,-0.755425 -0.17363,-1.133782 -0.0547,-0.277061 -0.13279,-0.54805 -0.20619,-0.820621 -0.1044,-0.352898 -0.22764,-0.699373 -0.34985,-1.046448 -0.0741,-0.21213 -0.14234,-0.426469 -0.22324,-0.636138 -0.0624,-0.16148 -0.0775,-0.185817 -0.14728,-0.342098 -0.0202,-0.04525 -0.0399,-0.09055 -0.0599,-0.135909 -0.14145,-0.315788 -0.28747,-0.629422 -0.42529,-0.946713 -0.11097,-0.284655 -0.22124,-0.569717 -0.33125,-0.854726 -0.0351,-0.107053 -0.0716,-0.213791 -0.1049,-0.321429 -0.0256,-0.08272 -0.0618,-0.193527 -0.0718,-0.280085 -0.008,-0.06431 -0.005,-0.129117 -0.008,-0.193786 h 5.3e-4 c -0.01,-0.240576 0.0305,-0.329298 0.10128,-0.327629 0.27768,0.0065 1.02611,1.402361 1.08883,0.45992 0.002,-0.02884 7.9e-4,-0.0583 0.006,-0.08682 10e-4,-0.0044 0.005,0.0077 0.007,0.01188 0.007,0.01937 0.0136,0.03872 0.0196,0.05839 0.0331,0.102153 0.0667,0.204393 0.10025,0.30644 0.10504,0.263409 0.20549,0.5285 0.30851,0.792718 0.13242,0.298122 0.26969,0.594125 0.40308,0.891935 0.021,0.04772 0.0417,0.09553 0.063,0.143142 0.0743,0.166507 0.0857,0.183256 0.15813,0.368969 0.0148,0.03788 0.0288,0.07609 0.0429,0.114205 v -3.224607 z m 37.44939,11.584305 h 5.3e-4 c 0.31864,-0.0042 0.62302,0.326639 0.55759,0.952913 -0.0162,0.155003 -0.0593,0.305353 -0.0982,0.455787 -0.0477,0.192188 -0.10882,0.378987 -0.18862,0.560173 -0.10259,0.21771 -0.2505,0.408533 -0.41444,0.582909 -0.19135,0.186534 -0.39102,0.36309 -0.60358,0.525031 -0.026,0.01852 -0.0528,0.03566 -0.0791,0.05375 0.0735,0.06559 0.12299,0.159094 0.1695,0.246497 0.0625,0.118083 0.0782,0.317322 0.0693,0.44855 -0.005,0.07363 -0.0241,0.145783 -0.0362,0.218591 -0.10546,0.406175 -0.33088,0.72793 -0.59324,1.046967 -0.22086,0.258191 -0.49187,0.462772 -0.77463,0.647504 -0.0262,0.01778 -0.052,0.03581 -0.078,0.05374 0.0612,0.03148 0.12373,0.07453 0.18965,0.131773 0.10638,0.09238 0.1591,0.237413 0.2005,0.37207 0.0625,0.203338 -0.007,0.367361 -0.0574,0.556041 -0.0325,0.06606 -0.0599,0.135215 -0.0977,0.198437 -0.11462,0.191958 -0.27465,0.344342 -0.4377,0.494025 -0.10554,0.09689 -0.213,0.191786 -0.31884,0.288356 -0.34948,0.342445 -0.67679,0.706591 -1.01182,1.062982 -0.1687,0.176395 -0.34444,0.346512 -0.49661,0.537954 -0.0513,0.06455 -0.22257,0.300196 -0.26717,0.361217 -0.10944,0.15163 -0.21601,0.306228 -0.31471,0.465087 -0.0455,0.0733 -0.0846,0.150291 -0.13229,0.22221 -0.0302,0.04551 -0.0637,0.0885 -0.0956,0.132808 -0.32942,0.131527 -0.48761,0.243509 -0.62115,0.23151 -0.0166,0.06685 -0.0338,0.133586 -0.0522,0.199988 -0.049,0.190188 -0.0876,0.382855 -0.14263,0.571543 -0.025,0.09159 -0.0401,0.150389 -0.0692,0.241329 -0.0396,0.12387 -0.0923,0.242956 -0.12713,0.368453 -0.0789,0.24592 -0.15482,0.493038 -0.21962,0.743106 -0.0643,0.255432 -0.12903,0.510813 -0.17673,0.76998 -0.21465,1.165688 -1.3874,0.990529 -1.18443,-0.177252 0.0477,-0.274275 0.11462,-0.544989 0.18242,-0.814938 -0.007,0.01283 -0.0143,0.02596 -0.0217,0.03876 -0.12709,0.215654 -0.24974,0.43385 -0.36846,0.654222 -0.12473,0.236249 -0.25796,0.467675 -0.39119,0.699182 -0.0761,0.13298 -0.15414,0.26483 -0.22634,0.399976 -0.55879,1.045306 -1.61647,0.47734 -1.05472,-0.566372 0.0782,-0.145391 0.161,-0.287933 0.2434,-0.430983 0.12779,-0.22199 0.25565,-0.443642 0.37517,-0.670242 0.12479,-0.231008 0.25316,-0.460089 0.38654,-0.686263 0.12258,-0.210735 0.23718,-0.426434 0.34933,-0.642856 0.1035,-0.213635 0.2149,-0.4231 0.3111,-0.64027 0.0849,-0.205044 0.16977,-0.410348 0.23357,-0.623218 0.0709,-0.225901 0.13936,-0.452625 0.19586,-0.682646 0.0578,-0.231032 0.1184,-0.461405 0.1695,-0.694013 0.0553,-0.266189 0.11374,-0.532323 0.15554,-0.800986 0.0238,-0.200774 0.0371,-0.402384 0.0501,-0.604097 0.0157,-0.225081 0.0306,-0.450252 0.0336,-0.675928 0.006,-0.197208 0.0151,-0.394404 0.0181,-0.591696 -0.001,-0.204756 -0.002,-0.409199 -0.006,-0.613915 -0.004,-0.218202 -0.0139,-0.437478 0.004,-0.655257 0.0144,-0.06326 0.0244,-0.127593 0.0434,-0.189653 0.0121,-0.03966 0.0302,-0.07752 0.0496,-0.114205 0.1117,-0.211511 0.27944,-0.347395 0.50695,-0.415994 0.11482,-0.02553 0.2305,-0.04525 0.34727,-0.05995 0.0799,-0.01085 0.16036,-0.0195 0.23926,-0.03669 0.13906,-0.02696 0.27888,-0.04918 0.41909,-0.06925 0.17704,-0.03191 0.3514,-0.07736 0.5209,-0.137975 0.15751,-0.05057 0.318,-0.09191 0.46767,-0.164333 0.20932,-0.102092 0.41746,-0.206766 0.63201,-0.297656 0.21635,-0.1094 0.42741,-0.228362 0.63923,-0.346231 0.16381,-0.09366 0.32778,-0.187698 0.48111,-0.298172 0.18761,-0.12419 0.37179,-0.252788 0.55604,-0.381889 0.16227,-0.111355 0.32846,-0.216638 0.49093,-0.327628 0.1649,-0.124132 0.3172,-0.261856 0.46663,-0.404112 0.0723,-0.06692 0.12854,-0.151122 0.17984,-0.234611 0.0541,-0.121047 0.0925,-0.246303 0.12454,-0.375171 0.0257,-0.09922 0.0582,-0.207452 0.0672,-0.288354 h -0.002 c 0.0589,-0.552468 0.35136,-0.816925 0.63253,-0.820621 z m -1.03353,4.066934 c -0.003,0.0021 -0.02,0.01455 -0.0295,0.0217 0.006,-0.0019 0.009,-0.0026 0.0145,-0.0047 0.0156,-0.01601 0.0215,-0.02159 0.015,-0.01707 z m -3.93568,1.811261 c -0.002,-0.0016 -0.0101,0.03883 -0.0119,0.05374 -0.002,0.01302 -0.003,0.02619 -0.004,0.03927 0.002,-0.0028 0.003,-0.0055 0.005,-0.0083 0.003,-0.02698 0.0124,-0.05391 0.0114,-0.08113 -9e-5,-0.0021 -1.6e-4,-0.0034 -5.3e-4,-0.0036 z m 2.80707,0.976167 c -0.0111,0.008 -0.022,0.01625 -0.0331,0.02429 0.012,-0.0047 0.0232,-0.0087 0.0362,-0.01394 0.003,-0.0013 -0.002,-0.0069 -0.003,-0.01035 z m -1.99833,0.204121 c -2.2e-4,0.0013 -7.9e-4,0.0027 -0.001,0.0041 -0.002,0.0146 -7.9e-4,0.0292 -10e-4,0.04392 10e-4,0.007 10e-4,0.01474 0.002,0.0217 0.003,0.0024 0.005,0.0048 0.008,0.0072 0.001,-0.0021 0.002,-0.0046 0.002,-0.0062 -0.004,-0.02313 -0.006,-0.04747 -0.01,-0.0708 z" />
    </clipPath>
    <clipPath
       clipPathUnits="userSpaceOnUse"
       id="clipPath5852">
      <path
         id="path5854"
         style="fill:#ff0000;fill-opacity:1;fill-rule:nonzero;stroke:none;stroke-width:0.264583"
         d="m 96.834399,25.520923 v 31.20068 h 32.775781 v -31.20068 z m 3.467491,19.208646 h 5.3e-4 c 0.12952,-0.0016 0.28924,0.05556 0.46251,0.195337 0.11559,0.09325 0.22062,0.198853 0.32763,0.301792 0.0256,-0.006 0.0525,-0.0095 0.0806,-0.01035 0.15274,-0.0044 0.33919,0.07025 0.52142,0.258385 0.12628,0.13036 0.25033,0.262548 0.38395,0.385505 0.2096,0.18533 0.42453,0.364488 0.63459,0.54932 0.14547,0.128032 0.29083,0.257056 0.45114,0.366385 0.13648,0.08662 0.28005,0.162488 0.42943,0.224276 0.10841,0.04257 0.22409,0.05988 0.33848,0.07803 0.0884,0.01482 0.0453,0.0079 0.12764,0.0217 0.53299,0.0896 0.66397,0.468667 0.46819,0.689364 0.12869,0.03807 0.2583,0.07273 0.3886,0.104905 0.0919,0.02426 0.18532,0.04015 0.27802,0.06098 0.12207,0.02265 0.22924,0.08676 0.3421,0.13384 0.0612,0.01995 0.1209,0.04353 0.1819,0.06408 0.0151,0.0035 0.007,0.0016 0.0243,0.0052 0.8192,0.177112 0.61089,1.028128 -0.20154,0.822171 -0.0665,-0.01688 -0.0328,-0.0075 -0.1018,-0.02842 -0.0808,-0.02864 -0.16195,-0.05587 -0.24185,-0.08682 -0.0649,-0.02882 -0.12713,-0.06539 -0.19533,-0.08527 -0.0954,-0.02461 -0.19399,-0.03648 -0.28887,-0.06408 -0.16318,-0.04038 -0.32605,-0.08304 -0.4868,-0.132292 -0.12927,-0.04051 -0.25682,-0.08328 -0.3824,-0.134361 -0.15974,-0.06495 -0.0758,-0.03512 -0.22376,-0.09663 -0.0341,-0.01421 -0.0684,-0.02721 -0.10284,-0.04083 -0.1935,-0.07082 -0.39585,-0.112942 -0.59169,-0.176733 -0.0261,-0.0089 -0.0511,-0.02061 -0.0775,-0.02842 -0.0655,-0.01926 -0.13257,-0.03401 -0.19637,-0.05891 -0.0844,-0.02724 0.01,0.0027 -0.11782,-0.03359 -0.12757,-0.03631 -0.25204,-0.08171 -0.3762,-0.128156 -0.11452,-0.04451 -0.22893,-0.08932 -0.34262,-0.135909 -0.0743,-0.03044 -0.19113,-0.07808 -0.25993,-0.116273 -0.0476,-0.02643 -0.092,-0.05866 -0.13798,-0.08785 -0.002,-0.0019 -0.004,-0.0033 -0.006,-0.0052 -0.0854,0.03395 -0.15837,0.06386 -0.19741,0.08888 0.0514,0.02625 0.10398,0.0501 0.15658,0.0739 0.0249,0.01215 0.0329,0.01217 0.0212,0.01138 -0.21524,-0.01482 -0.24276,-0.04361 -0.17777,-0.08526 -0.0569,-0.02903 -0.11252,-0.0608 -0.16484,-0.09767 -0.5581,0.335131 -1.00868,-0.269809 -0.4067,-0.747242 0.002,-0.0021 0.007,-0.0078 0.009,-0.0088 0.0236,-0.04838 0.0451,-0.09762 0.0589,-0.14986 0.006,0.0088 0.0104,-0.04254 0.0114,-0.05064 0.005,-0.02661 0.003,-0.05372 0.002,-0.08062 -0.003,-0.0918 -0.009,-0.18356 -0.0186,-0.274918 -0.007,-0.05829 -0.0121,-0.1178 -0.0362,-0.172082 -0.0312,-0.06978 -0.0762,-0.129384 -0.13281,-0.181383 -0.0897,-0.08552 -0.17853,-0.172363 -0.26924,-0.256833 h -5.3e-4 c -0.449896,-0.419169 -0.322406,-0.875128 0.0351,-0.88005 z m 1.72806,2.433445 c -0.003,0.01 -0.007,0.02011 -0.007,0.03049 0,0.0086 0.009,-0.01627 0.008,-0.02479 -2e-4,-0.0021 -2.4e-4,-0.0035 -5.3e-4,-0.0057 z" />
    </clipPath>
    <linearGradient
       inkscape:collect="always"
       xlink:href="#linearGradient5944"
       id="linearGradient5946"
       x1="96.834399"
       y1="41.121311"
       x2="129.61018"
       y2="41.121311"
       gradientUnits="userSpaceOnUse" />
    <linearGradient
       inkscape:collect="always"
       xlink:href="#linearGradient5952"
       id="linearGradient5954"
       x1="103.23921"
       y1="44.120814"
       x2="141.78805"
       y2="44.120814"
       gradientUnits="userSpaceOnUse" />
  </defs>
  <g
     inkscape:label="Layer 1"
     inkscape:groupmode="layer"
     id="layer1">
    <g
       id="g4481">
      <path
         style="opacity:1;fill:url(#linearGradient5946);fill-opacity:1;stroke:none;stroke-width:0.820999;stroke-linecap:round;stroke-dasharray:none;stroke-opacity:1"
         d="m 129.61037,36.338798 c -5.21713,-2.547035 -12.26807,-2.030955 -16.58294,-6.34582 -1.092,-1.092001 -1.43334,-5.636629 -1.97559,-4.190636 -0.81927,2.18474 -1.01772,4.786113 -1.01772,7.12408 0,1.766038 6.18727,6.624414 3.59197,5.447826 -7.10414,-3.220691 -1.31705,-4.535583 -10.41672,1.676255 -0.11949,0.08157 7.33287,-1.801783 6.94448,-1.376924 -0.23947,0.261949 -3.51982,5.352663 -2.33478,10.237125 0.72487,2.987706 -8.463889,-5.735783 -10.596322,-4.250501 -1.673318,1.165499 2.622992,3.408289 2.274914,2.394648 0.867498,1.734987 2.643308,8.056604 4.609698,9.039801 3.06406,1.53203 14.52279,0.05052 17.24147,-2.215051 2.56853,-2.140437 2.82678,-6.13247 4.19064,-8.860202 2.7379,-5.475793 4.0709,-2.37363 4.0709,-8.680601 z"
         id="path5806"
         sodipodi:nodetypes="csssssssscsssc"
         clip-path="url(#clipPath5852)" />
      <path
         style="fill:url(#linearGradient5954);fill-opacity:1;stroke:none;stroke-width:0.820999;stroke-linecap:round;stroke-dasharray:none;stroke-opacity:1;opacity:1"
         d="m 133.44181,28.436456 c -4.34638,10.137619 -3.87959,9.430426 -7.47197,14.504431 -2.73233,3.859234 0.0138,8.972226 -9.79326,12.241246 -7.58243,2.527474 -14.21263,-1.946938 -12.72775,-0.165075 3.01475,3.617693 8.48595,5.599264 12.93007,5.176301 24.56097,-2.337553 33.48699,-36.460241 17.06291,-31.756903 z"
         id="path4600"
         sodipodi:nodetypes="cssssc"
         clip-path="url(#clipPath5012)" />
      <path
         style="fill:none;stroke:#19b3c5;stroke-width:0.821;stroke-linecap:round;stroke-dasharray:none;stroke-opacity:1;fill-opacity:1"
         d="m 122.59293,34.712086 c 0,0 -5.91386,-1.193281 -9.313,-4.741164 -1.63605,-1.707646 -2.01579,-3.596958 -2.01579,-3.596958 0,0 -2.04806,4.274268 -0.52412,7.660813 1.52395,3.386545 3.55588,3.386545 3.55588,3.386545"
         id="path790"
         sodipodi:nodetypes="cscsc" />
      <path
         style="fill:none;stroke:#19b3c5;stroke-width:0.990612;stroke-linecap:round;stroke-dasharray:none;stroke-opacity:1;fill-opacity:1"
         d="m 111.13652,49.444764 c 0,0 0.56657,0.239438 1.41644,0.239438 0.84987,0 1.91221,-0.386784 1.91221,-0.386784"
         id="path1838"
         sodipodi:nodetypes="csc" />
      <path
         style="fill:none;stroke:#19b3c5;stroke-width:0.820999;stroke-linecap:round;stroke-dasharray:none;stroke-opacity:1;fill-opacity:1"
         d="m 112.46487,38.045865 c 0,0 -3.90979,-3.100871 -4.82323,-1.87764 -2.63747,3.531947 -4.75785,4.210037 -4.75785,4.210037 0,0 3.63691,-1.966162 5.50717,-1.776688 1.78509,0.180845 1.63994,0.479552 1.63994,0.479552"
         id="path1776"
         sodipodi:nodetypes="cscsc" />
      <ellipse
         style="fill:none;stroke:#19b3c5;stroke-width:0.990612;stroke-linecap:round;stroke-dasharray:none;stroke-opacity:1;fill-opacity:1"
         id="path1830"
         cx="109.43676"
         cy="48.081802"
         rx="1.5226829"
         ry="5.2676687"
         clip-path="url(#clipPath3630)" />
      <ellipse
         style="fill:none;stroke:#19b3c5;stroke-width:0.881194;stroke-linecap:round;stroke-dasharray:none;stroke-opacity:1;fill-opacity:1"
         id="path1832"
         ry="6.0233669"
         rx="2.8038692"
         cy="48.192314"
         cx="117.25082" />
      <path
         style="fill:none;stroke:#19b3c5;stroke-width:0.990612;stroke-linecap:round;stroke-dasharray:none;stroke-opacity:1;fill-opacity:1"
         d="m 110.88864,46.571489 c 0,0 0.42493,0.58939 1.69974,0.442043 1.2748,-0.147347 1.85908,-0.423625 1.85908,-0.423625"
         id="path1834"
         sodipodi:nodetypes="csc" />
      <path
         style="fill:none;stroke:#19b3c5;stroke-width:0.820999;stroke-linecap:round;stroke-dasharray:none;stroke-opacity:1;fill-opacity:1"
         d="m 120.39097,51.06589 c 0,0 5.01718,-0.43296 6.99045,-1.048027 2.19026,-0.682703 6.23511,-2.061386 6.23511,-2.061386 0,0 0.59867,-2.794934 -0.30296,-3.881034"
         id="path1842"
         sodipodi:nodetypes="cscc"
         clip-path="url(#clipPath3618)" />
      <path
         style="fill:none;stroke:#19b3c5;stroke-width:0.990612;stroke-linecap:round;stroke-dasharray:none;stroke-opacity:1;fill-opacity:1"
         d="m 117.32693,42.169539 2.67923,0.104186 c 0,0 1.27703,0.833522 1.50238,3.881087 0.22535,3.047569 -0.025,4.714613 -0.025,4.714613 0,0 -0.0786,1.634109 -1.37717,2.500569 -1.41625,0.945024 -2.45387,0.83352 -2.45387,0.83352"
         id="path1844"
         sodipodi:nodetypes="ccscsc" />
      <path
         style="fill:none;stroke:#19b3c5;stroke-width:1.02151;stroke-linecap:round;stroke-dasharray:none;stroke-opacity:1;fill-opacity:1"
         d="m 129.41233,38.240251 c 0.0745,-0.670387 4.17129,-10.800658 4.17129,-10.800658 l 2.75602,0.372439 c 0,0 3.12848,-2e-6 3.87335,3.426414 0.64411,2.962891 2.08564,5.735518 -0.22347,9.534371 -2.12934,3.503119 -6.70385,3.277442 -6.70385,3.277442"
         id="path2585"
         sodipodi:nodetypes="cccssc" />
      <path
         style="fill:none;stroke:#19b3c5;stroke-width:0.820999;stroke-linecap:round;stroke-dasharray:none;stroke-opacity:1;fill-opacity:1"
         d="m 113.36636,49.902674 c 0,0 -3.80644,0.330404 -7.05775,-0.501387 -1.52687,-0.390624 -6.25717,-1.877125 -6.25717,-1.877125 0,0 2.19503,8.404878 5.95477,10.271009 4.6642,2.315047 7.30441,2.360996 8.47634,2.402642 1.92447,0.06839 7.59793,-0.173581 13.01641,-3.009811"
         id="path2587"
         sodipodi:nodetypes="cscssc"
         clip-path="url(#clipPath3640)" />
      <path
         style="fill:none;stroke:#19b3c5;stroke-width:0.820999;stroke-linecap:round;stroke-dasharray:none;stroke-opacity:1;fill-opacity:1"
         d="m 133.49016,48.107647 c 0,0 -0.31811,1.866123 -0.85691,3.003583 -0.53879,1.137457 -2.09232,3.5817 -2.09232,3.5817"
         id="path2604"
         sodipodi:nodetypes="csc" />
      <path
         style="fill:none;stroke:#19b3c5;stroke-width:0.820999;stroke-linecap:round;stroke-dasharray:none;stroke-opacity:1;fill-opacity:1"
         d="m 99.998324,47.157639 c 0,0 0.836056,-0.359821 0.370406,-1.375784 -0.465653,-1.015963 -2.010762,-2.285919 -2.825652,-1.39695 -0.813602,0.887562 0.179911,2.603406 1.026548,2.857398 0.846635,0.253992 1.428698,-0.08466 1.428698,-0.08466 z"
         id="path3698"
         sodipodi:nodetypes="csssc" />
      <path
         style="fill:none;stroke:#19b3c5;stroke-width:0.820999;stroke-linecap:round;stroke-dasharray:none;stroke-opacity:1;fill-opacity:1"
         d="m 120.63044,47.354182 c 0,0 8.02208,-1.25719 12.57191,-3.412374"
         id="path1840"
         sodipodi:nodetypes="cc"
         clip-path="url(#clipPath3608)" />
    </g>
    <g
       id="g4504"
       style="fill:none;fill-opacity:1">
      <path
         style="fill:none;stroke:#ed80ed;stroke-width:0.820999;stroke-linecap:round;stroke-dasharray:none;stroke-opacity:1;fill-opacity:1"
         d="M 114.84621,46.141676 118.52907,43.6441"
         id="path3700" />
      <path
         style="fill:none;stroke:#ed80ed;stroke-width:0.820999;stroke-linecap:round;stroke-dasharray:none;stroke-opacity:1;fill-opacity:1"
         d="m 116.11616,47.856115 3.51354,-2.264753"
         id="path3702"
         sodipodi:nodetypes="cc" />
      <path
         style="fill:none;stroke:#ed80ed;stroke-width:0.820999;stroke-linecap:round;stroke-dasharray:none;stroke-opacity:1;fill-opacity:1"
         d="m 114.84621,51.390819 5.03748,-3.301881"
         id="path3704" />
      <path
         style="fill:none;stroke:#ed80ed;stroke-width:0.820999;stroke-linecap:round;stroke-dasharray:none;stroke-opacity:1;fill-opacity:1"
         d="m 115.52352,53.041761 2.7939,-1.820267"
         id="path3706" />
      <path
         style="fill:none;stroke:#ed80ed;stroke-width:0.820999;stroke-linecap:round;stroke-dasharray:none;stroke-opacity:1;fill-opacity:1"
         d="m 108.11545,46.057012 2.32825,-1.396949"
         id="path3708" />
      <path
         style="fill:none;stroke:#ed80ed;stroke-width:0.820999;stroke-linecap:round;stroke-dasharray:none;stroke-opacity:1;fill-opacity:1"
         d="m 110.78235,47.411629 -1.52394,0.888968"
         id="path3710" />
      <path
         style="fill:none;stroke:#ed80ed;stroke-width:0.820999;stroke-linecap:round;stroke-dasharray:none;stroke-opacity:1;fill-opacity:1"
         d="m 108.87742,40.892531 c 0.45622,-1.604616 1.53862,-2.044687 2.9209,-2.582241"
         id="path3893" />
      <path
         style="fill:none;stroke:#ed80ed;stroke-width:0.820999;stroke-linecap:round;stroke-dasharray:none;stroke-opacity:1;fill-opacity:1"
         d="m 106.67617,37.717645 c 1.79964,-2.466271 3.66676,-0.212855 5.50313,0.888968"
         id="path3895" />
      <path
         style="fill:none;stroke:#ed80ed;stroke-width:0.820999;stroke-linecap:round;stroke-dasharray:none;stroke-opacity:1;fill-opacity:1"
         d="m 111.33267,33.188142 c 0.83285,2.920111 2.49358,5.008131 5.67246,5.206812"
         id="path3899" />
      <path
         style="fill:none;stroke:#ed80ed;stroke-width:0.820999;stroke-linecap:round;stroke-dasharray:none;stroke-opacity:1;fill-opacity:1"
         d="m 116.49715,32.89182 c -2.03728,-0.898557 -3.60554,-2.370646 -4.6565,-4.402511"
         id="path3915" />
      <path
         style="fill:none;stroke:#ed80ed;stroke-width:0.820999;stroke-linecap:round;stroke-dasharray:none;stroke-opacity:1;fill-opacity:1"
         d="m 131.44028,34.839081 c 0.93123,-2.291611 1.63401,-4.705011 2.41291,-6.900084"
         id="path3925" />
      <path
         style="fill:none;stroke:#ed80ed;stroke-width:0.820999;stroke-linecap:round;stroke-dasharray:none;stroke-opacity:1;fill-opacity:1"
         d="m 135.29247,28.065992 c 2.20417,0.219691 3.06164,0.113191 3.51354,2.243587"
         id="path3933" />
      <path
         style="fill:none;stroke:#ed80ed;stroke-width:0.820999;stroke-linecap:round;stroke-dasharray:none;stroke-opacity:1;fill-opacity:1"
         d="m 127.33409,38.479618 c 0.64909,-0.507981 1.29818,-1.015965 1.94726,-1.523947 0.22577,-0.169325 0.45155,-0.338653 0.67731,-0.507981"
         id="path3935" />
      <path
         style="fill:none;stroke:#ed80ed;stroke-width:0.820999;stroke-linecap:round;stroke-dasharray:none;stroke-opacity:1;fill-opacity:1"
         d="m 128.51938,39.580245 c 0.50799,-0.310433 1.01597,-0.620866 1.52395,-0.931301"
         id="path3937" />
      <path
         style="fill:none;stroke:#ed80ed;stroke-width:0.820999;stroke-linecap:round;stroke-dasharray:none;stroke-opacity:1;fill-opacity:1"
         d="m 122.76226,34.754417 c 1.25173,0.195279 2.52649,0.57807 3.64053,0.931302"
         id="path3947" />
      <path
         style="fill:none;fill-opacity:1;stroke:#ed80ed;stroke-width:0.820999;stroke-linecap:round;stroke-dasharray:none;stroke-opacity:1"
         d="m 97.971074,44.420737 c 1.10158,0.04307 1.422062,0.481372 1.885786,1.346991"
         id="path4452" />
      <path
         style="fill:none;fill-opacity:1;stroke:#ed80ed;stroke-width:0.820999;stroke-linecap:round;stroke-dasharray:none;stroke-opacity:1"
         d="m 97.312545,45.378597 c 0.03991,-0.01995 0.07982,-0.03991 0,0 z"
         id="path4458" />
      <path
         style="fill:none;fill-opacity:1;stroke:#ed80ed;stroke-width:0.820999;stroke-linecap:round;stroke-dasharray:none;stroke-opacity:1"
         d="m 109.40657,43.22078 c -1.25059,1.698966 -1.39658,3.776911 -1.46045,5.820624"
         id="path4460" />
      <path
         style="fill:none;fill-opacity:1;stroke:#ed80ed;stroke-width:0.820999;stroke-linecap:round;stroke-dasharray:none;stroke-opacity:1"
         d="m 116.07383,43.432438 c -1.62446,3.075631 -1.43632,6.591763 0,9.566992"
         id="path4468" />
    </g>
  </g>
</svg>
