<?xml version="1.0" encoding="UTF-8" standalone="no"?>
<svg
   xmlns:dc="http://purl.org/dc/elements/1.1/"
   xmlns:cc="http://creativecommons.org/ns#"
   xmlns:rdf="http://www.w3.org/1999/02/22-rdf-syntax-ns#"
   xmlns:svg="http://www.w3.org/2000/svg"
   xmlns="http://www.w3.org/2000/svg"
   xmlns:sodipodi="http://sodipodi.sourceforge.net/DTD/sodipodi-0.dtd"
   xmlns:inkscape="http://www.inkscape.org/namespaces/inkscape"
   version="1.1"
   id="Capa_1"
   x="0px"
   y="0px"
   viewBox="0 0 448 448"
   style="enable-background:new 0 0 448 448;"
   xml:space="preserve"
   sodipodi:docname="extension.svg"
   inkscape:version="1.0.1 (c497b03c, 2020-09-10)"><metadata
   id="metadata1694"><rdf:RDF><cc:Work
       rdf:about=""><dc:format>image/svg+xml</dc:format><dc:type
         rdf:resource="http://purl.org/dc/dcmitype/StillImage" /></cc:Work></rdf:RDF></metadata><defs
   id="defs1692" /><sodipodi:namedview
   pagecolor="#ffffff"
   bordercolor="#666666"
   borderopacity="1"
   objecttolerance="10"
   gridtolerance="10"
   guidetolerance="10"
   inkscape:pageopacity="0"
   inkscape:pageshadow="2"
   inkscape:window-width="1225"
   inkscape:window-height="755"
   id="namedview1690"
   showgrid="false"
   inkscape:zoom="0.75558585"
   inkscape:cx="260.57229"
   inkscape:cy="230.08552"
   inkscape:window-x="55"
   inkscape:window-y="23"
   inkscape:window-maximized="1"
   inkscape:current-layer="Capa_1"
   inkscape:document-rotation="0" />
<g
   id="g1657"
   style="fill:none;stroke:#ffffff;stroke-width:15.82302433;stroke-miterlimit:4;stroke-dasharray:none;stroke-opacity:1"
   transform="matrix(0.94798565,0,0,0.94798565,11.651215,11.651215)">
	<g
   id="g1655"
   style="fill:none;stroke:#ffffff;stroke-width:15.82302433;stroke-miterlimit:4;stroke-dasharray:none;stroke-opacity:1">
		<path
   d="m 394.667,213.333 h -32 V 128 c 0,-23.573 -19.093,-42.667 -42.667,-42.667 h -85.333 v -32 C 234.667,23.893 210.773,0 181.333,0 151.893,0 128,23.893 128,53.333 v 32 H 42.667 C 19.094,85.333 0.214,104.426 0.214,128 L 0.107,209.067 H 32 c 31.787,0 57.6,25.813 57.6,57.6 0,31.787 -25.813,57.6 -57.6,57.6 H 0.107 L 0,405.333 C 0,428.907 19.093,448 42.667,448 h 81.067 v -32 c 0,-31.787 25.813,-57.6 57.6,-57.6 31.787,0 57.6,25.813 57.6,57.6 v 32 H 320 c 23.573,0 42.667,-19.093 42.667,-42.667 V 320 h 32 c 29.44,0 53.333,-23.893 53.333,-53.333 0,-29.44 -23.893,-53.334 -53.333,-53.334 z"
   id="path1653"
   style="fill:none;stroke:#ffffff;stroke-width:15.82302433;stroke-miterlimit:4;stroke-dasharray:none;stroke-opacity:1" />
	</g>
</g>
<g
   id="g1659"
   style="fill:none;stroke:#ffffff;stroke-width:15.82302433;stroke-miterlimit:4;stroke-dasharray:none;stroke-opacity:1"
   transform="matrix(0.94798565,0,0,0.94798565,11.651215,11.651215)">
</g>
<g
   id="g1661"
   style="fill:none;stroke:#ffffff;stroke-width:15.82302433;stroke-miterlimit:4;stroke-dasharray:none;stroke-opacity:1"
   transform="matrix(0.94798565,0,0,0.94798565,11.651215,11.651215)">
</g>
<g
   id="g1663"
   style="fill:none;stroke:#ffffff;stroke-width:15.82302433;stroke-miterlimit:4;stroke-dasharray:none;stroke-opacity:1"
   transform="matrix(0.94798565,0,0,0.94798565,11.651215,11.651215)">
</g>
<g
   id="g1665"
   style="fill:none;stroke:#ffffff;stroke-width:15.82302433;stroke-miterlimit:4;stroke-dasharray:none;stroke-opacity:1"
   transform="matrix(0.94798565,0,0,0.94798565,11.651215,11.651215)">
</g>
<g
   id="g1667"
   style="fill:none;stroke:#ffffff;stroke-width:15.82302433;stroke-miterlimit:4;stroke-dasharray:none;stroke-opacity:1"
   transform="matrix(0.94798565,0,0,0.94798565,11.651215,11.651215)">
</g>
<g
   id="g1669"
   style="fill:none;stroke:#ffffff;stroke-width:15.82302433;stroke-miterlimit:4;stroke-dasharray:none;stroke-opacity:1"
   transform="matrix(0.94798565,0,0,0.94798565,11.651215,11.651215)">
</g>
<g
   id="g1671"
   style="fill:none;stroke:#ffffff;stroke-width:15.82302433;stroke-miterlimit:4;stroke-dasharray:none;stroke-opacity:1"
   transform="matrix(0.94798565,0,0,0.94798565,11.651215,11.651215)">
</g>
<g
   id="g1673"
   style="fill:none;stroke:#ffffff;stroke-width:15.82302433;stroke-miterlimit:4;stroke-dasharray:none;stroke-opacity:1"
   transform="matrix(0.94798565,0,0,0.94798565,11.651215,11.651215)">
</g>
<g
   id="g1675"
   style="fill:none;stroke:#ffffff;stroke-width:15.82302433;stroke-miterlimit:4;stroke-dasharray:none;stroke-opacity:1"
   transform="matrix(0.94798565,0,0,0.94798565,11.651215,11.651215)">
</g>
<g
   id="g1677"
   style="fill:none;stroke:#ffffff;stroke-width:15.82302433;stroke-miterlimit:4;stroke-dasharray:none;stroke-opacity:1"
   transform="matrix(0.94798565,0,0,0.94798565,11.651215,11.651215)">
</g>
<g
   id="g1679"
   style="fill:none;stroke:#ffffff;stroke-width:15.82302433;stroke-miterlimit:4;stroke-dasharray:none;stroke-opacity:1"
   transform="matrix(0.94798565,0,0,0.94798565,11.651215,11.651215)">
</g>
<g
   id="g1681"
   style="fill:none;stroke:#ffffff;stroke-width:15.82302433;stroke-miterlimit:4;stroke-dasharray:none;stroke-opacity:1"
   transform="matrix(0.94798565,0,0,0.94798565,11.651215,11.651215)">
</g>
<g
   id="g1683"
   style="fill:none;stroke:#ffffff;stroke-width:15.82302433;stroke-miterlimit:4;stroke-dasharray:none;stroke-opacity:1"
   transform="matrix(0.94798565,0,0,0.94798565,11.651215,11.651215)">
</g>
<g
   id="g1685"
   style="fill:none;stroke:#ffffff;stroke-width:15.82302433;stroke-miterlimit:4;stroke-dasharray:none;stroke-opacity:1"
   transform="matrix(0.94798565,0,0,0.94798565,11.651215,11.651215)">
</g>
<g
   id="g1687"
   style="fill:none;stroke:#ffffff;stroke-width:15.82302433;stroke-miterlimit:4;stroke-dasharray:none;stroke-opacity:1"
   transform="matrix(0.94798565,0,0,0.94798565,11.651215,11.651215)">
</g>
</svg>
