<?xml version="1.0" encoding="UTF-8" standalone="no"?>
<svg
   xmlns:dc="http://purl.org/dc/elements/1.1/"
   xmlns:cc="http://creativecommons.org/ns#"
   xmlns:rdf="http://www.w3.org/1999/02/22-rdf-syntax-ns#"
   xmlns:svg="http://www.w3.org/2000/svg"
   xmlns="http://www.w3.org/2000/svg"
   xmlns:sodipodi="http://sodipodi.sourceforge.net/DTD/sodipodi-0.dtd"
   xmlns:inkscape="http://www.inkscape.org/namespaces/inkscape"
   width="64"
   height="64"
   viewBox="0 0 16.933333 16.933333"
   version="1.1"
   id="svg8"
   inkscape:version="1.0.1 (c497b03c, 2020-09-10)"
   sodipodi:docname="placeholder.svg">
  <defs
     id="defs2" />
  <sodipodi:namedview
     id="base"
     pagecolor="#ffffff"
     bordercolor="#666666"
     borderopacity="1.0"
     inkscape:pageopacity="0.0"
     inkscape:pageshadow="2"
     inkscape:zoom="6.2266102"
     inkscape:cx="30.565398"
     inkscape:cy="31.220813"
     inkscape:document-units="mm"
     inkscape:current-layer="layer1"
     inkscape:document-rotation="0"
     showgrid="false"
     units="px"
     inkscape:window-width="1225"
     inkscape:window-height="755"
     inkscape:window-x="55"
     inkscape:window-y="23"
     inkscape:window-maximized="0" />
  <metadata
     id="metadata5">
    <rdf:RDF>
      <cc:Work
         rdf:about="">
        <dc:format>image/svg+xml</dc:format>
        <dc:type
           rdf:resource="http://purl.org/dc/dcmitype/StillImage" />
        <dc:title></dc:title>
      </cc:Work>
    </rdf:RDF>
  </metadata>
  <g
     inkscape:label="Layer 1"
     inkscape:groupmode="layer"
     id="layer1">
    <circle
       style="fill:none;stroke:#ffffff;stroke-width:1;stroke-linecap:round;paint-order:markers fill stroke;stroke-opacity:1"
       id="path2792"
       cx="8.4984713"
       cy="8.4559784"
       r="7.7761011" />
    <path
       style="fill:none;stroke:#ffffff;stroke-width:0.791711;stroke-linecap:round;stroke-opacity:1;paint-order:markers fill stroke"
       id="path2794"
       d="M 3.2415939,9.676152 C 3.4451276,9.4733196 3.6294025,9.2540758 3.7846465,9.0174985 3.8277495,8.9518135 3.8666573,8.8838681 3.9076628,8.8170529 4.1684628,8.3393294 4.3389951,7.8255129 4.5345329,7.3233413 4.7264865,6.8226566 4.9424505,6.3297535 5.1957584,5.8527274 5.329643,5.6169137 5.4716209,5.3820249 5.6612365,5.1795828 5.7776864,5.0552557 5.8052128,5.0408101 5.9380276,4.9345429 5.8099717,4.9769857 6.3583092,4.6895241 6.2471779,4.7412961 6.1629149,4.7805511 6.0801551,4.823329 6.0025676,4.872907 5.9568596,4.902115 6.1007666,4.824649 6.1510451,4.802725 6.2694142,4.751108 6.3012585,4.743641 6.4208493,4.704532 6.5972153,4.658107 6.8001539,4.615127 6.9784165,4.681882 c 0.030379,0.011376 0.057223,0.029526 0.085834,0.044288 0.024781,0.022377 0.052627,0.042196 0.074342,0.06713 0.1322836,0.1518813 0.1575418,0.3620252 0.165398,0.5486962 C 7.2785699,5.6430929 7.1225091,5.9187362 6.9408509,6.16512 6.8874452,6.2375546 6.827562,6.3057506 6.7709176,6.376066 6.4554697,6.7333547 6.1484395,7.0999259 5.7989495,7.4302394 5.6951514,7.5283422 5.5904618,7.6261692 5.4771546,7.7148928 5.3594827,7.8070338 5.2305432,7.8862133 5.1072375,7.9718736 4.9718437,8.0442693 4.8424594,8.1271797 4.701056,8.1890612 4.679267,8.1985912 4.652846,8.1766132 4.629214,8.1810712 4.3500644,8.2336782 4.289054,8.3096226 4.011867,8.2681962 3.8184186,8.2392811 3.7770937,8.1774237 3.6405549,8.0682948 3.6186211,8.0166314 3.5709521,7.9686687 3.5747536,7.9133046 3.5839696,7.7790894 3.7877381,7.655947 3.8990526,7.6343595 c 0.029688,-0.00576 0.012557,0.073944 0.042897,0.073952 0.1771484,4.14e-5 0.3490175,-0.058368 0.5253702,-0.073819 0.2101665,-0.018413 0.4217554,-0.018427 0.6326331,-0.027641 1.1132222,-0.018881 2.2213748,0.094826 3.3322686,0.1347657 0.1772478,0.00637 0.3546711,0.00755 0.5320066,0.011322 0.4415687,-0.00293 0.8854376,0.00225 1.3259689,-0.032993 0.09865,-0.00789 0.203443,9.65e-4 0.294717,-0.034412 0.208384,-0.080776 0.420197,-0.1707737 0.589824,-0.3084647 0.07326,-0.05947 0.06793,-0.1686791 0.101895,-0.2530187 0.0216,-0.411425 -0.08791,-0.8105034 -0.206848,-1.2031413 C 11.041405,5.8272182 10.896367,5.3711166 10.829842,5.258357 10.801718,5.210686 10.748266,5.18008 10.707479,5.1409416 10.509119,5.2813294 10.268428,5.3819895 10.112399,5.562105 9.9813525,5.7133835 9.9513241,5.9196844 9.8762782,6.1004634 9.7694924,6.3576995 9.6678844,6.616748 9.5669718,6.8759885 9.4450206,7.1892775 9.3277498,7.5040964 9.2077029,7.8180092 9.184114,7.8796918 8.5164802,9.6206741 8.4791854,9.7179295 8.4142678,9.8833707 8.030118,10.887551 7.9103086,11.108724 7.8416915,11.235394 7.7627995,11.362292 7.6523328,11.4607 7.5950623,11.51172 7.7743483,11.324929 7.7436236,11.257214 7.6821932,11.121825 7.5066381,11.057647 7.4149975,10.937625 7.2591533,10.733516 7.1421764,10.506435 7.005766,10.290841 6.5822594,9.5020284 6.2582982,8.6730101 5.9608354,7.8382032 5.9221998,7.7297751 5.6456099,6.9549789 5.6292111,6.7578951 5.6242456,6.6982028 5.6728338,6.6451068 5.6946459,6.5887125 5.6572154,6.7273959 5.5207638,6.8736037 5.5823537,7.0047627 c 0.097742,0.2081472 0.3597614,0.3099797 0.5301046,0.4737044 0.2256036,0.2168383 0.4434962,0.4405265 0.6571402,0.667413 0.611082,0.6489596 1.1757417,1.3325945 1.7415365,2.0148819 0.1528255,0.09407 0.2766211,0.257656 0.4584762,0.2822 0.1838521,0.02481 0.3732266,-0.06198 0.533699,-0.14829 0.6933678,-0.3729008 0.7756278,-0.562552 1.2559158,-1.0594814 0.100898,-0.1043944 0.432169,-0.223325 0.3104,-0.3067143 -0.128803,-0.088207 -0.26812,0.1625743 -0.402181,0.2438615 -0.04556,0.1021391 -0.08891,0.2051351 -0.136659,0.3064177 -0.06478,0.1374055 -0.147241,0.268128 -0.20091,0.4095417 -0.02993,0.078876 -0.08421,0.1700468 -0.04815,0.2467198 0.02501,0.05318 0.124951,0.06231 0.183413,0.04091 0.682691,-0.2498083 0.65876,-0.134181 0.622092,-0.4519896 -0.489573,0.072731 -0.338398,0.030358 -0.869677,0.209959 -0.07515,0.025404 -0.164279,0.034751 -0.2208422,0.086938 -0.088147,0.08133 -0.2704509,0.204873 -0.1933449,0.295224 0.099195,0.116233 0.3206951,0.01872 0.4795021,0.04009 0.186284,0.02505 0.369642,0.06599 0.554462,0.09898 0.37633,0.06589 0.745989,0.159053 1.120081,0.234027 0.26922,0.05395 0.54432,0.122564 0.824201,0.08344 0.378109,-0.05286 0.643776,-0.306965 0.944243,-0.502117 0.06988,-0.103892 0.149405,-0.202778 0.209637,-0.3116753 0.267644,-0.4838872 0.36363,-1.0341858 0.395235,-1.5705457 0.009,-0.1529529 0.0078,-0.3062712 0.01175,-0.459407 -0.01123,-0.6184439 -0.0045,-0.3151382 -0.01985,-0.9099218 0,0 -0.324876,0.1539 -0.324876,0.1539 v 0 c 0.03224,0.5880077 0.0224,0.286823 0.02759,0.9036067 -0.0078,0.154171 -0.011,0.308594 -0.02331,0.462513 -0.04232,0.5286681 -0.140785,1.0934656 -0.423013,1.5639991 -0.06509,0.108522 -0.151522,0.204953 -0.227283,0.307429 0.160012,0.06412 0.206308,0.06294 -0.251999,0.148319 -0.289796,0.05398 -0.580212,1.3e-4 -0.864011,-0.04743 -0.182041,-0.0305 -0.362858,-0.06709 -0.543336,-0.104655 -0.193275,-0.04024 -0.38519,-0.08582 -0.577785,-0.128737 -0.175226,-0.04006 -0.350031,-0.08171 -0.525677,-0.120177 -0.133087,-0.02914 -0.264807,-0.09886 -0.400462,-0.08263 -0.188357,0.02253 -0.3457508,0.149667 -0.5295222,0.19389 -0.1002989,0.02413 0.1790228,-0.09802 0.2755773,-0.132782 0.2327229,-0.08377 0.4768689,-0.133826 0.7185279,-0.1885303 0.01659,0.010031 0.03007,0.032433 0.04975,0.0301 0.05023,-0.00593 0.174168,-0.017622 0.140775,-0.052707 -0.03699,-0.038854 -0.125889,0.06267 -0.165831,0.026384 -0.05153,-0.04681 -0.04506,-0.1350221 -0.02394,-0.1987929 0.05,-0.1510265 0.367883,-0.64242 0.459407,-0.7886419 -0.133193,0.034556 -0.283981,0.033602 -0.39958,0.1036695 -0.101041,0.061238 -0.138082,0.1832886 -0.215308,0.269027 -0.15207,0.1688225 -0.315227,0.3289038 -0.472009,0.4940289 C 9.804733,10.064083 9.6736018,10.300945 9.2491918,10.275512 9.055972,10.263933 8.9007947,10.119745 8.7265962,10.041862 8.549193,9.8540588 8.3691778,9.6683234 8.1943867,9.4784526 7.7792626,9.0275157 7.3309103,8.5180863 6.9368955,8.0533423 6.7386919,7.8195597 6.5436257,7.58351 6.3505337,7.3461242 6.2062277,7.1687156 6.133896,6.9186903 5.9247586,6.8090299 5.7362754,6.7101997 5.4914517,6.7910553 5.2747983,6.7820671 c 0.084706,0.2856231 0.014268,0.069735 0.2241719,0.5485834 0.088801,0.2025776 0.1770785,0.4053539 0.2639625,0.6086354 0.3499582,0.8187923 0.6865286,1.642357 1.0278384,2.4642191 0.1052787,0.234635 0.1914122,0.477364 0.3158359,0.703906 0.07578,0.137974 0.1192988,0.346001 0.2818894,0.384389 0.4971214,0.117369 0.663726,-0.198065 0.7875758,-0.497442 0.078222,-0.189083 0.1321719,-0.385947 0.1977669,-0.579063 C 8.4602372,10.160935 8.5459803,9.9063861 8.6320508,9.6519322 8.7410319,9.3492039 8.8456936,9.045127 8.9589939,8.7437477 9.2057412,8.0874 9.4669538,7.4359627 9.757603,6.7948864 9.8808495,6.5230459 10.006137,6.2516432 10.147045,5.9871866 10.251913,5.7903701 10.436853,5.625219 10.494209,5.4124315 c 0.01499,-0.055606 -0.12068,-0.027753 -0.18102,-0.041629 0.05202,0.024702 0.119546,0.031966 0.156049,0.074105 0.09745,0.1124957 0.243917,0.5283337 0.278432,0.6366401 0.08457,0.2653738 0.160856,0.5622277 0.1702,0.8405918 0.0041,0.1224788 -0.01999,0.244381 -0.03,0.3665715 -0.04122,0.078073 -0.141259,0.1489304 -0.123651,0.2342187 0.0109,0.052779 0.215336,-0.062975 0.157535,-0.070102 -0.105165,-0.012966 -0.208258,0.038313 -0.31348,0.050876 C 10.155838,7.5577208 9.6972774,7.5622374 9.2420107,7.567607 9.0614668,7.5663203 8.8808932,7.5670039 8.7003793,7.5637186 7.5840929,7.5434064 6.4700217,7.4641506 5.3540387,7.4357253 5.1344895,7.4379008 4.4888996,7.4263841 4.2476659,7.4912371 3.9893492,7.5606838 3.7443433,7.6684931 3.5021624,7.7765548 3.3548209,7.8422989 3.1666768,7.9385177 3.17287,8.1211677 3.17496,8.1827217 3.228682,8.2330895 3.256588,8.2890503 3.4082325,8.4053412 3.4549402,8.4718045 3.667174,8.4997354 3.8737869,8.5269264 4.1472481,8.4714844 4.3315688,8.3984774 4.7911414,8.2164462 5.0458368,8.0662001 5.4480389,7.8468168 5.5726735,7.7592319 5.7028212,7.6779331 5.8219424,7.5840623 6.0358549,7.4154935 6.2555075,7.1915628 6.4434892,6.9989708 6.6908867,6.7455059 6.9319475,6.4864206 7.1630938,6.2202401 7.3881835,5.9431628 7.6455798,5.6242719 7.7153486,5.2748547 c 0.00889,-0.044503 0.0097,-0.090058 0.01455,-0.1350868 C 7.7158943,4.9005054 7.6728366,4.6531511 7.4757831,4.4805164 7.4447576,4.4627951 7.4158615,4.4414243 7.3827065,4.4273507 7.1993227,4.3495083 6.9834403,4.3865271 6.7980348,4.4337062 6.3319925,4.5824589 5.9020744,4.8204171 5.51055,5.0950489 5.4643255,5.1340672 5.4159438,5.1710217 5.3718764,5.2121041 5.1233351,5.4438106 4.9487426,5.7308721 4.7942132,6.0209705 4.5537856,6.5000691 4.3476786,6.9927643 4.1510183,7.4883686 3.9564573,7.9931035 3.7799153,8.5081836 3.5052462,8.9821625 3.4629509,9.0485807 3.422925,9.1162706 3.3783602,9.1814172 3.2078085,9.4307363 3.0041788,9.6616392 2.7651957,9.8579503 c 0,0 0.4763993,-0.1817968 0.4763993,-0.1817968 z" />
  </g>
</svg>
