<?xml version="1.0" encoding="UTF-8" standalone="no"?>
<svg
   xmlns:dc="http://purl.org/dc/elements/1.1/"
   xmlns:cc="http://creativecommons.org/ns#"
   xmlns:rdf="http://www.w3.org/1999/02/22-rdf-syntax-ns#"
   xmlns:svg="http://www.w3.org/2000/svg"
   xmlns="http://www.w3.org/2000/svg"
   xmlns:sodipodi="http://sodipodi.sourceforge.net/DTD/sodipodi-0.dtd"
   xmlns:inkscape="http://www.inkscape.org/namespaces/inkscape"
   width="600"
   height="100"
   viewBox="0 0 158.74997 26.458336"
   version="1.1"
   id="svg8"
   sodipodi:docname="banner.svg"
   inkscape:version="1.0.1 (3bc2e813f5, 2020-09-07)">
  <defs
     id="defs2" />
  <sodipodi:namedview
     id="base"
     pagecolor="#ffffff"
     bordercolor="#666666"
     borderopacity="1.0"
     inkscape:pageopacity="0.0"
     inkscape:pageshadow="2"
     inkscape:zoom="0.57946846"
     inkscape:cx="254.00683"
     inkscape:cy="63.682662"
     inkscape:document-units="mm"
     inkscape:current-layer="layer1"
     inkscape:document-rotation="0"
     showgrid="false"
     units="px"
     inkscape:window-width="954"
     inkscape:window-height="980"
     inkscape:window-x="960"
     inkscape:window-y="72"
     inkscape:window-maximized="1" />
  <metadata
     id="metadata5">
    <rdf:RDF>
      <cc:Work
         rdf:about="">
        <dc:format>image/svg+xml</dc:format>
        <dc:type
           rdf:resource="http://purl.org/dc/dcmitype/StillImage" />
        <dc:title />
      </cc:Work>
    </rdf:RDF>
  </metadata>
  <g
     inkscape:label="Layer 1"
     inkscape:groupmode="layer"
     id="layer1"
     style="opacity:1">
    <g
       aria-label="قول"
       id="text835"
       style="font-style:normal;font-weight:normal;font-size:20.349px;line-height:1.25;font-family:sans-serif;fill:#000000;fill-opacity:1;stroke:none;stroke-width:0.0763086"
       transform="translate(3.1749997)">
      <path
         d="M 40.864875,6.3860348 40.089864,7.8168239 38.480227,6.9623248 39.225429,5.5414717 Z M 38.579587,7.280278 37.824448,8.7210031 36.21481,7.8863761 36.950077,6.445651 Z m 2.603241,10.412965 h -6.14047 v -1.72887 h 5.295907 q 0,-0.884307 -0.208657,-1.659318 -0.516673,0.168913 -0.794882,0.238465 -0.457058,0.119232 -0.804819,0.119232 -0.725331,0 -1.182389,-0.367633 -0.526609,-0.417313 -0.526609,-1.20226 0,-1.381109 0.496801,-2.414457 0.556418,-1.15258 1.450662,-1.15258 1.212196,0 1.867974,1.897783 0.546482,1.569893 0.546482,3.686269 z m -1.619574,-5.166738 q -0.139104,-0.357698 -0.447121,-0.725331 -0.417314,-0.496802 -0.794883,-0.496802 -0.268273,0 -0.447122,0.228529 -0.168912,0.218593 -0.168912,0.52661 0,0.794883 0.874371,0.794883 0.228529,0 0.486866,-0.08942 0.258337,-0.08943 0.496801,-0.238465 z"
         style="font-style:normal;font-variant:normal;font-weight:normal;font-stretch:normal;font-size:20.349px;font-family:Ayuthaya;-inkscape-font-specification:Ayuthaya;stroke-width:0.0763086"
         id="path859" />
      <path
         d="m 35.747816,17.097081 q 0,1.639446 -1.212196,3.25902 -1.351301,1.808358 -3.119915,1.808358 -0.655779,0 -1.351301,-0.14904 -0.506738,-0.109297 -1.321493,-0.37757 -0.645842,-0.228528 -1.291684,-0.447121 l 0.168912,-0.347761 q 0.556418,0.129168 1.162516,0.268273 0.616035,0.14904 1.1029,0.14904 1.212197,0 2.295225,-0.616034 0.844563,-0.486866 1.689126,-1.410917 0.427249,-0.466994 1.212196,-1.520214 -1.341365,0 -2.007079,-0.427249 -0.755139,-0.486866 -0.755139,-1.599702 0,-1.023412 0.47693,-1.897783 0.556418,-1.013475 1.410917,-1.013475 0.864435,0 1.242004,1.003539 0.298081,0.784947 0.298081,2.185928 z m -0.62597,-1.083028 q -0.218593,-0.953859 -0.52661,-1.321492 -0.268273,-0.317954 -0.655778,-0.317954 -0.278209,0 -0.486866,0.188785 -0.198721,0.178849 -0.198721,0.457058 0,0.486865 0.437186,0.745202 0.437186,0.248401 1.430789,0.248401 z"
         style="font-style:normal;font-variant:normal;font-weight:normal;font-stretch:normal;font-size:20.349px;font-family:Ayuthaya;-inkscape-font-specification:Ayuthaya;stroke-width:0.0763086"
         id="path861" />
      <path
         d="m 26.964361,16.461175 q 0,1.589766 -0.745203,2.523753 -0.665714,0.824691 -1.957399,1.182388 -1.092964,0.298081 -2.772154,0.298081 -1.917655,0 -2.970874,-0.705458 -1.152581,-0.775011 -1.152581,-2.315097 0,-0.854499 0.248401,-1.77855 0.208657,-0.784947 0.635907,-1.718934 0.308017,-0.675651 0.834627,-1.62951 l 0.317953,0.188785 q -0.367634,0.665714 -0.616034,1.192324 -0.32789,0.705459 -0.486866,1.261876 -0.188785,0.675651 -0.188785,1.311557 0,1.222133 0.884307,1.848103 0.894244,0.62597 2.474073,0.62597 1.67919,0 3.109979,-0.57629 1.569894,-0.635906 1.569894,-1.520213 0,-0.963796 -0.308017,-3.268956 -0.238465,-1.768615 -0.586226,-3.9545423 L 24.927474,7.4988708 24.470416,7.2604059 q 0,-1.3314288 0.546482,-2.4243927 h 0.168913 q 0.03974,0.3775694 0.139104,0.566354 0.09936,0.1788487 0.327889,0.268273 0.308017,0.1291685 0.675651,0.3080171 0.268273,0.1291685 0.466993,0.2285288 0,0.6955225 -0.04968,1.0134757 -0.04968,0.3179531 -0.198721,0.8942432 L 25.980693,7.9360563 q 0.01987,0.2185928 0.288145,1.9971432 0.308018,2.0766315 0.457058,3.3683165 0.238465,2.066695 0.238465,3.159659 z"
         style="font-style:normal;font-variant:normal;font-weight:normal;font-stretch:normal;font-size:20.349px;font-family:Ayuthaya;-inkscape-font-specification:Ayuthaya;stroke-width:0.0763086"
         id="path863" />
    </g>
    <g
       aria-label="qaul"
       id="text839"
       style="font-style:normal;font-weight:normal;font-size:11.2889px;line-height:1.25;font-family:sans-serif;fill:#000000;fill-opacity:1;stroke:none;stroke-width:0.122698">
      <g
         id="g98"
         transform="translate(-8.5111605)">
        <path
           d="m 79.816625,18.721353 h 3.239915 l -0.835379,-0.970846 v -7.100718 l -1.02729,0.248356 c -0.4064,-0.09031 -0.72249,-0.135467 -1.275646,-0.135467 -2.05458,0 -2.980269,1.53529 -2.980269,2.991558 0,1.354669 0.722489,2.652892 2.201335,2.652892 0.711201,0 1.320801,-0.508 1.727202,-1.140179 v 2.483558 z m 1.049868,-3.826938 c -0.225778,0.169334 -0.440267,0.270934 -0.846668,0.270934 -0.959556,0 -1.73849,-0.677334 -1.73849,-2.438402 0,-0.677334 0.2032,-1.569158 1.196623,-1.569158 0.587023,0 1.049868,0.327378 1.388535,0.688623 z"
           style="font-style:normal;font-variant:normal;font-weight:normal;font-stretch:normal;font-size:11.2889px;font-family:'Bluu Next';-inkscape-font-specification:'Bluu Next';stroke-width:0.122698"
           id="path842" />
        <path
           d="m 86.484308,16.294239 h 2.201336 l -0.835379,-0.733778 h -0.01129 v -3.826938 l 0.248356,-0.970845 h -4.651027 v 1.806224 h 0.07902 c 0.575734,-0.857957 1.117601,-1.490135 2.020713,-1.490135 0.92569,0 0.948267,0.699912 0.948267,1.603024 -1.952979,0.688623 -3.318936,1.275646 -3.318936,2.427114 0,0.9144 0.575734,1.298223 1.354668,1.298223 0.745067,0 1.53529,-0.643467 1.964268,-1.061157 z m 0,-1.253068 c -0.282222,0.293512 -0.632178,0.474134 -0.982134,0.474134 -0.474134,0 -0.846667,-0.237067 -0.846667,-0.778934 0,-0.541867 0.05644,-1.02729 1.828801,-1.738491 z"
           style="font-style:normal;font-variant:normal;font-weight:normal;font-stretch:normal;font-size:11.2889px;font-family:'Bluu Next';-inkscape-font-specification:'Bluu Next';stroke-width:0.122698"
           id="path844" />
        <path
           d="m 91.160206,10.751389 h -2.201335 l 0.846667,0.982134 v 2.867381 c 0,1.061157 0.541868,1.806224 1.693335,1.806224 0.801512,0 1.320802,-0.383823 1.727202,-0.948268 v 0.903112 l 2.122313,-0.06773 -0.767645,-0.92569 v -4.61716 h -2.190046 l 0.835378,0.982134 v 3.375382 c -0.293511,0.338667 -0.688623,0.530578 -1.072445,0.530578 -0.869246,0 -0.993424,-0.553156 -0.993424,-1.422402 z"
           style="font-style:normal;font-variant:normal;font-weight:normal;font-stretch:normal;font-size:11.2889px;font-family:'Bluu Next';-inkscape-font-specification:'Bluu Next';stroke-width:0.122698"
           id="path846" />
        <path
           d="m 96.644319,15.323394 -0.835379,0.970845 h 3.025425 L 97.998987,15.323394 V 8.2791198 l -2.122314,0.6434673 0.767646,0.8692453 v 0.4289786 l -0.767646,0.237067 0.767646,0.869245 z"
           style="font-style:normal;font-variant:normal;font-weight:normal;font-stretch:normal;font-size:11.2889px;font-family:'Bluu Next';-inkscape-font-specification:'Bluu Next';stroke-width:0.122698"
           id="path848" />
      </g>
    </g>
  </g>
</svg>
