<?xml version="1.0" encoding="UTF-8" standalone="no"?>
<!DOCTYPE svg PUBLIC "-//W3C//DTD SVG 1.1//EN" "http://www.w3.org/Graphics/SVG/1.1/DTD/svg11.dtd">
<svg width="100%" height="100%" viewBox="0 0 600 100" version="1.1" xmlns="http://www.w3.org/2000/svg" xmlns:xlink="http://www.w3.org/1999/xlink" xml:space="preserve" xmlns:serif="http://www.serif.com/" style="fill-rule:evenodd;clip-rule:evenodd;stroke-linejoin:round;stroke-miterlimit:2;">
    <g id="Ebene1" transform="matrix(0.84858,0,0,1.11703,17.1251,-6.05572)">
        <g transform="matrix(1,0,0,1,-10.8161,-0.0120401)">
            <path d="M197.659,23.662C197.659,17.017 190.557,11.622 181.81,11.622L66.016,11.622C57.269,11.622 50.167,17.017 50.167,23.662L50.167,79.849C50.167,86.495 57.269,91.89 66.016,91.89L181.81,91.89C190.557,91.89 197.659,86.495 197.659,79.849L197.659,23.662Z" style="fill:rgb(0,14,115);"/>
        </g>
        <g transform="matrix(1.16516,0.511037,-0.661929,0.870961,1.36407,-53.1266)">
            <path d="M137.073,-6.08L170.457,20.042L176.612,62.792L110.7,101.432L75.711,75.467L71.539,32.378L137.073,-6.08Z" style="fill:rgb(0,6,50);fill-opacity:0.78;"/>
        </g>
        <g transform="matrix(1.16429,0,0,1.587,-47.6446,-43.953)">
            <path d="M138.12,34.951L201.374,47.609L201.374,72.925L138.12,85.583L74.866,72.925L74.866,47.609L138.12,34.951Z" style="fill:rgb(52,76,255);fill-opacity:0.42;"/>
        </g>
        <g transform="matrix(1.54535,0,0,0.977457,-58.074,-2.2451)">
            <path d="M111.041,14.274L146.371,34.671L146.371,75.467L111.041,95.864L75.711,75.467L75.711,34.671L111.041,14.274Z" style="fill:rgb(52,76,255);fill-opacity:0.42;"/>
        </g>
        <g id="text835" transform="matrix(0.998535,0,0,0.758561,2.61521,13.0386)">
            <path id="path859" d="M154.45,24.136L151.521,29.544L145.437,26.314L148.254,20.944L154.45,24.136ZM145.813,27.516L142.959,32.961L136.875,29.807L139.654,24.362L145.813,27.516ZM155.652,66.872L132.444,66.872L132.444,60.338L152.46,60.338C152.46,58.11 152.197,56.019 151.671,54.066C150.369,54.492 149.368,54.792 148.667,54.968C147.515,55.268 146.501,55.418 145.625,55.418C143.797,55.418 142.308,54.955 141.156,54.029C139.829,52.977 139.166,51.463 139.166,49.485C139.166,46.005 139.792,42.963 141.043,40.359C142.445,37.455 144.273,36.003 146.526,36.003C149.581,36.003 151.934,38.394 153.586,43.176C154.963,47.131 155.652,51.776 155.652,57.108L155.652,66.872ZM149.53,47.344C149.18,46.443 148.617,45.529 147.841,44.603C146.789,43.351 145.788,42.725 144.836,42.725C144.16,42.725 143.597,43.013 143.146,43.589C142.721,44.14 142.508,44.803 142.508,45.579C142.508,47.582 143.61,48.584 145.813,48.584C146.389,48.584 147.002,48.471 147.653,48.246C148.304,48.02 148.93,47.72 149.53,47.344L149.53,47.344Z" style="fill:rgb(142,154,234);fill-rule:nonzero;"/>
            <path id="path861" d="M135.11,64.619C135.11,68.75 133.583,72.856 130.528,76.936C127.124,81.493 123.193,83.771 118.737,83.771C117.084,83.771 115.382,83.583 113.629,83.208C112.352,82.932 110.688,82.457 108.635,81.781C107.007,81.205 105.38,80.642 103.753,80.091L104.391,78.777C105.793,79.102 107.258,79.44 108.785,79.791C110.337,80.166 111.727,80.354 112.953,80.354C116.008,80.354 118.899,79.578 121.628,78.025C123.756,76.799 125.884,75.021 128.012,72.693C129.089,71.516 130.616,69.601 132.594,66.947C129.214,66.947 126.685,66.409 125.008,65.332C123.105,64.106 122.154,62.09 122.154,59.286C122.154,56.708 122.755,54.317 123.957,52.114C125.359,49.56 127.136,48.283 129.289,48.283C131.467,48.283 133.032,49.547 133.983,52.076C134.734,54.054 135.11,56.808 135.11,60.338L135.11,64.619ZM132.744,60.526C132.193,58.122 131.53,56.457 130.754,55.531C130.078,54.73 129.252,54.329 128.275,54.329C127.574,54.329 126.961,54.567 126.435,55.043C125.934,55.493 125.684,56.069 125.684,56.77C125.684,57.997 126.235,58.936 127.336,59.587C128.438,60.213 130.24,60.526 132.744,60.526Z" style="fill:rgb(142,154,234);fill-rule:nonzero;"/>
            <path id="path863" d="M101.913,62.215C101.913,66.221 100.974,69.401 99.096,71.754C97.419,73.832 94.953,75.322 91.698,76.223C88.944,76.974 85.452,77.35 81.221,77.35C76.389,77.35 72.646,76.461 69.992,74.683C67.088,72.73 65.636,69.814 65.636,65.933C65.636,63.78 65.949,61.539 66.575,59.211C67.101,57.233 67.902,55.068 68.978,52.714C69.754,51.012 70.806,48.959 72.133,46.556L73.334,47.269C72.408,48.947 71.632,50.449 71.006,51.776C70.18,53.553 69.567,55.143 69.166,56.545C68.69,58.247 68.452,59.9 68.452,61.502C68.452,64.581 69.567,66.91 71.795,68.487C74.048,70.064 77.165,70.853 81.146,70.853C85.377,70.853 89.295,70.127 92.9,68.675C96.855,67.072 98.833,65.157 98.833,62.929C98.833,60.501 98.445,56.382 97.669,50.574C97.068,46.118 96.33,41.135 95.453,35.628L94.214,28.342L92.487,27.441C92.487,24.086 93.175,21.032 94.552,18.278L95.191,18.278C95.291,19.229 95.466,19.943 95.716,20.418C95.967,20.869 96.38,21.207 96.956,21.432C97.732,21.758 98.583,22.146 99.509,22.596C100.185,22.922 100.773,23.21 101.274,23.46C101.274,25.213 101.212,26.49 101.086,27.291C100.961,28.092 100.711,29.218 100.335,30.671L98.195,29.995C98.245,30.545 98.608,33.061 99.284,37.543C100.06,42.775 100.636,47.019 101.011,50.273C101.612,55.481 101.913,59.462 101.913,62.215Z" style="fill:rgb(142,154,234);fill-rule:nonzero;"/>
        </g>
    </g>
    <g id="Layer-1" serif:id="Layer 1" transform="matrix(1,0,0,1,-44.2658,0.737764)">
        <g id="text839">
            <path id="path842" d="M253.669,70.758L265.915,70.758L262.757,67.089L262.757,40.251L258.875,41.19C257.339,40.849 256.144,40.678 254.053,40.678C246.288,40.678 242.789,46.481 242.789,51.985C242.789,57.105 245.52,62.011 251.109,62.011C253.797,62.011 256.101,60.091 257.637,57.702L257.637,67.089L253.669,70.758ZM257.637,56.294C256.784,56.934 255.973,57.318 254.437,57.318C250.81,57.318 247.866,54.758 247.866,48.102C247.866,45.542 248.634,42.171 252.389,42.171C254.608,42.171 256.357,43.409 257.637,44.774L257.637,56.294Z" style="fill:rgb(0,14,115);fill-rule:nonzero;"/>
            <path id="path844" d="M278.87,61.585L287.19,61.585L284.033,58.811L283.99,58.811L283.99,44.347L284.929,40.678L267.35,40.678L267.35,47.505L267.648,47.505C269.825,44.262 271.873,41.873 275.286,41.873C278.785,41.873 278.87,44.518 278.87,47.931C271.489,50.534 266.326,52.753 266.326,57.105C266.326,60.561 268.502,62.011 271.446,62.011C274.262,62.011 277.249,59.579 278.87,58.001L278.87,61.585ZM278.87,56.849C277.803,57.958 276.481,58.641 275.158,58.641C273.366,58.641 271.958,57.745 271.958,55.697C271.958,53.649 272.171,51.814 278.87,49.126L278.87,56.849Z" style="fill:rgb(0,14,115);fill-rule:nonzero;"/>
            <path id="path846" d="M296.543,40.635L288.223,40.635L291.423,44.347L291.423,55.185C291.423,59.195 293.471,62.011 297.823,62.011C300.852,62.011 302.815,60.561 304.351,58.427L304.351,61.841L312.372,61.585L309.471,58.086L309.471,40.635L301.193,40.635L304.351,44.347L304.351,57.105C303.241,58.385 301.748,59.11 300.297,59.11C297.012,59.11 296.543,57.019 296.543,53.734L296.543,40.635Z" style="fill:rgb(0,14,115);fill-rule:nonzero;"/>
            <path id="path848" d="M317.27,57.915L314.113,61.585L325.547,61.585L322.39,57.915L322.39,31.291L314.369,33.723L317.27,37.008L317.27,38.63L314.369,39.526L317.27,42.811L317.27,57.915Z" style="fill:rgb(0,14,115);fill-rule:nonzero;"/>
            <path id="path850" d="M326.639,58.769L330.309,62.694L333.935,58.769L330.309,54.801L326.639,58.769Z" style="fill:rgb(0,14,115);fill-rule:nonzero;"/>
            <path id="path852" d="M360.075,61.585L356.832,57.915L356.832,46.993C356.832,42.982 354.784,40.166 350.432,40.166C347.872,40.166 345.099,41.489 343.392,44.134L343.392,40.251L335.371,43.11L338.272,46.395L338.272,57.915L335.029,61.585L346.464,61.585L343.392,57.915L343.392,45.585C344.757,43.75 346.379,43.067 347.957,43.067C351.243,43.067 351.712,45.158 351.712,48.443L351.712,57.915L348.64,61.585L360.075,61.585Z" style="fill:rgb(0,14,115);fill-rule:nonzero;"/>
            <path id="path854" d="M380.595,49.51L380.638,49.51L380.595,49.424C380.553,43.664 377.438,40.251 372.361,40.251C365.406,40.251 361.993,46.566 361.993,52.07C361.993,57.19 365.15,62.182 370.739,62.182C375.817,62.182 378.846,58.257 380.382,54.374L379.742,54.118C379.102,55.91 376.542,57.361 373.641,57.361C370.313,57.361 367.369,55.057 366.899,49.553L380.595,49.553L380.595,49.51ZM375.091,48.273L366.814,48.273L366.814,47.974C366.814,45.414 368.137,41.531 371.379,41.531C373.257,41.531 375.091,43.323 375.091,47.889L375.091,48.273Z" style="fill:rgb(0,14,115);fill-rule:nonzero;"/>
            <path id="path856" d="M390.289,34.619L382.353,40.678L385.169,43.366L385.169,55.526C385.169,60.39 387.686,62.097 390.63,62.097C394.086,62.097 396.39,60.347 398.438,56.891L397.926,56.209C396.987,58.043 395.025,58.683 393.745,58.683C391.227,58.683 390.289,57.574 390.289,53.478L390.289,42.982L397.542,42.982L398.481,40.678L390.289,40.678L390.289,34.619Z" style="fill:rgb(0,14,115);fill-rule:nonzero;"/>
        </g>
    </g>
</svg>
